<?xml version="1.0" encoding="UTF-8"?>
<svg width="88px" height="88px" viewBox="0 0 88 88" version="1.1" xmlns="http://www.w3.org/2000/svg" xmlns:xlink="http://www.w3.org/1999/xlink">
    <!-- Generator: Sketch 59 (86127) - https://sketch.com -->
    <title>3.launch</title>
    <desc>Created with Sketch.</desc>
    <g id="3.launch" stroke="none" stroke-width="1" fill="none" fill-rule="evenodd">
        <g id="startup-(1)" transform="translate(7.000000, 7.000000)" fill="#5158FA" fill-rule="nonzero">
            <path d="M72.2879949,17.8593107 L64.2239954,17.8593107 C63.4288275,17.8593107 62.7839955,18.5041427 62.7839955,19.2993106 L62.7839955,70.845979 L60.4799957,70.845979 L60.4799957,40.8810211 C60.4799957,40.0858531 59.8351637,39.4410212 59.0399958,39.4410212 L50.9759964,39.4410212 C50.1808284,39.4410212 49.5359965,40.0858531 49.5359965,40.8810211 L49.5359965,70.845979 L47.2319966,70.845979 L47.2319966,52.6681403 C47.2319966,51.8729723 46.5871647,51.2281404 45.7919967,51.2281404 L37.7279973,51.2281404 C36.9328294,51.2281404 36.2879974,51.8729723 36.2879974,52.6681403 L36.2879974,70.845835 L33.9900456,70.845835 L33.9900456,61.5667636 C33.9900456,60.7715957 33.3452136,60.1267637 32.5500457,60.1267637 L24.4860463,60.1267637 C23.6908783,60.1267637 23.0460464,60.7715957 23.0460464,61.5667636 L23.0460464,70.845835 L1.4399999,70.845835 C0.644831954,70.845835 0,71.4906669 0,72.2858349 C0,73.0810028 0.644831954,73.7258348 1.4399999,73.7258348 L72.2879949,73.7258348 C73.0831628,73.7258348 73.7279948,73.0810028 73.7279948,72.2858349 L73.7279948,19.2993106 C73.7279948,18.5039987 73.0831628,17.8593107 72.2879949,17.8593107 Z M31.1100458,70.845979 L25.9260462,70.845979 L25.9260462,63.0069075 L31.1100458,63.0069075 L31.1100458,70.845979 Z M44.3519968,70.845835 L39.1679972,70.845835 L39.1679972,54.1081401 L44.3519968,54.1081401 L44.3519968,70.845835 Z M57.5999959,70.845979 L52.4159963,70.845979 L52.4159963,42.321021 L57.5999959,42.321021 L57.5999959,70.845979 Z M70.847995,70.845979 L65.6639953,70.845979 L65.6639953,70.845979 L65.6639953,20.7393105 L70.847995,20.7393105 L70.847995,70.845979 Z" id="Shape"></path>
            <path d="M54.8830041,1.51502389 C54.8013561,0.861263939 54.2862681,0.346319975 53.6325082,0.264671981 C48.4521086,-0.382319973 43.1042369,0.171647988 38.1666213,1.86623987 C33.2288616,3.56068775 28.667662,6.40756754 24.9762222,10.0988633 L23.2473583,11.8277272 C21.4439025,10.9347832 19.4052946,10.5626872 17.3939028,10.7791192 C14.9908309,11.0370232 12.7261431,12.1203351 11.0170072,13.829471 L4.75646366,20.0900146 C4.44844768,20.3980305 4.29652769,20.8288785 4.34303969,21.2620305 C4.38955169,21.6950385 4.62959967,22.0838384 4.99593564,22.3194224 L11.0913112,26.2392461 L12.5539191,27.701854 L8.59737539,37.7125893 C8.3921754,38.2315653 8.50535939,38.8222532 8.88782337,39.2286212 C9.27028734,39.6349892 9.8534873,39.7835972 10.3834073,39.6107972 L11.2056472,39.3423812 L5.70729559,47.4672926 C5.32036762,48.0391166 5.39366362,48.8050525 5.88225558,49.2930685 C6.16060756,49.5712765 6.52910354,49.7144125 6.90033551,49.7144125 C7.18055949,49.7144125 7.46236747,49.6329085 7.70817545,49.4661565 L15.8192629,43.9652129 L15.5530069,44.7806848 C15.3799189,45.3111808 15.5288149,45.8938047 15.9351829,46.2762687 C16.3415508,46.6587327 16.9325268,46.7717727 17.4512148,46.5667167 L27.462094,42.610317 L28.9110219,44.0592449 L32.8308457,50.1544764 C33.0665736,50.5208124 33.4552296,50.7608604 33.8883816,50.8072284 C33.9396456,50.8128444 33.9910536,50.8155804 34.0421736,50.8155804 C34.4219015,50.8155804 34.7888135,50.6652444 35.0602535,50.3938044 L41.3207971,44.1332609 C43.0297889,42.424125 44.1132449,40.1594371 44.3711488,37.7563653 C44.5871488,35.7448295 44.2153409,33.7062216 43.3225409,31.9029097 L45.0492448,30.1762059 C48.7412605,26.4840461 51.5882843,21.9222704 53.2828762,16.9835028 C54.9773241,12.0448791 55.530572,6.69599952 54.8830041,1.51502389 Z M11.8028152,23.2725583 L8.05622343,20.8632945 L13.0535991,15.8660629 C15.1663669,13.753151 18.3071507,13.0881591 21.0507825,14.024447 L11.8028152,23.2725583 Z M19.2414226,42.762525 L19.8630706,40.8579811 C20.0540146,40.2729091 19.8519826,39.6309572 19.3600786,39.2605892 C18.8683187,38.8906532 18.1956947,38.8736612 17.6857907,39.2194052 L12.2896791,42.8790209 L15.9455509,37.4768613 C16.2904308,36.9672454 16.2732948,36.2947654 15.9030709,35.8032935 C15.5327029,35.3116775 14.8907509,35.1102215 14.306111,35.3008775 L12.4014231,35.9225254 L14.7732469,29.9211819 L19.9902226,35.1380135 C19.9941106,35.1420455 19.9982866,35.1463655 20.0023186,35.1503975 L25.2424782,40.3905571 L19.2414226,42.762525 Z M39.2844932,42.096813 L34.2872616,47.0941886 L31.8779977,43.3475969 L41.1261091,34.0994856 C42.062253,36.8429734 41.3972611,39.9840452 39.2844932,42.096813 Z M43.0127969,28.139614 L40.5148291,30.6375818 C40.5146851,30.6375818 40.5146851,30.6377258 40.5146851,30.6377258 L34.7084615,36.4439494 L25.3717902,27.1072781 C24.8093262,26.5451021 23.8978063,26.5451021 23.3351983,27.1072781 C22.7728784,27.669598 22.7728784,28.581406 23.3351983,29.1438699 L32.6718697,38.4805413 L30.0386859,41.1137251 L28.9081419,39.9831812 C28.8571659,39.9239972 14.036687,25.1117262 14.036687,25.1117262 L24.5126863,14.635727 C24.5131183,14.635295 24.5134063,14.634863 24.5138383,14.634431 L27.0129581,12.1354551 C33.6893736,5.45903961 42.792333,2.16489585 52.1465723,3.00153579 C52.9845082,12.3557751 49.6903645,21.4619025 43.0127969,28.139614 Z" id="Shape"></path>
            <path d="M43.0090529,17.8054547 C42.216909,17.7842867 41.554509,18.4161587 41.536077,19.2113266 L41.534925,19.2434386 C41.504109,20.0383186 42.123309,20.7073425 42.9179009,20.7381585 C42.9370529,20.7390225 42.9559169,20.7393105 42.9747809,20.7393105 C43.7443169,20.7393105 44.3826688,20.1307666 44.4126208,19.3551826 L44.4152128,19.2784306 C44.4337888,18.4834067 43.8042209,17.8237427 43.0090529,17.8054547 Z" id="Path"></path>
            <path d="M39.9487652,22.8800144 C37.8326853,24.9962382 34.3892136,24.9963822 32.2729897,22.8800144 C30.1567659,20.7639345 30.1567659,17.3204628 32.2729897,15.2042389 C34.3890696,13.0877271 37.8325413,13.0880151 39.9487652,15.2042389 C40.5112291,15.7664149 41.4227491,15.7664149 41.985357,15.2042389 C42.547677,14.641919 42.547677,13.730111 41.985357,13.1676471 C38.7460772,9.92836729 33.4755336,9.92865529 30.2365418,13.1676471 C26.9974061,16.4067828 26.9974061,21.6773265 30.2365418,24.9164622 C31.8562537,26.5361741 33.9835656,27.3458861 36.1110214,27.3458861 C38.2383333,27.3458861 40.3657891,26.5361741 41.985357,24.9166062 C42.547677,24.3542863 42.547677,23.4424783 41.985357,22.8800144 C41.4228931,22.3178384 40.5113731,22.3178384 39.9487652,22.8800144 Z" id="Path"></path>
            <path d="M21.7164945,23.4527023 C21.4487985,23.1847183 21.0772785,23.0307824 20.6985585,23.0307824 C20.3196946,23.0307824 19.9483186,23.1847183 19.6804786,23.4527023 C19.4126386,23.7206863 19.2585586,24.0919183 19.2585586,24.4707823 C19.2585586,24.8495022 19.4124946,25.2210222 19.6804786,25.4887182 C19.9483186,25.7565582 20.3196946,25.9107822 20.6985585,25.9107822 C21.0772785,25.9107822 21.4487985,25.7567022 21.7164945,25.4887182 C21.9843344,25.2210222 22.1385584,24.8495022 22.1385584,24.4707823 C22.1385584,24.0919183 21.9844784,23.7205423 21.7164945,23.4527023 Z" id="Path"></path>
        </g>
    </g>
</svg>