<?xml version="1.0" encoding="UTF-8"?>
<svg width="88px" height="88px" viewBox="0 0 88 88" version="1.1" xmlns="http://www.w3.org/2000/svg" xmlns:xlink="http://www.w3.org/1999/xlink">
    <!-- Generator: Sketch 59 (86127) - https://sketch.com -->
    <title>4.results</title>
    <desc>Created with Sketch.</desc>
    <g id="4.results" stroke="none" stroke-width="1" fill="none" fill-rule="evenodd">
        <g id="report-(3)" transform="translate(7.000000, 7.000000)" fill="#5158FA" fill-rule="nonzero">
            <path d="M17.4994548,19.9569586 L38.6906372,19.9569586 C40.0870051,19.9569586 40.0870051,17.7969587 38.6906372,17.7969587 L17.4994548,17.7969587 C16.1030869,17.7969587 16.1030869,19.9569586 17.4994548,19.9569586 Z" id="Path"></path>
            <path d="M17.4994548,27.880558 L33.7946376,27.880558 C35.1910055,27.880558 35.1910055,25.7205582 33.7946376,25.7205582 L17.4994548,25.7205582 C16.1030869,25.7205582 16.1030869,27.880558 17.4994548,27.880558 Z" id="Path"></path>
            <path d="M17.4994548,35.8041575 L31.4906378,35.8041575 C32.8870057,35.8041575 32.8870057,33.6441576 31.4906378,33.6441576 L17.4994548,33.6441576 C16.1030869,33.6441576 16.1030869,35.8041575 17.4994548,35.8041575 Z" id="Path"></path>
            <path d="M37.3979493,62.2631476 L36.6824134,62.2631476 L36.6824134,51.7080923 C36.6824134,51.1116444 36.1990054,50.6280924 35.6024135,50.6280924 L31.2683018,50.6280924 L31.2683018,46.8210207 C31.2683018,46.2245727 30.7848938,45.7410207 30.1883019,45.7410207 L24.7872942,45.7410207 C24.1907023,45.7410207 23.7072943,46.2245727 23.7072943,46.8210207 L23.7072943,53.3927482 L19.3816786,53.3927482 C18.7850867,53.3927482 18.3016787,53.8763002 18.3016787,54.4727481 L18.3016787,62.2631476 L17.5861427,62.2631476 C16.9895508,62.2631476 16.5061428,62.7466995 16.5061428,63.3431475 C16.5061428,63.9395954 16.9895508,64.4231474 17.5861427,64.4231474 L37.3978053,64.4231474 C37.9943973,64.4231474 38.4778053,63.9395954 38.4778053,63.3431475 C38.4778053,62.7466995 37.9943973,62.2631476 37.3979493,62.2631476 L37.3979493,62.2631476 Z M20.4618225,62.2631476 L20.4618225,55.552748 L23.7029743,55.552748 L23.7029743,62.2631476 L20.4618225,62.2631476 Z M25.8674382,62.2631476 L25.8674382,47.9010206 L29.1084459,47.9010206 L29.1084459,62.2631476 L25.8674382,62.2631476 Z M31.2812618,62.2631476 L31.2812618,52.7880922 L34.5224135,52.7880922 L34.5224135,62.2631476 L31.2812618,62.2631476 Z" id="Shape"></path>
            <path d="M73.7190668,33.6388296 C73.5783788,29.0924619 71.7266829,24.8142222 68.5046831,21.5922225 C66.9586992,20.0462386 65.1967154,18.8451347 63.3153555,17.9871827 C63.2838195,17.9690387 63.2511315,17.9521907 63.2172915,17.9369267 C63.1827315,17.9213747 63.1477395,17.9078387 63.1126035,17.8963187 C60.6794357,16.8233748 58.0538839,16.3199508 55.4401401,16.3873428 L55.4401401,10.4369753 C55.4401401,9.05371136 54.3150681,7.92835144 52.9319482,7.92835144 L51.3743003,7.92835144 L51.3743003,6.57993553 C51.3743003,5.19667163 50.2492284,4.07131171 48.8661085,4.07131171 L47.3041406,4.07131171 L47.3041406,2.50862382 C47.3042846,1.12535992 46.1790687,5.68434189e-14 44.7960928,5.68434189e-14 L2.50847982,5.68434189e-14 C1.12535992,5.68434189e-14 0.00028799998,1.12535992 0.00028799998,2.50862382 L0.00028799998,63.2911635 C0.00028799998,64.6744274 1.12535992,65.7997873 2.50847982,65.7997873 L4.07044771,65.7997873 L4.07044771,67.3624752 C4.07044771,68.7457391 5.19551963,69.871099 6.57417553,69.871099 L8.13643142,69.877435 L8.13643142,71.2195149 C8.13643142,72.6027788 9.26150334,73.7281388 10.6446232,73.7281388 L44.3807968,73.7281388 C44.6631808,73.7281388 44.9425408,73.6129388 45.1427008,73.4136428 L55.1223321,63.4812435 C55.3259481,63.2784915 55.4404281,63.0030195 55.4404281,62.7157395 L55.4404281,52.0087643 C55.586012,52.0123643 55.731596,52.0158203 55.87718,52.0158203 C58.9213398,52.0158203 61.9525396,51.2377884 64.6037234,49.7522845 C65.8221073,49.0697245 64.7661554,47.1857726 63.5479155,47.8679006 C57.7817239,51.0991164 50.5651644,50.3029404 45.6222208,46.0023807 L56.227964,35.3966375 L70.727323,39.2388452 C70.088251,41.1282691 69.0782351,42.9212129 67.6916592,44.5029088 C66.7712112,45.5529568 68.3952431,46.9768287 69.3158351,45.9269247 C72.2951949,42.528381 73.8588907,38.1644613 73.7190668,33.6388296 Z M61.3280116,19.5040786 L54.9996441,33.5697096 L44.0927969,44.4767008 C38.7352772,38.3317893 38.9802212,28.9689099 44.8296448,23.1194864 C49.2827005,18.6664307 55.772204,17.4618708 61.3280116,19.5040786 Z M6.57835153,67.7109552 C6.38639955,67.7109552 6.23030356,67.5545712 6.23030356,67.3623312 L6.23030356,6.57993553 C6.23030356,6.38769555 6.38639955,6.23131156 6.57835153,6.23131156 L14.112143,6.23131156 C15.5085109,6.23131156 15.5085109,4.07131171 14.112143,4.07131171 L6.57835153,4.07131171 C5.19537563,4.07131171 4.07030371,5.19667163 4.07030371,6.57993553 L4.07030371,63.6396435 L2.50847982,63.6396435 C2.31652784,63.6396435 2.16028785,63.4832595 2.16028785,63.2910195 L2.16028785,2.50862382 C2.16028785,2.31638384 2.31652784,2.15999985 2.50847982,2.15999985 L44.7960928,2.15999985 C44.9880448,2.15999985 45.1442848,2.31638384 45.1442848,2.50862382 L45.1442848,4.07145571 L20.1602878,4.07145571 C18.7639187,4.07145571 18.7639187,6.23145556 20.1602878,6.23145556 L48.8662525,6.23145556 C49.0582045,6.23145556 49.2144445,6.38783955 49.2144445,6.58007953 L49.2144445,7.92849544 L10.6444792,7.92849544 C9.26150334,7.92849544 8.13628742,9.05385536 8.13628742,10.4371193 L8.13628742,67.7174352 L6.57835153,67.7109552 Z M10.2962873,71.2193709 L10.2962873,10.4369753 C10.2962873,10.2447353 10.4525273,10.0883513 10.6444792,10.0883513 L52.9320922,10.0883513 C53.1240442,10.0883513 53.2802842,10.2447353 53.2802842,10.4369753 L53.2802842,16.5741108 C49.6262845,17.1135348 46.1087967,18.7858067 43.3022369,21.5923665 C36.3539494,28.540654 36.3539494,39.8463812 43.3022369,46.7948127 C46.0352127,49.5276445 49.4804125,51.2593884 53.2802842,51.8212763 L53.2802842,61.5430036 L45.8088447,61.5430036 C44.4258688,61.5430036 43.3006529,62.6683635 43.3006529,64.0516274 L43.3006529,71.5679949 L10.6444792,71.5679949 C10.4525273,71.5679949 10.2962873,71.4116109 10.2962873,71.2193709 L10.2962873,71.2193709 Z M45.4606528,70.032235 L45.4606528,64.0516274 C45.4606528,63.8593875 45.6168928,63.7030035 45.8088447,63.7030035 L51.7612283,63.7030035 L45.4606528,70.032235 Z M57.4106359,33.4755336 L63.2987955,20.3882385 C64.6212914,21.0957105 65.8631473,22.0056464 66.9771312,23.1196304 C70.762459,26.9051021 72.2157069,32.2066057 71.2758189,37.1498374 L57.4106359,33.4755336 Z" id="Shape"></path>
        </g>
    </g>
</svg>