<?xml version="1.0" encoding="UTF-8"?>
<svg width="88px" height="88px" viewBox="0 0 88 88" version="1.1" xmlns="http://www.w3.org/2000/svg" xmlns:xlink="http://www.w3.org/1999/xlink">
    <!-- Generator: Sketch 59 (86127) - https://sketch.com -->
    <title>build</title>
    <desc>Created with Sketch.</desc>
    <g id="build" stroke="none" stroke-width="1" fill="none" fill-rule="evenodd">
        <path d="M80.5703125,11 C83.0119141,11 85,12.9888976 85,15.4314961 L85,73.5685039 C85,76.0111024 83.0119141,78 80.5703125,78 L8.4296875,78 C5.98808594,78 4,76.0111024 4,73.5685039 L4,15.4314961 C4,12.9888976 5.98808594,11 8.4296875,11 L80.5703125,11 Z M82.46875,26.0354331 L6.53125,26.0354331 L6.53125,73.5685039 C6.53125,74.6183465 7.38027344,75.4677165 8.4296875,75.4677165 L80.5703125,75.4677165 C81.6197266,75.4677165 82.46875,74.6183465 82.46875,73.5685039 L82.46875,26.0354331 Z M48.9507813,34.1334646 C49.6257813,34.3128346 50.0265625,35.0092126 49.8472656,35.6844882 L41.5996094,66.4728346 C41.4466797,67.0373228 40.9351563,67.4118898 40.3761719,67.4118898 C40.2654297,67.4118898 40.1599609,67.396063 40.0492188,67.369685 C39.3742188,67.190315 38.9734375,66.493937 39.1527344,65.8186614 L47.4003906,35.030315 C47.5796875,34.3550394 48.2757813,33.9540945 48.9507813,34.1334646 Z M36.1310547,38.5280315 C36.6267578,39.023937 36.6267578,39.8258268 36.1310547,40.3164567 L25.7054687,50.7462992 L36.1310547,61.1761417 C36.6267578,61.6720472 36.6267578,62.473937 36.1310547,62.9645669 C35.8832031,63.2177953 35.5615234,63.3444094 35.2398437,63.3444094 C34.9181641,63.3444094 34.5912109,63.2230709 34.3433594,62.9751181 L23.0212891,51.6484252 C22.7839844,51.4110236 22.6521484,51.0892126 22.6521484,50.7515748 C22.6521484,50.413937 22.7839844,50.092126 23.0212891,49.8547244 L34.3433594,38.5280315 C34.8390625,38.032126 35.640625,38.032126 36.1310547,38.5280315 Z M54.6513672,38.5385827 L65.9734375,49.8652756 C66.4691406,50.3611811 66.4691406,51.1630709 65.9734375,51.6537008 L54.6513672,62.9803937 C54.4087891,63.2177953 54.0871094,63.3444094 53.7601563,63.3444094 C53.4384766,63.3444094 53.1115234,63.2230709 52.8636719,62.9751181 C52.3679688,62.4792126 52.3679688,61.6773228 52.8636719,61.1866929 L63.2892578,50.7568504 L52.8636719,40.3270079 C52.3679688,39.8311024 52.3679688,39.0292126 52.8636719,38.5385827 C53.359375,38.0426772 54.1609375,38.0426772 54.6513672,38.5385827 Z M80.5703125,13.5322835 L8.4296875,13.5322835 C7.38027344,13.5322835 6.53125,14.3816535 6.53125,15.4314961 L6.531,23.503 L82.468,23.503 L82.46875,15.4314961 C82.46875,14.3816535 81.6197266,13.5322835 80.5703125,13.5322835 Z M15.1269531,16.6712598 C16.1447266,16.6712598 16.9726562,17.4995276 16.9726562,18.5177165 C16.9726562,19.5359055 16.1447266,20.3641732 15.1269531,20.3641732 C14.1091797,20.3641732 13.28125,19.5359055 13.28125,18.5177165 C13.28125,17.4995276 14.1091797,16.6712598 15.1269531,16.6712598 Z M22.4042969,16.6712598 C23.4220703,16.6712598 24.25,17.4995276 24.25,18.5177165 C24.25,19.5359055 23.4220703,20.3641732 22.4042969,20.3641732 C21.3865234,20.3641732 20.5585937,19.5359055 20.5585937,18.5177165 C20.5585937,17.4995276 21.3865234,16.6712598 22.4042969,16.6712598 Z M29.6816406,16.6712598 C30.6994141,16.6712598 31.5273438,17.4995276 31.5273438,18.5177165 C31.5273438,19.5359055 30.6994141,20.3641732 29.6816406,20.3641732 C28.6638672,20.3641732 27.8359375,19.5359055 27.8359375,18.5177165 C27.8359375,17.4995276 28.6638672,16.6712598 29.6816406,16.6712598 Z" id="Combined-Shape" fill="white" fill-rule="nonzero"></path>
    </g>
</svg>
