<svg width="100" height="100" viewBox="0 0 100 100" fill="none" xmlns="http://www.w3.org/2000/svg">
<path fill-rule="evenodd" clip-rule="evenodd" d="M33.874 93.2938H25.5516C20.7201 93.2938 20.7273 85.7771 25.5516 85.7771H33.874C38.7056 85.7771 38.6985 93.2938 33.874 93.2938ZM33.8739 88.5898H25.5515C24.3291 88.5898 24.3291 90.4813 25.5515 90.4813H33.8739C35.0964 90.4813 35.0964 88.5898 33.8739 88.5898Z" fill="#5158FA"/>
<path d="M35.8803 51.1698L26.7189 60.3314L23.5462 57.1584C22.2601 55.8732 20.2716 57.8613 21.5573 59.1473L25.7246 63.3146C26.3876 63.8636 27.0506 63.8636 27.7135 63.3146L37.8693 53.1587C39.1549 51.8728 37.1664 49.8847 35.8803 51.1698Z" fill="#5158FA"/>
<path fill-rule="evenodd" clip-rule="evenodd" d="M96.9568 65.0467C96.389 63.963 95.9777 62.7757 95.6983 61.5841C94.3269 55.8475 92.2433 50.2899 89.5063 45.0652L84.9298 36.3301C82.3393 31.3849 74.6937 32.2071 73.2503 37.631C69.8267 36.3993 65.9618 38.4238 65.0256 41.9399C62.1952 40.9214 58.9268 42.121 57.4262 44.7242V13.8441V8.32772C57.426 5.2982 54.9612 2.83325 51.9313 2.83325H19.1704C17.3522 2.83325 17.3522 5.64583 19.1704 5.64583H51.9313C53.4102 5.64583 54.6134 6.84886 54.6134 8.32772V12.4378H4.81258V8.32772C4.81258 6.84886 6.01561 5.64583 7.49447 5.64583H11.2954C13.1136 5.64583 13.1136 2.83325 11.2954 2.83325H7.49447C4.46494 2.83325 2 5.2982 2 8.32772V13.8441V81.6245V93.3415C2 96.371 4.46494 98.8359 7.49447 98.8359H51.9313C54.9611 98.8359 57.426 96.371 57.426 93.3415V81.6245V75.9916L62.4513 78.4772C63.6932 79.0914 64.7138 80.1141 65.3254 81.3573C67.5579 85.8939 73.2798 87.7748 77.7743 85.4199L86.1529 81.0304C87.7636 80.1867 86.4584 77.6955 84.8477 78.539L76.469 82.9286C73.3568 84.5598 69.4005 83.2679 67.849 80.1154C66.9657 78.3204 65.4917 76.8433 63.6982 75.956L42.3727 65.4077C38.3674 63.4623 41.264 57.1788 45.3317 59.076L53.0749 63.1522C54.2695 63.7811 55.6021 62.4513 54.9757 61.2554L41.5242 35.5799C39.3154 31.4274 45.2307 27.5944 47.4869 31.9018L56.9949 50.0501L59.4784 54.7906C60.2982 56.3561 62.8113 55.0919 61.9698 53.4854L59.5519 48.8703C58.5728 45.6075 62.601 42.9768 65.1936 45.2514L67.8841 50.3868C68.7039 51.9523 71.217 50.6881 70.3755 49.0816L67.6398 43.86C67.3839 40.8601 71.0574 38.9295 73.3797 40.9083L76.0877 46.0774C76.9074 47.6429 79.4206 46.3787 78.579 44.7722L75.8705 39.6023C75.5021 35.9206 80.6838 34.2861 82.4381 37.6352L87.0145 46.3703C89.6437 51.3889 91.645 56.7275 92.9626 62.2373C93.2823 63.6667 93.7853 65.0539 94.4652 66.3516C96.0857 69.4443 94.8875 73.2786 91.795 74.899C90.1845 75.7432 91.4899 78.2344 93.1002 77.3904C97.5668 75.0505 99.2969 69.5131 96.9568 65.0467ZM54.6134 93.3413C54.6134 94.8201 53.4102 96.0232 51.9314 96.0232H7.49447C6.01561 96.0232 4.81258 94.8201 4.81258 93.3413V83.0305H54.6134V93.3413ZM38.6334 65.7847C37.3895 63.9444 37.2041 61.5409 38.1587 59.5343C38.9074 57.96 40.3551 56.7168 42.0207 56.2087C41.4934 49.8787 36.1765 44.888 29.7127 44.888C22.9002 44.888 17.3579 50.4303 17.3579 57.2428C17.3579 64.0552 22.9002 69.5975 29.7127 69.5975C33.1172 69.5975 36.3078 68.2184 38.6334 65.7847ZM48.3696 28.6271C47.7564 28.1293 47.049 27.7464 46.2723 27.5038C41.7677 26.0962 37.231 30.2269 38.2225 34.8399H11.5248C11.2662 34.8399 11.056 34.6297 11.056 34.3712V24.3213C11.056 24.0627 11.2662 23.8525 11.5248 23.8525H47.9008C48.1594 23.8525 48.3696 24.0627 48.3696 24.3213V28.6271ZM51.1823 32.8949L54.6134 39.4439V15.2503H4.81258V80.2178H54.6134V74.6002C53.1004 73.8518 51.5635 73.1291 50.0239 72.4051C46.8663 70.9202 43.6971 69.4298 40.6979 67.7015C37.8407 70.7089 33.9076 72.4098 29.7131 72.4098C21.3498 72.4098 14.5458 65.6058 14.5458 57.2425C14.5458 48.8792 21.3498 42.0752 29.7131 42.0752C37.6605 42.0752 44.1954 48.221 44.8258 56.009C45.4204 56.1024 46.0049 56.2817 46.5636 56.5476C46.5709 56.551 46.5781 56.5545 46.5854 56.5581C46.5951 56.563 46.6049 56.568 46.6144 56.5731L50.3882 58.5597L39.4347 37.6527H11.5249C9.71566 37.6527 8.24355 36.1805 8.24355 34.3713V24.3212C8.24355 22.512 9.71566 21.0399 11.5249 21.0399H47.9009C49.7102 21.0399 51.1823 22.512 51.1823 24.3212V32.8949Z" fill="#5158FA"/>
</svg>
