<?xml version="1.0" encoding="UTF-8"?>
<svg width="88px" height="88px" viewBox="0 0 88 88" version="1.1" xmlns="http://www.w3.org/2000/svg" xmlns:xlink="http://www.w3.org/1999/xlink">
    <!-- Generator: Sketch 59 (86127) - https://sketch.com -->
    <title>cotrol</title>
    <desc>Created with Sketch.</desc>
    <g id="cotrol" stroke="none" stroke-width="1" fill="none" fill-rule="evenodd">
        <g id="control-panel" transform="translate(7.000000, 11.000000)" fill="#5158FA" fill-rule="nonzero">
            <path d="M7.91088508,8.78171871 L44.383832,8.78171871 C44.9870528,8.78171871 45.475832,8.2927939 45.475832,7.68971867 C45.475832,7.08664345 44.9870528,6.59771864 44.383832,6.59771864 L7.91088508,6.59771864 C7.30766426,6.59771864 6.81888504,7.08664345 6.81888504,7.68971867 C6.81888504,8.2927939 7.30766426,8.78171871 7.91088508,8.78171871 Z" id="Path"></path>
            <path d="M73.4552026,43.7535296 C74.0584234,43.7535296 74.5472027,43.2646047 74.5472027,42.6615295 L74.5472027,4.23492175 C74.5472027,1.93691687 72.6776986,0.0674128024 70.3796937,0.0674128024 L4.16750895,0.0674128024 C1.86950407,0.0674128024 0,1.93691687 0,4.23492175 L0,62.1586806 C0,64.4566855 1.86950407,66.3261896 4.16750895,66.3261896 L70.3796937,66.3261896 C72.6776986,66.3261896 74.5472027,64.4566855 74.5472027,62.1586806 L74.5472027,47.7665569 C74.5472027,47.1634817 74.0584234,46.6745569 73.4552026,46.6745569 C72.8519818,46.6745569 72.3632026,47.1634817 72.3632026,47.7665569 L72.3632026,62.1586806 C72.3632026,63.2524279 71.473441,64.1421895 70.3796937,64.1421895 L4.16750895,64.1421895 C3.07376171,64.1421895 2.18400008,63.2524279 2.18400008,62.1586806 L2.18400008,15.3123157 L5.05377618,15.3123157 C5.656997,15.3123157 6.14577622,14.8233909 6.14577622,14.2203157 C6.14577622,13.6172405 5.656997,13.1283157 5.05377618,13.1283157 L2.18400008,13.1283157 L2.18400008,4.23492175 C2.18400008,3.14117451 3.07376171,2.25141288 4.16750895,2.25141288 L70.3796937,2.25141288 C71.473441,2.25141288 72.3632026,3.14117451 72.3632026,4.23492175 L72.3632026,13.1283157 L10.1588036,13.1283157 C9.55558274,13.1283157 9.06680352,13.6172405 9.06680352,14.2203157 C9.06680352,14.8233909 9.55558274,15.3123157 10.1588036,15.3123157 L72.3632026,15.3123157 L72.3632026,42.6615295 C72.3632026,43.2646047 72.8519818,43.7535296 73.4552026,43.7535296 Z" id="Path"></path>
            <path d="M67.5033656,7.69452347 C67.5033656,5.6302066 65.8238695,3.95071054 63.7595527,3.95071054 C61.6952358,3.95071054 60.0157397,5.6302066 60.0157397,7.69452347 C60.0157397,9.75884035 61.6952358,11.4383364 63.7595527,11.4383364 C65.8238695,11.4383364 67.5033656,9.75884035 67.5033656,7.69452347 L67.5033656,7.69452347 Z M62.1997398,7.69452347 C62.1997398,6.83446424 62.8994934,6.13471062 63.7595527,6.13471062 C64.6196119,6.13471062 65.3193655,6.83446424 65.3193655,7.69452347 C65.3193655,8.55458271 64.6196119,9.25433633 63.7595527,9.25433633 C62.8994934,9.25433633 62.1997398,8.55458271 62.1997398,7.69452347 Z" id="Shape"></path>
            <path d="M56.8697604,7.69452347 C56.8697604,5.6302066 55.1902644,3.95071054 53.1259475,3.95071054 C51.0616306,3.95071054 49.3821346,5.6302066 49.3821346,7.69452347 C49.3821346,9.75884035 51.0616306,11.4383364 53.1259475,11.4383364 C55.1902644,11.4383364 56.8697604,9.75884035 56.8697604,7.69452347 L56.8697604,7.69452347 Z M51.5661346,7.69452347 C51.5661346,6.83446424 52.2658883,6.13471062 53.1259475,6.13471062 C53.9860067,6.13471062 54.6857604,6.83446424 54.6857604,7.69452347 C54.6857604,8.55458271 53.9860067,9.25433633 53.1259475,9.25433633 C52.2658883,9.25433633 51.5661346,8.55458271 51.5661346,7.69452347 Z" id="Shape"></path>
            <path d="M66.9409128,27.222833 L52.2623939,27.222833 L52.2623939,27.2138058 C52.2623939,25.4347193 50.8149842,23.9874553 49.0358978,23.9874553 C47.2568113,23.9874553 45.8095472,25.4347193 45.8095472,27.2138058 L45.8095472,27.222833 L43.8389968,27.222833 C43.2357759,27.222833 42.7469967,27.7117578 42.7469967,28.314833 C42.7469967,28.9179082 43.2357759,29.406833 43.8389968,29.406833 L45.8124592,29.406833 C45.87332,31.1327755 47.2953953,32.5183052 49.0358978,32.5183052 C50.7764002,32.5183052 52.1986211,31.1327755 52.2594819,29.406833 L66.9407672,29.406833 C67.543988,29.406833 68.0327672,28.9179082 68.0327672,28.314833 C68.0327672,27.7117578 67.543988,27.222833 66.9409128,27.222833 Z M50.0783938,29.2919546 C50.0783938,29.8667835 49.6107266,30.3343051 49.0358978,30.3343051 C48.4612145,30.3343051 47.9935473,29.8667835 47.9935473,29.2919546 L47.9935473,27.2138058 C47.9935473,26.638977 48.4612145,26.1714553 49.0358978,26.1714553 C49.6107266,26.1714553 50.0783938,26.638977 50.0783938,27.2138058 L50.0783938,29.2919546 Z" id="Shape"></path>
            <path d="M66.9409128,38.3960318 L64.9689063,38.3960318 C64.9403687,36.6414061 63.5051895,35.2225341 61.7438662,35.2225341 C59.9825429,35.2225341 58.5473637,36.6414061 58.5188261,38.3960318 L43.8389968,38.3960318 C43.2357759,38.3960318 42.7469967,38.8849566 42.7469967,39.4880318 C42.7469967,40.091107 43.2357759,40.5800318 43.8389968,40.5800318 L58.5188261,40.5800318 C58.5473637,42.3346575 59.9825429,43.753384 61.7438662,43.753384 C63.5051895,43.753384 64.9403687,42.3346575 64.9689063,40.5800318 L66.9409128,40.5800318 C67.5441336,40.5800318 68.0329128,40.091107 68.0329128,39.4880318 C68.0329128,38.8849566 67.543988,38.3960318 66.9409128,38.3960318 Z M62.7862166,40.527179 C62.7862166,41.1020079 62.3185494,41.5695295 61.7438662,41.5695295 C61.169183,41.5695295 60.7015158,41.1020079 60.7015158,40.527179 L60.7015158,38.4491758 C60.7015158,37.874347 61.169183,37.4066797 61.7438662,37.4066797 C62.3185494,37.4066797 62.7862166,37.874347 62.7862166,38.4491758 L62.7862166,40.527179 Z" id="Shape"></path>
            <path d="M66.9409128,49.5692306 L52.2610835,49.5692306 C52.2325459,47.8146049 50.797221,46.3957329 49.0358978,46.3957329 C47.2745745,46.3957329 45.8393952,47.8146049 45.8108576,49.5692306 L43.8389968,49.5692306 C43.2357759,49.5692306 42.7469967,50.0581554 42.7469967,50.6612306 C42.7469967,51.2643058 43.2357759,51.7532306 43.8389968,51.7532306 L45.8108576,51.7532306 C45.8393952,53.5078563 47.2745745,54.9267284 49.0358978,54.9267284 C50.797221,54.9267284 52.2325459,53.5078563 52.2610835,51.7532306 L66.9409128,51.7532306 C67.5441336,51.7532306 68.0329128,51.2643058 68.0329128,50.6612306 C68.0329128,50.0581554 67.543988,49.5692306 66.9409128,49.5692306 Z M50.0783938,51.7002322 C50.0783938,52.2750611 49.6107266,52.7427283 49.0358978,52.7427283 C48.4612145,52.7427283 47.9935473,52.2750611 47.9935473,51.7002322 L47.9935473,49.622229 C47.9935473,49.0474002 48.4612145,48.5797329 49.0358978,48.5797329 C49.6107266,48.5797329 50.0783938,49.0474002 50.0783938,49.622229 L50.0783938,51.7002322 Z" id="Shape"></path>
            <path d="M21.9838536,31.4698395 C17.5797446,31.4698395 13.9966741,35.0529101 13.9966741,39.4571646 C13.9966741,43.8614192 17.5797446,47.4443441 21.9838536,47.4443441 C26.3879625,47.4443441 29.9710331,43.8612736 29.9710331,39.4571646 C29.9710331,35.0530557 26.3879625,31.4698395 21.9838536,31.4698395 L21.9838536,31.4698395 Z M21.9838536,45.260344 C18.7838567,45.260344 16.1806742,42.6570159 16.1806742,39.4571646 C16.1806742,36.2573133 18.7840023,33.6538396 21.9838536,33.6538396 C25.1837049,33.6538396 27.787033,36.2571677 27.787033,39.4571646 C27.787033,42.6571615 25.1838505,45.260344 21.9838536,45.260344 Z" id="Shape"></path>
            <path d="M35.4575325,42.7852895 C36.5582685,42.7852895 37.4535629,41.8898495 37.4535629,40.7892591 L37.4535629,38.124779 C37.4535629,37.0241885 36.5582685,36.1288941 35.4575325,36.1288941 L34.8067004,36.1288941 C34.4991932,34.9409436 34.0275948,33.803662 33.4035532,32.7442764 L33.8645228,32.2831612 C34.2414812,31.9062027 34.4491068,31.4049019 34.4491068,30.8718603 C34.4491068,30.3386731 34.2414812,29.8373723 33.8645228,29.4605595 L31.9806043,27.5764954 C31.2025179,26.798409 29.9362347,26.7982634 29.157857,27.5764954 L28.6967418,28.037465 C27.6373562,27.4132778 26.4999289,26.9419706 25.3121241,26.6344634 L25.3121241,25.9834857 C25.3121241,24.8828953 24.4168297,23.9876009 23.3160936,23.9876009 L20.6516135,23.9876009 C19.5508775,23.9876009 18.6555831,24.8828953 18.6555831,25.9834857 L18.6555831,26.6343178 C17.4677782,26.941825 16.3304966,27.4132778 15.2708197,28.0373194 L14.8099957,27.5763498 C14.0319093,26.7982634 12.7656261,26.7979722 11.9872484,27.5763498 L10.1031844,29.4602683 C9.72608035,29.8372267 9.51845474,30.3385275 9.51845474,30.8717147 C9.51845474,31.4049019 9.72608035,31.9060571 10.1030388,32.2830156 L10.5640084,32.7439852 C9.93996675,33.8035164 9.46865954,34.940798 9.16100673,36.1287485 L8.5100291,36.1287485 C7.40943866,36.1287485 6.51414423,37.0240429 6.51414423,38.1246334 L6.51414423,40.7891135 C6.51414423,41.8897039 7.40943866,42.7851439 8.5100291,42.7851439 L9.16100673,42.7851439 C9.46822274,43.972512 9.93982115,45.1099392 10.5640084,46.1699072 L10.1031844,46.6308769 C9.72608035,47.0078353 9.51845474,47.5091361 9.51845474,48.0423233 C9.51845474,48.5755105 9.72608035,49.0766658 10.1031844,49.4536242 L11.9871028,51.3376882 C12.7654805,52.1159203 14.0317637,52.1159203 14.8098501,51.3376882 L15.2708197,50.8767186 C16.330351,51.5007602 17.4677782,51.9722131 18.6555831,52.2797203 L18.6555831,52.9305523 C18.6555831,54.0311427 19.5508775,54.9265828 20.6516135,54.9265828 L23.3160936,54.9265828 C24.4168297,54.9265828 25.3121241,54.0311427 25.3121241,52.9305523 L25.3121241,52.2797203 C26.5000745,51.9722131 27.6373562,51.5007602 28.6967418,50.8767186 L29.1577114,51.3376882 C29.9362347,52.1160659 31.2023723,52.1157747 31.9806043,51.3376882 L33.8645228,49.4536242 C34.2414812,49.0766658 34.4491068,48.5753649 34.4491068,48.0423233 C34.4491068,47.5091361 34.2414812,47.0078353 33.8645228,46.6310225 L33.4035532,46.1699072 C34.0275948,45.1105216 34.4990476,43.97324 34.8067004,42.7852895 L35.4575325,42.7852895 Z M32.7215628,42.1228095 C32.4567164,43.1932607 32.0328747,44.2159552 31.4616859,45.1626464 C30.9844091,45.9535456 31.1052571,46.9600785 31.7556523,47.6104737 L32.1873563,48.0423233 L30.5693035,49.6605218 L30.1375995,49.2288178 C29.4872043,48.5784225 28.4806714,48.4575745 27.6896266,48.9347057 C26.743081,49.5058946 25.7203865,49.9297362 24.6499353,50.1945826 C23.7540584,50.4161858 23.1284152,51.2133458 23.1284152,52.1329555 L23.1284152,52.7427283 L20.8397287,52.7427283 L20.8397287,52.1329555 C20.8397287,51.2133458 20.2139399,50.4163314 19.3180631,50.1947282 C18.2477575,49.9298818 17.225063,49.5060402 16.2783718,48.9348513 C15.487327,48.4575745 14.4806485,48.5782769 13.8305445,49.2288178 L13.3986949,49.6606674 L11.7804964,48.0423233 L12.212346,47.6104737 C12.8627413,46.9600785 12.9834437,45.9535456 12.5063124,45.1626464 C11.9348324,44.2155184 11.5109908,43.1928239 11.2464356,42.1228095 C11.024978,41.2269327 10.227818,40.6012894 9.30806273,40.6012894 L8.69828991,40.6012894 L8.69828991,38.3127486 L9.30806273,38.3127486 C10.2276724,38.3127486 11.0248324,37.6871053 11.2464356,36.7912285 C11.5111364,35.7209229 11.9351236,34.6980828 12.5063124,33.7513916 C12.9834437,32.9604924 12.8625957,31.9538139 12.212346,31.3035643 L11.7804964,30.8717147 L13.3986949,29.2535162 L13.8303989,29.6852203 C14.4807941,30.3354699 15.4874726,30.4567547 16.2783718,29.9791867 C17.225063,29.4079978 18.2477575,28.9840106 19.3180631,28.7193098 C20.2139399,28.4977066 20.8397287,27.7005466 20.8397287,26.780937 L20.8397287,26.1711641 L23.1282696,26.1711641 L23.1282696,26.780937 C23.1282696,27.7005466 23.7539128,28.4977066 24.6497897,28.7193098 C25.7202409,28.9840106 26.7429354,29.4078522 27.6896266,29.9791867 C28.4805258,30.4564635 29.4872043,30.3354699 30.1374539,29.6852203 L30.5693035,29.2533706 L32.1873563,30.8715691 L31.7556523,31.3034187 C31.1054027,31.9538139 30.9844091,32.9603468 31.4616859,33.7513916 C32.0328747,34.6979372 32.4567164,35.7206317 32.7215628,36.7910829 C32.9430204,37.6869597 33.7401804,38.3127486 34.65979,38.3127486 L35.2695629,38.3127486 L35.2695629,40.6012894 L34.65979,40.6012894 C33.7401804,40.6012894 32.943166,41.2270783 32.7215628,42.1228095 L32.7215628,42.1228095 Z" id="Shape"></path>
        </g>
    </g>
</svg>