<svg width="57" height="45" viewBox="0 0 57 45" fill="none" xmlns="http://www.w3.org/2000/svg">
<path d="M48.2529 4.35453C44.6199 2.68756 40.7241 1.45941 36.6508 0.756002C36.5766 0.742427 36.5025 0.776353 36.4643 0.844207C35.9632 1.73534 35.4082 2.8979 35.0196 3.81167C30.6385 3.15577 26.2798 3.15577 21.9885 3.81167C21.5998 2.87759 21.0247 1.73534 20.5214 0.844207C20.4832 0.778617 20.409 0.744691 20.3349 0.756002C16.2638 1.45717 12.368 2.68532 8.73272 4.35453C8.70125 4.3681 8.67428 4.39074 8.65637 4.42012C1.26681 15.46 -0.757507 26.2285 0.235553 36.8635C0.240046 36.9155 0.269253 36.9653 0.309695 36.9969C5.18512 40.5773 9.9078 42.7509 14.5428 44.1917C14.617 44.2143 14.6956 44.1872 14.7428 44.1261C15.8392 42.6288 16.8165 41.0501 17.6545 39.3899C17.704 39.2926 17.6568 39.1773 17.5557 39.1388C16.0054 38.5508 14.5293 37.8338 13.1094 37.0195C12.997 36.954 12.9881 36.7933 13.0914 36.7164C13.3902 36.4925 13.6891 36.2595 13.9744 36.0243C14.026 35.9813 14.0979 35.9723 14.1586 35.9994C23.4871 40.2584 33.5862 40.2584 42.8045 35.9994C42.8652 35.97 42.9371 35.9791 42.991 36.022C43.2764 36.2573 43.5752 36.4925 43.8763 36.7164C43.9796 36.7933 43.9729 36.954 43.8605 37.0195C42.4406 37.8496 40.9645 38.5508 39.412 39.1366C39.3109 39.175 39.2659 39.2926 39.3154 39.3899C40.1714 41.0478 41.1487 42.6265 42.2249 44.1238C42.2698 44.1872 42.3507 44.2143 42.4249 44.1917C47.0823 42.7509 51.805 40.5773 56.6804 36.9969C56.7231 36.9653 56.7501 36.9177 56.7546 36.8657C57.9431 24.5705 54.7639 13.8903 48.327 4.42237C48.3113 4.39074 48.2844 4.3681 48.2529 4.35453ZM19.0476 30.3879C16.2391 30.3879 13.9249 27.8095 13.9249 24.6429C13.9249 21.4764 16.1942 18.898 19.0476 18.898C21.9233 18.898 24.215 21.499 24.1701 24.6429C24.1701 27.8095 21.9008 30.3879 19.0476 30.3879ZM37.9875 30.3879C35.1791 30.3879 32.865 27.8095 32.865 24.6429C32.865 21.4764 35.1342 18.898 37.9875 18.898C40.8634 18.898 43.155 21.499 43.1101 24.6429C43.1101 27.8095 40.8634 30.3879 37.9875 30.3879Z" fill="white"/>
</svg>
