<?xml version="1.0" encoding="UTF-8"?>
<svg width="88px" height="88px" viewBox="0 0 88 88" version="1.1" xmlns="http://www.w3.org/2000/svg" xmlns:xlink="http://www.w3.org/1999/xlink">
    <!-- Generator: Sketch 59 (86127) - https://sketch.com -->
    <title>earn</title>
    <desc>Created with Sketch.</desc>
    <g id="earn" stroke="none" stroke-width="1" fill="none" fill-rule="evenodd">
        <g id="wallet" transform="translate(9.000000, 12.000000)" fill="#5158FA" fill-rule="nonzero">
            <path d="M61.9271333,64.4017391 L4.50998871,64.4017391 C2.09042292,64.4017391 0.121417146,62.4327333 0.121417146,60.0131675 L0.121417146,18.687452 C0.121417146,16.2678862 2.09042292,14.2988804 4.50998871,14.2988804 L61.9271333,14.2988804 C64.3466991,14.2988804 66.3157048,16.2678862 66.3157048,18.687452 L66.3157048,30.3478866 C66.3157048,31.1553838 65.6618077,31.8107438 64.8528476,31.8107438 C64.0438876,31.8107438 63.3899905,31.1553838 63.3899905,30.3478866 L63.3899905,18.687452 C63.3899905,17.8814177 62.7346304,17.2245948 61.9271333,17.2245948 L4.50998871,17.2245948 C3.7039544,17.2245948 3.04713152,17.8814177 3.04713152,18.687452 L3.04713152,60.0131675 C3.04713152,60.8206647 3.7039544,61.4760247 4.50998871,61.4760247 L61.9271333,61.4760247 C62.7346304,61.4760247 63.3899905,60.8206647 63.3899905,60.0131675 L63.3899905,52.8202987 C63.3899905,52.0113387 64.0438876,51.3574415 64.8528476,51.3574415 C65.6618077,51.3574415 66.3157048,52.0113387 66.3157048,52.8202987 L66.3157048,60.0131675 C66.3157048,62.4327333 64.3466991,64.4017391 61.9271333,64.4017391 Z" id="XMLID_12_"></path>
            <path d="M65.7071562,48.5531443 L43.9544699,48.5531443 C41.5349041,48.5531443 39.5658983,46.5841385 39.5658983,44.1645727 L39.5658983,34.0474524 C39.5658983,31.6278867 41.5349041,29.6588809 43.9544699,29.6588809 L65.7071562,29.6588809 C68.126722,29.6588809 70.0957278,31.6278867 70.0957278,34.0474524 L70.0957278,44.1645727 C70.0957278,46.5841385 68.126722,48.5531443 65.7071562,48.5531443 Z M43.9544699,32.5831324 C43.1469727,32.5831324 42.4916127,33.2399553 42.4916127,34.0459896 L42.4916127,44.1631099 C42.4916127,44.9706071 43.1469727,45.6259671 43.9544699,45.6259671 L65.7071562,45.6259671 C66.5146534,45.6259671 67.1700134,44.9706071 67.1700134,44.1631099 L67.1700134,34.0459896 C67.1700134,33.2384924 66.5146534,32.5831324 65.7071562,32.5831324 L43.9544699,32.5831324 Z" id="XMLID_9_"></path>
            <path d="M49.42263,42.7573041 C47.4097386,42.7573041 45.7713385,41.1189041 45.7713385,39.1060126 C45.7713385,37.0931211 47.4097386,35.4547211 49.42263,35.4547211 C51.4355215,35.4547211 53.0739216,37.0931211 53.0739216,39.1060126 C53.0739216,41.1189041 51.4355215,42.7573041 49.42263,42.7573041 Z M49.42263,38.3804354 C49.02327,38.3804354 48.6970529,38.7066526 48.6970529,39.1060126 C48.6970529,39.5053726 49.02327,39.8315898 49.42263,39.8315898 C49.8219901,39.8315898 50.1482072,39.5053726 50.1482072,39.1060126 C50.1482072,38.7066526 49.8234529,38.3804354 49.42263,38.3804354 Z" id="XMLID_6_"></path>
            <path d="M64.1214191,24.8153607 L10.8236803,24.8153607 C10.0161832,24.8153607 9.36082314,24.1600007 9.36082314,23.3525036 C9.36082314,22.5450064 10.0161832,21.8896464 10.8236803,21.8896464 L64.1214191,21.8896464 C64.9303791,21.8896464 65.5842762,22.5450064 65.5842762,23.3525036 C65.5842762,24.1600007 64.9303791,24.8153607 64.1214191,24.8153607 Z" id="XMLID_5_"></path>
            <path d="M14.5290976,17.1573034 L13.6557718,14.364709 L52.6657844,2.17472006 C53.3913616,1.9479772 54.1666759,2.3136915 54.4548588,3.01586295 L59.4534418,15.2058519 L56.747156,16.3161605 L52.2576473,5.3681373 L14.5290976,17.1573034 Z" id="XMLID_4_"></path>
            <path d="M8.62793169,17.0636805 C8.11300596,17.0636805 7.61417166,16.7915891 7.34793165,16.3103091 C6.95588592,15.603749 7.21188593,14.712869 7.91844595,14.3222861 L33.4043439,0.195474292 C34.068481,-0.173165719 34.9023096,0.0287085723 35.3265382,0.657737162 L36.988344,3.12704009 C37.4403668,3.79702868 37.2618983,4.70692585 36.5919097,5.15748587 C35.9219211,5.60804588 35.0120239,5.43104016 34.5614639,4.76105157 L33.648641,3.40498296 L9.33595456,16.8808234 C9.11213741,17.0051662 8.86930312,17.0636805 8.62793169,17.0636805 Z" id="XMLID_3_"></path>
            <path d="M50.3749501,16.4697605 C49.7985843,16.4697605 49.2529386,16.1274519 49.0203443,15.5598633 L47.6042986,12.1016689 L44.331887,13.1534632 C43.5668127,13.402149 42.7402984,12.9779204 42.4916127,12.2084575 C42.2443898,11.4389946 42.6671556,10.615406 43.4366184,10.3681832 L47.9963443,8.90240027 C48.7233843,8.67126883 49.5060129,9.03405741 49.7971215,9.74061743 L51.7266301,14.4510176 C52.0323673,15.1985376 51.6754301,16.0528462 50.9264472,16.3585833 C50.7465158,16.4331891 50.5607329,16.4697605 50.3749501,16.4697605 L50.3749501,16.4697605 Z" id="XMLID_2_"></path>
        </g>
    </g>
</svg>