<svg width="100" height="100" viewBox="0 0 100 100" fill="none" xmlns="http://www.w3.org/2000/svg">
<path d="M5.78931 58.7534C6.69879 58.6138 7.32294 57.7633 7.1832 56.8538C3.20602 30.9429 22.7918 7.67491 48.5378 6.70066L48.5377 48.5263L26.5763 48.5263C27.0791 33.3973 34.3287 22.3076 40.4468 15.588C41.4248 14.514 40.648 12.8002 39.2153 12.8002C38.7628 12.8002 38.3117 12.9837 37.9828 13.3446C31.4676 20.5003 23.7431 32.3333 23.2412 48.5263L15.2159 48.5263C14.2958 48.5263 13.5498 49.2723 13.5498 50.1924C13.5498 51.1125 14.2958 51.8585 15.2159 51.8585L23.2423 51.8585C23.902 73.4342 37.2689 87.3248 44.6162 93.359C39.111 92.648 33.7739 90.893 28.938 88.1797C28.1354 87.7288 27.1199 88.015 26.6696 88.8176C26.2194 89.6201 26.5049 90.6356 27.3075 91.0858C34.2633 94.9884 42.1808 97.0513 50.2038 97.0513C76.1027 97.0513 97.0627 76.0935 97.0627 50.1924C97.0628 24.2986 76.1106 3.33661 50.2095 3.33348C21.5381 3.33348 -0.48916 28.8364 3.88975 57.3593C4.02949 58.269 4.88024 58.8938 5.78931 58.7534ZM51.8699 8.18702C54.3303 10.0389 58.2405 13.3357 62.0827 18.0484C69.5272 27.1795 73.4734 37.4257 73.8316 48.5265L51.8699 48.5265L51.8699 8.18702ZM38.3173 82.3334C30.8769 73.2022 26.9335 62.9569 26.5759 51.8585L48.5377 51.8585L48.5377 92.2056C46.0784 90.3544 42.1631 87.0535 38.3173 82.3334ZM51.8699 93.6841L51.8699 51.8585L73.8309 51.8585C73.3436 66.4884 66.5234 77.3108 60.766 83.8954C60.1604 84.5881 60.231 85.6406 60.9235 86.2462C61.6164 86.8521 62.6687 86.7815 63.2746 86.0886C69.4087 79.0731 76.6791 67.5206 77.1658 51.8585L93.6956 51.8585C92.8373 74.5367 74.5482 92.8261 51.8699 93.6841ZM93.6956 48.5263L77.1654 48.5263C76.504 26.9418 63.1269 13.0522 55.7773 7.02139C76.616 9.69652 92.8873 27.1659 93.6956 48.5263Z" fill="#5158FA"/>
<path d="M5.18921 79.9222C5.18921 84.7687 9.13132 88.7108 13.9778 88.7108C18.8243 88.7108 22.7664 84.7687 22.7664 79.9222V76.3613C22.7664 75.7364 22.2597 75.2298 21.6348 75.2298C21.01 75.2298 20.5033 75.7364 20.5033 76.3613V79.9222C20.5033 83.52 17.5756 86.4478 13.9778 86.4478C10.38 86.4478 7.45223 83.52 7.45223 79.9222V73.3967H22.8189C23.4438 73.3967 23.9504 72.89 23.9504 72.2651C23.9504 71.6402 23.4438 71.1336 22.8189 71.1336H20.0035V65.0817C20.0035 64.4568 19.4969 63.9502 18.872 63.9502C18.2471 63.9502 17.7405 64.4568 17.7405 65.0817V71.1336H10.2151V65.0817C10.2151 64.4568 9.70847 63.9502 9.08358 63.9502C8.45868 63.9502 7.95207 64.4568 7.95207 65.0817V71.1336H5.13664C4.51174 71.1336 4.00513 71.6402 4.00513 72.2651C4.00513 72.89 4.51174 73.3967 5.13664 73.3967H5.18921V79.9222Z" fill="#5158FA" stroke="#5158FA"/>
</svg>
