<svg width="113" height="120" viewBox="0 0 113 120" fill="none" xmlns="http://www.w3.org/2000/svg">
<line x1="56.5455" y1="94.8182" x2="56.5455" y2="118.818" stroke="#81889D" stroke-width="0.545455" stroke-linecap="round" stroke-dasharray="3.27 3.27"/>
<g filter="url(#filter0_d_413_1100)">
<circle cx="56.2727" cy="55.2727" r="39.2727" fill="#F6F7FF"/>
<circle cx="56.2727" cy="55.2727" r="39.2727" stroke="white" stroke-width="1.09091"/>
</g>
<path d="M45.2942 53.8568C45.1353 53.8569 44.9779 53.8257 44.831 53.7649C44.6842 53.7042 44.5508 53.615 44.4384 53.5027C44.3261 53.3903 44.2369 53.2569 44.1762 53.1101C44.1154 52.9632 44.0842 52.8058 44.0842 52.6469V47.4197C44.0842 47.0988 44.2117 46.7911 44.4386 46.5642C44.6655 46.3372 44.9733 46.2098 45.2942 46.2098C45.6151 46.2098 45.9228 46.3372 46.1497 46.5642C46.3766 46.7911 46.5041 47.0988 46.5041 47.4197V52.6469C46.5042 52.8058 46.4729 52.9632 46.4122 53.1101C46.3514 53.2569 46.2623 53.3903 46.1499 53.5027C46.0375 53.615 45.9041 53.7042 45.7573 53.7649C45.6105 53.8257 45.4531 53.8569 45.2942 53.8568Z" fill="#5158FA"/>
<path d="M67.0727 53.9041C66.9138 53.9042 66.7564 53.873 66.6096 53.8122C66.4627 53.7514 66.3293 53.6623 66.2169 53.5499C66.1046 53.4376 66.0155 53.3042 65.9547 53.1573C65.8939 53.0105 65.8627 52.8531 65.8628 52.6942V47.2496C65.8628 46.9287 65.9902 46.621 66.2171 46.394C66.444 46.1671 66.7518 46.0397 67.0727 46.0397C67.3936 46.0397 67.7013 46.1671 67.9282 46.394C68.1551 46.621 68.2826 46.9287 68.2826 47.2496V52.6942C68.2827 52.8531 68.2515 53.0105 68.1907 53.1573C68.1299 53.3042 68.0408 53.4376 67.9284 53.55C67.8161 53.6623 67.6826 53.7514 67.5358 53.8122C67.389 53.873 67.2316 53.9042 67.0727 53.9041Z" fill="#5158FA"/>
<path d="M67.0727 48.4595C66.9138 48.4596 66.7564 48.4283 66.6096 48.3676C66.4627 48.3068 66.3293 48.2177 66.2169 48.1053C66.1046 47.9929 66.0155 47.8595 65.9547 47.7127C65.8939 47.5658 65.8627 47.4085 65.8628 47.2496C65.8628 44.522 64.7792 41.9061 62.8506 39.9775C60.9219 38.0488 58.306 36.9653 55.5785 36.9653C52.8509 36.9653 50.2351 38.0488 48.3064 39.9775C46.3777 41.9061 45.2942 44.522 45.2942 47.2496C45.2942 47.5704 45.1667 47.8782 44.9398 48.1051C44.7129 48.332 44.4052 48.4595 44.0843 48.4595C43.7634 48.4595 43.4557 48.332 43.2287 48.1051C43.0018 47.8782 42.8744 47.5704 42.8744 47.2496C42.8744 43.8802 44.2128 40.6489 46.5953 38.2664C48.9778 35.8839 52.2091 34.5454 55.5785 34.5454C58.9478 34.5454 62.1792 35.8839 64.5617 38.2664C66.9441 40.6489 68.2826 43.8802 68.2826 47.2496C68.2827 47.4085 68.2515 47.5658 68.1907 47.7127C68.1299 47.8595 68.0408 47.9929 67.9284 48.1053C67.8161 48.2177 67.6826 48.3068 67.5358 48.3676C67.389 48.4283 67.2316 48.4596 67.0727 48.4595Z" fill="#5158FA"/>
<path d="M67.0738 50.2743C66.8879 50.2746 66.7044 50.232 66.5375 50.1498C66.3707 50.0677 66.2251 49.9481 66.112 49.8005C63.1356 45.9156 61.7958 46.3173 58.218 47.3795C53.6084 48.9288 48.6833 49.2948 43.8952 48.4441C43.5784 48.3939 43.2944 48.22 43.1059 47.9605C42.9173 47.701 42.8395 47.3773 42.8897 47.0605C42.9398 46.7436 43.1138 46.4597 43.3732 46.2712C43.6327 46.0826 43.9565 46.0048 44.2733 46.055C48.7048 46.8363 53.2616 46.4943 57.5268 45.0601C61.3149 43.9352 64.0467 43.1235 68.0332 48.3283C68.1706 48.5074 68.255 48.7214 68.2771 48.946C68.2992 49.1706 68.258 49.397 68.1582 49.5994C68.0584 49.8019 67.9039 49.9724 67.7123 50.0916C67.5207 50.2109 67.2995 50.2742 67.0738 50.2743L67.0738 50.2743Z" fill="#5158FA"/>
<path d="M61.0478 46.68C60.8277 46.6801 60.6118 46.6201 60.4233 46.5065C60.2348 46.3928 60.0809 46.2299 59.9782 46.0353C59.8754 45.8406 59.8278 45.6216 59.8403 45.4019C59.8529 45.1822 59.9252 44.97 60.0494 44.7884L63.6532 39.5103C63.8341 39.2452 64.113 39.0629 64.4284 39.0034C64.7439 38.9439 65.07 39.0121 65.3351 39.1931C65.6002 39.3741 65.7826 39.6529 65.8421 39.9684C65.9016 40.2838 65.8333 40.6099 65.6524 40.875L62.0486 46.1531C61.9373 46.3157 61.7879 46.4487 61.6135 46.5406C61.4391 46.6324 61.2449 46.6803 61.0478 46.68Z" fill="#5158FA"/>
<path d="M41.6644 74.4727C41.5055 74.4728 41.3482 74.4416 41.2013 74.3808C41.0545 74.32 40.9211 74.2309 40.8087 74.1185C40.6963 74.0062 40.6072 73.8727 40.5464 73.7259C40.4857 73.5791 40.4544 73.4217 40.4545 73.2628C40.4566 71.3381 41.2221 69.4928 42.5831 68.1319C43.9441 66.7709 45.7893 66.0054 47.714 66.0033C48.0349 66.0033 48.3427 66.1308 48.5696 66.3577C48.7965 66.5846 48.9239 66.8923 48.9239 67.2132C48.9239 67.5341 48.7965 67.8418 48.5696 68.0688C48.3427 68.2957 48.0349 68.4231 47.714 68.4231C46.4309 68.4244 45.2006 68.9347 44.2933 69.842C43.3859 70.7494 42.8756 71.9796 42.8744 73.2628C42.8745 73.4217 42.8432 73.5791 42.7825 73.7259C42.7217 73.8728 42.6326 74.0062 42.5202 74.1185C42.4078 74.2309 42.2744 74.32 42.1276 74.3808C41.9807 74.4416 41.8234 74.4728 41.6644 74.4727Z" fill="#5158FA"/>
<path d="M51.3438 68.4231H47.714C47.3931 68.4231 47.0854 68.2957 46.8585 68.0688C46.6316 67.8418 46.5041 67.5341 46.5041 67.2132C46.5041 66.8923 46.6316 66.5846 46.8585 66.3577C47.0854 66.1308 47.3931 66.0033 47.714 66.0033H51.3438C51.6646 66.0033 51.9724 66.1308 52.1993 66.3577C52.4262 66.5846 52.5537 66.8923 52.5537 67.2132C52.5537 67.5341 52.4262 67.8418 52.1993 68.0688C51.9724 68.2957 51.6646 68.4231 51.3438 68.4231Z" fill="#5158FA"/>
<path d="M41.6644 75.6826C41.5055 75.6827 41.3482 75.6515 41.2013 75.5907C41.0545 75.5299 40.9211 75.4408 40.8087 75.3284C40.6963 75.2161 40.6072 75.0826 40.5464 74.9358C40.4857 74.789 40.4544 74.6316 40.4545 74.4727V73.2628C40.4545 72.9419 40.582 72.6341 40.8089 72.4072C41.0358 72.1803 41.3436 72.0529 41.6644 72.0529C41.9853 72.0529 42.2931 72.1803 42.52 72.4072C42.7469 72.6341 42.8744 72.9419 42.8744 73.2628V74.4727C42.8745 74.6316 42.8432 74.789 42.7825 74.9358C42.7217 75.0826 42.6326 75.2161 42.5202 75.3284C42.4078 75.4408 42.2744 75.5299 42.1276 75.5907C41.9807 75.6515 41.8234 75.6827 41.6644 75.6826Z" fill="#5158FA"/>
<path d="M70.7024 74.4727C70.5435 74.4728 70.3861 74.4416 70.2393 74.3808C70.0925 74.32 69.959 74.2309 69.8467 74.1185C69.7343 74.0062 69.6452 73.8727 69.5844 73.7259C69.5236 73.5791 69.4924 73.4217 69.4925 73.2628C69.4912 71.9796 68.9809 70.7494 68.0736 69.842C67.1662 68.9347 65.936 68.4244 64.6528 68.4231C64.332 68.4231 64.0242 68.2957 63.7973 68.0688C63.5704 67.8418 63.4429 67.5341 63.4429 67.2132C63.4429 66.8923 63.5704 66.5846 63.7973 66.3577C64.0242 66.1308 64.332 66.0033 64.6528 66.0033C66.5775 66.0054 68.4228 66.7709 69.7838 68.1319C71.1447 69.4928 71.9102 71.3381 71.9123 73.2628C71.9124 73.4217 71.8812 73.5791 71.8204 73.7259C71.7597 73.8728 71.6705 74.0062 71.5582 74.1185C71.4458 74.2309 71.3124 74.32 71.1655 74.3808C71.0187 74.4416 70.8613 74.4728 70.7024 74.4727Z" fill="#5158FA"/>
<path d="M64.6529 68.4231H61.0231C60.7022 68.4231 60.3945 68.2957 60.1676 68.0688C59.9407 67.8418 59.8132 67.5341 59.8132 67.2132C59.8132 66.8923 59.9407 66.5846 60.1676 66.3577C60.3945 66.1308 60.7022 66.0033 61.0231 66.0033H64.6529C64.9738 66.0033 65.2815 66.1308 65.5084 66.3577C65.7353 66.5846 65.8628 66.8923 65.8628 67.2132C65.8628 67.5341 65.7353 67.8418 65.5084 68.0688C65.2815 68.2957 64.9738 68.4231 64.6529 68.4231Z" fill="#5158FA"/>
<path d="M70.7024 75.6826C70.5435 75.6827 70.3861 75.6515 70.2393 75.5907C70.0924 75.5299 69.959 75.4408 69.8467 75.3284C69.7343 75.2161 69.6452 75.0826 69.5844 74.9358C69.5236 74.789 69.4924 74.6316 69.4925 74.4727V73.2628C69.4925 72.9419 69.62 72.6341 69.8469 72.4072C70.0738 72.1803 70.3815 72.0529 70.7024 72.0529C71.0233 72.0529 71.331 72.1803 71.5579 72.4072C71.7848 72.6341 71.9123 72.9419 71.9123 73.2628V74.4727C71.9124 74.6316 71.8812 74.789 71.8204 74.9358C71.7596 75.0826 71.6705 75.2161 71.5581 75.3284C71.4458 75.4408 71.3124 75.5299 71.1655 75.5907C71.0187 75.6515 70.8613 75.6827 70.7024 75.6826Z" fill="#5158FA"/>
<path d="M51.3438 68.4231C51.1849 68.4232 51.0275 68.3919 50.8807 68.3312C50.7338 68.2704 50.6004 68.1813 50.488 68.0689C50.3757 67.9565 50.2866 67.8231 50.2258 67.6763C50.165 67.5295 50.1338 67.3721 50.1339 67.2132V62.4515C50.1339 62.1306 50.2613 61.8229 50.4882 61.596C50.7152 61.369 51.0229 61.2416 51.3438 61.2416C51.6647 61.2416 51.9724 61.369 52.1993 61.596C52.4262 61.8229 52.5537 62.1306 52.5537 62.4515V67.2132C52.5538 67.3721 52.5226 67.5295 52.4618 67.6763C52.401 67.8231 52.3119 67.9566 52.1995 68.0689C52.0872 68.1813 51.9537 68.2704 51.8069 68.3312C51.6601 68.392 51.5027 68.4232 51.3438 68.4231Z" fill="#5158FA"/>
<path d="M61.0231 68.4231C60.8642 68.4232 60.7068 68.3919 60.56 68.3312C60.4132 68.2704 60.2798 68.1813 60.1674 68.0689C60.055 67.9565 59.9659 67.8231 59.9051 67.6763C59.8444 67.5295 59.8131 67.3721 59.8132 67.2132V62.4515C59.8132 62.1306 59.9407 61.8229 60.1676 61.596C60.3945 61.369 60.7022 61.2416 61.0231 61.2416C61.344 61.2416 61.6518 61.369 61.8787 61.596C62.1056 61.8229 62.233 62.1306 62.233 62.4515V67.2132C62.2331 67.3721 62.2019 67.5295 62.1411 67.6763C62.0804 67.8231 61.9912 67.9566 61.8789 68.0689C61.7665 68.1813 61.6331 68.2704 61.4862 68.3312C61.3394 68.392 61.182 68.4232 61.0231 68.4231Z" fill="#5158FA"/>
<path d="M56.1822 64.7933C52.9749 64.7899 49.8999 63.5143 47.6319 61.2465C45.3639 58.9787 44.088 55.9039 44.0842 52.6965C44.0842 52.3757 44.2117 52.0679 44.4386 51.841C44.6655 51.6141 44.9733 51.4866 45.2942 51.4866C45.6151 51.4866 45.9228 51.6141 46.1497 51.841C46.3766 52.0679 46.5041 52.3757 46.5041 52.6965C46.5041 55.2637 47.5239 57.7256 49.3391 59.5409C51.1543 61.3561 53.6163 62.3759 56.1834 62.3759C58.7505 62.3759 61.2125 61.3561 63.0277 59.5409C64.8429 57.7256 65.8627 55.2637 65.8627 52.6965C65.8627 52.3757 65.9902 52.0679 66.2171 51.841C66.444 51.6141 66.7518 51.4866 67.0726 51.4866C67.3935 51.4866 67.7013 51.6141 67.9282 51.841C68.1551 52.0679 68.2826 52.3757 68.2826 52.6965C68.2784 55.9042 67.0021 58.9792 64.7337 61.247C62.4652 63.5148 59.3898 64.7902 56.1822 64.7933Z" fill="#5158FA"/>
<path d="M58.6008 70.8429C58.3616 70.8429 58.1277 70.7719 57.9288 70.6389C57.7299 70.506 57.5748 70.317 57.4833 70.096C57.3917 69.8749 57.3678 69.6317 57.4144 69.397C57.4611 69.1624 57.5763 68.9468 57.7454 68.7776L60.1677 66.3578C60.3952 66.1338 60.7019 66.0088 61.0212 66.0101C61.3404 66.0113 61.6462 66.1387 61.8719 66.3644C62.0976 66.5901 62.225 66.8959 62.2262 67.2151C62.2274 67.5344 62.1025 67.8411 61.8785 68.0686L59.4563 70.4884C59.3441 70.601 59.2107 70.6902 59.0639 70.751C58.9171 70.8119 58.7598 70.8431 58.6008 70.8429Z" fill="#5158FA"/>
<path d="M58.5996 70.8429C58.4122 70.8427 58.2274 70.799 58.0597 70.7153L55.6398 69.5054C55.4973 69.4345 55.3702 69.3363 55.2657 69.2163C55.1612 69.0962 55.0814 68.9567 55.0309 68.8058C54.9804 68.6549 54.9602 68.4955 54.9714 68.3367C54.9826 68.178 55.0249 68.023 55.0961 67.8806C55.1673 67.7383 55.2659 67.6114 55.3861 67.5072C55.5064 67.403 55.6461 67.3235 55.7971 67.2734C55.9482 67.2232 56.1076 67.2034 56.2664 67.2149C56.4251 67.2265 56.58 67.2693 56.7222 67.3408L59.142 68.5507C59.3859 68.6726 59.5816 68.8733 59.6971 69.1204C59.8126 69.3674 59.8414 69.6462 59.7786 69.9116C59.7158 70.177 59.5652 70.4133 59.3512 70.5824C59.1372 70.7514 58.8724 70.8432 58.5996 70.8429Z" fill="#5158FA"/>
<path d="M53.7624 70.8429C53.6035 70.8431 53.4461 70.8119 53.2993 70.751C53.1525 70.6902 53.0192 70.6009 52.907 70.4884L50.4848 68.0686C50.2591 67.8414 50.1328 67.5341 50.1333 67.214C50.1338 66.8938 50.2612 66.5869 50.4876 66.3606C50.714 66.1342 51.0209 66.0068 51.341 66.0062C51.6612 66.0057 51.9685 66.1321 52.1956 66.3577L54.6179 68.7775C54.787 68.9467 54.9022 69.1623 54.9489 69.397C54.9956 69.6316 54.9716 69.8749 54.88 70.0959C54.7885 70.317 54.6335 70.5059 54.4345 70.6389C54.2356 70.7718 54.0017 70.8428 53.7625 70.8428L53.7624 70.8429Z" fill="#5158FA"/>
<path d="M53.7636 70.8429C53.4909 70.8432 53.2261 70.7514 53.0121 70.5824C52.7981 70.4133 52.6475 70.1769 52.5847 69.9116C52.5219 69.6462 52.5506 69.3674 52.6662 69.1203C52.7817 68.8733 52.9773 68.6726 53.2213 68.5507L55.6411 67.3408C55.9281 67.1972 56.2604 67.1736 56.5649 67.2751C56.8694 67.3766 57.121 67.5949 57.2645 67.8819C57.4081 68.169 57.4317 68.5013 57.3302 68.8057C57.2287 69.1102 57.0104 69.3618 56.7234 69.5054L54.3036 70.7153C54.1359 70.799 53.951 70.8427 53.7636 70.8429Z" fill="#5158FA"/>
<path d="M48.9215 75.6826C48.7626 75.6827 48.6052 75.6515 48.4584 75.5907C48.3115 75.5299 48.1781 75.4408 48.0657 75.3284C47.9534 75.2161 47.8643 75.0827 47.8035 74.9358C47.7427 74.789 47.7115 74.6316 47.7116 74.4727V67.2132C47.7116 66.8923 47.839 66.5846 48.0659 66.3577C48.2928 66.1308 48.6006 66.0033 48.9215 66.0033C49.2424 66.0033 49.5501 66.1308 49.777 66.3577C50.0039 66.5846 50.1314 66.8923 50.1314 67.2132V74.4727C50.1315 74.6316 50.1003 74.789 50.0395 74.9358C49.9787 75.0827 49.8896 75.2161 49.7772 75.3284C49.6649 75.4408 49.5314 75.5299 49.3846 75.5907C49.2378 75.6515 49.0804 75.6827 48.9215 75.6826Z" fill="#5158FA"/>
<path d="M63.4405 75.6826C63.2816 75.6827 63.1242 75.6515 62.9774 75.5907C62.8305 75.5299 62.6971 75.4408 62.5847 75.3284C62.4724 75.2161 62.3833 75.0827 62.3225 74.9358C62.2617 74.789 62.2305 74.6316 62.2306 74.4727V67.2132C62.2306 66.8923 62.358 66.5846 62.5849 66.3577C62.8118 66.1308 63.1196 66.0033 63.4405 66.0033C63.7614 66.0033 64.0691 66.1308 64.296 66.3577C64.5229 66.5846 64.6504 66.8923 64.6504 67.2132V74.4727C64.6505 74.6316 64.6193 74.789 64.5585 74.9358C64.4977 75.0827 64.4086 75.2161 64.2962 75.3284C64.1839 75.4408 64.0504 75.5299 63.9036 75.5907C63.7568 75.6515 63.5994 75.6827 63.4405 75.6826Z" fill="#5158FA"/>
<defs>
<filter id="filter0_d_413_1100" x="0.0909081" y="0.181832" width="112.364" height="112.364" filterUnits="userSpaceOnUse" color-interpolation-filters="sRGB">
<feFlood flood-opacity="0" result="BackgroundImageFix"/>
<feColorMatrix in="SourceAlpha" type="matrix" values="0 0 0 0 0 0 0 0 0 0 0 0 0 0 0 0 0 0 127 0" result="hardAlpha"/>
<feOffset dy="1.09091"/>
<feGaussianBlur stdDeviation="8.18182"/>
<feComposite in2="hardAlpha" operator="out"/>
<feColorMatrix type="matrix" values="0 0 0 0 0.339002 0 0 0 0 0.36945 0 0 0 0 0.460793 0 0 0 0.2 0"/>
<feBlend mode="normal" in2="BackgroundImageFix" result="effect1_dropShadow_413_1100"/>
<feBlend mode="normal" in="SourceGraphic" in2="effect1_dropShadow_413_1100" result="shape"/>
</filter>
</defs>
</svg>
