<svg width="46" height="46" viewBox="0 0 46 46" fill="none" xmlns="http://www.w3.org/2000/svg">
<g clip-path="url(#clip0_3:118)">
<path d="M30.7896 20.658C30.7221 20.5383 30.6232 20.4394 30.5036 20.3719L18.4513 13.5925C18.0899 13.3866 17.6299 13.5127 17.424 13.8742C17.359 13.9883 17.3249 14.1174 17.3252 14.2486V27.8074C17.326 28.0757 17.4694 28.3233 17.7018 28.4575C17.9329 28.5925 18.2182 28.5947 18.4513 28.4635L30.5036 21.6841C30.8659 21.4797 30.9939 21.0203 30.7896 20.658ZM18.8317 26.5193V15.5367L28.594 21.028L18.8317 26.5193Z" fill="#FFAE0D"/>
<path d="M15.0654 36.0933V34.5868H13.5589V36.0933H3.01318V37.5998H13.5589V39.1064H15.0654V37.5998H42.1829V36.0933H15.0654Z" fill="#FFAE0D"/>
<path d="M22.598 8.97583C15.9418 8.97583 10.5458 14.3718 10.5458 21.0281C10.5537 27.6811 15.945 33.0724 22.598 33.0803C29.2542 33.0803 34.6502 27.6843 34.6502 21.0281C34.6502 14.3718 29.2542 8.97583 22.598 8.97583ZM22.598 31.5738C16.7738 31.5738 12.0523 26.8523 12.0523 21.0281C12.0585 15.2065 16.7764 10.4886 22.598 10.4824C28.4222 10.4824 33.1437 15.2038 33.1437 21.0281C33.1437 26.8523 28.4222 31.5738 22.598 31.5738Z" fill="#FFAE0D"/>
<path d="M42.9361 4.4563H2.25979C1.01173 4.4563 0 5.46803 0 6.71609V39.8597C0 41.1078 1.01173 42.1195 2.25979 42.1195H42.9361C44.1841 42.1195 45.1959 41.1078 45.1959 39.8597V6.71609C45.1959 5.46803 44.1841 4.4563 42.9361 4.4563ZM43.6893 39.8597C43.6893 40.2757 43.3521 40.613 42.9361 40.613H2.25979C1.8438 40.613 1.50653 40.2757 1.50653 39.8597V6.71609C1.50653 6.3001 1.8438 5.96283 2.25979 5.96283H42.9361C43.3521 5.96283 43.6893 6.3001 43.6893 6.71609V39.8597Z" fill="#FFAE0D"/>
<path d="M4.51971 7.46924H3.01318V8.97577H4.51971V7.46924Z" fill="#FFAE0D"/>
<path d="M7.53265 7.46924H6.02612V8.97577H7.53265V7.46924Z" fill="#FFAE0D"/>
<path d="M10.5457 7.46924H9.03918V8.97577H10.5457V7.46924Z" fill="#FFAE0D"/>
</g>
<defs>
<clipPath id="clip0_3:118">
<rect width="45.1959" height="45.1959" fill="white" transform="translate(0 0.689819)"/>
</clipPath>
</defs>
</svg>
