<svg width="56" height="56" viewBox="0 0 56 56" fill="none" xmlns="http://www.w3.org/2000/svg">
<path d="M17.0169 13.1817C15.1158 13.1093 15.1173 10.3841 17.0169 10.3125H18.3349C20.5094 10.2318 20.5078 7.1112 18.3349 7.03125H17.0169C14.4167 7.03125 12.301 9.14678 12.301 11.7472C12.301 14.3476 14.4166 16.4631 17.0169 16.4631C18.9164 16.5342 18.918 19.2605 17.0169 19.3323H15.699C13.5245 19.413 13.5261 22.5336 15.699 22.6136H17.0169C23.2663 22.3756 23.2615 13.4173 17.0169 13.1817V13.1817Z" fill="white"/>
<path d="M33.1552 14.8222V14.8205C33.1552 10.5253 29.6609 7.03113 25.3641 7.03113C24.4581 7.03113 23.7235 7.76569 23.7235 8.67175V20.9728C23.7235 21.8789 24.4581 22.6135 25.3641 22.6135C29.6602 22.6135 33.1552 19.1184 33.1552 14.8222V14.8222ZM29.874 14.8222C29.874 16.7304 28.6826 18.3657 27.0048 19.0233V10.6206C28.6826 11.2776 29.874 12.9127 29.874 14.8205V14.8222Z" fill="white"/>
<path d="M36.7865 22.6135C37.6926 22.6135 38.4271 21.879 38.4271 20.9729V18.7117L40.7233 21.9263C41.25 22.6636 42.2747 22.8345 43.012 22.3077C43.7493 21.7811 43.92 20.7563 43.3934 20.019L39.5911 14.6959L43.3709 9.6562C43.9146 8.93137 43.7676 7.90303 43.0427 7.35932C42.3178 6.81562 41.2896 6.96273 40.7459 7.68745L38.4271 10.779V8.67182C38.3464 6.49734 35.2258 6.49898 35.1459 8.67182V20.9729C35.1459 21.879 35.8804 22.6135 36.7865 22.6135V22.6135Z" fill="white"/>
<path d="M53.5213 16.9633L49.8495 15.1273V5.15835C49.8495 2.31131 47.5462 0.00317383 44.6943 0.00317383H11.3058C8.45873 0.00317383 6.15059 2.30639 6.15059 5.15835V15.1274L2.47877 16.9634C0.949813 17.7277 0 19.2645 0 20.974V38.5469C0 41.3401 1.55203 43.8514 4.05038 45.1006L23.9373 55.0441C26.4506 56.3174 29.5494 56.3174 32.0627 55.0441L51.9496 45.1006C54.448 43.8514 56 41.3401 56 38.5469V20.974C56 19.2645 55.0502 17.7277 53.5213 16.9633V16.9633ZM9.43173 5.15835C9.43173 4.123 10.2694 3.28442 11.3057 3.28442H44.6942C45.7296 3.28442 46.5682 4.12213 46.5682 5.15835V24.7926L30.5952 32.779C28.9897 33.5925 27.0102 33.5925 25.4046 32.779L9.43173 24.7925V5.15835ZM3.94603 19.8982L6.15048 18.7959V23.1517L3.94592 22.0495C3.06687 21.6303 3.06731 20.3173 3.94603 19.8982ZM52.7188 38.5469C52.7188 40.0893 51.8618 41.4759 50.4823 42.1657L30.5954 52.1092C28.9898 52.9226 27.0103 52.9226 25.4048 52.1092L5.51775 42.1657C4.1382 41.476 3.28125 40.0893 3.28125 38.5469V25.3858L23.9373 35.7139C26.4505 36.9872 29.5494 36.9872 32.0626 35.7139L52.7188 25.3858V38.5469ZM52.054 22.0497L49.8495 23.152V18.796L52.054 19.8983C52.933 20.3175 52.9328 21.6305 52.054 22.0497Z" fill="white"/>
</svg>
