<?xml version="1.0" encoding="UTF-8"?>
<svg width="88px" height="88px" viewBox="0 0 88 88" version="1.1" xmlns="http://www.w3.org/2000/svg" xmlns:xlink="http://www.w3.org/1999/xlink">
    <!-- Generator: Sketch 59 (86127) - https://sketch.com -->
    <title>stake</title>
    <desc>Created with Sketch.</desc>
    <g id="stake" stroke="none" stroke-width="1" fill="none" fill-rule="evenodd">
        <g id="coins-(1)" transform="translate(5.000000, 12.000000)" fill="#5158FA" fill-rule="nonzero">
            <path d="M38.502401,51.1360014 C37.672193,51.1360014 36.998401,51.8097934 36.998401,52.6400014 C36.998401,53.4702095 37.672193,54.1440015 38.502401,54.1440015 C39.3326091,54.1440015 40.0064011,53.4702095 40.0064011,52.6400014 C40.0064011,51.8097934 39.3326091,51.1360014 38.502401,51.1360014 Z" id="Path"></path>
            <path d="M70.5506867,2.31164806 C66.8496434,0.821033622 62.0377457,0 57.0016016,0 C51.9654574,0 47.1535597,0.821033622 43.4525164,2.31164806 C41.2653995,3.19254089 39.5955083,4.26910412 38.502401,5.47711695 C37.4092938,4.26910412 35.7394026,3.19269129 33.5522857,2.31179846 C29.8512424,0.821033622 25.0393447,0 20.0032005,0 C14.9670564,0 10.1551587,0.821033622 6.45411538,2.31164806 C2.29209606,3.98800651 0,6.37184657 0,9.02400025 L0,45.1200012 C0,47.7721549 2.29209606,50.155995 6.45411538,51.8323534 C9.89632027,53.2187407 14.2997316,54.0248847 18.9504005,54.1310671 L18.9504005,54.1440015 C18.9504005,59.288584 27.3559559,63.1680017 38.502401,63.1680017 C49.6488462,63.1680017 58.0544016,59.288584 58.0544016,54.1440015 L58.0544016,54.1310671 C62.7050705,54.0248847 67.1084818,53.2187407 70.5506867,51.8323534 C74.712706,50.155995 77.0048021,47.7721549 77.0048021,45.1200012 L77.0048021,9.02400025 C77.0048021,6.37184657 74.712706,3.98800651 70.5506867,2.31164806 Z M73.9969524,36.096001 C73.9969524,37.3799658 72.2456948,38.8827627 69.4268979,40.0181323 C66.3760338,41.2469003 62.2800401,41.9903275 58.0544016,42.0971115 L58.0544016,36.096001 C58.0544016,36.0916394 58.0541008,36.0872778 58.0541008,36.0830666 C62.7049201,35.9770346 67.1083314,35.1708906 70.5508371,33.7843529 C71.9018804,33.2402057 73.0543956,32.6211593 73.9969524,31.9428553 L73.9969524,36.096001 L73.9969524,36.096001 Z M36.998401,18.0480005 C36.998401,19.3319653 35.2472938,20.8347622 32.4284969,21.9701318 C29.12466,23.300871 24.5958151,24.0640007 20.0032005,24.0640007 C15.410586,24.0640007 10.8817411,23.300871 7.57790421,21.9701318 C4.75910733,20.8347622 3.00800008,19.3319653 3.00800008,18.0480005 L3.00800008,13.8948548 C3.95055691,14.5731588 5.10307214,15.1922052 6.45411538,15.7363524 C10.1551587,17.2269669 14.9670564,18.0480005 20.0032005,18.0480005 C25.0393447,18.0480005 29.8512424,17.2269669 33.5522857,15.7363524 C34.903329,15.1922052 36.0558442,14.5731588 36.998401,13.8948548 L36.998401,18.0480005 Z M6.45411538,24.7603527 C10.1551587,26.2509671 14.9670564,27.0720007 20.0032005,27.0720007 C25.0393447,27.0720007 29.8512424,26.2509671 33.5522857,24.7603527 C34.903329,24.2162055 36.0558442,23.597159 36.998401,22.918855 L36.998401,27.0986215 C33.1075529,27.2303719 29.3761288,27.8689704 26.3580519,28.9318472 C23.330951,29.9980328 21.1527078,31.4197641 19.9681573,33.0875497 C15.3875748,33.0836393 10.8733187,32.3214121 7.57790421,30.994132 C4.75910733,29.8587624 3.00800008,28.3559656 3.00800008,27.0720007 L3.00800008,22.918855 C3.95055691,23.597159 5.10307214,24.2162055 6.45411538,24.7603527 Z M3.00800008,31.9428553 C3.95055691,32.6211593 5.10307214,33.2402057 6.45411538,33.7843529 C9.89647067,35.1707402 14.3000324,35.9768842 18.9508517,36.0830666 C18.9508517,36.0874282 18.9505509,36.0917898 18.9505509,36.096001 L18.9505509,42.0971115 C14.724762,41.9903275 10.6289187,41.2469003 7.57805461,40.0181323 C4.75910733,38.8827627 3.00800008,37.3799658 3.00800008,36.096001 L3.00800008,31.9428553 Z M22.1175238,35.3570858 C23.2321382,32.7631369 29.6654984,30.0800008 38.502401,30.0800008 C47.3393037,30.0800008 53.7726639,32.7631369 54.8860751,35.3540778 C54.9940623,35.6069002 55.0464015,35.8494954 55.0464015,36.096001 C55.0464015,37.4183178 53.4162159,38.8871243 50.6855534,40.0249003 C47.4555629,41.3708299 43.1288556,42.1120011 38.502401,42.1120011 C33.8759465,42.1120011 29.5492392,41.3708299 26.3192487,40.0249003 C23.5885862,38.8871243 21.9584006,37.4183178 21.9584006,36.096001 C21.9584006,35.8494954 22.0108902,35.6069002 22.1175238,35.3570858 Z M73.996802,27.0720007 C73.996802,28.3559656 72.2456948,29.8587624 69.4268979,30.994132 C66.1316338,32.3214121 61.6175281,33.0836393 57.037096,33.0875497 C55.8534479,31.4206665 53.6749039,29.9983336 50.6467502,28.9318472 C47.6286733,27.86882 43.8972492,27.2303719 40.0064011,27.0986215 L40.0064011,22.918855 C40.9489579,23.597159 42.1014731,24.2162055 43.4525164,24.7603527 C47.1535597,26.2509671 51.9654574,27.0720007 57.0016016,27.0720007 C62.0377457,27.0720007 66.8496434,26.2509671 70.5506867,24.7603527 C71.90173,24.2162055 73.0542452,23.597159 73.996802,22.918855 L73.996802,27.0720007 Z M73.996802,18.0480005 C73.996802,19.3319653 72.2456948,20.8347622 69.4268979,21.9701318 C66.123061,23.300871 61.5942161,24.0640007 57.0016016,24.0640007 C52.408987,24.0640007 47.8801421,23.300871 44.5763052,21.9701318 C41.7575083,20.8347622 40.0064011,19.3319653 40.0064011,18.0480005 L40.0064011,13.8948548 C40.9489579,14.5731588 42.1014731,15.1922052 43.4525164,15.7363524 C47.1535597,17.2269669 51.9654574,18.0480005 57.0016016,18.0480005 C62.0377457,18.0480005 66.8496434,17.2269669 70.5506867,15.7363524 C71.90173,15.1922052 73.0542452,14.5731588 73.996802,13.8948548 L73.996802,18.0480005 Z M44.5763052,5.10186894 C47.8801421,3.7711297 52.408987,3.00800008 57.0016016,3.00800008 C61.5942161,3.00800008 66.123061,3.7711297 69.4268979,5.10186894 C72.2456948,6.23723857 73.996802,7.74003541 73.996802,9.02400025 C73.996802,10.3079651 72.2456948,11.8107619 69.4268979,12.9461316 C66.123061,14.2768708 61.5942161,15.0400004 57.0016016,15.0400004 C52.408987,15.0400004 47.8801421,14.2768708 44.5763052,12.9461316 C41.7575083,11.8107619 40.0064011,10.3079651 40.0064011,9.02400025 C40.0064011,7.74003541 41.7575083,6.23723857 44.5763052,5.10186894 Z M7.57790421,5.10186894 C10.8817411,3.7711297 15.410586,3.00800008 20.0032005,3.00800008 C24.5958151,3.00800008 29.12466,3.7711297 32.4284969,5.10186894 C35.2472938,6.23723857 36.998401,7.74003541 36.998401,9.02400025 C36.998401,10.3079651 35.2472938,11.8107619 32.4284969,12.9461316 C29.12466,14.2768708 24.5958151,15.0400004 20.0032005,15.0400004 C15.410586,15.0400004 10.8817411,14.2768708 7.57790421,12.9461316 C4.75910733,11.8107619 3.00800008,10.3079651 3.00800008,9.02400025 C3.00800008,7.74003541 4.75910733,6.23723857 7.57790421,5.10186894 Z M7.57790421,49.0421325 C4.75910733,47.9067629 3.00800008,46.4039661 3.00800008,45.1200012 L3.00800008,40.9668555 C3.95055691,41.6451595 5.10307214,42.264206 6.45411538,42.8083532 C9.89632027,44.1947404 14.2997316,45.0008844 18.9504005,45.1070668 L18.9504005,51.1212622 C14.7246116,51.0143278 10.6287683,50.271051 7.57790421,49.0421325 Z M50.6855534,58.0729008 C47.4555629,59.4188304 43.1288556,60.1600016 38.502401,60.1600016 C33.8759465,60.1600016 29.5492392,59.4188304 26.3192487,58.0729008 C23.5885862,56.9351248 21.9584006,55.4663183 21.9584006,54.1440015 L21.9584006,50.078539 C22.2990566,50.3250446 22.6755078,50.5700462 23.0930182,50.8115886 C25.4285799,52.163083 28.6063816,53.1627918 32.2830601,53.7024271 C32.3572073,53.7132559 32.4306025,53.7185199 32.5033961,53.7185199 C33.2373481,53.7185199 33.8797065,53.1805391 33.9894985,52.4327502 C34.1101193,51.6109646 33.5416073,50.8469326 32.7199721,50.7263118 C25.7301319,49.7001326 21.9584006,47.0720429 21.9584006,45.1200012 L21.9584006,41.0411531 C25.3625543,43.532078 31.3714857,45.1200012 38.502401,45.1200012 C45.6333164,45.1200012 51.6422478,43.532078 55.0464015,41.0411531 L55.0464015,45.1200012 C55.0464015,47.0720429 51.2746702,49.7001326 44.28483,50.7263118 C43.4630444,50.8469326 42.8945324,51.6109646 43.0153036,52.4327502 C43.1250956,53.1806895 43.767454,53.7185199 44.501406,53.7185199 C44.5740492,53.7185199 44.6477452,53.7132559 44.721742,53.7024271 C48.3982701,53.1627918 51.5760718,52.1632334 53.9117839,50.8115886 C54.3291439,50.5700462 54.7057455,50.3250446 55.0464015,50.078539 L55.0464015,54.1440015 C55.0464015,55.4663183 53.4162159,56.9351248 50.6855534,58.0729008 Z M69.4268979,49.0421325 C66.3760338,50.2709006 62.2800401,51.0143278 58.0544016,51.1211118 L58.0544016,45.1069164 C62.7050705,45.000734 67.1084818,44.19459 70.5506867,42.8082028 C71.90173,42.2640556 73.0542452,41.6450091 73.996802,40.9667051 L73.996802,45.1200012 C73.996802,46.4039661 72.2456948,47.9067629 69.4268979,49.0421325 Z" id="Shape"></path>
        </g>
    </g>
</svg>