<svg width="49" height="49" viewBox="0 0 49 49" fill="none" xmlns="http://www.w3.org/2000/svg">
<path d="M44.4427 2.18323H3.76638C3.16705 2.18323 2.59226 2.42131 2.16847 2.84511C1.74468 3.2689 1.50659 3.84369 1.50659 4.44302V45.1193C1.50659 45.7186 1.74468 46.2934 2.16847 46.7172C2.59226 47.141 3.16705 47.3791 3.76638 47.3791H44.4427C45.042 47.3791 45.6168 47.141 46.0406 46.7172C46.4644 46.2934 46.7025 45.7186 46.7025 45.1193V4.44302C46.7025 3.84369 46.4644 3.2689 46.0406 2.84511C45.6168 2.42131 45.042 2.18323 44.4427 2.18323V2.18323ZM3.01312 4.44302C3.01312 4.24324 3.09248 4.05165 3.23375 3.91038C3.37501 3.76912 3.56661 3.68976 3.76638 3.68976H44.4427C44.6424 3.68976 44.834 3.76912 44.9753 3.91038C45.1166 4.05165 45.1959 4.24324 45.1959 4.44302V11.2224H3.01312V4.44302ZM45.1959 45.1193C45.1959 45.3191 45.1166 45.5107 44.9753 45.6519C44.834 45.7932 44.6424 45.8726 44.4427 45.8726H3.76638C3.56661 45.8726 3.37501 45.7932 3.23375 45.6519C3.09248 45.5107 3.01312 45.3191 3.01312 45.1193V12.7289H45.1959V45.1193Z" fill="#FFAE0D"/>
<path d="M41.4294 9.716H23.3511C22.7518 9.716 22.177 9.47791 21.7532 9.05412C21.3294 8.63033 21.0913 8.05554 21.0913 7.4562C21.0913 6.85687 21.3294 6.28208 21.7532 5.85829C22.177 5.4345 22.7518 5.19641 23.3511 5.19641H41.4294C42.0288 5.19641 42.6036 5.4345 43.0274 5.85829C43.4512 6.28208 43.6892 6.85687 43.6892 7.4562C43.6892 8.05554 43.4512 8.63033 43.0274 9.05412C42.6036 9.47791 42.0288 9.716 41.4294 9.716ZM23.3511 6.70294C23.1513 6.70294 22.9597 6.7823 22.8185 6.92357C22.6772 7.06483 22.5978 7.25643 22.5978 7.4562C22.5978 7.65598 22.6772 7.84758 22.8185 7.98884C22.9597 8.13011 23.1513 8.20947 23.3511 8.20947H41.4294C41.6292 8.20947 41.8208 8.13011 41.9621 7.98884C42.1033 7.84758 42.1827 7.65598 42.1827 7.4562C42.1827 7.25643 42.1033 7.06483 41.9621 6.92357C41.8208 6.7823 41.6292 6.70294 41.4294 6.70294H23.3511Z" fill="#FFAE0D"/>
<path d="M6.77933 9.716C6.33238 9.716 5.89547 9.58346 5.52385 9.33515C5.15223 9.08684 4.86259 8.73391 4.69155 8.32099C4.52051 7.90807 4.47576 7.4537 4.56295 7.01534C4.65015 6.57698 4.86537 6.17433 5.18141 5.85829C5.49745 5.54225 5.9001 5.32703 6.33846 5.23983C6.77682 5.15264 7.23119 5.19739 7.64411 5.36843C8.05703 5.53947 8.40996 5.82911 8.65827 6.20073C8.90658 6.57235 9.03912 7.00926 9.03912 7.45621C9.03912 8.05554 8.80103 8.63033 8.37724 9.05412C7.95345 9.47791 7.37866 9.716 6.77933 9.716ZM6.77933 6.70294C6.63034 6.70294 6.48471 6.74712 6.36083 6.82989C6.23696 6.91266 6.14041 7.0303 6.0834 7.16794C6.02639 7.30558 6.01147 7.45704 6.04053 7.60316C6.0696 7.74928 6.14134 7.8835 6.24669 7.98884C6.35203 8.09419 6.48625 8.16593 6.63237 8.195C6.77849 8.22406 6.92995 8.20914 7.06759 8.15213C7.20523 8.09512 7.32287 7.99857 7.40564 7.8747C7.48841 7.75082 7.53259 7.60519 7.53259 7.45621C7.53259 7.25643 7.45323 7.06483 7.31196 6.92357C7.1707 6.7823 6.9791 6.70294 6.77933 6.70294Z" fill="#FFAE0D"/>
<path d="M12.052 9.716C11.6051 9.716 11.1682 9.58346 10.7966 9.33515C10.4249 9.08684 10.1353 8.73391 9.96425 8.32099C9.79322 7.90807 9.74846 7.4537 9.83566 7.01534C9.92285 6.57698 10.1381 6.17433 10.4541 5.85829C10.7702 5.54225 11.1728 5.32703 11.6112 5.23983C12.0495 5.15264 12.5039 5.19739 12.9168 5.36843C13.3297 5.53947 13.6827 5.82911 13.931 6.20073C14.1793 6.57235 14.3118 7.00926 14.3118 7.45621C14.3118 8.05554 14.0737 8.63033 13.6499 9.05412C13.2262 9.47791 12.6514 9.716 12.052 9.716ZM12.052 6.70294C11.903 6.70294 11.7574 6.74712 11.6335 6.82989C11.5097 6.91266 11.4131 7.0303 11.3561 7.16794C11.2991 7.30558 11.2842 7.45704 11.3132 7.60316C11.3423 7.74928 11.414 7.8835 11.5194 7.98884C11.6247 8.09419 11.759 8.16593 11.9051 8.195C12.0512 8.22406 12.2027 8.20914 12.3403 8.15213C12.4779 8.09512 12.5956 7.99857 12.6783 7.8747C12.7611 7.75082 12.8053 7.60519 12.8053 7.45621C12.8053 7.25643 12.7259 7.06483 12.5847 6.92357C12.4434 6.7823 12.2518 6.70294 12.052 6.70294Z" fill="#FFAE0D"/>
<path d="M17.3247 9.716C16.8778 9.716 16.4409 9.58346 16.0693 9.33515C15.6976 9.08684 15.408 8.73391 15.237 8.32099C15.0659 7.90807 15.0212 7.4537 15.1084 7.01534C15.1956 6.57698 15.4108 6.17433 15.7268 5.85829C16.0429 5.54225 16.4455 5.32703 16.8839 5.23983C17.3222 5.15264 17.7766 5.19739 18.1895 5.36843C18.6024 5.53947 18.9554 5.82911 19.2037 6.20073C19.452 6.57235 19.5845 7.00926 19.5845 7.45621C19.5845 8.05554 19.3464 8.63033 18.9227 9.05412C18.4989 9.47791 17.9241 9.716 17.3247 9.716ZM17.3247 6.70294C17.1758 6.70294 17.0301 6.74712 16.9062 6.82989C16.7824 6.91266 16.6858 7.0303 16.6288 7.16794C16.5718 7.30558 16.5569 7.45704 16.5859 7.60316C16.615 7.74928 16.6868 7.8835 16.7921 7.98884C16.8974 8.09419 17.0317 8.16593 17.1778 8.195C17.3239 8.22406 17.4754 8.20914 17.613 8.15213C17.7506 8.09512 17.8683 7.99857 17.9511 7.8747C18.0338 7.75082 18.078 7.60519 18.078 7.45621C18.078 7.25643 17.9986 7.06483 17.8574 6.92357C17.7161 6.7823 17.5245 6.70294 17.3247 6.70294Z" fill="#FFAE0D"/>
<path d="M20.338 26.2876H8.28574C8.08596 26.2876 7.89436 26.2083 7.7531 26.067C7.61183 25.9258 7.53247 25.7342 7.53247 25.5344V16.4952C7.53247 16.2954 7.61183 16.1038 7.7531 15.9626C7.89436 15.8213 8.08596 15.7419 8.28574 15.7419H20.338C20.5377 15.7419 20.7293 15.8213 20.8706 15.9626C21.0119 16.1038 21.0912 16.2954 21.0912 16.4952V25.5344C21.0912 25.7342 21.0119 25.9258 20.8706 26.067C20.7293 26.2083 20.5377 26.2876 20.338 26.2876ZM9.039 24.7811H19.5847V17.2485H9.039V24.7811Z" fill="#FFAE0D"/>
<path d="M39.923 18.7551H24.8578C24.658 18.7551 24.4664 18.6757 24.3251 18.5344C24.1839 18.3932 24.1045 18.2016 24.1045 18.0018C24.1045 17.802 24.1839 17.6104 24.3251 17.4692C24.4664 17.3279 24.658 17.2485 24.8578 17.2485H39.923C40.1228 17.2485 40.3144 17.3279 40.4557 17.4692C40.5969 17.6104 40.6763 17.802 40.6763 18.0018C40.6763 18.2016 40.5969 18.3932 40.4557 18.5344C40.3144 18.6757 40.1228 18.7551 39.923 18.7551Z" fill="#FFAE0D"/>
<path d="M39.923 21.7681H24.8578C24.658 21.7681 24.4664 21.6888 24.3251 21.5475C24.1839 21.4062 24.1045 21.2146 24.1045 21.0149C24.1045 20.8151 24.1839 20.6235 24.3251 20.4822C24.4664 20.341 24.658 20.2616 24.8578 20.2616H39.923C40.1228 20.2616 40.3144 20.341 40.4557 20.4822C40.5969 20.6235 40.6763 20.8151 40.6763 21.0149C40.6763 21.2146 40.5969 21.4062 40.4557 21.5475C40.3144 21.6888 40.1228 21.7681 39.923 21.7681Z" fill="#FFAE0D"/>
<path d="M39.923 24.7812H24.8578C24.658 24.7812 24.4664 24.7018 24.3251 24.5606C24.1839 24.4193 24.1045 24.2277 24.1045 24.0279C24.1045 23.8281 24.1839 23.6365 24.3251 23.4953C24.4664 23.354 24.658 23.2747 24.8578 23.2747H39.923C40.1228 23.2747 40.3144 23.354 40.4557 23.4953C40.5969 23.6365 40.6763 23.8281 40.6763 24.0279C40.6763 24.2277 40.5969 24.4193 40.4557 24.5606C40.3144 24.7018 40.1228 24.7812 39.923 24.7812Z" fill="#FFAE0D"/>
<path d="M39.9229 32.3139H32.3902C32.1904 32.3139 31.9989 32.2345 31.8576 32.0933C31.7163 31.952 31.637 31.7604 31.637 31.5606V28.5476C31.637 28.3478 31.7163 28.1562 31.8576 28.0149C31.9989 27.8737 32.1904 27.7943 32.3902 27.7943H39.9229C40.1226 27.7943 40.3142 27.8737 40.4555 28.0149C40.5968 28.1562 40.6761 28.3478 40.6761 28.5476V31.5606C40.6761 31.7604 40.5968 31.952 40.4555 32.0933C40.3142 32.2345 40.1226 32.3139 39.9229 32.3139ZM33.1435 30.8074H39.1696V29.3008H33.1435V30.8074Z" fill="#FFAE0D"/>
<path d="M15.8184 32.3139H8.28574C8.08596 32.3139 7.89436 32.2345 7.7531 32.0933C7.61183 31.952 7.53247 31.7604 7.53247 31.5606V28.5476C7.53247 28.3478 7.61183 28.1562 7.7531 28.0149C7.89436 27.8737 8.08596 27.7943 8.28574 27.7943H15.8184C16.0182 27.7943 16.2098 27.8737 16.351 28.0149C16.4923 28.1562 16.5716 28.3478 16.5716 28.5476V31.5606C16.5716 31.7604 16.4923 31.952 16.351 32.0933C16.2098 32.2345 16.0182 32.3139 15.8184 32.3139ZM9.039 30.8074H15.0651V29.3008H9.039V30.8074Z" fill="#FFAE0D"/>
<path d="M27.8706 32.3139H20.338C20.1382 32.3139 19.9466 32.2345 19.8053 32.0933C19.6641 31.952 19.5847 31.7604 19.5847 31.5606V28.5476C19.5847 28.3478 19.6641 28.1562 19.8053 28.0149C19.9466 27.8737 20.1382 27.7943 20.338 27.7943H27.8706C28.0704 27.7943 28.262 27.8737 28.4033 28.0149C28.5445 28.1562 28.6239 28.3478 28.6239 28.5476V31.5606C28.6239 31.7604 28.5445 31.952 28.4033 32.0933C28.262 32.2345 28.0704 32.3139 27.8706 32.3139ZM21.0912 30.8074H27.1174V29.3008H21.0912V30.8074Z" fill="#FFAE0D"/>
<path d="M39.9228 42.8595H8.28574C8.08596 42.8595 7.89436 42.7801 7.7531 42.6389C7.61183 42.4976 7.53247 42.306 7.53247 42.1062V34.5736C7.53247 34.3738 7.61183 34.1822 7.7531 34.0409C7.89436 33.8997 8.08596 33.8203 8.28574 33.8203H39.9228C40.1226 33.8203 40.3142 33.8997 40.4555 34.0409C40.5967 34.1822 40.6761 34.3738 40.6761 34.5736V42.1062C40.6761 42.306 40.5967 42.4976 40.4555 42.6389C40.3142 42.7801 40.1226 42.8595 39.9228 42.8595ZM9.039 41.353H39.1696V35.3268H9.039V41.353Z" fill="#FFAE0D"/>
</svg>
