<svg width="14" height="14" viewBox="0 0 14 14" fill="none" xmlns="http://www.w3.org/2000/svg">
<path d="M1.35355 0.646447C1.15829 0.451184 0.841709 0.451184 0.646447 0.646447C0.451184 0.841709 0.451184 1.15829 0.646447 1.35355L1.35355 0.646447ZM13 13.5C13.2761 13.5 13.5 13.2761 13.5 13L13.5 8.5C13.5 8.22386 13.2761 8 13 8C12.7239 8 12.5 8.22386 12.5 8.5L12.5 12.5L8.5 12.5C8.22386 12.5 8 12.7239 8 13C8 13.2761 8.22386 13.5 8.5 13.5L13 13.5ZM0.646447 1.35355L12.6464 13.3536L13.3536 12.6464L1.35355 0.646447L0.646447 1.35355Z" fill="#5158FA"/>
</svg>
