<?xml version="1.0" encoding="UTF-8"?>
<svg width="88px" height="88px" viewBox="0 0 88 88" version="1.1" xmlns="http://www.w3.org/2000/svg" xmlns:xlink="http://www.w3.org/1999/xlink">
    <!-- Generator: Sketch 59 (86127) - https://sketch.com -->
    <title>vote</title>
    <desc>Created with Sketch.</desc>
    <g id="vote" stroke="none" stroke-width="1" fill="none" fill-rule="evenodd">
        <path d="M65.2000018,43.5997444 C64.881768,43.5997444 64.5765931,43.4732036 64.3516018,43.2481444 L62.2000017,41.0965443 L60.0484016,43.2481444 C59.5798018,43.7166027 58.8202014,43.7166027 58.3516016,43.2481444 L55.3516014,40.2481442 C54.8831431,39.7795444 54.8831431,39.019944 55.3516014,38.5513442 L57.5032015,36.3997441 L55.3516014,34.248144 C54.8831431,33.7795442 54.8831431,33.0199438 55.3516014,32.5513439 L58.3516016,29.5513438 C58.8202014,29.0828855 59.5798018,29.0828855 60.0484016,29.5513438 L62.2000017,31.7029439 L64.3516018,29.5513438 C64.8202016,29.0828855 65.579802,29.0828855 66.0484019,29.5513438 L69.048402,32.5513439 C69.5168603,33.0199438 69.5168603,33.7795442 69.048402,34.248144 L66.8968019,36.3997441 L69.048402,38.5513442 C69.5168603,39.019944 69.5168603,39.7795444 69.048402,40.2481442 L66.0484019,43.2481444 C65.8234106,43.4732036 65.5182356,43.5997444 65.2000018,43.5997444 Z M62.2000017,38.1997441 C62.5182355,38.1998121 62.8234105,38.3262849 63.0484018,38.5513442 L65.2000018,40.7029442 L66.5032019,39.3997442 L64.3516018,37.2481441 C63.8831435,36.7795443 63.8831435,36.0199439 64.3516018,35.551344 L66.5032019,33.399744 L65.2000018,32.0965439 L63.0484018,34.248144 C62.5798019,34.7166023 61.8202015,34.7166023 61.3516017,34.248144 L59.2000016,32.0965439 L57.8968015,33.399744 L60.0484016,35.551344 C60.51686,36.0199439 60.51686,36.7795443 60.0484016,37.2481441 L57.8968015,39.3997442 L59.2000016,40.7029442 L61.3516017,38.5513442 C61.576593,38.3262849 61.8817679,38.1998121 62.2000017,38.1997441 Z" id="Shape" fill="white" fill-rule="nonzero"></path>
        <path d="M21.4000003,44.7997444 C21.0817665,44.7997444 20.7765916,44.6732037 20.5516003,44.4481444 L14.5516001,38.4481442 C14.0831417,37.9795443 14.0831417,37.2199439 14.5516001,36.7513441 L18.1516002,33.1513439 C18.6202,32.6828856 19.3798004,32.6828856 19.8484003,33.1513439 L21.4000003,34.702944 L27.7516006,28.3513438 C28.2202004,27.8828854 28.9798008,27.8828854 29.4484007,28.3513438 L33.0484008,31.9513439 C33.5168591,32.4199437 33.5168591,33.1795441 33.0484008,33.648144 L22.2484004,44.4481444 C22.0234091,44.6732037 21.7182341,44.7997444 21.4000003,44.7997444 L21.4000003,44.7997444 Z M17.0968002,37.5997441 L21.4000003,41.9029443 L30.5032007,32.7997439 L28.6000006,30.8965439 L22.2484004,37.2481441 C21.7798005,37.7166025 21.0202001,37.7166025 20.5516003,37.2481441 L19.0000002,35.6965441 L17.0968002,37.5997441 Z" id="Shape" fill="white" fill-rule="nonzero"></path>
        <path d="M14.2,48.3997446 C14.8627418,48.3997446 15.4000001,48.9370029 15.4000001,49.5997446 C15.4000001,50.2624863 14.8627418,50.7997447 14.2,50.7997447 C13.5372583,50.7997447 13,50.2624863 13,49.5997446 C13,48.9370029 13.5372583,48.3997446 14.2,48.3997446 Z" id="Path" fill="white" fill-rule="nonzero"></path>
        <path d="M19.0000002,48.3997446 L34.6000001,48.3997446 C35.2627419,48.3997446 35.8000002,48.9370029 35.8000002,49.5997446 C35.8000002,50.2624863 35.2627419,50.7997447 34.6000001,50.7997447 L19.0000002,50.7997447 C18.3372585,50.7997447 17.8000002,50.2624863 17.8000002,49.5997446 C17.8000002,48.9370029 18.3372585,48.3997446 19.0000002,48.3997446 Z" id="Path" fill="white" fill-rule="nonzero"></path>
        <path d="M19.2,47 L68.8,47 C69.4627417,47 70,47.5372583 70,48.2 C70,48.8627418 69.4627417,49.4000001 68.8,49.4000001 L19.2,49.4000001 C18.5372583,49.4000001 18,48.8627418 18,48.2 C18,47.5372583 18.5372583,47 19.2,47 Z" id="Path-Copy" fill="white" fill-rule="nonzero" transform="translate(44.000000, 48.200000) rotate(-90.000000) translate(-44.000000, -48.200000) "></path>
        <path d="M14.2,53.1997447 L34.6000009,53.1997447 C35.2627426,53.1997447 35.8000009,53.7370031 35.8000009,54.3997448 C35.8000009,55.0624865 35.2627426,55.5997448 34.6000009,55.5997448 L14.2,55.5997448 C13.5372583,55.5997448 13,55.0624865 13,54.3997448 C13,53.7370031 13.5372583,53.1997447 14.2,53.1997447 Z" id="Path" fill="white" fill-rule="nonzero"></path>
        <path d="M14.2,57.9997449 L34.6000009,57.9997449 C35.2627426,57.9997449 35.8000009,58.5370033 35.8000009,59.199745 C35.8000009,59.8624867 35.2627426,60.399745 34.6000009,60.399745 L14.2,60.399745 C13.5372583,60.399745 13,59.8624867 13,59.199745 C13,58.5370033 13.5372583,57.9997449 14.2,57.9997449 Z" id="Path" fill="white" fill-rule="nonzero"></path>
        <path d="M52.6000013,48.3997446 C53.2627431,48.3997446 53.8000014,48.9370029 53.8000014,49.5997446 C53.8000014,50.2624863 53.2627431,50.7997447 52.6000013,50.7997447 C51.9372596,50.7997447 51.4000013,50.2624863 51.4000013,49.5997446 C51.4000013,48.9370029 51.9372596,48.3997446 52.6000013,48.3997446 Z" id="Path" fill="white" fill-rule="nonzero"></path>
        <path d="M57.4000015,48.3997446 L73.0000014,48.3997446 C73.6627432,48.3997446 74.2000015,48.9370029 74.2000015,49.5997446 C74.2000015,50.2624863 73.6627432,50.7997447 73.0000014,50.7997447 L57.4000015,50.7997447 C56.7372598,50.7997447 56.2000015,50.2624863 56.2000015,49.5997446 C56.2000015,48.9370029 56.7372598,48.3997446 57.4000015,48.3997446 Z" id="Path" fill="white" fill-rule="nonzero"></path>
        <path d="M52.6000013,53.1997447 L73.0000021,53.1997447 C73.6627439,53.1997447 74.2000022,53.7370031 74.2000022,54.3997448 C74.2000022,55.0624865 73.6627439,55.5997448 73.0000021,55.5997448 L52.6000013,55.5997448 C51.9372596,55.5997448 51.4000013,55.0624865 51.4000013,54.3997448 C51.4000013,53.7370031 51.9372596,53.1997447 52.6000013,53.1997447 Z" id="Path" fill="white" fill-rule="nonzero"></path>
        <path d="M52.6000013,57.9997449 L73.0000021,57.9997449 C73.6627439,57.9997449 74.2000022,58.5370033 74.2000022,59.199745 C74.2000022,59.8624867 73.6627439,60.399745 73.0000021,60.399745 L52.6000013,60.399745 C51.9372596,60.399745 51.4000013,59.8624867 51.4000013,59.199745 C51.4000013,58.5370033 51.9372596,57.9997449 52.6000013,57.9997449 Z" id="Path" fill="white" fill-rule="nonzero"></path>
        <g id="Group-14" transform="translate(3.000000, 8.000000)" fill="white" fill-rule="nonzero">
            <path d="M79.734375,15.0354331 C79.0330078,15.0354331 78.46875,14.4709449 78.46875,13.7692913 L78.46875,4.43149606 C78.46875,3.38165354 77.6197266,2.53228346 76.5703125,2.53228346 L4.4296875,2.53228346 C3.38027344,2.53228346 2.53125,3.38165354 2.53125,4.43149606 L2.53125,13.7692913 C2.53125,14.4709449 1.96699219,15.0354331 1.265625,15.0354331 C0.564257812,15.0354331 -7.10542736e-15,14.4709449 -7.10542736e-15,13.7692913 L-7.10542736e-15,4.43149606 C-7.10542736e-15,1.98889764 1.98808594,-5.95079541e-14 4.4296875,-5.95079541e-14 L76.5703125,-5.95079541e-14 C79.0119141,-5.95079541e-14 81,1.98889764 81,4.43149606 L81,13.7692913 C81,14.4709449 80.4357422,15.0354331 79.734375,15.0354331 Z" id="Path"></path>
            <path d="M76.5703125,67 L4.4296875,67 C1.98808594,67 -7.10542736e-15,65.0111024 -7.10542736e-15,62.5685039 L-7.10542736e-15,13.7692913 C-7.10542736e-15,13.0676378 0.564257812,12.5031496 1.265625,12.5031496 L79.734375,12.5031496 C80.4357422,12.5031496 81,13.0676378 81,13.7692913 L81,62.5685039 C81,65.0111024 79.0119141,67 76.5703125,67 Z M2.53125,15.0354331 L2.53125,62.5685039 C2.53125,63.6183465 3.38027344,64.4677165 4.4296875,64.4677165 L76.5703125,64.4677165 C77.6197266,64.4677165 78.46875,63.6183465 78.46875,62.5685039 L78.46875,15.0354331 L2.53125,15.0354331 Z" id="Shape"></path>
            <path d="M11.1269531,9.36417323 C10.1091797,9.36417323 9.28125,8.53590551 9.28125,7.51771654 C9.28125,6.49952756 10.1091797,5.67125984 11.1269531,5.67125984 C12.1447266,5.67125984 12.9726562,6.49952756 12.9726562,7.51771654 C12.9726562,8.53590551 12.1447266,9.36417323 11.1269531,9.36417323 Z" id="Path"></path>
            <path d="M18.4042969,9.36417323 C17.3865234,9.36417323 16.5585938,8.53590551 16.5585938,7.51771654 C16.5585938,6.49952756 17.3865234,5.67125984 18.4042969,5.67125984 C19.4220703,5.67125984 20.25,6.49952756 20.25,7.51771654 C20.25,8.53590551 19.4220703,9.36417323 18.4042969,9.36417323 Z" id="Path"></path>
            <path d="M25.6816406,9.36417323 C24.6638672,9.36417323 23.8359375,8.53590551 23.8359375,7.51771654 C23.8359375,6.49952756 24.6638672,5.67125984 25.6816406,5.67125984 C26.6994141,5.67125984 27.5273437,6.49952756 27.5273437,7.51771654 C27.5273437,8.53590551 26.6994141,9.36417323 25.6816406,9.36417323 Z" id="Path"></path>
        </g>
    </g>
</svg>
