<svg width="48" height="48" viewBox="0 0 48 48" fill="none" xmlns="http://www.w3.org/2000/svg">
<g clip-path="url(#clip0_3:204)">
<path d="M7.76831 2.48547C7.38341 2.48547 7.07153 2.79735 7.07153 3.18225C7.07153 3.56715 7.38341 3.87903 7.76831 3.87903H8.23292C8.61782 3.87903 8.9297 3.56715 8.9297 3.18225C8.9297 2.79735 8.61782 2.48547 8.23292 2.48547H7.76831Z" fill="#FFAE0D"/>
<path d="M10.05 3.18225C10.05 3.56715 10.3619 3.87903 10.7468 3.87903H11.2113C11.5962 3.87903 11.9081 3.56715 11.9081 3.18225C11.9081 2.79735 11.5962 2.48547 11.2113 2.48547H10.7468C10.362 2.48547 10.05 2.79735 10.05 3.18225V3.18225Z" fill="#FFAE0D"/>
<path d="M14.1899 3.87903C14.5748 3.87903 14.8866 3.56715 14.8866 3.18225C14.8866 2.79735 14.5748 2.48547 14.1899 2.48547H13.7253C13.3404 2.48547 13.0286 2.79735 13.0286 3.18225C13.0286 3.56715 13.3404 3.87903 13.7253 3.87903H14.1899Z" fill="#FFAE0D"/>
<path d="M10.0947 40.8475C9.70983 40.8475 9.39795 41.1594 9.39795 41.5443C9.39795 41.9292 9.70983 42.2411 10.0947 42.2411H13.0928C13.4777 42.2411 13.7896 41.9292 13.7896 41.5443C13.7896 41.1594 13.4777 40.8475 13.0928 40.8475H10.0947Z" fill="#FFAE0D"/>
<path d="M16.1895 40.8475C15.8046 40.8475 15.4927 41.1594 15.4927 41.5443C15.4927 41.9292 15.8046 42.2411 16.1895 42.2411H19.1875C19.5724 42.2411 19.8843 41.9292 19.8843 41.5443C19.8843 41.1594 19.5724 40.8475 19.1875 40.8475H16.1895Z" fill="#FFAE0D"/>
<path d="M22.2842 42.2411H25.2823C25.6672 42.2411 25.979 41.9292 25.979 41.5443C25.979 41.1594 25.6672 40.8475 25.2823 40.8475H22.2842C21.8993 40.8475 21.5874 41.1594 21.5874 41.5443C21.5874 41.9292 21.8993 42.2411 22.2842 42.2411Z" fill="#FFAE0D"/>
<path d="M28.3791 42.2411H31.3772C31.7621 42.2411 32.074 41.9292 32.074 41.5443C32.074 41.1594 31.7621 40.8475 31.3772 40.8475H28.3791C27.9943 40.8475 27.6824 41.1594 27.6824 41.5443C27.6824 41.9292 27.9943 42.2411 28.3791 42.2411Z" fill="#FFAE0D"/>
<path d="M34.4741 40.8475C34.0892 40.8475 33.7773 41.1594 33.7773 41.5443C33.7773 41.9292 34.0892 42.2411 34.4741 42.2411H37.4722C37.8571 42.2411 38.169 41.9292 38.169 41.5443C38.169 41.1594 37.8571 40.8475 37.4722 40.8475H34.4741Z" fill="#FFAE0D"/>
<path d="M41.4537 0H12.6161C12.2312 0 11.9193 0.311877 11.9193 0.696777C11.9193 1.08168 12.2312 1.39355 12.6161 1.39355H41.4537C41.5694 1.39355 41.6636 1.48785 41.6636 1.60361V4.97081H5.90317V1.60361C5.90317 1.48785 5.99737 1.39355 6.11313 1.39355H9.83039C10.2153 1.39355 10.5272 1.08168 10.5272 0.696777C10.5272 0.311877 10.2153 0 9.83039 0H6.11304C5.22887 0 4.50952 0.719353 4.50952 1.60361V46.1375C4.50952 46.9255 5.15056 47.5666 5.93866 47.5666H25.7652C26.1501 47.5666 26.462 47.2548 26.462 46.8699C26.462 46.485 26.1501 46.1731 25.7652 46.1731H5.93866C5.91905 46.1731 5.90308 46.1571 5.90308 46.1375V6.36436H41.6636V46.1375C41.6636 46.1571 41.6476 46.1731 41.6279 46.1731H28.5512C28.1663 46.1731 27.8544 46.485 27.8544 46.8699C27.8544 47.2548 28.1663 47.5666 28.5512 47.5666H41.628C42.416 47.5666 43.0573 46.9256 43.0573 46.1375V1.60361C43.0572 0.719353 42.3378 0 41.4537 0V0Z" fill="#FFAE0D"/>
<path d="M38.1686 9.84428C38.1686 8.92537 37.4148 8.17053 36.4947 8.17053H11.0715C10.1468 8.17053 9.39771 8.9302 9.39771 9.84428V16.5296C9.39771 17.4463 10.1484 18.2034 11.0715 18.2034H36.4947C37.4152 18.2034 38.1686 17.4533 38.1686 16.5296V9.84428ZM10.7914 10.088L21.19 13.187L10.7914 16.2859V10.088ZM13.9126 9.56409H33.3464L23.6295 12.4599L13.9126 9.56409ZM23.6295 13.914L33.3464 16.8098H13.9126L23.6295 13.914ZM26.0691 13.187L36.775 9.99637V16.3775L26.0691 13.187Z" fill="#FFAE0D"/>
<path d="M22.9811 36.1192V21.7594C22.9811 21.1184 22.4592 20.5836 21.8053 20.5836H10.5736C9.92035 20.5836 9.39795 21.1192 9.39795 21.7594V36.1192C9.39795 36.7612 9.92165 37.295 10.5736 37.295H21.8053C22.454 37.295 22.9811 36.7645 22.9811 36.1192ZM10.7915 23.2552L15.3162 28.9595L10.7915 34.6315V23.2552ZM11.5566 21.9772H20.8863L16.2082 27.8415L11.5566 21.9772ZM16.2049 30.08L20.8223 35.9015H11.5609L16.2049 30.08ZM17.0969 28.962L21.5875 23.3327V34.6237L17.0969 28.962Z" fill="#FFAE0D"/>
<path d="M37.8773 36.1192V21.7593C37.8773 21.116 37.3533 20.5836 36.7016 20.5836H32.4965C32.1116 20.5836 31.7997 20.8955 31.7997 21.2804C31.7997 21.6653 32.1116 21.9772 32.4965 21.9772H35.7826L31.1044 27.8415L26.4529 21.9772H29.7106C30.0955 21.9772 30.4073 21.6653 30.4073 21.2804C30.4073 20.8955 30.0955 20.5836 29.7106 20.5836H25.47C24.8217 20.5836 24.2942 21.1134 24.2942 21.7593V36.1192C24.2942 36.7614 24.8179 37.295 25.47 37.295H36.7016C37.3549 37.295 37.8773 36.7594 37.8773 36.1192ZM36.4838 23.3327V34.6235L31.9932 28.962L36.4838 23.3327ZM35.7187 35.9015H26.4574L31.1012 30.08L35.7187 35.9015ZM25.6877 34.6317V23.255L30.2125 28.9595L25.6877 34.6317Z" fill="#FFAE0D"/>
</g>
<defs>
<clipPath id="clip0_3:204">
<rect width="47.5666" height="47.5666" fill="white"/>
</clipPath>
</defs>
</svg>
