<?xml version="1.0" encoding="UTF-8"?>
<svg width="88px" height="88px" viewBox="0 0 88 88" version="1.1" xmlns="http://www.w3.org/2000/svg" xmlns:xlink="http://www.w3.org/1999/xlink">
    <!-- Generator: Sketch 59 (86127) - https://sketch.com -->
    <title>work3.0</title>
    <desc>Created with Sketch.</desc>
    <g id="work3.0" stroke="none" stroke-width="1" fill="none" fill-rule="evenodd">
        <g id="booking-copy" transform="translate(7.000000, 7.000000)" fill="white" fill-rule="nonzero">
            <path d="M18.0882721,69.4719362 L24.4797121,69.4719362 C28.1848321,69.4719362 28.1903041,63.6992642 24.4797121,63.6992642 L18.0882721,63.6992642 C14.383296,63.6992642 14.377824,69.4719362 18.0882721,69.4719362 Z M18.0882721,65.8592642 L24.4797121,65.8592642 C25.4185921,65.8592642 25.4185921,67.3119362 24.4797121,67.3119362 L18.0882721,67.3119362 C17.1495361,67.3119362 17.1495361,65.8592642 18.0882721,65.8592642 Z" id="Shape"></path>
            <path d="M26.0202241,37.1217601 L18.9845281,44.1576001 L16.5479041,41.7208321 C15.5602081,40.7338561 14.033088,42.2606881 15.020496,43.2482401 L18.2208961,46.4486402 C18.7300801,46.8702722 19.2392641,46.8702722 19.7483041,46.4486402 L27.5477761,38.6491681 C28.5350401,37.6616161 27.0079201,36.1347841 26.0202241,37.1217601 L26.0202241,37.1217601 Z" id="Path"></path>
            <path d="M72.9257762,47.7786242 C72.4897442,46.9463042 72.1738082,46.0344962 71.9592482,45.1193761 C70.9060322,40.7138401 69.3059042,36.4456801 67.2039362,32.4332641 L63.6893282,25.7248801 C61.6998242,21.9270241 55.8282242,22.5584641 54.7197122,26.7239521 C52.0904162,25.7780161 49.1222882,27.3327841 48.4032962,30.0330721 C46.2296162,29.2508641 43.7195521,30.1721761 42.5671201,32.1713281 L42.5671201,8.45611203 L42.5671201,4.21963201 C42.5669761,1.89302401 40.6740961,-5.68434189e-14 38.3472001,-5.68434189e-14 L13.18752,-5.68434189e-14 C11.791152,-5.68434189e-14 11.791152,2.16000001 13.18752,2.16000001 L38.3472001,2.16000001 C39.4829281,2.16000001 40.4069761,3.08390401 40.4069761,4.21963201 L40.4069761,7.37611202 L2.16100801,7.37611202 L2.16100801,4.21963201 C2.16100801,3.08390401 3.08491201,2.16000001 4.22064001,2.16000001 L7.13966402,2.16000001 C8.53603203,2.16000001 8.53603203,-5.68434189e-14 7.13966402,-5.68434189e-14 L4.22064001,-5.68434189e-14 C1.89403201,-5.68434189e-14 0.001008,1.89302401 0.001008,4.21963201 L0.001008,8.45611203 L0.001008,60.5099522 L0.001008,69.5083682 C0.001008,71.8349762 1.89403201,73.7280002 4.22064001,73.7280002 L38.3472001,73.7280002 C40.6739521,73.7280002 42.5669761,71.8349762 42.5669761,69.5083682 L42.5669761,60.5099522 L42.5669761,56.1840482 L46.4263202,58.0929122 C47.3800322,58.5646562 48.1638242,59.3500322 48.6335522,60.3047522 C50.3480162,63.7888322 54.7423202,65.2332962 58.1940002,63.4248002 L64.6286402,60.0537602 C65.8656002,59.4057602 64.8632162,57.4925762 63.6262562,58.1404322 L57.1916162,61.5114722 C54.8015042,62.7642722 51.7631042,61.7721122 50.5716482,59.3510402 C49.8932642,57.9725282 48.7612802,56.8380962 47.3839202,56.1566882 L31.0063681,48.0558242 C27.9303841,46.5618242 30.1548961,41.7362401 33.2788321,43.1932321 L39.2254561,46.3236482 C40.1428801,46.8066242 41.1662881,45.7853762 40.6851841,44.8669441 L30.3547681,25.1487361 C28.6584481,21.9597121 33.2012161,19.0160641 34.9339681,22.3240321 L42.2359201,36.2615041 L44.1432001,39.9021121 C44.7727681,41.1043681 46.7028002,40.1335201 46.0565282,38.8997281 L44.1996481,35.3554561 C43.4476801,32.8497121 46.5412322,30.8293921 48.5323202,32.5762561 L50.5985762,36.5201281 C51.2281442,37.7223841 53.1581762,36.7515361 52.5119042,35.5177441 L50.4109442,31.5076321 C50.2143842,29.2037761 53.0356322,27.7211521 54.8190722,29.2407841 L56.8987202,33.2105761 C57.5282882,34.4128321 59.4583202,33.4419841 58.8120482,32.2081921 L56.7319682,28.2378241 C56.4490082,25.4103841 60.4284482,24.1551361 61.7757122,26.7271201 L65.2903202,33.4355041 C67.3094882,37.2896641 68.8464002,41.3896321 69.8582882,45.6210722 C70.1038082,46.7187842 70.4901602,47.7840962 71.0123042,48.7807202 C72.2567522,51.1558562 71.3365922,54.1005122 68.9616002,55.3449602 C67.7247842,55.9932482 68.7273122,57.9064322 69.9639842,57.2582882 C73.3942082,55.4613122 74.7228962,51.2087042 72.9257762,47.7786242 Z M40.4069761,69.5083682 C40.4069761,70.6440962 39.4829281,71.5680002 38.3472001,71.5680002 L4.22064001,71.5680002 C3.08491201,71.5680002 2.16100801,70.6440962 2.16100801,69.5083682 L2.16100801,61.5899522 L40.4069761,61.5899522 L40.4069761,69.5083682 Z M27.7702561,43.5450241 C27.0371521,45.0861121 27.1795681,46.9319042 28.1348641,48.3452642 C26.3488321,50.2142402 23.8985281,51.2733602 21.2839201,51.2733602 C16.0521121,51.2733602 11.79576,47.0170082 11.79576,41.7852001 C11.79576,36.5533921 16.0521121,32.2970401 21.2839201,32.2970401 C26.2480321,32.2970401 30.3312961,36.1297441 30.7362241,40.9910401 C29.4570721,41.3812801 28.3452481,42.3360001 27.7702561,43.5450241 L27.7702561,43.5450241 Z M35.6119201,19.8092161 C35.1410401,19.4268961 34.5977281,19.1328481 34.0012801,18.9465121 C30.5418241,17.8655041 27.0577441,21.0378241 27.8192161,24.5805121 L7.31592002,24.5805121 C7.11734402,24.5805121 6.95592002,24.4190881 6.95592002,24.2205121 L6.95592002,16.5024001 C6.95592002,16.3038241 7.11734402,16.1424001 7.31592002,16.1424001 L35.2519201,16.1424001 C35.4504961,16.1424001 35.6119201,16.3038241 35.6119201,16.5024001 L35.6119201,19.8092161 Z M40.4069761,28.1162881 L37.7719201,23.0868001 L37.7719201,16.5024001 C37.7719201,15.1129441 36.6413761,13.9824 35.2519201,13.9824 L7.31592002,13.9824 C5.92646402,13.9824 4.79592002,15.1129441 4.79592002,16.5024001 L4.79592002,24.2206561 C4.79592002,25.6101121 5.92646402,26.7406561 7.31592002,26.7406561 L28.7500321,26.7406561 L37.1620801,42.7968001 L34.2639361,41.2711201 C34.2511201,41.2643521 34.2380161,41.2577281 34.2249121,41.2515361 C33.7957921,41.0473441 33.3469441,40.9096801 32.8903201,40.8379681 C32.4061921,34.8569281 27.3875041,30.1370401 21.2840641,30.1370401 C14.861232,30.1370401 9.63590403,35.3623681 9.63590403,41.7852001 C9.63590403,48.2080322 14.861232,53.4333602 21.2840641,53.4333602 C24.5053441,53.4333602 27.5258881,52.1271362 29.7201601,49.8175202 C33.1464961,51.7920482 36.8618401,53.3620802 40.4069761,55.1155682 L40.4069761,59.4298082 L2.16100801,59.4298082 L2.16100801,9.53611203 L40.4069761,9.53611203 L40.4069761,28.1162881 Z" id="Shape"></path>
        </g>
    </g>
</svg>
