<svg xmlns="http://www.w3.org/2000/svg" viewBox="0 0 136.55 28.59"><g id="Layer_2" data-name="Layer 2"><g id="Ñëîé_1" data-name="Ñëîé 1"><path d="M43.94,20.16a6.54,6.54,0,0,1-4.21,1.22c-3.12,0-4.94-1.4-5.66-4.46a12.12,12.12,0,0,1,.2-6.49A5.42,5.42,0,0,1,39.55,6.5,5.64,5.64,0,0,1,44,8.13a1.21,1.21,0,0,0,.25.17.66.66,0,0,0,.1-.18c.19-1.3.18-1.3,1.51-1.3h4.18c.82,0,1,.18,1,1s0,1.36,0,2c0,3.9,0,7.79,0,11.68s-2.4,6.13-5.65,6.76a12.1,12.1,0,0,1-7.84-.8,6.4,6.4,0,0,1-3.42-3.6c-.31-.86,0-1.33.89-1.34h5.22a1.15,1.15,0,0,1,1.11.62,1.27,1.27,0,0,0,1.61.66,1.18,1.18,0,0,0,.89-1.24C44,21.82,43.94,21.07,43.94,20.16ZM44,14h-.1a8.06,8.06,0,0,0,0-1.1,1.33,1.33,0,0,0-1.27-1.2,1.3,1.3,0,0,0-1.56,1,4.75,4.75,0,0,0,.07,2.84,1.23,1.23,0,0,0,1.37.79,1.19,1.19,0,0,0,1.27-.85A11.37,11.37,0,0,0,44,14Z"/><path d="M62.89,20.6c-2.49,2-5.16,2.32-7.62.89a4.24,4.24,0,0,1-1.34-6.38,6.26,6.26,0,0,1,3.37-1.93c1.46-.38,3-.63,4.44-.89.88-.16,1-.22.82-1-.12-.59-.56-.83-1.21-.64a1.48,1.48,0,0,0-.64.35,1.84,1.84,0,0,1-1.55.56c-1.41,0-2.83,0-4.24,0-.8,0-1-.26-.8-1a4.89,4.89,0,0,1,3.14-3.14,12,12,0,0,1,8.87-.12,5.3,5.3,0,0,1,3.47,4.92c0,3,0,6,0,9,0,.6-.3.89-.92.89-1.58,0-3.16,0-4.73,0-.73,0-1-.26-1-1A3.87,3.87,0,0,0,62.89,20.6Zm-.28-4.91c-.78.2-1.54.35-2.27.59a.91.91,0,0,0-.71,1.06c.11.54.58.71,1.07.74A1.88,1.88,0,0,0,62.61,15.69Z"/><path d="M108.2,20.57c-2.35,2.59-6.39,2-8.24.51a4.22,4.22,0,0,1,.17-6.75,12.85,12.85,0,0,1,5.48-1.82c.56-.09,1.14-.15,1.69-.28.23-.05.58-.27.59-.43,0-.46.1-1.11-.57-1.16A2.05,2.05,0,0,0,106,11a2.19,2.19,0,0,1-1.4.49c-1.45,0-2.91,0-4.36,0-.79,0-1-.28-.8-1a4.94,4.94,0,0,1,3.1-3.12,11.87,11.87,0,0,1,8.92-.12A5,5,0,0,1,114.88,12c.11,3.09,0,6.18,0,9.28a.76.76,0,0,1-.86.82c-1.61,0-3.23,0-4.85,0-.64,0-.92-.29-.95-.94C108.25,21,108.23,20.84,108.2,20.57Zm-.28-4.88c-.76.19-1.5.33-2.21.56a.94.94,0,0,0-.76,1.1c.12.56.62.73,1.14.73A1.86,1.86,0,0,0,107.92,15.69Z"/><path d="M11.69,16.17c-1.31,0-2.62,0-3.93,0-.57,0-.68.24-.58.71a3.16,3.16,0,0,0,.13.53A1,1,0,0,0,9,17.81a1.9,1.9,0,0,1,1.53-.61c1.63,0,3.27,0,4.91,0,.86,0,1.09.3.8,1.11a5.23,5.23,0,0,1-2.92,3,11.49,11.49,0,0,1-9.07.31,6.05,6.05,0,0,1-4.06-5A10.46,10.46,0,0,1,.5,11.33c1-2.84,3.15-4.24,6-4.69a10.27,10.27,0,0,1,5.85.59A7,7,0,0,1,16.62,13a16.84,16.84,0,0,1,.16,2c0,.91-.25,1.18-1.16,1.2ZM9.57,12.51c0-.26,0-.44,0-.62-.1-.9-.58-1.39-1.3-1.32a1.41,1.41,0,0,0-1.1,1.6c0,.12.16.32.26.32C8.13,12.52,8.84,12.51,9.57,12.51Z"/><path d="M74.83,17.42c.51,0,1,0,1.54,0a3.18,3.18,0,0,1,2.36.63,1.26,1.26,0,0,0,.8.24,2.58,2.58,0,0,0,.76-.38c-.14-.25-.22-.65-.42-.73a18.34,18.34,0,0,0-2.4-.71,9.22,9.22,0,0,1-4-1.55,4.17,4.17,0,0,1,.18-6.82,8.55,8.55,0,0,1,4.64-1.57,11,11,0,0,1,6.18,1.21,5,5,0,0,1,2.21,2.15c.47,1,.3,1.66-1,1.61s-2.62,0-3.93,0A5.2,5.2,0,0,1,80.34,11c-.26-.09-.49-.29-.76-.38s-.82-.09-.89.35a1,1,0,0,0,.47.79,10.29,10.29,0,0,0,2,.51,10.63,10.63,0,0,1,4.35,1.38,4.3,4.3,0,0,1-.62,7.71,11.13,11.13,0,0,1-4.28,1,12.87,12.87,0,0,1-6.2-.88A4.88,4.88,0,0,1,71.74,19c-.45-1.11-.11-1.62,1-1.54C73.44,17.46,74.14,17.42,74.83,17.42Z"/><path d="M25.66,8.49c.7-.41,1.3-.79,1.93-1.12a8.17,8.17,0,0,1,4.15-.54.68.68,0,0,1,.66.75c0,1.52,0,3,0,4.55,0,.56-.37.79-.9.79H28.12c-1.58,0-2.08.51-2.08,2.11,0,2,0,4,0,6,0,.84-.26,1.1-1.09,1.1q-2.49,0-5,0c-.78,0-1.08-.28-1.08-1.07q0-6.57,0-13.14c0-.82.25-1.06,1.07-1.06h4.48c1,0,1.14.15,1.18,1.13C25.62,8.11,25.64,8.26,25.66,8.49Z"/><path d="M126.89,19.23h8.17c1.38,0,1.49.1,1.49,1.45,0,1.12,0,2.25,0,3.38a.79.79,0,0,1-.83.91c-.2,0-.41,0-.61,0H118.58c-1.23,0-1.44-.2-1.44-1.41,0-1,0-2.09,0-3.14s.26-1.2,1.21-1.21Z"/><path d="M96.44,14.49V21c0,.84-.26,1.09-1.1,1.09-1.56,0-3.12,0-4.67,0-.75,0-1-.28-1.06-1V7.85c0-.79.26-1,1-1h4.79c.79,0,1,.24,1,1Z"/><path d="M93,5.1H90.67a.8.8,0,0,1-.9-.87c0-1.12,0-2.25,0-3.37A.75.75,0,0,1,90.55,0c1.66,0,3.32,0,5,0a.73.73,0,0,1,.76.8c0,1.16,0,2.33,0,3.49,0,.56-.37.79-.89.8C94.59,5.11,93.8,5.1,93,5.1Z"/></g></g></svg>