<?xml version="1.0" encoding="UTF-8"?>
<svg width="210px" height="233px" viewBox="0 0 210 233" version="1.1" xmlns="http://www.w3.org/2000/svg" xmlns:xlink="http://www.w3.org/1999/xlink">
    <!-- Generator: Sketch 59 (86127) - https://sketch.com -->
    <title>Effect_Captions-logomark-color</title>
    <desc>Created with Sketch.</desc>
    <g id="LOGOS" stroke="none" stroke-width="1" fill="none" fill-rule="evenodd">
        <g id="Effect_Captions-logomark-color" fill="#E06375">
            <path d="M104.892471,0.711159852 C105.818671,0.548359866 106.773471,0.803559844 107.492871,1.41075979 C108.214471,2.01795974 108.630271,2.90895966 108.630271,3.85275958 L108.630271,3.85275958 L108.630271,22.8057579 C110.97327,22.7815579 114.01147,22.620958 115.82207,22.620958 C122.131669,22.620958 128.560069,23.2963579 134.929068,24.6251578 C136.398668,24.9287578 137.463468,26.2487576 137.463468,27.7601575 L137.463468,27.7601575 L137.463468,33.341557 C137.463468,34.3073569 137.032268,35.2071569 136.282068,35.8121568 C135.520868,36.4259568 134.537468,36.6503567 133.560668,36.4391568 C125.574669,34.6725569 117.48087,34.089557 108.947071,34.7913569 C106.135471,35.0267569 103.315071,35.4095568 100.565071,35.9265568 C99.6080714,36.1047568 98.6356714,35.8539568 97.8964715,35.2423569 C97.1682716,34.6373569 96.7480716,33.748557 96.7480716,32.8003571 L96.7480716,32.8003571 L96.7480716,14.3401587 C54.3078753,22.123758 20.8942782,55.9179551 13.4604788,98.3119514 C12.4110789,104.295951 11.880879,110.37235 11.880879,116.38055 C11.880879,173.690545 58.5076749,220.319541 115.82207,220.319541 C121.775269,220.319541 127.759269,219.806941 133.606868,218.797141 C134.176668,218.698141 134.605668,218.178941 134.605668,217.587141 L134.605668,217.587141 L134.605668,198.559343 C134.605668,197.127143 135.584668,195.864343 136.983868,195.490343 C140.169468,194.638943 143.322068,193.589543 146.353667,192.370743 C177.545265,179.826344 197.699463,149.996547 197.699463,116.38055 C197.699463,84.2055526 178.722265,54.8861552 149.352267,41.6839563 C148.210467,41.1669563 147.471267,40.0339564 147.471267,38.7909566 L147.471267,38.7909566 L147.471267,32.7805571 C147.471267,31.7047572 148.005867,30.7081573 148.903467,30.1097573 C149.783467,29.5245574 150.885667,29.4101574 151.855867,29.8171573 C186.919464,44.3789561 209.579462,78.3557531 209.579462,116.38055 C209.579462,154.873946 186.501464,189.026744 150.786667,203.390542 C149.638267,203.854742 148.472267,204.296942 147.297467,204.712742 C146.811267,204.884342 146.487867,205.339742 146.487867,205.845742 L146.487867,205.845742 L146.487867,225.81294 C146.487867,227.34194 145.394467,228.65974 143.894068,228.94794 L143.894068,228.94794 L137.635068,230.14034 C130.465269,231.50654 123.126069,232.19954 115.82207,232.19954 C51.9582755,232.19954 0.000879999924,180.242144 0.000879999924,116.38055 C0.000879999924,109.68155 0.590479949,102.912151 1.75647985,96.2571516 C10.1582791,48.3675557 47.9806758,10.597959 95.8768717,2.27535972 L95.8768717,2.27535972 Z M33.7046571,136.635288 C35.112657,136.635288 36.3666568,137.592288 36.7560568,138.960688 C46.7264559,174.096885 79.2182531,198.640083 115.77125,198.640083 C117.61045,198.640083 119.57065,198.558683 121.761849,198.393683 C122.340449,198.351883 122.919049,198.549883 123.341449,198.941483 C123.768249,199.333083 124.010249,199.891883 124.010249,200.470483 L124.010249,200.470483 L124.010249,208.520282 C124.010249,209.615882 123.154449,210.535482 122.061049,210.612482 C119.71805,210.770882 117.65885,210.850082 115.77125,210.850082 C72.2860537,210.850082 34.628657,181.403084 24.1918579,139.240088 C24.0334579,138.608688 24.1764579,137.957488 24.5790579,137.444888 C24.9794578,136.930088 25.5844578,136.635288 26.2334577,136.635288 L26.2334577,136.635288 Z M166.033546,146.765847 C166.884946,146.765847 167.683545,147.095847 168.284145,147.696447 C168.889145,148.297047 169.221345,149.095647 169.223545,149.949247 L169.223545,149.949247 L169.236748,156.549246 C169.238945,158.309246 167.813345,159.741446 166.055546,159.745846 L166.055546,159.745846 L100.447151,159.884446 C98.6849514,159.884446 97.2527516,158.456646 97.2483516,156.698846 L97.2483516,156.698846 L97.235149,150.098847 C97.2329516,148.341047 98.6629514,146.906647 100.420751,146.902247 L100.420751,146.902247 L166.026946,146.765847 Z M147.222447,121.018809 C148.978047,121.018809 150.408047,122.444409 150.412447,124.202209 L150.412447,124.202209 L150.425649,130.802209 C150.427847,132.562208 149.000047,133.994408 147.242247,133.998808 L147.242247,133.998808 L81.6360529,134.137408 C79.8716531,134.137408 78.4416532,132.709608 78.4372532,130.951809 L78.4372532,130.951809 L78.4240423,124.351809 C78.4218532,123.500409 78.7540532,122.697409 79.3546531,122.094609 C79.9552531,121.491809 80.758253,121.157409 81.6074529,121.155209 L81.6074529,121.155209 L147.215847,121.018809 Z M128.411129,95.2728717 C130.168929,95.2728717 131.598929,96.7006715 131.603329,98.4584714 L131.603329,98.4584714 L131.616539,105.058471 C131.618729,105.907671 131.286529,106.710671 130.685929,107.313471 C130.085329,107.918471 129.284529,108.252871 128.433129,108.255071 L128.433129,108.255071 L62.8269346,108.389271 L62.8159346,108.389271 C61.9667346,108.389271 61.1703347,108.061471 60.5697347,107.460871 C59.9625348,106.860271 59.6303348,106.059471 59.6281348,105.205871 L59.6281348,105.205871 L59.6149323,98.6058714 C59.6127348,96.8480715 61.0383347,95.4158716 62.7961346,95.4092716 L62.7961346,95.4092716 L128.406729,95.2728717 Z M109.60355,69.5286939 C110.45055,69.5286939 111.24915,69.8586939 111.84975,70.4570938 C112.45475,71.0576938 112.78915,71.8606937 112.79135,72.7120936 L112.79135,72.7120936 L112.804553,79.312093 C112.80675,81.0698929 111.37895,82.5042928 109.62115,82.5108928 L109.62115,82.5108928 L44.0127562,82.6428927 C43.1569563,82.6428927 42.3583563,82.3128928 41.7555564,81.7122928 C41.1505564,81.1116929 40.8183565,80.310893 40.8161565,79.459493 L40.8161565,79.459493 L40.8029455,72.8594936 C40.8007565,72.0058937 41.1307564,71.2050937 41.7335564,70.6000938 C42.3341563,69.9972938 43.1371563,69.6650939 43.9863562,69.6628939 L43.9863562,69.6628939 L109.59475,69.5286939 Z" id="Combined-Shape"></path>
        </g>
    </g>
</svg>