<?xml version="1.0" encoding="UTF-8"?>
<svg width="210px" height="232px" viewBox="0 0 210 232" version="1.1" xmlns="http://www.w3.org/2000/svg" xmlns:xlink="http://www.w3.org/1999/xlink">
    <!-- Generator: Sketch 59 (86127) - https://sketch.com -->
    <title>Effect_Translate-logomark-color</title>
    <desc>Created with Sketch.</desc>
    <g id="LOGOS" stroke="none" stroke-width="1" fill="none" fill-rule="evenodd">
        <g id="Effect_Translate-logomark-color" fill="#00C165">
            <path d="M104.891591,0.0455420169 C105.817791,-0.11065797 106.772591,0.137942009 107.491991,0.745141956 C108.213591,1.3523419 108.629391,2.24334183 108.629391,3.18494174 L108.629391,3.18494174 L108.629391,22.1401401 C110.19799,22.1203401 113.75759,21.9575401 115.82119,21.9553401 C122.126389,21.9553401 128.554789,22.6285401 134.928188,23.9573399 C136.397788,24.2609399 137.462588,25.5831398 137.462588,27.0945397 L137.462588,27.0945397 L137.462588,32.6759392 C137.462588,33.6395391 137.033588,34.539339 136.283388,35.144339 C135.517788,35.7581389 134.529988,35.9891389 133.561988,35.7735389 C125.591389,34.0047391 117.48659,33.4173391 108.946191,34.1257391 C106.154391,34.356739 103.331791,34.739539 100.564191,35.260939 C99.6071914,35.4435389 98.6369914,35.190539 97.8955915,34.576739 C97.1673916,33.9717391 96.7471916,33.0807392 96.7471916,32.1325392 L96.7471916,32.1325392 L96.7471916,13.6745408 C54.3069953,21.4559402 20.8933982,55.2501372 13.4595988,97.6441336 C12.4101989,103.628133 11.879999,109.706733 11.879999,115.714932 C11.879999,173.024927 58.5067949,219.653923 115.82119,219.653923 C121.761189,219.653923 127.745189,219.141323 133.605988,218.131523 C134.175788,218.032523 134.604788,217.513323 134.604788,216.921523 L134.604788,216.921523 L134.604788,197.893725 C134.604788,196.459325 135.583788,195.196525 136.982988,194.822525 C140.148788,193.979925 143.299188,192.928325 146.352787,191.702925 C177.544385,179.160726 197.698583,149.330929 197.698583,115.714932 C197.698583,83.5399348 178.721385,54.2205373 149.351387,41.0161385 C148.209587,40.4991385 147.470387,39.3661386 147.470387,38.1253387 L147.470387,38.1253387 L147.470387,32.1149392 C147.470387,31.0391393 148.004987,30.0403394 148.900387,29.4441395 C149.782587,28.8567395 150.884787,28.7445395 151.854987,29.1515395 C186.918584,43.7133382 209.578582,77.6901353 209.578582,115.714932 C209.578582,154.208329 186.500584,188.361126 150.785787,202.724924 C149.637387,203.186924 148.471387,203.629124 147.298787,204.047124 C146.810387,204.218724 146.486987,204.674124 146.486987,205.180124 L146.486987,205.180124 L146.486987,225.145123 C146.486987,226.674122 145.393587,227.991922 143.893188,228.280122 L143.893188,228.280122 L137.634188,229.474722 C130.464389,230.840922 123.125189,231.533922 115.82119,231.533922 C51.9573955,231.533922 -8.52651283e-14,179.576526 -8.52651283e-14,115.714932 C-8.52651283e-14,109.015933 0.589599949,102.246533 1.75559985,95.5915337 C10.1573991,47.7019379 47.9797958,9.93234116 95.8759917,1.60974188 L95.8759917,1.60974188 Z M33.7026771,135.96747 C35.110677,135.96747 36.3646768,136.92447 36.7540768,138.29287 C46.7244759,173.431267 79.2184731,197.974465 115.76927,197.974465 C117.62167,197.974465 119.58187,197.890865 121.762069,197.725865 C122.338469,197.668665 122.917069,197.886465 123.343869,198.278065 C123.766269,198.669665 124.008269,199.226265 124.008269,199.804865 L124.008269,199.804865 L124.008269,207.854664 C124.008269,208.952464 123.152469,209.872064 122.059069,209.944664 C119.73147,210.105264 117.67227,210.184464 115.76927,210.184464 C72.2862737,210.184464 34.624477,180.737466 24.1898779,138.57227 C24.0336779,137.94307 24.1744779,137.29187 24.5770779,136.77707 C24.9796778,136.26447 25.5824778,135.96747 26.2314777,135.96747 L26.2314777,135.96747 Z M135.742628,82.8843348 C137.500428,82.8843348 138.932628,84.3143347 138.932628,86.0743346 L138.932628,86.0743346 L138.932628,97.1579336 L168.993425,97.2679336 C170.753425,97.2679336 172.183425,98.6979335 172.183425,100.457933 L172.183425,100.457933 L172.183425,104.745733 C172.183425,106.505733 170.753425,107.937933 168.993425,107.937933 L168.993425,107.937933 L159.401426,107.937933 C157.335626,114.784332 154.838627,120.977332 151.888427,126.424531 C149.008627,131.748531 145.688827,136.63473 142.019228,140.95113 C144.047628,142.83433 146.265227,144.466729 148.603827,145.942929 C151.259227,147.625929 154.011427,149.179129 156.785626,150.567329 C159.555426,151.948929 162.356026,153.196329 165.108226,154.263329 C166.993626,154.998129 168.821825,155.669129 170.590625,156.271928 C171.497025,156.582128 172.214225,157.266328 172.557425,158.155128 C172.896225,159.030728 172.830225,160.009728 172.377025,160.834728 L172.377025,160.834728 L169.330025,166.383128 C168.571025,167.764727 166.899026,168.396127 165.433826,167.854927 C162.954426,166.937528 160.428826,165.883728 157.934026,164.726528 C154.845227,163.289928 151.771827,161.705928 148.801827,160.018528 C145.818627,158.322328 142.949828,156.529328 140.276828,154.696729 C137.854628,153.035729 135.599628,151.284529 133.577828,149.493729 C129.034829,153.273329 123.994629,156.857128 118.51223,160.146128 C113.23443,163.311928 107.474831,166.141128 101.391831,168.550127 C101.015631,168.701927 100.624031,168.772327 100.234631,168.772327 C99.1302314,168.772327 98.0522315,168.200327 97.4626316,167.214728 L97.4626316,167.214728 L94.5036318,162.284528 C94.0130318,161.466128 93.9162319,160.476128 94.2396318,159.576328 C94.5718318,158.661128 95.2890317,157.952728 96.2130317,157.627128 C102.315831,155.490929 107.730031,153.002729 112.30383,150.230729 C117.18343,147.273929 121.557029,144.13013 125.303629,140.88073 C121.799029,136.33113 118.50343,131.440531 115.50703,126.211131 C112.42703,120.834332 109.83543,114.711732 107.807031,108.017133 L107.807031,108.017133 L97.7376315,107.937933 C95.9776317,107.937933 94.5476318,106.505733 94.5476318,104.745733 L94.5476318,104.745733 L94.5476318,100.457933 C94.5476318,98.6979335 95.9776317,97.2679336 97.7376315,97.2679336 L97.7376315,97.2679336 L127.129629,97.2679336 L127.237429,86.0743346 C127.237429,84.3143347 128.669629,82.8843348 130.429629,82.8843348 L130.429629,82.8843348 Z M120.30083,107.937933 C120.25683,107.937933 120.22823,107.964333 120.21063,107.988533 C121.818829,113.184932 123.834029,117.765332 126.183629,121.709931 C128.513429,125.625931 131.028029,129.242731 133.652628,132.470131 C136.330028,129.467131 138.677428,125.993331 140.811428,122.154331 C143.002628,118.227332 144.993627,113.499532 146.725027,108.098533 L146.725027,108.098533 Z M62.4181746,50.2966177 C64.5191744,50.2966177 66.9611742,50.5474176 69.680374,51.0424176 C72.4589737,51.5440176 75.1847735,52.5868175 77.7829733,54.1356173 C80.433973,55.7196172 82.6603728,58.126417 84.4005727,61.2856167 C86.1341725,64.4426164 87.0141725,68.6842161 87.0141725,73.8982156 L87.0141725,73.8982156 L87.0141725,114.864412 C87.0141725,116.015012 86.0769725,116.954412 84.9241726,116.954412 L84.9241726,116.954412 L77.3165733,116.954412 C76.1659734,116.954412 75.2265735,116.015012 75.2265735,114.864412 L75.2265735,114.864412 L75.2265735,110.000212 C74.6391735,110.790012 73.9351736,111.606212 73.0991737,112.457612 C71.4601738,114.127412 69.268974,115.555212 66.5893742,116.703612 C63.9009745,117.863012 60.5943747,118.448212 56.7641751,118.448212 C52.5907754,118.448212 48.7429758,117.640812 45.3285761,116.050212 C41.8811764,114.439812 39.1003766,112.070412 37.0675768,109.005813 C35.030377,105.934613 33.9941771,102.177013 33.9941771,97.8408135 C33.9941771,94.0084139 34.772977,90.8316141 36.3085769,88.3962144 C37.8309767,85.9806146 39.8967765,84.0534147 42.4531763,82.6718149 C44.9325761,81.329815 47.7111759,80.3112151 50.7075756,79.6446151 C53.6335754,78.9934152 56.6343751,78.4654152 59.6263748,78.0716153 C63.5181745,77.5700153 66.6751742,77.1894153 69.106174,76.9254154 C71.3853738,76.6768154 73.0463737,76.2654154 74.0429736,75.6978155 C74.5511735,75.4096155 75.2265735,74.8398155 75.2265735,73.2338157 L75.2265735,73.2338157 L75.2265735,72.9016157 C75.2265735,69.091216 74.1947736,66.1058163 72.1619737,64.0356165 C70.1357739,61.9698166 66.9677742,60.9226167 62.7481746,60.9226167 C58.3129749,60.9226167 54.8105752,61.8862167 52.3377755,63.7936165 C50.3577756,65.3182164 48.8243758,66.9374162 47.7749759,68.6050161 C46.9895759,69.859016 45.4605761,70.3892159 44.0371762,69.883216 L44.0371762,69.883216 L38.7901766,68.0088161 C37.9189767,67.6964162 37.2281768,67.0188162 36.8915768,66.1520163 C36.5527768,65.2676164 36.6143768,64.2776164 37.0653768,63.4438165 C38.6207767,60.5574168 40.5743765,58.183617 42.8733763,56.3884171 C45.750976,54.1422173 48.9475758,52.5428175 52.3751755,51.6386175 C55.7477752,50.7498176 59.1291749,50.2966177 62.4181746,50.2966177 Z M75.2265735,85.6726146 C74.8085735,85.8508146 74.3223736,86.0180146 73.7657736,86.1764145 C72.3401737,86.5878145 70.6769739,86.9442145 68.828974,87.2412145 C67.0007742,87.5360144 65.2297743,87.7868144 63.5137745,87.9958144 C61.8131746,88.2004144 60.4359748,88.3764144 59.3887749,88.5150143 C56.9203751,88.8340143 54.5839753,89.3598143 52.4411755,90.0704142 C50.4105756,90.7502142 48.7583758,91.7644141 47.5329759,93.088814 C46.355976,94.3648138 45.781776,96.0830137 45.781776,98.3402135 C45.781776,101.426813 46.8839759,103.684013 49.1543757,105.235013 C51.5083755,106.841013 54.5685753,107.655013 58.2601749,107.655013 C61.9473746,107.655013 65.0911744,106.931213 67.5991741,105.503413 C70.1071739,104.071213 72.0233738,102.212213 73.2949736,99.9682134 C74.5775735,97.7198135 75.2265735,95.3262138 75.2265735,92.853414 L75.2265735,92.853414 Z" id="Combined-Shape"></path>
        </g>
    </g>
</svg>