<?xml version="1.0" encoding="UTF-8"?>
<svg width="210px" height="232px" viewBox="0 0 210 232" version="1.1" xmlns="http://www.w3.org/2000/svg" xmlns:xlink="http://www.w3.org/1999/xlink">
    <!-- Generator: Sketch 59 (86127) - https://sketch.com -->
    <title>Effect_Force-logomark-color</title>
    <desc>Created with Sketch.</desc>
    <g id="LOGOS" stroke="none" stroke-width="1" fill="none" fill-rule="evenodd">
        <g id="Effect_Force-logomark-color" fill="#0A7CFF">
            <path d="M104.891591,0.0455420169 C105.817791,-0.11065797 106.772591,0.137942009 107.491991,0.745141956 C108.213591,1.3523419 108.629391,2.24334183 108.629391,3.18714174 L108.629391,3.18714174 L108.629391,22.1445401 C110.56099,22.1379401 113.91159,21.9553401 115.82119,21.9553401 C122.130789,21.9553401 128.559189,22.6307401 134.928188,23.9595399 C136.397788,24.2631399 137.462588,25.5831398 137.462588,27.0945397 L137.462588,27.0945397 L137.462588,32.6759392 C137.462588,33.6417391 137.031388,34.541539 136.281188,35.146539 C135.519988,35.7581389 134.536588,35.9891389 133.559788,35.7735389 C125.562789,34.0025391 117.40739,33.4195391 108.946191,34.1279391 C106.141191,34.361139 103.318591,34.741739 100.561991,35.260939 C99.6071914,35.4413389 98.6369914,35.192739 97.8955915,34.576739 C97.1673916,33.9717391 96.7471916,33.0829392 96.7471916,32.1347392 L96.7471916,32.1347392 L96.7471916,13.6745408 C54.3069953,21.4581402 20.8933982,55.2523372 13.4595988,97.6463336 C12.4101989,103.630333 11.879999,109.706733 11.879999,115.714932 C11.879999,173.027127 58.5067949,219.656123 115.82119,219.656123 C121.765589,219.656123 127.749589,219.143523 133.605988,218.131523 C134.175788,218.032523 134.604788,217.513323 134.604788,216.921523 L134.604788,216.921523 L134.604788,197.895925 C134.604788,196.459325 135.583788,195.194325 136.985188,194.824725 C140.153188,193.977725 143.305788,192.926125 146.352787,191.702925 C153.348787,188.889126 159.750786,185.166726 165.532386,180.766726 C155.572987,162.284528 136.512188,150.826929 115.54399,150.826929 L115.54399,150.826929 L110.71939,150.826929 C94.6549918,150.826929 79.2571931,157.715128 68.4727941,169.727127 C68.0943941,170.149527 67.5553941,170.404727 66.9921942,170.428927 C66.4795942,170.442127 65.8987943,170.255127 65.4851943,169.870127 C63.4831945,167.997927 61.5537947,166.011328 59.7541948,163.963128 C59.0413949,163.151328 59.0501949,161.936928 59.7783948,161.140528 C72.5493937,147.157329 90.6025921,138.98873 109.441191,138.63453 L109.441191,138.63453 L109.441191,138.62353 L111.66319,138.61473 C122.720389,138.61473 133.385988,133.95293 140.934188,125.823931 C148.579187,117.591532 152.330187,106.870933 151.494187,95.6377337 C150.211587,78.3391352 137.565988,63.5837365 120.73819,59.7535368 C105.538391,56.2995371 90.1075922,61.6587367 80.451793,73.7477356 C79.8841931,74.4539356 78.9623932,74.7113355 78.1307932,74.4165356 C77.2859933,74.1195356 76.7403933,73.3495357 76.7403933,72.4519357 L76.7403933,72.4519357 L76.7403933,61.4123367 C76.7403933,60.4619368 77.1495933,59.5687369 77.8623932,58.9615369 C90.7015921,48.0253379 107.551391,44.0301382 124.101989,47.9967379 C145.554187,53.1403374 161.411786,71.4113358 163.563386,93.4597339 C165.492786,113.211332 156.026186,132.364531 139.319388,142.85853 C154.171587,148.325529 166.654386,158.788728 174.818585,172.521127 C189.221984,157.598528 197.698583,137.46413 197.698583,115.714932 C197.698583,83.5421348 178.721385,54.2227373 149.351387,41.0183385 C148.209587,40.5013385 147.470387,39.3683386 147.470387,38.1253387 L147.470387,38.1253387 L147.470387,32.1149392 C147.470387,31.0391393 148.004987,30.0425394 148.902587,29.4441395 C149.782587,28.8567395 150.884787,28.7467395 151.854987,29.1515395 C186.918584,43.7133382 209.578582,77.6901353 209.578582,115.714932 C209.578582,154.210529 186.500584,188.363326 150.785787,202.724924 C149.632987,203.186924 148.469187,203.631324 147.296587,204.047124 C146.812587,204.220924 146.486987,204.674124 146.486987,205.180124 L146.486987,205.180124 L146.486987,225.147323 C146.486987,226.674122 145.395787,227.991922 143.895388,228.280122 L143.895388,228.280122 L137.634188,229.474722 C130.455589,230.843122 123.116389,231.536122 115.82119,231.536122 C51.9573955,231.536122 -8.52651283e-14,179.578726 -8.52651283e-14,115.714932 C-8.52651283e-14,109.018133 0.589599949,102.248733 1.75559985,95.5915337 C10.1573991,47.7019379 47.9797958,9.93234116 95.8759917,1.60974188 L95.8759917,1.60974188 Z M33.7037771,135.96967 C35.111777,135.96967 36.3657768,136.92667 36.7551768,138.29507 C46.7255759,173.431267 79.2173731,197.974465 115.77037,197.974465 C117.60957,197.974465 119.56977,197.893065 121.760969,197.728065 C122.339569,197.684065 122.918169,197.884265 123.340569,198.275865 C123.767369,198.667465 124.009369,199.226265 124.009369,199.804865 L124.009369,199.804865 L124.009369,207.854664 C124.009369,208.952464 123.151369,209.872064 122.057969,209.944664 C119.73257,210.105264 117.67337,210.184464 115.77037,210.184464 C72.2851737,210.184464 34.627777,180.737466 24.1909779,138.57447 C24.0325779,137.94307 24.1755779,137.29187 24.5781779,136.77927 C24.9785778,136.26447 25.5835778,135.96967 26.2325777,135.96967 L26.2325777,135.96967 Z M110.48927,68.1086961 C110.99307,68.0734961 111.59367,68.2934961 112.00507,68.6916961 C112.41867,69.087696 112.65407,69.644296 112.65407,70.2118959 L112.65407,70.2118959 L112.65407,78.2506952 C112.65407,79.3528951 111.77847,80.2636951 110.66087,80.3230951 C100.807071,80.855495 93.0146719,89.3276943 93.2962719,99.2056934 C93.5558719,108.282893 102.056671,116.781492 111.13387,117.038892 C111.30547,117.045492 111.47707,117.047692 111.64647,117.047692 C121.304469,117.047692 129.490669,109.358693 130.016469,99.6764934 C130.071469,98.5588935 130.982269,97.6832936 132.086669,97.6832936 L132.086669,97.6832936 L140.127668,97.6832936 C140.695268,97.6832936 141.249668,97.9186935 141.645668,98.3322935 C142.043868,98.7436935 142.250668,99.2826934 142.228668,99.8502934 C141.907468,108.291693 138.033268,116.310692 131.600469,121.852491 C125.981669,126.688091 119.01867,129.259891 111.69707,129.259891 C110.52887,129.259891 109.354071,129.193891 108.172671,129.061891 C94.1520718,127.497691 82.8396728,116.187492 81.273273,102.166893 C80.314073,93.5714939 82.8748728,85.2510946 88.4826723,78.7390952 C94.0244718,72.3018958 102.043471,68.4298961 110.48927,68.1086961 Z" id="Combined-Shape"></path>
        </g>
    </g>
</svg>