<?xml version="1.0" encoding="UTF-8"?>
<svg width="210px" height="233px" viewBox="0 0 210 233" version="1.1" xmlns="http://www.w3.org/2000/svg" xmlns:xlink="http://www.w3.org/1999/xlink">
    <!-- Generator: Sketch 59 (86127) - https://sketch.com -->
    <title>Effect_Pieces-logomark-color</title>
    <desc>Created with Sketch.</desc>
    <g id="LOGOS" stroke="none" stroke-width="1" fill="none" fill-rule="evenodd">
        <g id="Effect_Pieces-logomark-color">
            <path d="M104.892471,0.711159852 C105.818671,0.548359866 106.773471,0.803559844 107.492871,1.41075979 C108.214471,2.01795974 108.630271,2.90895966 108.630271,3.85055958 L108.630271,3.85055958 L108.630271,22.8057579 C110.97327,22.7815579 114.01147,22.620958 115.82207,22.620958 C122.131669,22.620958 128.560069,23.2963579 134.929068,24.6251578 C136.396468,24.9265578 137.463468,26.2465576 137.463468,27.7601575 L137.463468,27.7601575 L137.463468,33.341557 C137.463468,34.3073569 137.032268,35.2071569 136.282068,35.8121568 C135.520868,36.4237568 134.537468,36.6503567 133.560668,36.4391568 C125.574669,34.6725569 117.48087,34.091757 108.947071,34.7913569 C106.155271,35.0223569 103.332671,35.4051568 100.565071,35.9265568 C99.6080714,36.1135568 98.6378714,35.8539568 97.8964715,35.2423569 C97.1682716,34.6373569 96.7480716,33.746357 96.7480716,32.7981571 L96.7480716,32.7981571 L96.7480716,14.3401587 C54.3078753,22.121558 20.8942782,55.9157551 13.4604788,98.3097514 C12.4110789,104.293751 11.880879,110.37235 11.880879,116.38055 C11.880879,173.690545 58.5076749,220.319541 115.82207,220.319541 C121.775269,220.319541 127.759269,219.806941 133.606868,218.797141 C134.176668,218.698141 134.605668,218.178941 134.605668,217.587141 L134.605668,217.587141 L134.605668,198.559343 C134.605668,197.122743 135.584668,195.859943 136.986068,195.490343 C140.154068,194.643343 143.306668,193.591743 146.353667,192.368543 C177.545265,179.826344 197.699463,149.996547 197.699463,116.38055 C197.699463,84.2055526 178.722265,54.8861552 149.352267,41.6817563 C148.210467,41.1691563 147.471267,40.0361564 147.471267,38.7909566 L147.471267,38.7909566 L147.471267,32.7805571 C147.471267,31.7047572 148.005867,30.7059573 148.901267,30.1097573 C149.783467,29.5223574 150.885667,29.4101574 151.855867,29.8171573 C186.919464,44.3789561 209.579462,78.3557531 209.579462,116.38055 C209.579462,154.873946 186.501464,189.026744 150.786667,203.390542 C149.638267,203.852542 148.472267,204.294742 147.299667,204.712742 C146.811267,204.884342 146.487867,205.339742 146.487867,205.845742 L146.487867,205.845742 L146.487867,225.81074 C146.487867,227.33754 145.396667,228.65754 143.896268,228.94574 L143.896268,228.94574 L137.635068,230.14034 C130.465269,231.50654 123.126069,232.19954 115.82207,232.19954 C51.9582755,232.19954 0.000879999924,180.242144 0.000879999924,116.38055 C0.000879999924,109.68155 0.590479949,102.912151 1.75647985,96.2571516 C10.1582791,48.3675557 47.9806758,10.597959 95.8768717,2.27535972 L95.8768717,2.27535972 Z M33.7039971,137.074848 C34.918397,137.074848 35.9985969,137.899848 36.3329969,139.081248 C46.356196,174.406645 79.0239931,199.079643 115.77059,199.079643 C117.62079,199.079643 119.59199,198.998243 121.796389,198.833243 C122.234189,198.789243 122.707189,198.952043 123.043789,199.264443 C123.378189,199.574643 123.569589,200.014643 123.569589,200.470043 L123.569589,200.470043 L123.569589,208.519842 C123.569589,209.388842 122.891989,210.114842 122.029589,210.169842 C119.71079,210.330442 117.66259,210.409642 115.77059,210.409642 C72.4877937,210.409642 35.006397,181.099044 24.6157979,139.134048 C24.4969979,138.636848 24.6069979,138.119848 24.9237978,137.715048 C25.2427978,137.310248 25.7179978,137.074848 26.2327977,137.074848 L26.2327977,137.074848 Z M74.6591935,35.8625368 C75.5171935,35.0045369 76.9119933,35.0045369 77.7699933,35.8625368 L77.7699933,35.8625368 L100.396991,58.4851348 C101.254991,59.3453348 101.254991,60.7401346 100.396991,61.5981346 L100.396991,61.5981346 L77.5015933,84.4957326 L103.228391,110.22473 L126.125989,87.3271323 C126.986189,86.4669324 128.376589,86.4669324 129.236789,87.3271323 L129.236789,87.3271323 L151.859387,109.95413 C152.719587,110.81433 152.719587,112.20473 151.859387,113.06493 L151.859387,113.06493 L128.966189,135.958128 L153.146387,160.140526 C154.006587,161.000726 154.006587,162.393326 153.146387,163.251326 L153.146387,163.251326 L130.521589,185.876124 C129.661389,186.734124 128.270989,186.734124 127.410789,185.876124 L127.410789,185.876124 L104.783791,163.251326 C103.925791,162.393326 103.925791,161.000726 104.783791,160.140526 L104.783791,160.140526 L127.681389,137.242928 L101.943591,111.50953 L79.0503931,134.402728 C78.1901932,135.262928 76.7975933,135.262928 75.9395934,134.402728 L75.9395934,134.402728 L53.3103954,111.77793 C52.4523955,110.91993 52.4523955,109.52733 53.3103954,108.66713 L53.3103954,108.66713 L76.2101934,85.7717325 L52.0343955,61.5981346 C51.1763956,60.7401346 51.1763956,59.3453348 52.0343955,58.4851348 L52.0343955,58.4851348 Z M130.521589,153.074127 C129.661389,152.213927 128.270989,152.213927 127.410789,153.074127 L127.410789,153.074127 L120.34219,160.140526 C119.48419,161.000726 119.48419,162.393326 120.34219,163.251326 L120.34219,163.251326 L127.410789,170.319925 C128.270989,171.180125 129.661389,171.180125 130.521589,170.319925 L130.521589,170.319925 L137.590188,163.251326 C138.450388,162.393326 138.450388,161.000726 137.590188,160.140526 L137.590188,160.140526 Z M129.236789,102.883331 C128.376589,102.025331 126.986189,102.025331 126.125989,102.883331 L126.125989,102.883331 L119.05519,109.95413 C118.19719,110.81433 118.19719,112.20473 119.05519,113.06493 L119.05519,113.06493 L126.125989,120.133529 C126.986189,120.993729 128.376589,120.993729 129.236789,120.133529 L129.236789,120.133529 L136.305388,113.06493 C137.165588,112.20473 137.165588,110.81433 136.305388,109.95413 L136.305388,109.95413 Z M79.0503931,101.598531 C78.1901932,100.738331 76.7975933,100.738331 75.9395934,101.598531 L75.9395934,101.598531 L68.868794,108.66713 C68.0085941,109.52733 68.0085941,110.91993 68.868794,111.77793 L68.868794,111.77793 L75.9395934,118.84873 C76.7975933,119.70893 78.1901932,119.70893 79.0503931,118.84873 L79.0503931,118.84873 L86.1189925,111.78013 C86.9769925,110.91993 86.9769925,109.52733 86.1189925,108.66933 L86.1189925,108.66933 Z M77.7699933,51.4187355 C76.9119933,50.5585355 75.5171935,50.5585355 74.6591935,51.4187355 L74.6591935,51.4187355 L67.5905941,58.4851348 C66.7303942,59.3453348 66.7303942,60.7401346 67.5905941,61.5981346 L67.5905941,61.5981346 L74.6591935,68.666734 C75.5171935,69.5247339 76.9119933,69.5247339 77.7699933,68.666734 L77.7699933,68.666734 L84.8363926,61.5981346 C85.6965926,60.7401346 85.6965926,59.3453348 84.8363926,58.4851348 L84.8363926,58.4851348 Z" id="Combined-Shape" fill="#999999"></path>
            <g id="Group-7"></g>
        </g>
    </g>
</svg>