<?xml version="1.0" encoding="UTF-8"?>
<svg width="256px" height="106px" viewBox="0 0 256 106" version="1.1" xmlns="http://www.w3.org/2000/svg" xmlns:xlink="http://www.w3.org/1999/xlink">
    <!-- Generator: Sketch 59 (86127) - https://sketch.com -->
    <title>Effect Pieces-logo-white</title>
    <desc>Created with Sketch.</desc>
    <g id="LOGOS" stroke="none" stroke-width="1" fill="none" fill-rule="evenodd">
        <g id="Effect-Pieces-logo-white" transform="translate(0.000000, -1.000000)">
            <path d="M47.6784,1.0218 C48.0994,0.9478 48.5334,1.0638 48.8604,1.3398 C49.1884,1.6158 49.3774,2.0208 49.3774,2.4488 L49.3774,2.4488 L49.3774,11.0648 C50.4424,11.0538 51.8234,10.9808 52.6464,10.9808 C55.5144,10.9808 58.4364,11.2878 61.3314,11.8918 C61.9984,12.0288 62.4834,12.6288 62.4834,13.3168 L62.4834,13.3168 L62.4834,15.8538 C62.4834,16.2928 62.2874,16.7018 61.9464,16.9768 C61.6004,17.2548 61.1534,17.3578 60.7094,17.2618 C57.0794,16.4588 53.4004,16.1948 49.5214,16.5128 C48.2524,16.6178 46.9694,16.7918 45.7114,17.0288 C45.2764,17.1138 44.8354,16.9958 44.4984,16.7178 C44.1674,16.4428 43.9764,16.0378 43.9764,15.6068 L43.9764,15.6068 L43.9764,7.2168 C24.6854,10.7538 9.4974,26.1148 6.1184,45.3848 C5.6414,48.1048 5.4004,50.8678 5.4004,53.5988 C5.4004,79.6488 26.5944,100.8438 52.6464,100.8438 C55.3524,100.8438 58.0724,100.6108 60.7304,100.1518 C60.9894,100.1068 61.1844,99.8708 61.1844,99.6018 L61.1844,99.6018 L61.1844,90.9528 C61.1844,90.2998 61.6294,89.7258 62.2664,89.5578 C63.7064,89.1728 65.1394,88.6948 66.5244,88.1388 C80.7024,82.4378 89.8634,68.8788 89.8634,53.5988 C89.8634,38.9738 81.2374,25.6468 67.8874,19.6448 C67.3684,19.4118 67.0324,18.8968 67.0324,18.3308 L67.0324,18.3308 L67.0324,15.5988 C67.0324,15.1098 67.2754,14.6558 67.6824,14.3848 C68.0834,14.1178 68.5844,14.0668 69.0254,14.2518 C84.9634,20.8708 95.2634,36.3148 95.2634,53.5988 C95.2634,71.0958 84.7734,86.6198 68.5394,93.1488 C68.0174,93.3588 67.4874,93.5598 66.9544,93.7498 C66.7324,93.8278 66.5854,94.0348 66.5854,94.2648 L66.5854,94.2648 L66.5854,103.3398 C66.5854,104.0338 66.0894,104.6338 65.4074,104.7648 L65.4074,104.7648 L62.5614,105.3078 C59.3024,105.9288 55.9664,106.2438 52.6464,106.2438 C23.6174,106.2438 0.0004,82.6268 0.0004,53.5988 C0.0004,50.5538 0.2684,47.4768 0.7984,44.4518 C4.6174,22.6838 21.8094,5.5158 43.5804,1.7328 L43.5804,1.7328 Z M15.32,63.0053 C15.872,63.0053 16.363,63.3803 16.515,63.9173 C21.071,79.9743 35.92,91.1893 52.623,91.1893 C53.464,91.1893 54.36,91.1523 55.362,91.0773 C55.561,91.0573 55.776,91.1313 55.929,91.2733 C56.081,91.4143 56.168,91.6143 56.168,91.8213 L56.168,91.8213 L56.168,95.4803 C56.168,95.8753 55.86,96.2053 55.468,96.2303 C54.414,96.3033 53.483,96.3393 52.623,96.3393 C32.949,96.3393 15.912,83.0163 11.189,63.9413 C11.135,63.7153 11.185,63.4803 11.329,63.2963 C11.474,63.1123 11.69,63.0053 11.924,63.0053 L11.924,63.0053 Z M33.936,16.9997 C34.326,16.6097 34.96,16.6097 35.35,16.9997 L35.35,16.9997 L45.635,27.2827 C46.025,27.6737 46.025,28.3077 45.635,28.6977 L45.635,28.6977 L35.228,39.1057 L46.922,50.8007 L57.33,40.3927 C57.721,40.0017 58.353,40.0017 58.744,40.3927 L58.744,40.3927 L69.027,50.6777 C69.418,51.0687 69.418,51.7007 69.027,52.0917 L69.027,52.0917 L58.621,62.4977 L69.612,73.4897 C70.003,73.8807 70.003,74.5137 69.612,74.9037 L69.612,74.9037 L59.328,85.1877 C58.937,85.5777 58.305,85.5777 57.914,85.1877 L57.914,85.1877 L47.629,74.9037 C47.239,74.5137 47.239,73.8807 47.629,73.4897 L47.629,73.4897 L58.037,63.0817 L46.338,51.3847 L35.932,61.7907 C35.541,62.1817 34.908,62.1817 34.518,61.7907 L34.518,61.7907 L24.232,51.5067 C23.842,51.1167 23.842,50.4837 24.232,50.0927 L24.232,50.0927 L34.641,39.6857 L23.652,28.6977 C23.262,28.3077 23.262,27.6737 23.652,27.2827 L23.652,27.2827 Z M59.328,70.2777 C58.937,69.8867 58.305,69.8867 57.914,70.2777 L57.914,70.2777 L54.701,73.4897 C54.311,73.8807 54.311,74.5137 54.701,74.9037 L54.701,74.9037 L57.914,78.1167 C58.305,78.5077 58.937,78.5077 59.328,78.1167 L59.328,78.1167 L62.541,74.9037 C62.932,74.5137 62.932,73.8807 62.541,73.4897 L62.541,73.4897 Z M58.744,47.4637 C58.353,47.0737 57.721,47.0737 57.33,47.4637 L57.33,47.4637 L54.116,50.6777 C53.726,51.0687 53.726,51.7007 54.116,52.0917 L54.116,52.0917 L57.33,55.3047 C57.721,55.6957 58.353,55.6957 58.744,55.3047 L58.744,55.3047 L61.957,52.0917 C62.348,51.7007 62.348,51.0687 61.957,50.6777 L61.957,50.6777 Z M35.932,46.8797 C35.541,46.4887 34.908,46.4887 34.518,46.8797 L34.518,46.8797 L31.304,50.0927 C30.913,50.4837 30.913,51.1167 31.304,51.5067 L31.304,51.5067 L34.518,54.7207 C34.908,55.1117 35.541,55.1117 35.932,54.7207 L35.932,54.7207 L39.145,51.5077 C39.535,51.1167 39.535,50.4837 39.145,50.0937 L39.145,50.0937 Z M35.35,24.0707 C34.96,23.6797 34.326,23.6797 33.936,24.0707 L33.936,24.0707 L30.723,27.2827 C30.332,27.6737 30.332,28.3077 30.723,28.6977 L30.723,28.6977 L33.936,31.9107 C34.326,32.3007 34.96,32.3007 35.35,31.9107 L35.35,31.9107 L38.562,28.6977 C38.953,28.3077 38.953,27.6737 38.562,27.2827 L38.562,27.2827 Z" id="Combined-Shape" fill="#FFFFFF"></path>
            <g id="Group-7" transform="translate(0.000000, 0.244000)"></g>
            <path d="M183.3495,58.925 C187.9505,58.925 191.9575,61.339 193.8075,65.026 C193.9705,65.351 193.7145,65.735 193.3505,65.735 L193.3505,65.735 L189.9245,65.735 C189.7625,65.735 189.6135,65.652 189.5205,65.518 C188.1345,63.516 185.8445,62.23 183.2685,62.23 C178.0285,62.23 174.2385,66.584 174.2385,72.47 C174.2385,78.355 178.1895,82.71 183.4295,82.71 C186.1175,82.71 188.4015,81.464 189.7835,79.499 C189.8755,79.366 190.0245,79.285 190.1855,79.285 L190.1855,79.285 L193.4035,79.285 C193.7725,79.285 194.0275,79.678 193.8545,80.004 C191.9025,83.695 187.8705,86.096 183.4295,86.096 C176.0925,86.096 170.6915,80.371 170.6915,72.551 C170.6915,64.649 176.0125,58.925 183.3495,58.925 Z M234.1521,58.9244 C238.9771,58.9244 242.8721,61.7184 243.4741,65.6304 C243.4931,65.7584 243.4091,65.8834 243.2841,65.9164 L240.1581,66.7504 C240.0111,66.7904 239.8691,66.6854 239.8521,66.5334 C239.5451,63.7934 237.1051,61.9884 233.9911,61.9884 C230.9281,61.9884 228.7501,63.6004 228.7501,66.0194 C228.7501,68.1164 230.4431,69.4874 233.0231,70.0504 L238.1031,71.1794 C241.8111,71.9864 244.3111,74.6474 244.3111,78.0334 C244.3111,82.7904 240.5211,86.0954 234.9591,86.0954 C229.0001,86.0954 224.4501,82.5734 224.0101,77.5344 C223.9991,77.4064 224.0881,77.2874 224.2131,77.2604 L227.4951,76.5624 C227.6451,76.5304 227.7831,76.6434 227.7901,76.7974 C227.9481,80.3504 230.9591,82.8714 235.0391,82.8714 C238.3451,82.8714 240.7641,81.0164 240.7641,78.2754 C240.7641,76.5004 239.2311,74.8484 236.9741,74.3244 L232.0561,73.1954 C228.0241,72.2684 225.2831,69.7284 225.2831,66.3424 C225.2831,61.9884 228.9111,58.9244 234.1521,58.9244 Z M165.3575,59.4086 C165.4955,59.4086 165.6075,59.5206 165.6075,59.6586 L165.6075,62.3026 C165.6075,62.4406 165.4955,62.5526 165.3575,62.5526 L150.7805,62.5526 C150.6415,62.5526 150.5305,62.6646 150.5305,62.8026 L150.5305,70.6076 C150.5305,70.7446 150.6415,70.8576 150.7805,70.8576 L163.2615,70.8576 C163.3995,70.8576 163.5115,70.9696 163.5115,71.1076 L163.5115,73.7916 C163.5115,73.9296 163.3995,74.0416 163.2615,74.0416 L150.7805,74.0416 C150.6415,74.0416 150.5305,74.1546 150.5305,74.2916 L150.5305,82.1376 C150.5305,82.2756 150.6415,82.3876 150.7805,82.3876 L165.5195,82.3876 C165.6575,82.3876 165.7695,82.4996 165.7695,82.6376 L165.7695,85.3626 C165.7695,85.4996 165.6575,85.6126 165.5195,85.6126 L147.4745,85.6126 C147.3355,85.6126 147.2245,85.4996 147.2245,85.3626 L147.2245,59.6586 C147.2245,59.5206 147.3355,59.4086 147.4745,59.4086 L165.3575,59.4086 Z M219.1437,59.4086 C219.2817,59.4086 219.3937,59.5206 219.3937,59.6586 L219.3937,62.3026 C219.3937,62.4406 219.2817,62.5526 219.1437,62.5526 L204.5667,62.5526 C204.4277,62.5526 204.3167,62.6646 204.3167,62.8026 L204.3167,70.6076 C204.3167,70.7446 204.4277,70.8576 204.5667,70.8576 L217.0477,70.8576 C217.1857,70.8576 217.2977,70.9696 217.2977,71.1076 L217.2977,73.7916 C217.2977,73.9296 217.1857,74.0416 217.0477,74.0416 L204.5667,74.0416 C204.4277,74.0416 204.3167,74.1546 204.3167,74.2916 L204.3167,82.1376 C204.3167,82.2756 204.4277,82.3876 204.5667,82.3876 L219.3047,82.3876 C219.4427,82.3876 219.5547,82.4996 219.5547,82.6376 L219.5547,85.3626 C219.5547,85.4996 219.4427,85.6126 219.3047,85.6126 L201.2607,85.6126 C201.1217,85.6126 201.0107,85.4996 201.0107,85.3626 L201.0107,59.6586 C201.0107,59.5206 201.1217,59.4086 201.2607,59.4086 L219.1437,59.4086 Z M122.3059,59.4083 C127.3049,59.4083 130.8519,62.7943 130.8519,67.5513 C130.8519,72.3893 127.2639,75.8163 122.1849,75.8163 L115.2989,75.8163 C115.1599,75.8163 115.0489,75.9283 115.0489,76.0663 L115.0489,85.3623 C115.0489,85.5003 114.9369,85.6123 114.7989,85.6123 L111.9929,85.6123 C111.8549,85.6123 111.7429,85.5003 111.7429,85.3623 L111.7429,59.6583 C111.7429,59.5203 111.8549,59.4083 111.9929,59.4083 L122.3059,59.4083 Z M139.4746,59.4081 C139.6126,59.4081 139.7246,59.5201 139.7246,59.6581 L139.7246,85.3621 C139.7246,85.5001 139.6126,85.6121 139.4746,85.6121 L136.6686,85.6121 C136.5306,85.6121 136.4186,85.5001 136.4186,85.3621 L136.4186,59.6581 C136.4186,59.5201 136.5306,59.4081 136.6686,59.4081 L139.4746,59.4081 Z M122.3649,62.6333 L115.2989,62.6333 C115.1599,62.6333 115.0489,62.7463 115.0489,62.8833 L115.0489,72.3803 C115.0489,72.5183 115.1599,72.6303 115.2989,72.6303 L122.3059,72.6303 C125.3689,72.6303 127.5819,70.4203 127.4609,67.3973 C127.3539,64.7133 125.0519,62.6333 122.3649,62.6333 Z M217.5522,18.4554 C222.6082,18.4554 227.0112,21.3054 228.8182,25.4894 C228.8892,25.6544 228.7622,25.8414 228.5832,25.8414 L228.5832,25.8414 L223.2772,25.8414 C222.9842,25.8414 222.7142,25.7054 222.5192,25.4864 C221.2652,24.0794 219.4562,23.2034 217.4712,23.2034 C212.7312,23.2034 209.2922,27.1454 209.2922,32.5774 C209.2922,37.9214 212.8772,41.9524 217.6312,41.9524 C219.7072,41.9524 221.5272,41.1154 222.7812,39.7394 C222.9762,39.5254 223.2422,39.3924 223.5322,39.3924 L223.5322,39.3924 L228.6582,39.3924 C228.8392,39.3924 228.9662,39.5824 228.8912,39.7474 C227.0072,43.9484 222.6652,46.7784 217.6312,46.7784 C209.9102,46.7784 204.3052,40.8394 204.3052,32.6574 C204.3052,24.4284 209.8772,18.4554 217.5522,18.4554 Z M131.1352,18.933 C131.2722,18.933 131.3852,19.046 131.3852,19.183 L131.3852,19.183 L131.3852,23.271 C131.3852,23.41 131.2722,23.521 131.1352,23.521 L131.1352,23.521 L116.7412,23.521 C116.6022,23.521 116.4912,23.634 116.4912,23.771 L116.4912,23.771 L116.4912,29.244 C116.4912,29.796 116.9382,30.244 117.4912,30.244 L117.4912,30.244 L129.0642,30.244 C129.2022,30.244 129.3142,30.355 129.3142,30.494 L129.3142,30.494 L129.3142,34.621 C129.3142,34.759 129.2022,34.871 129.0642,34.871 L129.0642,34.871 L117.4912,34.871 C116.9382,34.871 116.4912,35.318 116.4912,35.871 L116.4912,35.871 L116.4912,41.384 C116.4912,41.522 116.6022,41.634 116.7412,41.634 L116.7412,41.634 L131.2942,41.634 C131.4312,41.634 131.5442,41.746 131.5442,41.884 L131.5442,41.884 L131.5442,46.051 C131.5442,46.188 131.4312,46.301 131.2942,46.301 L131.2942,46.301 L111.9932,46.301 C111.8542,46.301 111.7432,46.188 111.7432,46.051 L111.7432,46.051 L111.7432,19.183 C111.7432,19.046 111.8542,18.933 111.9932,18.933 L111.9932,18.933 Z M154.4757,18.9336 C154.6137,18.9336 154.7257,19.0456 154.7257,19.1836 L154.7257,19.1836 L154.7257,23.2716 C154.7257,23.4096 154.6137,23.5216 154.4757,23.5216 L154.4757,23.5216 L140.7177,23.5216 C140.5787,23.5216 140.4677,23.6336 140.4677,23.7716 L140.4677,23.7716 L140.4677,29.8406 C140.4677,30.3936 140.9147,30.8406 141.4677,30.8406 L141.4677,30.8406 L152.7237,30.8406 C152.8617,30.8406 152.9737,30.9526 152.9737,31.0906 L152.9737,31.0906 L152.9737,35.2586 C152.9737,35.3966 152.8617,35.5086 152.7237,35.5086 L152.7237,35.5086 L141.4677,35.5086 C140.9147,35.5086 140.4677,35.9556 140.4677,36.5086 L140.4677,36.5086 L140.4677,46.0506 C140.4677,46.1886 140.3557,46.3006 140.2177,46.3006 L140.2177,46.3006 L135.9707,46.3006 C135.8317,46.3006 135.7207,46.1886 135.7207,46.0506 L135.7207,46.0506 L135.7207,19.1836 C135.7207,19.0456 135.8317,18.9336 135.9707,18.9336 L135.9707,18.9336 Z M177.1779,18.9336 C177.3159,18.9336 177.4279,19.0456 177.4279,19.1836 L177.4279,19.1836 L177.4279,23.2716 C177.4279,23.4096 177.3159,23.5216 177.1779,23.5216 L177.1779,23.5216 L163.4209,23.5216 C163.2819,23.5216 163.1709,23.6336 163.1709,23.7716 L163.1709,23.7716 L163.1709,29.8406 C163.1709,30.3936 163.6179,30.8406 164.1709,30.8406 L164.1709,30.8406 L175.4259,30.8406 C175.5639,30.8406 175.6759,30.9526 175.6759,31.0906 L175.6759,31.0906 L175.6759,35.2586 C175.6759,35.3966 175.5639,35.5086 175.4259,35.5086 L175.4259,35.5086 L164.1709,35.5086 C163.6179,35.5086 163.1709,35.9556 163.1709,36.5086 L163.1709,36.5086 L163.1709,46.0506 C163.1709,46.1886 163.0589,46.3006 162.9209,46.3006 L162.9209,46.3006 L158.6729,46.3006 C158.5339,46.3006 158.4229,46.1886 158.4229,46.0506 L158.4229,46.0506 L158.4229,19.1836 C158.4229,19.0456 158.5339,18.9336 158.6729,18.9336 L158.6729,18.9336 Z M200.517,18.933 C200.654,18.933 200.767,19.046 200.767,19.183 L200.767,19.183 L200.767,23.271 C200.767,23.41 200.654,23.521 200.517,23.521 L200.517,23.521 L186.123,23.521 C185.984,23.521 185.873,23.634 185.873,23.771 L185.873,23.771 L185.873,29.244 C185.873,29.796 186.32,30.244 186.873,30.244 L186.873,30.244 L198.446,30.244 C198.584,30.244 198.696,30.355 198.696,30.494 L198.696,30.494 L198.696,34.621 C198.696,34.759 198.584,34.871 198.446,34.871 L198.446,34.871 L186.873,34.871 C186.32,34.871 185.873,35.318 185.873,35.871 L185.873,35.871 L185.873,41.384 C185.873,41.522 185.984,41.634 186.123,41.634 L186.123,41.634 L200.676,41.634 C200.813,41.634 200.926,41.746 200.926,41.884 L200.926,41.884 L200.926,46.051 C200.926,46.188 200.813,46.301 200.676,46.301 L200.676,46.301 L181.375,46.301 C181.236,46.301 181.125,46.188 181.125,46.051 L181.125,46.051 L181.125,19.183 C181.125,19.046 181.236,18.933 181.375,18.933 L181.375,18.933 Z M255.083,18.9335 C255.221,18.9335 255.333,19.0455 255.333,19.1835 L255.333,19.1835 L255.333,23.3515 C255.333,23.4905 255.221,23.6015 255.083,23.6015 L255.083,23.6015 L246.935,23.6015 C246.382,23.6015 245.935,24.0495 245.935,24.6015 L245.935,24.6015 L245.935,46.0505 C245.935,46.1885 245.822,46.3005 245.685,46.3005 L245.685,46.3005 L241.437,46.3005 C241.298,46.3005 241.187,46.1885 241.187,46.0505 L241.187,46.0505 L241.187,24.6015 C241.187,24.0495 240.738,23.6015 240.187,23.6015 L240.187,23.6015 L231.959,23.6015 C231.82,23.6015 231.709,23.4905 231.709,23.3515 L231.709,23.3515 L231.709,19.1835 C231.709,19.0455 231.82,18.9335 231.959,18.9335 L231.959,18.9335 Z" id="Combined-Shape" fill="#FFFFFF"></path>
        </g>
    </g>
</svg>