<?xml version="1.0" encoding="UTF-8"?>
<svg width="282px" height="106px" viewBox="0 0 282 106" version="1.1" xmlns="http://www.w3.org/2000/svg" xmlns:xlink="http://www.w3.org/1999/xlink">
    <!-- Generator: Sketch 59 (86127) - https://sketch.com -->
    <title>Effect Socials-logo-white</title>
    <desc>Created with Sketch.</desc>
    <defs>
        <polygon id="path-1" points="0.0004 0.754 95.2634 0.754 95.2634 105.9999 0.0004 105.9999"></polygon>
    </defs>
    <g id="LOGOS" stroke="none" stroke-width="1" fill="none" fill-rule="evenodd">
        <g id="Effect-Socials-logo-white" transform="translate(0.000000, -1.000000)">
            <path d="M122.0243,58.9208 C126.9173,58.9208 130.8653,61.7538 131.4743,65.7228 C131.4943,65.8508 131.4103,65.9758 131.2853,66.0088 L128.1093,66.8558 C127.9613,66.8948 127.8203,66.7898 127.8023,66.6378 C127.4933,63.8588 125.0203,62.0268 121.8613,62.0268 C118.7563,62.0268 116.5493,63.6608 116.5493,66.1128 C116.5493,68.2378 118.2643,69.6268 120.8803,70.1988 L126.0293,71.3438 C129.7883,72.1608 132.3223,74.8578 132.3223,78.2898 C132.3223,83.1118 128.4803,86.4628 122.8423,86.4628 C116.8013,86.4628 112.1893,82.8908 111.7443,77.7798 C111.7323,77.6528 111.8223,77.5338 111.9473,77.5078 L115.2803,76.7978 C115.4313,76.7668 115.5683,76.8798 115.5753,77.0338 C115.7343,80.6378 118.7873,83.1938 122.9243,83.1938 C126.2743,83.1938 128.7253,81.3148 128.7253,78.5348 C128.7253,76.7368 127.1733,75.0628 124.8843,74.5308 L119.8993,73.3868 C115.8133,72.4468 113.0343,69.8728 113.0343,66.4408 C113.0343,62.0268 116.7123,58.9208 122.0243,58.9208 Z M151.2418,58.9213 C158.9238,58.9213 164.5228,64.6423 164.5228,72.6923 C164.5228,80.7013 158.9238,86.4633 151.2418,86.4633 C143.5598,86.4633 137.9608,80.7013 137.9608,72.6923 C137.9608,64.6823 143.5598,58.9213 151.2418,58.9213 Z M271.5038,58.9208 C276.3968,58.9208 280.3448,61.7538 280.9538,65.7228 C280.9738,65.8508 280.8898,65.9758 280.7648,66.0088 L277.5888,66.8558 C277.4408,66.8948 277.2998,66.7898 277.2818,66.6378 C276.9728,63.8588 274.4998,62.0268 271.3408,62.0268 C268.2348,62.0268 266.0288,63.6608 266.0288,66.1128 C266.0288,68.2378 267.7438,69.6268 270.3598,70.1988 L275.5088,71.3438 C279.2678,72.1608 281.8018,74.8578 281.8018,78.2898 C281.8018,83.1118 277.9598,86.4628 272.3218,86.4628 C266.2808,86.4628 261.6688,82.8908 261.2238,77.7798 C261.2118,77.6528 261.3018,77.5338 261.4268,77.5078 L264.7598,76.7978 C264.9108,76.7668 265.0478,76.8798 265.0548,77.0338 C265.2138,80.6378 268.2668,83.1938 272.4038,83.1938 C275.7538,83.1938 278.2048,81.3148 278.2048,78.5348 C278.2048,76.7368 276.6528,75.0628 274.3638,74.5308 L269.3788,73.3868 C265.2928,72.4468 262.5138,69.8728 262.5138,66.4408 C262.5138,62.0268 266.1918,58.9208 271.5038,58.9208 Z M183.3198,58.9207 C188.0118,58.9207 192.0948,61.3947 193.9548,65.1687 C194.1148,65.4947 193.8598,65.8757 193.4968,65.8757 L193.4968,65.8757 L190.0148,65.8757 C189.8508,65.8757 189.7008,65.7917 189.6088,65.6557 C188.2068,63.5987 185.8718,62.2727 183.2378,62.2727 C177.9258,62.2727 174.0848,66.6857 174.0848,72.6517 C174.0848,78.6167 178.0888,83.0297 183.4018,83.0297 C186.1848,83.0297 188.5428,81.7137 189.9338,79.6477 C190.0268,79.5107 190.1768,79.4257 190.3418,79.4257 L190.3418,79.4257 L193.5898,79.4257 C193.9558,79.4257 194.2108,79.8137 194.0448,80.1397 C192.0968,83.9657 187.9608,86.4627 183.4018,86.4627 C175.9648,86.4627 170.4878,80.6597 170.4878,72.7337 C170.4878,64.7237 175.8828,58.9207 183.3198,58.9207 Z M204.3193,59.412 C204.4583,59.412 204.5693,59.523 204.5693,59.662 L204.5693,85.723 C204.5693,85.86 204.4583,85.973 204.3193,85.973 L201.4673,85.973 C201.3303,85.973 201.2173,85.86 201.2173,85.723 L201.2173,59.662 C201.2173,59.523 201.3303,59.412 201.4673,59.412 L204.3193,59.412 Z M223.934,59.4118 C224.035,59.4118 224.127,59.4738 224.165,59.5678 L234.67,85.6288 C234.736,85.7928 234.615,85.9728 234.437,85.9728 L231.057,85.9728 C230.953,85.9728 230.86,85.9088 230.823,85.8128 L228.168,78.9408 C228.131,78.8448 228.038,78.7808 227.935,78.7808 L216.591,78.7808 C216.487,78.7808 216.395,78.8448 216.357,78.9408 L213.703,85.8128 C213.666,85.9088 213.573,85.9728 213.47,85.9728 L210.09,85.9728 C209.912,85.9728 209.791,85.7928 209.858,85.6278 L220.443,59.5668 C220.481,59.4738 220.573,59.4118 220.675,59.4118 L223.934,59.4118 Z M242.8943,59.412 C243.0333,59.412 243.1443,59.523 243.1443,59.662 L243.1443,82.372 C243.1443,82.51 243.2573,82.622 243.3943,82.622 L257.2783,82.622 C257.4173,82.622 257.5283,82.733 257.5283,82.872 L257.5283,85.723 C257.5283,85.86 257.4173,85.973 257.2783,85.973 L240.0433,85.973 C239.9053,85.973 239.7933,85.86 239.7933,85.723 L239.7933,59.662 C239.7933,59.523 239.9053,59.412 240.0433,59.412 L242.8943,59.412 Z M151.2418,62.2723 C145.6848,62.2723 141.5578,66.6443 141.5578,72.6923 C141.5578,78.6583 145.6848,83.0303 151.2418,83.0303 C156.7988,83.0303 160.9268,78.6583 160.9268,72.6923 C160.9268,66.6443 156.7988,62.2723 151.2418,62.2723 Z M222.03,64.2638 L217.776,75.2528 C217.713,75.4168 217.834,75.5938 218.01,75.5938 L226.516,75.5938 C226.691,75.5938 226.812,75.4168 226.749,75.2528 L222.496,64.2638 C222.414,64.0498 222.112,64.0498 222.03,64.2638 Z M217.5522,18.4535 C222.6082,18.4535 227.0112,21.3035 228.8182,25.4875 C228.8892,25.6525 228.7622,25.8395 228.5832,25.8395 L228.5832,25.8395 L223.2772,25.8395 C222.9842,25.8395 222.7142,25.7025 222.5192,25.4845 C221.2652,24.0775 219.4562,23.2015 217.4712,23.2015 C212.7312,23.2015 209.2922,27.1435 209.2922,32.5755 C209.2922,37.9195 212.8772,41.9505 217.6312,41.9505 C219.7072,41.9505 221.5272,41.1135 222.7812,39.7375 C222.9762,39.5235 223.2422,39.3905 223.5322,39.3905 L223.5322,39.3905 L228.6582,39.3905 C228.8392,39.3905 228.9662,39.5805 228.8912,39.7455 C227.0072,43.9465 222.6652,46.7765 217.6312,46.7765 C209.9102,46.7765 204.3052,40.8375 204.3052,32.6555 C204.3052,24.4265 209.8772,18.4535 217.5522,18.4535 Z M131.1352,18.931 C131.2722,18.931 131.3852,19.044 131.3852,19.181 L131.3852,19.181 L131.3852,23.269 C131.3852,23.407 131.2722,23.519 131.1352,23.519 L131.1352,23.519 L116.7412,23.519 C116.6022,23.519 116.4912,23.632 116.4912,23.769 L116.4912,23.769 L116.4912,29.242 C116.4912,29.794 116.9382,30.242 117.4912,30.242 L117.4912,30.242 L129.0642,30.242 C129.2022,30.242 129.3142,30.353 129.3142,30.492 L129.3142,30.492 L129.3142,34.619 C129.3142,34.757 129.2022,34.869 129.0642,34.869 L129.0642,34.869 L117.4912,34.869 C116.9382,34.869 116.4912,35.316 116.4912,35.869 L116.4912,35.869 L116.4912,41.382 C116.4912,41.519 116.6022,41.632 116.7412,41.632 L116.7412,41.632 L131.2942,41.632 C131.4312,41.632 131.5442,41.744 131.5442,41.882 L131.5442,41.882 L131.5442,46.049 C131.5442,46.186 131.4312,46.299 131.2942,46.299 L131.2942,46.299 L111.9932,46.299 C111.8542,46.299 111.7432,46.186 111.7432,46.049 L111.7432,46.049 L111.7432,19.181 C111.7432,19.044 111.8542,18.931 111.9932,18.931 L111.9932,18.931 Z M154.4757,18.9317 C154.6137,18.9317 154.7257,19.0437 154.7257,19.1817 L154.7257,19.1817 L154.7257,23.2697 C154.7257,23.4067 154.6137,23.5197 154.4757,23.5197 L154.4757,23.5197 L140.7177,23.5197 C140.5787,23.5197 140.4677,23.6317 140.4677,23.7697 L140.4677,23.7697 L140.4677,29.8387 C140.4677,30.3917 140.9147,30.8387 141.4677,30.8387 L141.4677,30.8387 L152.7237,30.8387 C152.8617,30.8387 152.9737,30.9507 152.9737,31.0887 L152.9737,31.0887 L152.9737,35.2567 C152.9737,35.3947 152.8617,35.5067 152.7237,35.5067 L152.7237,35.5067 L141.4677,35.5067 C140.9147,35.5067 140.4677,35.9537 140.4677,36.5067 L140.4677,36.5067 L140.4677,46.0487 C140.4677,46.1867 140.3557,46.2987 140.2177,46.2987 L140.2177,46.2987 L135.9707,46.2987 C135.8317,46.2987 135.7207,46.1867 135.7207,46.0487 L135.7207,46.0487 L135.7207,19.1817 C135.7207,19.0437 135.8317,18.9317 135.9707,18.9317 L135.9707,18.9317 Z M177.1779,18.9317 C177.3159,18.9317 177.4279,19.0437 177.4279,19.1817 L177.4279,19.1817 L177.4279,23.2697 C177.4279,23.4067 177.3159,23.5197 177.1779,23.5197 L177.1779,23.5197 L163.4209,23.5197 C163.2819,23.5197 163.1709,23.6317 163.1709,23.7697 L163.1709,23.7697 L163.1709,29.8387 C163.1709,30.3917 163.6179,30.8387 164.1709,30.8387 L164.1709,30.8387 L175.4259,30.8387 C175.5639,30.8387 175.6759,30.9507 175.6759,31.0887 L175.6759,31.0887 L175.6759,35.2567 C175.6759,35.3947 175.5639,35.5067 175.4259,35.5067 L175.4259,35.5067 L164.1709,35.5067 C163.6179,35.5067 163.1709,35.9537 163.1709,36.5067 L163.1709,36.5067 L163.1709,46.0487 C163.1709,46.1867 163.0589,46.2987 162.9209,46.2987 L162.9209,46.2987 L158.6729,46.2987 C158.5339,46.2987 158.4229,46.1867 158.4229,46.0487 L158.4229,46.0487 L158.4229,19.1817 C158.4229,19.0437 158.5339,18.9317 158.6729,18.9317 L158.6729,18.9317 Z M200.517,18.931 C200.654,18.931 200.767,19.044 200.767,19.181 L200.767,19.181 L200.767,23.269 C200.767,23.407 200.654,23.519 200.517,23.519 L200.517,23.519 L186.123,23.519 C185.984,23.519 185.873,23.632 185.873,23.769 L185.873,23.769 L185.873,29.242 C185.873,29.794 186.32,30.242 186.873,30.242 L186.873,30.242 L198.446,30.242 C198.584,30.242 198.696,30.353 198.696,30.492 L198.696,30.492 L198.696,34.619 C198.696,34.757 198.584,34.869 198.446,34.869 L198.446,34.869 L186.873,34.869 C186.32,34.869 185.873,35.316 185.873,35.869 L185.873,35.869 L185.873,41.382 C185.873,41.519 185.984,41.632 186.123,41.632 L186.123,41.632 L200.676,41.632 C200.813,41.632 200.926,41.744 200.926,41.882 L200.926,41.882 L200.926,46.049 C200.926,46.186 200.813,46.299 200.676,46.299 L200.676,46.299 L181.375,46.299 C181.236,46.299 181.125,46.186 181.125,46.049 L181.125,46.049 L181.125,19.181 C181.125,19.044 181.236,18.931 181.375,18.931 L181.375,18.931 Z M255.083,18.9315 C255.221,18.9315 255.333,19.0435 255.333,19.1815 L255.333,19.1815 L255.333,23.3495 C255.333,23.4875 255.221,23.5995 255.083,23.5995 L255.083,23.5995 L246.935,23.5995 C246.382,23.5995 245.935,24.0475 245.935,24.5995 L245.935,24.5995 L245.935,46.0485 C245.935,46.1865 245.822,46.2985 245.685,46.2985 L245.685,46.2985 L241.437,46.2985 C241.298,46.2985 241.187,46.1865 241.187,46.0485 L241.187,46.0485 L241.187,24.5995 C241.187,24.0475 240.738,23.5995 240.187,23.5995 L240.187,23.5995 L231.959,23.5995 C231.82,23.5995 231.709,23.4875 231.709,23.3495 L231.709,23.3495 L231.709,19.1815 C231.709,19.0435 231.82,18.9315 231.959,18.9315 L231.959,18.9315 Z" id="Combined-Shape" fill="#FFFFFF"></path>
            <g id="Group-17" transform="translate(0.000000, 0.246000)">
                <mask id="mask-2" fill="white">
                    <use xlink:href="#path-1"></use>
                </mask>
                <g id="Clip-16"></g>
                <path d="M47.6784,0.7769 C48.1044,0.6989 48.5324,0.8199 48.8604,1.0969 C49.1884,1.3729 49.3774,1.7769 49.3774,2.2049 L49.3774,2.2049 L49.3774,10.8209 C50.4424,10.8089 51.8234,10.7359 52.6464,10.7359 C55.5094,10.7359 58.4314,11.0429 61.3314,11.6469 C61.9994,11.7849 62.4834,12.3859 62.4834,13.0729 L62.4834,13.0729 L62.4834,15.6089 C62.4834,16.0479 62.2874,16.4569 61.9464,16.7319 C61.6004,17.0099 61.1504,17.1129 60.7104,17.0179 C57.0784,16.2129 53.3704,15.9439 49.5214,16.2689 C48.2424,16.3749 46.9614,16.5489 45.7124,16.7849 C45.2764,16.8689 44.8354,16.7529 44.4984,16.4739 C44.1674,16.1989 43.9764,15.7939 43.9764,15.3629 L43.9764,15.3629 L43.9764,6.9719 C24.6854,10.5099 9.4974,25.8709 6.1184,45.1409 C5.6414,47.8599 5.4004,50.6229 5.4004,53.3539 C5.4004,79.4049 26.5944,100.5999 52.6464,100.5999 C55.3484,100.5999 58.0684,100.3669 60.7304,99.9069 C60.9894,99.8619 61.1844,99.6269 61.1844,99.3579 L61.1844,99.3579 L61.1844,90.7089 C61.1844,90.0569 61.6294,89.4829 62.2654,89.3129 C63.7044,88.9299 65.1364,88.4519 66.5244,87.8949 C80.7024,82.1939 89.8634,68.6349 89.8634,53.3539 C89.8634,38.7299 81.2374,25.4019 67.8874,19.4009 C67.3684,19.1659 67.0324,18.6509 67.0324,18.0869 L67.0324,18.0869 L67.0324,15.3539 C67.0324,14.8659 67.2754,14.4129 67.6824,14.1409 C68.0814,13.8749 68.5844,13.8229 69.0254,14.0059 C84.9634,20.6259 95.2634,36.0699 95.2634,53.3539 C95.2634,70.8519 84.7734,86.3759 68.5394,92.9049 C68.0164,93.1149 67.4864,93.3159 66.9534,93.5049 C66.7334,93.5839 66.5854,93.7909 66.5854,94.0209 L66.5854,94.0209 L66.5854,103.0959 C66.5854,103.7909 66.0884,104.3899 65.4064,104.5209 L65.4064,104.5209 L62.5614,105.0639 C59.3024,105.6849 55.9664,105.9999 52.6464,105.9999 C23.6174,105.9999 0.0004,82.3829 0.0004,53.3539 C0.0004,50.3099 0.2684,47.2329 0.7984,44.2069 C4.6174,22.4389 21.8094,5.2709 43.5804,1.4879 L43.5804,1.4879 Z M12.508,64.9889 L16.57,65.0909 C16.934,65.0989 17.249,65.3269 17.375,65.6709 C22.875,80.7359 37.288,90.7909 53.318,90.7909 C53.446,90.7909 53.573,90.7899 53.701,90.7889 C54.197,90.7849 55.153,90.7319 56.542,90.6309 C56.795,90.6119 57.026,90.6959 57.205,90.8599 C57.384,91.0259 57.488,91.2599 57.491,91.5029 L57.491,91.5029 L57.5300329,95.3229 C57.534,95.7929 57.173,96.1849 56.707,96.2149 C55.914,96.2689 54.475,96.3599 53.757,96.3669 L53.757,96.3669 L53.305,96.3689 C52.955,96.3689 52.604,96.3649 52.255,96.3569 C42.906,96.1239 33.69,92.8139 26.307,87.0339 C19.43,81.6509 14.357,74.4279 11.64,66.1489 C11.55,65.8729 11.598,65.5819 11.771,65.3489 C11.944,65.1159 12.206,64.9929 12.508,64.9889 L12.508,64.9889 Z M67.0686,66.3445 L71.1006,66.4455 C71.3986,66.4525 71.6716,66.6085 71.8306,66.8615 C71.9896,67.1115 72.0106,67.4205 71.8896,67.6885 C67.6716,77.0495 59.6446,84.4015 49.8656,87.8585 C49.7716,87.8915 49.6736,87.9085 49.5766,87.9085 C49.3926,87.9085 49.2106,87.8505 49.0576,87.7395 C48.8206,87.5675 48.6836,87.2905 48.6906,86.9985 L48.6906,86.9985 L48.7886,83.0275 C48.7986,82.6765 49.0156,82.3665 49.3426,82.2345 C56.6976,79.2825 62.7056,73.8105 66.2646,66.8275 C66.4196,66.5225 66.7336,66.3235 67.0686,66.3445 L67.0686,66.3445 Z M14.6795,37.2756 C22.4385,29.8916 34.6805,29.7956 42.5485,37.0536 C42.6925,37.1856 42.9065,37.1926 43.0565,37.0666 C51.2765,30.2056 63.4985,30.9126 70.8805,38.6716 C76.2635,44.3286 77.9465,52.3796 75.2715,59.6866 C75.1435,60.0366 74.8095,60.2666 74.4365,60.2666 L74.4365,60.2666 L74.4145,60.2666 L70.4835,60.1686 C70.1855,60.1616 69.9135,60.0046 69.7545,59.7516 C69.5985,59.5016 69.5785,59.1936 69.7005,58.9266 C72.2535,53.3556 71.1665,46.8796 66.9325,42.4286 C61.3365,36.5486 52.2115,36.1856 46.1595,41.6056 C46.1065,41.6516 46.0535,41.6956 45.9995,41.7396 C45.9355,41.7926 45.8715,41.8456 45.8095,41.9046 C45.4925,42.2066 45.1885,42.5226 44.9095,42.8386 L44.9095,42.8386 L44.7575,43.0086 L43.3385,44.1226 C42.9995,44.3846 42.5265,44.3706 42.2075,44.0886 L42.2075,44.0886 L39.0185,41.2666 L39.0355,41.2476 C36.1535,38.4966 32.3795,37.0266 28.3685,37.1256 C24.2985,37.2186 20.5315,38.9176 17.7585,41.9116 C13.9995,45.9686 12.8405,51.8586 14.7345,57.2826 L14.7345,57.2826 L14.8405,57.5886 C14.9365,57.8636 14.8915,58.1666 14.7195,58.4026 C14.5485,58.6376 14.2595,58.7496 13.9825,58.7646 L13.9825,58.7646 L10.0805,58.6676 C9.6955,58.6586 9.3615,58.4076 9.2495,58.0426 C6.9975,50.7076 9.1285,42.5566 14.6795,37.2756 Z" id="Combined-Shape" fill="#FFFFFF" mask="url(#mask-2)"></path>
            </g>
        </g>
    </g>
</svg>