<?xml version="1.0" encoding="UTF-8"?>
<svg width="340px" height="106px" viewBox="0 0 340 106" version="1.1" xmlns="http://www.w3.org/2000/svg" xmlns:xlink="http://www.w3.org/1999/xlink">
    <!-- Generator: Sketch 59 (86127) - https://sketch.com -->
    <title>Effect Translate-logo-color</title>
    <desc>Created with Sketch.</desc>
    <g id="LOGOS" stroke="none" stroke-width="1" fill="none" fill-rule="evenodd">
        <g id="Effect-Translate-logo-color">
            <path d="M231.4919,57.6319 C236.2249,57.6319 240.0619,60.3189 240.7759,64.1129 C240.8229,64.3669 240.6539,64.6159 240.4039,64.6829 L237.7829,65.3819 C237.5049,65.4559 237.2059,65.2849 237.1599,65.0009 C236.7399,62.3959 234.3549,60.6949 231.3309,60.6949 C228.2679,60.6949 226.0899,62.3079 226.0899,64.7269 C226.0899,66.8229 227.7829,68.1929 230.3629,68.7579 L235.4429,69.8869 C239.1509,70.6929 241.6509,73.3529 241.6509,76.7399 C241.6509,81.4969 237.8609,84.8029 232.2989,84.8029 C226.4289,84.8029 221.9269,81.3849 221.3729,76.4649 C221.3439,76.2109 221.5239,75.9749 221.7739,75.9209 L224.5469,75.3309 C224.8489,75.2669 225.1219,75.4889 225.1499,75.7969 C225.4559,79.1949 228.4119,81.5779 232.3789,81.5779 C235.6849,81.5779 238.1039,79.7239 238.1039,76.9819 C238.1039,75.2079 236.5709,73.5559 234.3149,73.0309 L229.3959,71.9019 C225.3639,70.9759 222.6229,68.4349 222.6229,65.0499 C222.6229,60.6949 226.2509,57.6319 231.4919,57.6319 Z M133.6582,58.1147 C133.9342,58.1147 134.1582,58.3387 134.1582,58.6147 L134.1582,60.8407 C134.1582,61.1167 133.9342,61.3407 133.6582,61.3407 L125.1442,61.3407 C124.8682,61.3407 124.6442,61.5647 124.6442,61.8407 L124.6442,83.8197 C124.6442,84.0957 124.4212,84.3197 124.1442,84.3197 L121.8392,84.3197 C121.5622,84.3197 121.3392,84.0957 121.3392,83.8197 L121.3392,61.8407 C121.3392,61.5647 121.1152,61.3407 120.8392,61.3407 L112.2442,61.3407 C111.9682,61.3407 111.7442,61.1167 111.7442,60.8407 L111.7442,58.6147 C111.7442,58.3387 111.9682,58.1147 112.2442,58.1147 L133.6582,58.1147 Z M151.2559,58.1149 C156.0929,58.1149 159.4799,61.2999 159.4799,65.8149 C159.4799,69.0879 157.7199,71.6419 154.8439,72.8329 C154.5689,72.9469 154.4409,73.2629 154.5779,73.5259 L159.8239,83.5879 C159.9979,83.9209 159.7559,84.3189 159.3809,84.3189 L156.4009,84.3189 C156.2119,84.3189 156.0389,84.2139 155.9539,84.0459 L150.7489,73.7889 C150.6639,73.6209 150.4919,73.5159 150.3039,73.5159 L143.5309,73.5159 C143.2549,73.5159 143.0309,73.7389 143.0309,74.0159 L143.0309,83.8189 C143.0309,84.0959 142.8079,84.3189 142.5309,84.3189 L140.2259,84.3189 C139.9489,84.3189 139.7259,84.0959 139.7259,83.8189 L139.7259,58.6149 C139.7259,58.3389 139.9489,58.1149 140.2259,58.1149 L151.2559,58.1149 Z M177.3686,58.1152 C177.5716,58.1152 177.7546,58.2392 177.8306,58.4282 L187.9916,83.6322 C188.1226,83.9612 187.8816,84.3192 187.5276,84.3192 L184.7406,84.3192 C184.5346,84.3192 184.3486,84.1922 184.2746,83.9992 L181.7806,77.5442 C181.7056,77.3512 181.5206,77.2242 181.3136,77.2242 L170.4686,77.2242 C170.2626,77.2242 170.0776,77.3512 170.0026,77.5442 L167.5086,83.9992 C167.4346,84.1922 167.2486,84.3192 167.0416,84.3192 L164.2576,84.3192 C163.9026,84.3192 163.6616,83.9602 163.7936,83.6302 L174.0326,58.4262 C174.1086,58.2382 174.2916,58.1152 174.4956,58.1152 L177.3686,58.1152 Z M197.1205,58.1151 C197.2845,58.1151 197.4375,58.1961 197.5315,58.3311 L210.9035,77.6791 C211.1825,78.0831 211.8145,77.8861 211.8145,77.3951 L211.8145,58.6151 C211.8145,58.3391 212.0385,58.1151 212.3145,58.1151 L214.6205,58.1151 C214.8965,58.1151 215.1205,58.3391 215.1205,58.6151 L215.1205,83.8191 C215.1205,84.0951 214.8965,84.3191 214.6205,84.3191 L211.6705,84.3191 C211.5075,84.3191 211.3555,84.2401 211.2615,84.1071 L197.4045,64.4061 C197.1235,64.0071 196.4955,64.2061 196.4955,64.6941 L196.4955,83.8191 C196.4955,84.0951 196.2715,84.3191 195.9955,84.3191 L193.6895,84.3191 C193.4135,84.3191 193.1895,84.0951 193.1895,83.8191 L193.1895,58.6151 C193.1895,58.3391 193.4135,58.1151 193.6895,58.1151 L197.1205,58.1151 Z M250.8305,58.1155 C251.1065,58.1155 251.3305,58.3385 251.3305,58.6155 L251.3305,80.5135 C251.3305,80.7895 251.5535,81.0135 251.8305,81.0135 L265.0205,81.0135 C265.2965,81.0135 265.5205,81.2375 265.5205,81.5135 L265.5205,83.8195 C265.5205,84.0955 265.2965,84.3195 265.0205,84.3195 L248.5245,84.3195 C248.2485,84.3195 248.0245,84.0955 248.0245,83.8195 L248.0245,58.6155 C248.0245,58.3385 248.2485,58.1155 248.5245,58.1155 L250.8305,58.1155 Z M281.8774,58.1152 C282.0804,58.1152 282.2634,58.2392 282.3394,58.4282 L292.5004,83.6322 C292.6314,83.9612 292.3904,84.3192 292.0364,84.3192 L289.2494,84.3192 C289.0434,84.3192 288.8574,84.1922 288.7834,83.9992 L286.2894,77.5442 C286.2144,77.3512 286.0294,77.2242 285.8224,77.2242 L274.9774,77.2242 C274.7714,77.2242 274.5864,77.3512 274.5114,77.5442 L272.0174,83.9992 C271.9434,84.1922 271.7574,84.3192 271.5504,84.3192 L268.7664,84.3192 C268.4114,84.3192 268.1704,83.9602 268.3024,83.6302 L278.5404,58.4262 C278.6164,58.2382 278.7994,58.1152 279.0034,58.1152 L281.8774,58.1152 Z M314.4531,58.1147 C314.7291,58.1147 314.9531,58.3387 314.9531,58.6147 L314.9531,60.8407 C314.9531,61.1167 314.7291,61.3407 314.4531,61.3407 L305.9391,61.3407 C305.6631,61.3407 305.4391,61.5647 305.4391,61.8407 L305.4391,83.8197 C305.4391,84.0957 305.2161,84.3197 304.9391,84.3197 L302.6341,84.3197 C302.3571,84.3197 302.1341,84.0957 302.1341,83.8197 L302.1341,61.8407 C302.1341,61.5647 301.9101,61.3407 301.6341,61.3407 L293.0391,61.3407 C292.7631,61.3407 292.5391,61.1167 292.5391,60.8407 L292.5391,58.6147 C292.5391,58.3387 292.7631,58.1147 293.0391,58.1147 L314.4531,58.1147 Z M338.4035,58.1146 C338.6795,58.1146 338.9035,58.3386 338.9035,58.6146 L338.9035,60.7596 C338.9035,61.0356 338.6795,61.2596 338.4035,61.2596 L324.3265,61.2596 C324.0495,61.2596 323.8265,61.4836 323.8265,61.7596 L323.8265,69.0646 C323.8265,69.3406 324.0495,69.5646 324.3265,69.5646 L336.3075,69.5646 C336.5845,69.5646 336.8075,69.7876 336.8075,70.0646 L336.8075,72.2486 C336.8075,72.5256 336.5845,72.7486 336.3075,72.7486 L324.3265,72.7486 C324.0495,72.7486 323.8265,72.9726 323.8265,73.2486 L323.8265,80.5936 C323.8265,80.8696 324.0495,81.0936 324.3265,81.0936 L338.5645,81.0936 C338.8405,81.0936 339.0645,81.3176 339.0645,81.5936 L339.0645,83.8196 C339.0645,84.0956 338.8405,84.3196 338.5645,84.3196 L321.0205,84.3196 C320.7445,84.3196 320.5205,84.0956 320.5205,83.8196 L320.5205,58.6146 C320.5205,58.3386 320.7445,58.1146 321.0205,58.1146 L338.4035,58.1146 Z M175.4256,63.5122 L171.5996,73.3992 C171.4726,73.7272 171.7146,74.0802 172.0656,74.0802 L179.7166,74.0802 C180.0686,74.0802 180.3096,73.7272 180.1836,73.3992 L176.3586,63.5122 C176.1936,63.0862 175.5906,63.0862 175.4256,63.5122 Z M279.9344,63.5122 L276.1084,73.3992 C275.9814,73.7272 276.2234,74.0802 276.5744,74.0802 L284.2254,74.0802 C284.5774,74.0802 284.8184,73.7272 284.6924,73.3992 L280.8674,63.5122 C280.7024,63.0862 280.0994,63.0862 279.9344,63.5122 Z M151.4169,61.3409 L143.5309,61.3409 C143.2549,61.3409 143.0309,61.5639 143.0309,61.8409 L143.0309,69.8709 C143.0309,70.1469 143.2549,70.3709 143.5309,70.3709 L151.2559,70.3709 C154.1579,70.3709 156.0929,68.4749 156.0929,65.8949 C156.0929,63.3149 154.1579,61.3409 151.4169,61.3409 Z" id="Combined-Shape" fill="#00C165"></path>
            <path d="M47.6784,0.0208 C48.0994,-0.0502 48.5334,0.0628 48.8604,0.3388 C49.1884,0.6148 49.3774,1.0198 49.3774,1.4478 L49.3774,1.4478 L49.3774,10.0638 C50.0904,10.0548 51.7084,9.9808 52.6464,9.9798 C55.5124,9.9798 58.4344,10.2858 61.3314,10.8898 C61.9994,11.0278 62.4834,11.6288 62.4834,12.3158 L62.4834,12.3158 L62.4834,14.8528 C62.4834,15.2908 62.2884,15.6998 61.9474,15.9748 C61.5994,16.2538 61.1504,16.3588 60.7104,16.2608 C57.0874,15.4568 53.4034,15.1898 49.5214,15.5118 C48.2524,15.6168 46.9694,15.7908 45.7114,16.0278 C45.2764,16.1108 44.8354,15.9958 44.4984,15.7168 C44.1674,15.4418 43.9764,15.0368 43.9764,14.6058 L43.9764,14.6058 L43.9764,6.2158 C24.6854,9.7528 9.4974,25.1138 6.1184,44.3838 C5.6414,47.1038 5.4004,49.8668 5.4004,52.5978 C5.4004,78.6478 26.5944,99.8428 52.6464,99.8428 C55.3464,99.8428 58.0664,99.6098 60.7304,99.1508 C60.9894,99.1058 61.1844,98.8698 61.1844,98.6008 L61.1844,98.6008 L61.1844,89.9518 C61.1844,89.2998 61.6294,88.7258 62.2654,88.5558 C63.7044,88.1728 65.1364,87.6948 66.5244,87.1378 C80.7024,81.4368 89.8634,67.8778 89.8634,52.5978 C89.8634,37.9728 81.2374,24.6458 67.8874,18.6438 C67.3684,18.4088 67.0324,17.8938 67.0324,17.3298 L67.0324,17.3298 L67.0324,14.5978 C67.0324,14.1088 67.2754,13.6548 67.6824,13.3838 C68.0834,13.1168 68.5844,13.0658 69.0254,13.2508 C84.9634,19.8698 95.2634,35.3138 95.2634,52.5978 C95.2634,70.0948 84.7734,85.6188 68.5394,92.1478 C68.0174,92.3578 67.4874,92.5588 66.9544,92.7488 C66.7324,92.8268 66.5854,93.0338 66.5854,93.2638 L66.5854,93.2638 L66.5854,102.3388 C66.5854,103.0338 66.0884,103.6328 65.4064,103.7638 L65.4064,103.7638 L62.5614,104.3068 C59.3024,104.9278 55.9664,105.2428 52.6464,105.2428 C23.6174,105.2428 0.0004,81.6258 0.0004,52.5978 C0.0004,49.5528 0.2684,46.4758 0.7984,43.4508 C4.6174,21.6828 21.8094,4.5148 43.5804,0.7318 L43.5804,0.7318 Z M15.3198,61.8035 C15.9598,61.8035 16.5298,62.2385 16.7068,62.8605 C21.2388,78.8325 36.0088,89.9885 52.6228,89.9885 C53.4648,89.9885 54.3558,89.9505 55.3468,89.8755 C55.6088,89.8495 55.8718,89.9485 56.0658,90.1265 C56.2578,90.3045 56.3678,90.5575 56.3678,90.8205 L56.3678,90.8205 L56.3678,94.4795 C56.3678,94.9785 55.9788,95.3965 55.4818,95.4295 C54.4238,95.5025 53.4878,95.5385 52.6228,95.5385 C32.8578,95.5385 15.7388,82.1535 10.9958,62.9875 C10.9248,62.7015 10.9888,62.4055 11.1718,62.1715 C11.3548,61.9385 11.6288,61.8035 11.9238,61.8035 L11.9238,61.8035 Z M61.7016,37.6748 C62.5006,37.6748 63.1516,38.3248 63.1516,39.1248 L63.1516,39.1248 L63.1516,44.1628 L76.8156,44.2128 C77.6156,44.2128 78.2656,44.8628 78.2656,45.6628 L78.2656,45.6628 L78.2656,47.6118 C78.2656,48.4118 77.6156,49.0628 76.8156,49.0628 L76.8156,49.0628 L72.4556,49.0628 C71.5166,52.1748 70.3816,54.9898 69.0406,57.4658 C67.7316,59.8858 66.2226,62.1068 64.5546,64.0688 C65.4766,64.9248 66.4846,65.6668 67.5476,66.3378 C68.7546,67.1028 70.0056,67.8088 71.2666,68.4398 C72.5256,69.0678 73.7986,69.6348 75.0496,70.1198 C75.9066,70.4538 76.7376,70.7588 77.5416,71.0328 C77.9536,71.1738 78.2796,71.4848 78.4356,71.8888 C78.5896,72.2868 78.5596,72.7318 78.3536,73.1068 L78.3536,73.1068 L76.9686,75.6288 C76.6236,76.2568 75.8636,76.5438 75.1976,76.2978 C74.0706,75.8808 72.9226,75.4018 71.7886,74.8758 C70.3846,74.2228 68.9876,73.5028 67.6376,72.7358 C66.2816,71.9648 64.9776,71.1498 63.7626,70.3168 C62.6616,69.5618 61.6366,68.7658 60.7176,67.9518 C58.6526,69.6698 56.3616,71.2988 53.8696,72.7938 C51.4706,74.2328 48.8526,75.5188 46.0876,76.6138 C45.9166,76.6828 45.7386,76.7148 45.5616,76.7148 C45.0596,76.7148 44.5696,76.4548 44.3016,76.0068 L44.3016,76.0068 L42.9566,73.7658 C42.7336,73.3938 42.6896,72.9438 42.8366,72.5348 C42.9876,72.1188 43.3136,71.7968 43.7336,71.6488 C46.5076,70.6778 48.9686,69.5468 51.0476,68.2868 C53.2656,66.9428 55.2536,65.5138 56.9566,64.0368 C55.3636,61.9688 53.8656,59.7458 52.5036,57.3688 C51.1036,54.9248 49.9256,52.1418 49.0036,49.0988 L49.0036,49.0988 L44.4266,49.0628 C43.6266,49.0628 42.9766,48.4118 42.9766,47.6118 L42.9766,47.6118 L42.9766,45.6628 C42.9766,44.8628 43.6266,44.2128 44.4266,44.2128 L44.4266,44.2128 L57.7866,44.2128 L57.8356,39.1248 C57.8356,38.3248 58.4866,37.6748 59.2866,37.6748 L59.2866,37.6748 Z M54.6826,49.0628 C54.6626,49.0628 54.6496,49.0748 54.6416,49.0858 C55.3726,51.4478 56.2886,53.5298 57.3566,55.3228 C58.4156,57.1028 59.5586,58.7468 60.7516,60.2138 C61.9686,58.8488 63.0356,57.2698 64.0056,55.5248 C65.0016,53.7398 65.9066,51.5908 66.6936,49.1358 L66.6936,49.1358 Z M28.3723,22.8622 C29.3273,22.8622 30.4373,22.9762 31.6733,23.2012 C32.9363,23.4292 34.1753,23.9032 35.3563,24.6072 C36.5613,25.3272 37.5733,26.4212 38.3643,27.8572 C39.1523,29.2922 39.5523,31.2202 39.5523,33.5902 L39.5523,33.5902 L39.5523,52.2112 C39.5523,52.7342 39.1263,53.1612 38.6023,53.1612 L38.6023,53.1612 L35.1443,53.1612 C34.6213,53.1612 34.1943,52.7342 34.1943,52.2112 L34.1943,52.2112 L34.1943,50.0002 C33.9273,50.3592 33.6073,50.7302 33.2273,51.1172 C32.4823,51.8762 31.4863,52.5252 30.2683,53.0472 C29.0463,53.5742 27.5433,53.8402 25.8023,53.8402 C23.9053,53.8402 22.1563,53.4732 20.6043,52.7502 C19.0373,52.0182 17.7733,50.9412 16.8493,49.5482 C15.9233,48.1522 15.4523,46.4442 15.4523,44.4732 C15.4523,42.7312 15.8063,41.2872 16.5043,40.1802 C17.1963,39.0822 18.1353,38.2062 19.2973,37.5782 C20.4243,36.9682 21.6873,36.5052 23.0493,36.2022 C24.3793,35.9062 25.7433,35.6662 27.1033,35.4872 C28.8723,35.2592 30.3073,35.0862 31.4123,34.9662 C32.4483,34.8532 33.2033,34.6662 33.6563,34.4082 C33.8873,34.2772 34.1943,34.0182 34.1943,33.2882 L34.1943,33.2882 L34.1943,33.1372 C34.1943,31.4052 33.7253,30.0482 32.8013,29.1072 C31.8803,28.1682 30.4403,27.6922 28.5223,27.6922 C26.5063,27.6922 24.9143,28.1302 23.7903,28.9972 C22.8903,29.6902 22.1933,30.4262 21.7163,31.1842 C21.3593,31.7542 20.6643,31.9952 20.0173,31.7652 L20.0173,31.7652 L17.6323,30.9132 C17.2363,30.7712 16.9223,30.4632 16.7693,30.0692 C16.6153,29.6672 16.6433,29.2172 16.8483,28.8382 C17.5553,27.5262 18.4433,26.4472 19.4883,25.6312 C20.7963,24.6102 22.2493,23.8832 23.8073,23.4722 C25.3403,23.0682 26.8773,22.8622 28.3723,22.8622 Z M34.1943,38.9422 C34.0043,39.0232 33.7833,39.0992 33.5303,39.1712 C32.8823,39.3582 32.1263,39.5202 31.2863,39.6552 C30.4553,39.7892 29.6503,39.9032 28.8703,39.9982 C28.0973,40.0912 27.4713,40.1712 26.9953,40.2342 C25.8733,40.3792 24.8113,40.6182 23.8373,40.9412 C22.9143,41.2502 22.1633,41.7112 21.6063,42.3132 C21.0713,42.8932 20.8103,43.6742 20.8103,44.7002 C20.8103,46.1032 21.3113,47.1292 22.3433,47.8342 C23.4133,48.5642 24.8043,48.9342 26.4823,48.9342 C28.1583,48.9342 29.5873,48.6052 30.7273,47.9562 C31.8673,47.3052 32.7383,46.4602 33.3163,45.4402 C33.8993,44.4182 34.1943,43.3302 34.1943,42.2062 L34.1943,42.2062 Z" id="Combined-Shape" fill="#00C165"></path>
            <path d="M217.5522,17.1664 C222.6082,17.1664 227.0112,20.0164 228.8182,24.2004 C228.8892,24.3654 228.7622,24.5524 228.5832,24.5524 L228.5832,24.5524 L223.2772,24.5524 C222.9842,24.5524 222.7142,24.4154 222.5192,24.1974 C221.2652,22.7894 219.4562,21.9144 217.4712,21.9144 C212.7312,21.9144 209.2922,25.8564 209.2922,31.2884 C209.2922,36.6314 212.8772,40.6624 217.6312,40.6624 C219.7072,40.6624 221.5272,39.8264 222.7812,38.4504 C222.9762,38.2364 223.2422,38.1024 223.5322,38.1024 L223.5322,38.1024 L228.6582,38.1024 C228.8392,38.1024 228.9662,38.2924 228.8912,38.4584 C227.0072,42.6584 222.6652,45.4884 217.6312,45.4884 C209.9102,45.4884 204.3052,39.5494 204.3052,31.3684 C204.3052,23.1384 209.8772,17.1664 217.5522,17.1664 Z M131.1352,17.6439 C131.2722,17.6439 131.3852,17.7559 131.3852,17.8939 L131.3852,17.8939 L131.3852,21.9819 C131.3852,22.1199 131.2722,22.2319 131.1352,22.2319 L131.1352,22.2319 L116.7412,22.2319 C116.6022,22.2319 116.4912,22.3439 116.4912,22.4819 L116.4912,22.4819 L116.4912,27.9539 C116.4912,28.5069 116.9382,28.9539 117.4912,28.9539 L117.4912,28.9539 L129.0642,28.9539 C129.2022,28.9539 129.3142,29.0659 129.3142,29.2039 L129.3142,29.2039 L129.3142,33.3309 C129.3142,33.4699 129.2022,33.5809 129.0642,33.5809 L129.0642,33.5809 L117.4912,33.5809 C116.9382,33.5809 116.4912,34.0289 116.4912,34.5809 L116.4912,34.5809 L116.4912,40.0949 C116.4912,40.2319 116.6022,40.3449 116.7412,40.3449 L116.7412,40.3449 L131.2942,40.3449 C131.4312,40.3449 131.5442,40.4559 131.5442,40.5949 L131.5442,40.5949 L131.5442,44.7609 C131.5442,44.8989 131.4312,45.0109 131.2942,45.0109 L131.2942,45.0109 L111.9932,45.0109 C111.8542,45.0109 111.7432,44.8989 111.7432,44.7609 L111.7432,44.7609 L111.7432,17.8939 C111.7432,17.7559 111.8542,17.6439 111.9932,17.6439 L111.9932,17.6439 Z M154.4757,17.6446 C154.6137,17.6446 154.7257,17.7556 154.7257,17.8946 L154.7257,17.8946 L154.7257,21.9826 C154.7257,22.1196 154.6137,22.2326 154.4757,22.2326 L154.4757,22.2326 L140.7177,22.2326 C140.5787,22.2326 140.4677,22.3436 140.4677,22.4826 L140.4677,22.4826 L140.4677,28.5516 C140.4677,29.1036 140.9147,29.5516 141.4677,29.5516 L141.4677,29.5516 L152.7237,29.5516 C152.8617,29.5516 152.9737,29.6626 152.9737,29.8016 L152.9737,29.8016 L152.9737,33.9686 C152.9737,34.1076 152.8617,34.2186 152.7237,34.2186 L152.7237,34.2186 L141.4677,34.2186 C140.9147,34.2186 140.4677,34.6666 140.4677,35.2186 L140.4677,35.2186 L140.4677,44.7606 C140.4677,44.8996 140.3557,45.0106 140.2177,45.0106 L140.2177,45.0106 L135.9707,45.0106 C135.8317,45.0106 135.7207,44.8996 135.7207,44.7606 L135.7207,44.7606 L135.7207,17.8946 C135.7207,17.7556 135.8317,17.6446 135.9707,17.6446 L135.9707,17.6446 Z M177.1779,17.6446 C177.3159,17.6446 177.4279,17.7556 177.4279,17.8946 L177.4279,17.8946 L177.4279,21.9826 C177.4279,22.1196 177.3159,22.2326 177.1779,22.2326 L177.1779,22.2326 L163.4209,22.2326 C163.2819,22.2326 163.1709,22.3436 163.1709,22.4826 L163.1709,22.4826 L163.1709,28.5516 C163.1709,29.1036 163.6179,29.5516 164.1709,29.5516 L164.1709,29.5516 L175.4259,29.5516 C175.5639,29.5516 175.6759,29.6626 175.6759,29.8016 L175.6759,29.8016 L175.6759,33.9686 C175.6759,34.1076 175.5639,34.2186 175.4259,34.2186 L175.4259,34.2186 L164.1709,34.2186 C163.6179,34.2186 163.1709,34.6666 163.1709,35.2186 L163.1709,35.2186 L163.1709,44.7606 C163.1709,44.8996 163.0589,45.0106 162.9209,45.0106 L162.9209,45.0106 L158.6729,45.0106 C158.5339,45.0106 158.4229,44.8996 158.4229,44.7606 L158.4229,44.7606 L158.4229,17.8946 C158.4229,17.7556 158.5339,17.6446 158.6729,17.6446 L158.6729,17.6446 Z M200.517,17.6439 C200.654,17.6439 200.767,17.7559 200.767,17.8939 L200.767,17.8939 L200.767,21.9819 C200.767,22.1199 200.654,22.2319 200.517,22.2319 L200.517,22.2319 L186.123,22.2319 C185.984,22.2319 185.873,22.3439 185.873,22.4819 L185.873,22.4819 L185.873,27.9539 C185.873,28.5069 186.32,28.9539 186.873,28.9539 L186.873,28.9539 L198.446,28.9539 C198.584,28.9539 198.696,29.0659 198.696,29.2039 L198.696,29.2039 L198.696,33.3309 C198.696,33.4699 198.584,33.5809 198.446,33.5809 L198.446,33.5809 L186.873,33.5809 C186.32,33.5809 185.873,34.0289 185.873,34.5809 L185.873,34.5809 L185.873,40.0949 C185.873,40.2319 185.984,40.3449 186.123,40.3449 L186.123,40.3449 L200.676,40.3449 C200.813,40.3449 200.926,40.4559 200.926,40.5949 L200.926,40.5949 L200.926,44.7609 C200.926,44.8989 200.813,45.0109 200.676,45.0109 L200.676,45.0109 L181.375,45.0109 C181.236,45.0109 181.125,44.8989 181.125,44.7609 L181.125,44.7609 L181.125,17.8939 C181.125,17.7559 181.236,17.6439 181.375,17.6439 L181.375,17.6439 Z M255.083,17.6444 C255.221,17.6444 255.333,17.7554 255.333,17.8944 L255.333,17.8944 L255.333,22.0624 C255.333,22.2004 255.221,22.3124 255.083,22.3124 L255.083,22.3124 L246.935,22.3124 C246.382,22.3124 245.935,22.7594 245.935,23.3124 L245.935,23.3124 L245.935,44.7604 C245.935,44.8994 245.822,45.0104 245.685,45.0104 L245.685,45.0104 L241.437,45.0104 C241.298,45.0104 241.187,44.8994 241.187,44.7604 L241.187,44.7604 L241.187,23.3124 C241.187,22.7594 240.738,22.3124 240.187,22.3124 L240.187,22.3124 L231.959,22.3124 C231.82,22.3124 231.709,22.2004 231.709,22.0624 L231.709,22.0624 L231.709,17.8944 C231.709,17.7554 231.82,17.6444 231.959,17.6444 L231.959,17.6444 Z" id="Combined-Shape" fill="#2A3039"></path>
        </g>
    </g>
</svg>