<?xml version="1.0" encoding="UTF-8"?>
<svg width="210px" height="233px" viewBox="0 0 210 233" version="1.1" xmlns="http://www.w3.org/2000/svg" xmlns:xlink="http://www.w3.org/1999/xlink">
    <!-- Generator: Sketch 59 (86127) - https://sketch.com -->
    <title>Effect_Socials-logomark-white</title>
    <desc>Created with Sketch.</desc>
    <defs>
        <polygon id="path-1" points="0.000879999924 0.658799856 209.579462 0.658799856 209.579462 232.19976 0.000879999924 232.19976"></polygon>
    </defs>
    <g id="LOGOS" stroke="none" stroke-width="1" fill="none" fill-rule="evenodd">
        <g id="Effect_Socials-logomark-white">
            <g id="Group-17">
                <mask id="mask-2" fill="white">
                    <use xlink:href="#path-1"></use>
                </mask>
                <g id="Clip-16"></g>
                <path d="M104.892471,0.709179852 C105.829671,0.537579867 106.771271,0.803779844 107.492871,1.41317979 C108.214471,2.02037974 108.630271,2.90917966 108.630271,3.85077958 L108.630271,3.85077958 L108.630271,22.8059779 C110.97327,22.7795779 114.01147,22.618978 115.82207,22.618978 C122.120669,22.618978 128.549069,23.2943779 134.929068,24.6231778 C136.398668,24.9267778 137.463468,26.2489776 137.463468,27.7603775 L137.463468,27.7603775 L137.463468,33.339577 C137.463468,34.3053769 137.032268,35.2051769 136.282068,35.8101768 C135.520868,36.4217768 134.530868,36.6483767 133.562868,36.4393768 C125.572469,34.6683769 117.41487,34.076577 108.947071,34.7915769 C106.133271,35.0247769 103.315071,35.4075768 100.567271,35.9267768 C99.6080714,36.1115768 98.6378714,35.8563768 97.8964715,35.2425769 C97.1682716,34.6375769 96.7480716,33.746577 96.7480716,32.7983771 L96.7480716,32.7983771 L96.7480716,14.3381787 C54.3078753,22.121778 20.8942782,55.9159751 13.4604788,98.3099714 C12.4110789,104.291771 11.880879,110.37037 11.880879,116.37857 C11.880879,173.690765 58.5076749,220.319761 115.82207,220.319761 C121.766469,220.319761 127.750469,219.807161 133.606868,218.795161 C134.176668,218.696161 134.605668,218.179161 134.605668,217.587361 L134.605668,217.587361 L134.605668,198.559563 C134.605668,197.125163 135.584668,195.862363 136.983868,195.488363 C140.149668,194.645763 143.300068,193.594163 146.353667,192.368763 C177.545265,179.826564 197.699463,149.996767 197.699463,116.37857 C197.699463,84.2057726 178.722265,54.8841752 149.352267,41.6819763 C148.210467,41.1649763 147.471267,40.0319764 147.471267,38.7911766 L147.471267,38.7911766 L147.471267,32.7785771 C147.471267,31.7049772 148.005867,30.7083773 148.901267,30.1099773 C149.779067,29.5247774 150.885667,29.4103774 151.855867,29.8129773 C186.919464,44.3769761 209.579462,78.3537731 209.579462,116.37857 C209.579462,154.874166 186.501464,189.026964 150.786667,203.390762 C149.636067,203.852762 148.470067,204.294962 147.297467,204.710762 C146.813467,204.884562 146.487867,205.339962 146.487867,205.845962 L146.487867,205.845962 L146.487867,225.81096 C146.487867,227.33996 145.394467,228.65776 143.894068,228.94596 L143.894068,228.94596 L137.635068,230.14056 C130.465269,231.50676 123.126069,232.19976 115.82207,232.19976 C51.9582755,232.19976 0.000879999924,180.242364 0.000879999924,116.37857 C0.000879999924,109.68177 0.590479949,102.912371 1.75647985,96.2551716 C10.1582791,48.3655757 47.9806758,10.595979 95.8768717,2.27337972 L95.8768717,2.27337972 Z M27.5175976,141.975568 L36.4539968,142.199968 C37.2547968,142.217568 37.9477967,142.719168 38.2249967,143.475967 C50.3249956,176.618965 82.0335929,198.739963 117.29959,198.739963 C117.58119,198.739963 117.86059,198.737763 118.14219,198.735563 C119.23339,198.726763 121.336589,198.610163 124.392389,198.387963 C124.948989,198.346163 125.457189,198.530963 125.850989,198.891763 C126.244789,199.256963 126.473589,199.771763 126.480189,200.306363 L126.480189,200.306363 L126.566061,208.710362 C126.574789,209.744362 125.780589,210.606762 124.755389,210.672762 C123.010789,210.791562 119.84499,210.991762 118.26539,211.007162 C117.93319,211.009362 117.60319,211.011562 117.27099,211.011562 C116.50099,211.011562 115.72879,211.002762 114.96099,210.985162 C94.3931918,210.472562 74.1179936,203.190562 57.875395,190.474563 C42.7459963,178.631964 31.5853973,162.741366 25.6079978,144.527567 C25.4099978,143.920367 25.5155978,143.280167 25.8961978,142.767568 C26.2767977,142.254968 26.8531977,141.984368 27.5175976,141.975568 L27.5175976,141.975568 Z M147.393796,144.955304 L147.550907,144.957887 L156.421306,145.180087 C157.076906,145.195487 157.677506,145.538687 158.027306,146.095287 C158.377106,146.645287 158.423306,147.325087 158.157106,147.914687 C148.877507,168.508885 131.218109,184.683284 109.70431,192.288683 C109.497511,192.361283 109.281911,192.398683 109.068511,192.398683 C108.663711,192.398683 108.263311,192.271083 107.926711,192.026883 C107.405311,191.648483 107.103911,191.039083 107.119311,190.396683 L107.119311,190.396683 L107.334911,181.660484 C107.356911,180.888284 107.834311,180.206284 108.553711,179.915884 C124.734709,173.421485 137.952308,161.383086 145.782107,146.020487 C146.123107,145.349487 146.813907,144.911687 147.550907,144.957887 Z M32.2948972,81.0063129 C49.3646957,64.7615143 76.2970934,64.5503143 93.6066919,80.5179129 C93.9234919,80.8083129 94.3942918,80.8237129 94.7242918,80.5465129 C112.80829,65.4523142 139.696688,67.0077141 155.937086,84.0775126 C167.779685,96.5229115 171.482285,114.23511 165.597286,130.310509 C165.315686,131.080509 164.580886,131.586509 163.760286,131.586509 L163.760286,131.586509 L163.711886,131.586509 L155.063687,131.370909 C154.408087,131.355509 153.809687,131.010109 153.459887,130.453509 C153.116687,129.903509 153.072687,129.225909 153.341087,128.638509 C158.957686,116.38231 156.566286,102.135111 147.251487,92.3429119 C134.940288,79.406913 114.86529,78.6083131 101.550891,90.5323121 C101.434291,90.6335121 101.317691,90.730312 101.198891,90.827112 C101.058091,90.943712 100.917291,91.060312 100.780891,91.190112 C100.083491,91.8545119 99.4146914,92.5497119 98.8008914,93.2449118 L98.8008914,93.2449118 L98.4664915,93.6189118 L95.3446917,96.0697116 C94.5988918,96.6461115 93.5582919,96.6153115 92.8564919,95.9949116 L92.8564919,95.9949116 L85.8406926,89.7865121 L85.8780926,89.7447121 C79.5376931,83.6925127 71.2348938,80.4585129 62.4106946,80.6763129 C53.4566954,80.8809129 45.1692961,84.6187126 39.0686966,91.205512 C30.7988973,100.130911 28.2490976,113.08891 32.4158972,125.021709 L32.4158972,125.021709 L32.6490972,125.694909 C32.8602972,126.299909 32.7612972,126.966509 32.3828972,127.485709 C32.0066972,128.002709 31.3708973,128.249109 30.7614973,128.282109 L30.7614973,128.282109 L22.1770981,128.068709 C21.3300982,128.048909 20.5952982,127.496709 20.3488982,126.693709 C15.3944987,110.55671 20.0826983,92.6245119 32.2948972,81.0063129 Z" id="Combined-Shape" fill="#FFFFFF" mask="url(#mask-2)"></path>
            </g>
        </g>
    </g>
</svg>