<?xml version="1.0" encoding="UTF-8"?>
<svg width="302px" height="104px" viewBox="0 0 302 104" version="1.1" xmlns="http://www.w3.org/2000/svg" xmlns:xlink="http://www.w3.org/1999/xlink">
    <!-- Generator: Sketch 59 (86127) - https://sketch.com -->
    <title>Effect-Network-logo-color</title>
    <desc>Created with Sketch.</desc>
    <g id="LOGOS" stroke="none" stroke-width="1" fill="none" fill-rule="evenodd">
        <g id="Effect-Network-logo-color" transform="translate(-0.000400, 0.000635)">
            <path d="M233.3921,57.5335654 C241.3191,57.5335654 247.0741,63.4895654 247.0741,71.6945654 C247.0741,79.8995654 241.3191,85.8555654 233.3921,85.8555654 C225.4631,85.8555654 219.7081,79.8995654 219.7081,71.6945654 C219.7081,63.4895654 225.4631,57.5335654 233.3921,57.5335654 Z M192.6155,58.0106654 C192.7435,58.0106654 192.8515,58.1086654 192.8635,58.2376654 L192.8635,58.2376654 L194.3985,74.2046654 C194.4255,74.4786654 194.8115,74.5136654 194.8875,74.2496654 L194.8875,74.2496654 L199.4845,58.2716654 C199.5145,58.1656654 199.6135,58.0906654 199.7245,58.0906654 L199.7245,58.0906654 L203.8885,58.0906654 C204.0005,58.0906654 204.0985,58.1656654 204.1295,58.2726654 L204.1295,58.2726654 L208.7395,74.3606654 C208.8155,74.6256654 209.2015,74.5906654 209.2285,74.3166654 L209.2285,74.3166654 L210.8305,58.2366654 C210.8435,58.1086654 210.9505,58.0106654 211.0795,58.0106654 L211.0795,58.0106654 L215.4985,58.0106654 C215.6475,58.0106654 215.7635,58.1406654 215.7475,58.2896654 L215.7475,58.2896654 L212.6875,85.1566654 C212.6735,85.2836654 212.5665,85.3786654 212.4395,85.3786654 L212.4395,85.3786654 L207.2485,85.3786654 C207.1365,85.3786654 207.0385,85.3036654 207.0085,85.1956654 L207.0085,85.1956654 L202.2955,68.2986654 C202.1605,67.8156654 201.4755,67.8106654 201.3345,68.2926654 L201.3345,68.2926654 L196.3605,85.1986654 C196.3295,85.3046654 196.2315,85.3786654 196.1215,85.3786654 L196.1215,85.3786654 L190.9305,85.3786654 C190.8025,85.3786654 190.6955,85.2816654 190.6815,85.1546654 L190.6815,85.1546654 L187.8725,58.2876654 C187.8565,58.1396654 187.9715,58.0106654 188.1205,58.0106654 L188.1205,58.0106654 Z M115.3964,58.0107654 C115.4784,58.0107654 115.5554,58.0507654 115.6014,58.1197654 L115.6014,58.1197654 L127.7434,75.6867654 C128.0214,76.0897654 128.6544,75.8927654 128.6544,75.4027654 L128.6544,75.4027654 L128.6544,58.2607654 C128.6544,58.1237654 128.7664,58.0107654 128.9044,58.0107654 L128.9044,58.0107654 L133.1524,58.0107654 C133.2904,58.0107654 133.4024,58.1237654 133.4024,58.2607654 L133.4024,58.2607654 L133.4024,85.1277654 C133.4024,85.2667654 133.2904,85.3777654 133.1524,85.3777654 L133.1524,85.3777654 L128.7424,85.3777654 C128.6614,85.3777654 128.5854,85.3387654 128.5384,85.2717654 L128.5384,85.2717654 L115.4584,66.6767654 C115.3184,66.4767654 115.0044,66.5767654 115.0044,66.8207654 L115.0044,66.8207654 L115.0044,85.1277654 C115.0044,85.2667654 114.8914,85.3777654 114.7544,85.3777654 L114.7544,85.3777654 L110.5064,85.3777654 C110.3684,85.3777654 110.2564,85.2667654 110.2564,85.1277654 L110.2564,85.1277654 L110.2564,58.2607654 C110.2564,58.1237654 110.3684,58.0107654 110.5064,58.0107654 L110.5064,58.0107654 Z M158.7233,58.0104654 C158.8603,58.0104654 158.9733,58.1234654 158.9733,58.2604654 L158.9733,58.2604654 L158.9733,62.3484654 C158.9733,62.4874654 158.8603,62.5984654 158.7233,62.5984654 L158.7233,62.5984654 L144.3293,62.5984654 C144.1913,62.5984654 144.0793,62.7114654 144.0793,62.8484654 L144.0793,62.8484654 L144.0793,68.3204654 C144.0793,68.8734654 144.5273,69.3204654 145.0793,69.3204654 L145.0793,69.3204654 L156.6533,69.3204654 C156.7913,69.3204654 156.9033,69.4324654 156.9033,69.5704654 L156.9033,69.5704654 L156.9033,73.6984654 C156.9033,73.8374654 156.7913,73.9484654 156.6533,73.9484654 L156.6533,73.9484654 L145.0793,73.9484654 C144.5273,73.9484654 144.0793,74.3964654 144.0793,74.9484654 L144.0793,74.9484654 L144.0793,80.4594654 C144.0793,80.5974654 144.1913,80.7094654 144.3293,80.7094654 L144.3293,80.7094654 L158.8823,80.7094654 C159.0193,80.7094654 159.1323,80.8214654 159.1323,80.9594654 L159.1323,80.9594654 L159.1323,85.1284654 C159.1323,85.2664654 159.0193,85.3784654 158.8823,85.3784654 L158.8823,85.3784654 L139.5823,85.3784654 C139.4443,85.3784654 139.3323,85.2664654 139.3323,85.1284654 L139.3323,85.1284654 L139.3323,58.2604654 C139.3323,58.1234654 139.4443,58.0104654 139.5823,58.0104654 L139.5823,58.0104654 Z M184.7717,58.0109654 C184.9097,58.0109654 185.0217,58.1229654 185.0217,58.2609654 L185.0217,58.2609654 L185.0217,62.4289654 C185.0217,62.5679654 184.9097,62.6789654 184.7717,62.6789654 L184.7717,62.6789654 L176.6237,62.6789654 C176.0717,62.6789654 175.6237,63.1269654 175.6237,63.6789654 L175.6237,63.6789654 L175.6237,85.1279654 C175.6237,85.2669654 175.5107,85.3779654 175.3737,85.3779654 L175.3737,85.3779654 L171.1267,85.3779654 C170.9887,85.3779654 170.8767,85.2669654 170.8767,85.1279654 L170.8767,85.1279654 L170.8767,63.6789654 C170.8767,63.1269654 170.4287,62.6789654 169.8767,62.6789654 L169.8767,62.6789654 L161.6477,62.6789654 C161.5097,62.6789654 161.3977,62.5679654 161.3977,62.4289654 L161.3977,62.4289654 L161.3977,58.2609654 C161.3977,58.1229654 161.5097,58.0109654 161.6477,58.0109654 L161.6477,58.0109654 Z M264.3382,58.0107654 C269.5582,58.0107654 273.2032,61.4437654 273.2032,66.3587654 C273.2032,69.6837654 271.5172,72.3817654 268.6362,73.7657654 C268.5102,73.8277654 268.4562,73.9767654 268.5212,74.1007654 L268.5212,74.1007654 L274.2102,85.0127654 C274.2972,85.1787654 274.1762,85.3777654 273.9882,85.3777654 L273.9882,85.3777654 L268.8142,85.3777654 C268.7212,85.3777654 268.6352,85.3257654 268.5922,85.2417654 L268.5922,85.2417654 L263.3142,74.8427654 C263.2722,74.7587654 263.1862,74.7067654 263.0922,74.7067654 L263.0922,74.7067654 L257.2052,74.7067654 C257.0672,74.7067654 256.9552,74.8187654 256.9552,74.9567654 L256.9552,74.9567654 L256.9552,85.1277654 C256.9552,85.2667654 256.8432,85.3777654 256.7052,85.3777654 L256.7052,85.3777654 L252.4572,85.3777654 C252.3192,85.3777654 252.2072,85.2667654 252.2072,85.1277654 L252.2072,85.1277654 L252.2072,58.2607654 C252.2072,58.1237654 252.3192,58.0107654 252.4572,58.0107654 L252.4572,58.0107654 Z M282.5941,58.0107654 C282.7321,58.0107654 282.8441,58.1237654 282.8441,58.2607654 L282.8441,58.2607654 L282.8441,69.7777654 C282.8441,70.2397654 283.4171,70.4547654 283.7211,70.1067654 L283.7211,70.1067654 L294.1961,58.0967654 C294.2431,58.0417654 294.3131,58.0107654 294.3851,58.0107654 L294.3851,58.0107654 L299.9871,58.0107654 C300.2021,58.0107654 300.3171,58.2637654 300.1761,58.4247654 L300.1761,58.4247654 L290.4631,69.5617654 C290.3871,69.6487654 290.3801,69.7767654 290.4471,69.8717654 L290.4471,69.8717654 L301.1781,84.9837654 C301.2951,85.1487654 301.1771,85.3777654 300.9741,85.3777654 L300.9741,85.3777654 L295.6301,85.3777654 C295.5501,85.3777654 295.4751,85.3397654 295.4271,85.2747654 L295.4271,85.2747654 L287.1701,73.8177654 C287.0751,73.6867654 286.8841,73.6777654 286.7781,73.7987654 L286.7781,73.7987654 L282.9051,78.2347654 C282.8661,78.2797654 282.8441,78.3377654 282.8441,78.3987654 L282.8441,78.3987654 L282.8441,85.1277654 C282.8441,85.2667654 282.7321,85.3777654 282.5941,85.3777654 L282.5941,85.3777654 L278.3461,85.3777654 C278.2081,85.3777654 278.0961,85.2667654 278.0961,85.1277654 L278.0961,85.1277654 L278.0961,58.2607654 C278.0961,58.1237654 278.2081,58.0107654 278.3461,58.0107654 L278.3461,58.0107654 Z M233.3921,62.2805654 C228.3521,62.2805654 224.6941,66.2395654 224.6941,71.6945654 C224.6941,77.1025654 228.3521,81.0285654 233.3921,81.0285654 C238.4311,81.0285654 242.0881,77.1025654 242.0881,71.6945654 C242.0881,66.2395654 238.4311,62.2805654 233.3921,62.2805654 Z M264.4972,62.6787654 L257.2052,62.6787654 C257.0672,62.6787654 256.9552,62.7917654 256.9552,62.9287654 L256.9552,62.9287654 L256.9552,69.1177654 C256.9552,69.6697654 257.4032,70.1177654 257.9552,70.1177654 L257.9552,70.1177654 L264.3382,70.1177654 C266.7532,70.1177654 268.3752,68.6387654 268.3752,66.4377654 C268.3752,64.2597654 266.7442,62.6787654 264.4972,62.6787654 L264.4972,62.6787654 Z" id="Combined-Shape" fill="#5158FA"></path>
            <path d="M216.0418,17.9421654 C221.0968,17.9421654 225.5008,20.7921654 227.3078,24.9761654 C227.3788,25.1411654 227.2518,25.3281654 227.0728,25.3281654 L227.0728,25.3281654 L221.7668,25.3281654 C221.4728,25.3281654 221.2038,25.1911654 221.0078,24.9731654 C219.7538,23.5651654 217.9458,22.6901654 215.9608,22.6901654 C211.2208,22.6901654 207.7818,26.6321654 207.7818,32.0641654 C207.7818,37.4071654 211.3668,41.4381654 216.1208,41.4381654 C218.1968,41.4381654 220.0158,40.6021654 221.2708,39.2261654 C221.4648,39.0121654 221.7318,38.8781654 222.0208,38.8781654 L222.0208,38.8781654 L227.1468,38.8781654 C227.3288,38.8781654 227.4558,39.0681654 227.3808,39.2341654 C225.4958,43.4341654 221.1538,46.2641654 216.1208,46.2641654 C208.3998,46.2641654 202.7948,40.3251654 202.7948,32.1441654 C202.7948,23.9141654 208.3668,17.9421654 216.0418,17.9421654 Z M129.6247,18.4196654 C129.7617,18.4196654 129.8747,18.5316654 129.8747,18.6696654 L129.8747,18.6696654 L129.8747,22.7576654 C129.8747,22.8956654 129.7617,23.0076654 129.6247,23.0076654 L129.6247,23.0076654 L115.2307,23.0076654 C115.0917,23.0076654 114.9807,23.1196654 114.9807,23.2576654 L114.9807,23.2576654 L114.9807,28.7296654 C114.9807,29.2826654 115.4277,29.7296654 115.9807,29.7296654 L115.9807,29.7296654 L127.5537,29.7296654 C127.6917,29.7296654 127.8037,29.8416654 127.8037,29.9796654 L127.8037,29.9796654 L127.8037,34.1066654 C127.8037,34.2446654 127.6917,34.3566654 127.5537,34.3566654 L127.5537,34.3566654 L115.9807,34.3566654 C115.4277,34.3566654 114.9807,34.8046654 114.9807,35.3566654 L114.9807,35.3566654 L114.9807,40.8706654 C114.9807,41.0076654 115.0917,41.1206654 115.2307,41.1206654 L115.2307,41.1206654 L129.7837,41.1206654 C129.9207,41.1206654 130.0337,41.2316654 130.0337,41.3706654 L130.0337,41.3706654 L130.0337,45.5366654 C130.0337,45.6736654 129.9207,45.7866654 129.7837,45.7866654 L129.7837,45.7866654 L110.4827,45.7866654 C110.3437,45.7866654 110.2327,45.6736654 110.2327,45.5366654 L110.2327,45.5366654 L110.2327,18.6696654 C110.2327,18.5316654 110.3437,18.4196654 110.4827,18.4196654 L110.4827,18.4196654 Z M152.9652,18.4203654 C153.1032,18.4203654 153.2152,18.5313654 153.2152,18.6703654 L153.2152,18.6703654 L153.2152,22.7583654 C153.2152,22.8953654 153.1032,23.0083654 152.9652,23.0083654 L152.9652,23.0083654 L139.2072,23.0083654 C139.0682,23.0083654 138.9572,23.1193654 138.9572,23.2583654 L138.9572,23.2583654 L138.9572,29.3273654 C138.9572,29.8793654 139.4042,30.3273654 139.9572,30.3273654 L139.9572,30.3273654 L151.2132,30.3273654 C151.3512,30.3273654 151.4632,30.4383654 151.4632,30.5773654 L151.4632,30.5773654 L151.4632,34.7443654 C151.4632,34.8823654 151.3512,34.9943654 151.2132,34.9943654 L151.2132,34.9943654 L139.9572,34.9943654 C139.4042,34.9943654 138.9572,35.4423654 138.9572,35.9943654 L138.9572,35.9943654 L138.9572,45.5363654 C138.9572,45.6743654 138.8452,45.7863654 138.7072,45.7863654 L138.7072,45.7863654 L134.4602,45.7863654 C134.3212,45.7863654 134.2102,45.6743654 134.2102,45.5363654 L134.2102,45.5363654 L134.2102,18.6703654 C134.2102,18.5313654 134.3212,18.4203654 134.4602,18.4203654 L134.4602,18.4203654 Z M175.6674,18.4203654 C175.8054,18.4203654 175.9174,18.5313654 175.9174,18.6703654 L175.9174,18.6703654 L175.9174,22.7583654 C175.9174,22.8953654 175.8054,23.0083654 175.6674,23.0083654 L175.6674,23.0083654 L161.9104,23.0083654 C161.7714,23.0083654 161.6604,23.1193654 161.6604,23.2583654 L161.6604,23.2583654 L161.6604,29.3273654 C161.6604,29.8793654 162.1074,30.3273654 162.6604,30.3273654 L162.6604,30.3273654 L173.9154,30.3273654 C174.0534,30.3273654 174.1654,30.4383654 174.1654,30.5773654 L174.1654,30.5773654 L174.1654,34.7443654 C174.1654,34.8823654 174.0534,34.9943654 173.9154,34.9943654 L173.9154,34.9943654 L162.6604,34.9943654 C162.1074,34.9943654 161.6604,35.4423654 161.6604,35.9943654 L161.6604,35.9943654 L161.6604,45.5363654 C161.6604,45.6743654 161.5484,45.7863654 161.4104,45.7863654 L161.4104,45.7863654 L157.1624,45.7863654 C157.0234,45.7863654 156.9124,45.6743654 156.9124,45.5363654 L156.9124,45.5363654 L156.9124,18.6703654 C156.9124,18.5313654 157.0234,18.4203654 157.1624,18.4203654 L157.1624,18.4203654 Z M199.0066,18.4196654 C199.1436,18.4196654 199.2566,18.5316654 199.2566,18.6696654 L199.2566,18.6696654 L199.2566,22.7576654 C199.2566,22.8956654 199.1436,23.0076654 199.0066,23.0076654 L199.0066,23.0076654 L184.6126,23.0076654 C184.4736,23.0076654 184.3626,23.1196654 184.3626,23.2576654 L184.3626,23.2576654 L184.3626,28.7296654 C184.3626,29.2826654 184.8096,29.7296654 185.3626,29.7296654 L185.3626,29.7296654 L196.9356,29.7296654 C197.0736,29.7296654 197.1856,29.8416654 197.1856,29.9796654 L197.1856,29.9796654 L197.1856,34.1066654 C197.1856,34.2446654 197.0736,34.3566654 196.9356,34.3566654 L196.9356,34.3566654 L185.3626,34.3566654 C184.8096,34.3566654 184.3626,34.8046654 184.3626,35.3566654 L184.3626,35.3566654 L184.3626,40.8706654 C184.3626,41.0076654 184.4736,41.1206654 184.6126,41.1206654 L184.6126,41.1206654 L199.1656,41.1206654 C199.3026,41.1206654 199.4156,41.2316654 199.4156,41.3706654 L199.4156,41.3706654 L199.4156,45.5366654 C199.4156,45.6736654 199.3026,45.7866654 199.1656,45.7866654 L199.1656,45.7866654 L179.8646,45.7866654 C179.7256,45.7866654 179.6146,45.6736654 179.6146,45.5366654 L179.6146,45.5366654 L179.6146,18.6696654 C179.6146,18.5316654 179.7256,18.4196654 179.8646,18.4196654 L179.8646,18.4196654 Z M253.5725,18.4201654 C253.7105,18.4201654 253.8225,18.5311654 253.8225,18.6701654 L253.8225,18.6701654 L253.8225,22.8381654 C253.8225,22.9761654 253.7105,23.0881654 253.5725,23.0881654 L253.5725,23.0881654 L245.4245,23.0881654 C244.8715,23.0881654 244.4245,23.5351654 244.4245,24.0881654 L244.4245,24.0881654 L244.4245,45.5361654 C244.4245,45.6741654 244.3115,45.7861654 244.1745,45.7861654 L244.1745,45.7861654 L239.9265,45.7861654 C239.7875,45.7861654 239.6765,45.6741654 239.6765,45.5361654 L239.6765,45.5361654 L239.6765,24.0881654 C239.6765,23.5351654 239.2275,23.0881654 238.6765,23.0881654 L238.6765,23.0881654 L230.4485,23.0881654 C230.3095,23.0881654 230.1985,22.9761654 230.1985,22.8381654 L230.1985,22.8381654 L230.1985,18.6701654 C230.1985,18.5311654 230.3095,18.4201654 230.4485,18.4201654 L230.4485,18.4201654 Z" id="Combined-Shape" fill="#2A3039"></path>
            <path d="M42.136,0.0196653703 C42.769,-0.10633463 43.361,0.38966537 43.361,1.03466537 L43.361,1.03466537 L43.361,10.3936654 C43.361,10.7176654 43.656,10.9566654 43.974,10.8896654 C46.694,10.3256654 49.51,10.0256654 52.395,10.0256654 C53.854,10.0256654 55.293,10.1066654 56.712,10.2546654 C58.327,10.4236654 59.916,10.6836654 61.472,11.0326654 C61.94,11.1366654 62.269,11.5596654 62.269,12.0396654 L62.269,12.0396654 L62.269,27.1606654 C62.269,27.8686654 61.568,28.3666654 60.902,28.1226654 C59.556,27.6296654 58.155,27.2526654 56.712,26.9976654 C55.31,26.7496654 53.868,26.6136654 52.395,26.6136654 C39.867,26.6136654 29.485,35.9556654 27.837,48.0396654 C27.795,48.3476654 28.042,48.6256654 28.354,48.6256654 L28.354,48.6256654 L32.857,48.6256654 C33.107,48.6256654 33.315,48.4436654 33.356,48.1976654 C34.665,40.3946654 40.672,34.1656654 48.359,32.5236654 C49.004,32.3856654 49.617,32.8686654 49.617,33.5286654 L49.617,33.5286654 L49.617,37.1276654 C49.617,37.6006654 49.288,37.9986654 48.83,38.1216654 C42.97,39.6946654 38.644,45.0526654 38.644,51.4036654 C38.644,57.7536654 42.97,63.1126654 48.83,64.6856654 C49.288,64.8086654 49.617,65.2066654 49.617,65.6796654 L49.617,65.6796654 L49.617,80.4696654 C49.617,81.0836654 49.08,81.5736654 48.472,81.4946654 C33.585,79.5646654 22.049,66.8066654 22.049,51.4036654 C22.049,34.6696654 35.662,21.0566654 52.395,21.0566654 C53.663,21.0566654 54.913,21.1366654 56.141,21.2896654 C56.447,21.3276654 56.712,21.0946654 56.712,20.7876654 L56.712,20.7876654 L56.712,16.3096654 C56.712,16.0466654 56.515,15.8226654 56.253,15.7946654 C54.986,15.6566654 53.698,15.5826654 52.395,15.5826654 C32.644,15.5826654 16.573,31.6516654 16.573,51.4036654 C16.573,72.0176654 34.077,88.6216654 55.002,87.1316654 C72.639,85.8776654 86.899,71.5946654 88.128,53.9566654 C89.178,38.8846654 80.844,25.5976654 68.392,19.3566654 C68.046,19.1836654 67.824,18.8356654 67.824,18.4486654 L67.824,18.4486654 L67.824,13.7906654 C67.824,13.4216654 68.205,13.1666654 68.544,13.3106654 C83.359,19.6146654 93.773,34.3146654 93.773,51.4036654 C93.773,70.6776654 80.525,86.9136654 62.656,91.4906654 C62.432,91.5476654 62.274,91.7476654 62.274,91.9796654 L62.274,91.9796654 L62.274,101.996665 C62.274,102.495665 61.917,102.929665 61.426,103.015665 C59.878,103.285665 58.309,103.488665 56.718,103.618665 C55.292,103.735665 53.851,103.797665 52.395,103.797665 C23.504,103.797665 0,80.2946654 0,51.4036654 C0,27.5746654 15.99,7.41266537 37.804,1.07866537 C39.225,0.66666537 40.669,0.31166537 42.136,0.0196653703 Z M10.643,54.1816654 L6.197,54.1816654 C5.897,54.1816654 5.655,54.4386654 5.677,54.7366654 C7.393,79.0136654 27.689,98.2426654 52.395,98.2426654 C53.692,98.2426654 54.976,98.1866654 56.245,98.0826654 C56.513,98.0596654 56.718,97.8346654 56.718,97.5656654 L56.718,97.5656654 L56.718,93.1156654 C56.718,92.8146654 56.462,92.5826654 56.162,92.6096654 C54.921,92.7226654 53.665,92.7806654 52.395,92.7806654 C30.673,92.7806654 12.81,75.9556654 11.148,54.6526654 C11.126,54.3866654 10.908,54.1816654 10.643,54.1816654 L10.643,54.1816654 Z M32.857,54.1816654 L28.354,54.1816654 C28.043,54.1816654 27.796,54.4586654 27.838,54.7666654 C29.067,63.7746654 35.152,71.2536654 43.361,74.4786654 C43.697,74.6106654 44.061,74.3546654 44.061,73.9946654 L44.061,73.9946654 L44.061,69.4366654 C44.061,69.0516654 43.842,68.7076654 43.501,68.5296654 C38.228,65.7816654 34.373,60.6706654 33.356,54.6096654 C33.315,54.3636654 33.107,54.1816654 32.857,54.1816654 L32.857,54.1816654 Z M55.1728,33.5267654 C55.1728,32.8627654 55.7908,32.3867654 56.4398,32.5257654 C65.1508,34.3897654 71.7038,42.1447654 71.7038,51.4037654 C71.7038,60.6627654 65.1508,68.4177654 56.4398,70.2817654 C55.7908,70.4197654 55.1728,69.9437654 55.1728,69.2807654 L55.1728,69.2807654 L55.1728,65.6787654 C55.1728,65.2047654 55.5018,64.8067654 55.9598,64.6827654 C60.7328,63.4017654 64.4888,59.6107654 65.7178,54.8177654 C65.7998,54.4957654 65.5448,54.1817654 65.2128,54.1817654 L65.2128,54.1817654 L60.5598,54.1817654 C60.3518,54.1817654 60.1698,54.3117654 60.0918,54.5047654 C58.8608,57.5487654 55.8748,59.7037654 52.3948,59.7037654 C47.2718,59.7037654 43.2168,55.0357654 44.2608,49.7297654 C44.8938,46.5107654 47.4798,43.9157654 50.6958,43.2737654 C54.8768,42.4397654 58.6638,44.7707654 60.0908,48.3007654 C60.1698,48.4957654 60.3518,48.6257654 60.5618,48.6257654 L60.5618,48.6257654 L65.2128,48.6257654 C65.5448,48.6257654 65.7998,48.3117654 65.7178,47.9897654 C64.4888,43.1967654 60.7328,39.4057654 55.9598,38.1237654 C55.5018,38.0007654 55.1728,37.6027654 55.1728,37.1277654 L55.1728,37.1277654 Z M52.3948,48.6607654 C50.8828,48.6607654 49.6518,49.8907654 49.6518,51.4037654 C49.6518,52.9167654 50.8828,54.1467654 52.3948,54.1467654 C53.9078,54.1467654 55.1388,52.9167654 55.1388,51.4037654 C55.1388,49.8907654 53.9078,48.6607654 52.3948,48.6607654 Z M37.804,7.61766537 C37.804,7.26366537 37.452,7.00966537 37.118,7.12666537 C19.774,13.1276654 7.019,29.0466654 5.675,48.0706654 C5.654,48.3686654 5.895,48.6256654 6.194,48.6256654 L6.194,48.6256654 L10.647,48.6256654 C10.913,48.6256654 11.13,48.4196654 11.151,48.1556654 C12.411,32.0076654 22.977,18.4336654 37.48,12.8096654 C37.675,12.7336654 37.804,12.5476654 37.804,12.3376654 L37.804,12.3376654 Z" id="Combined-Shape" fill="#5158FA"></path>
        </g>
    </g>
</svg>