<?xml version="1.0" encoding="UTF-8"?>
<svg width="525px" height="581px" viewBox="0 0 525 581" version="1.1" xmlns="http://www.w3.org/2000/svg" xmlns:xlink="http://www.w3.org/1999/xlink">
    <!-- Generator: Sketch 59 (86127) - https://sketch.com -->
    <title>Effect_Network-Logomark-white</title>
    <desc>Created with Sketch.</desc>
    <g id="LOGOS" stroke="none" stroke-width="1" fill="none" fill-rule="evenodd">
        <path d="M235.903725,0.110075502 C239.447656,-0.595200476 242.762042,2.18112401 242.762042,5.79146533 L242.762042,5.79146533 L242.762042,58.1777977 C242.762042,59.9913645 244.413637,61.3291499 246.194,60.9541222 C261.422264,57.7971726 277.187997,56.1179441 293.340034,56.1179441 C301.50843,56.1179441 309.564853,56.5713358 317.509304,57.3997552 C326.551086,58.3457206 335.447304,59.801052 344.158766,61.7545545 C346.778924,62.336687 348.620872,64.7043992 348.620872,67.3911649 L348.620872,67.3911649 L348.620872,152.02988 C348.620872,155.992859 344.696235,158.780378 340.967549,157.414606 C333.431798,154.655074 325.588122,152.544843 317.509304,151.117499 C309.66003,149.729337 301.586811,148.968086 293.340034,148.968086 C223.200441,148.968086 165.075501,201.259262 155.848965,268.898587 C155.613823,270.622595 156.996683,272.17868 158.743455,272.17868 L158.743455,272.17868 L183.95407,272.17868 C185.353727,272.17868 186.518241,271.159948 186.747785,269.782981 C194.076387,226.106247 227.707336,191.239866 270.743977,182.048888 C274.355092,181.276443 277.78705,183.980001 277.78705,187.674304 L277.78705,187.674304 L277.78705,207.819449 C277.78705,210.467032 275.945101,212.694809 273.380931,213.383292 C240.572979,222.188047 216.353321,252.179069 216.353321,287.728336 C216.353321,323.272007 240.572979,353.268626 273.380931,362.07338 C275.945101,362.761864 277.78705,364.989641 277.78705,367.637224 L277.78705,367.637224 L277.78705,450.42319 C277.78705,453.860011 274.780587,456.602751 271.376622,456.160554 C188.02987,445.357518 123.444115,373.945526 123.444115,287.728336 C123.444115,194.06097 199.658217,117.863177 293.340034,117.863177 C300.439092,117.863177 307.437375,118.310971 314.312489,119.167378 C316.025668,119.38008 317.509304,118.075879 317.509304,116.357469 L317.509304,116.357469 L317.509304,91.2921841 C317.509304,89.8200605 316.406375,88.5662365 314.939535,88.4095085 C307.846075,87.6370634 300.635044,87.2228537 293.340034,87.2228537 C182.761562,87.2228537 92.7860365,177.167931 92.7860365,287.728336 C92.7860365,403.113725 190.784394,496.053427 307.935653,487.713258 C406.678628,480.694083 486.515042,400.746013 493.395754,302.018571 C499.274311,217.65413 452.615358,143.281099 382.901262,108.347548 C380.964137,107.379193 379.721242,105.431288 379.721242,103.265083 L379.721242,103.265083 L379.721242,77.192262 C379.721242,75.1268109 381.854318,73.6994667 383.752253,74.5054964 C466.695904,109.791685 525,192.073882 525,287.728336 C525,395.613171 450.829397,486.493019 350.78754,512.112449 C349.533448,512.431502 348.648865,513.550988 348.648865,514.849591 L348.648865,514.849591 L348.648865,570.919031 C348.648865,573.712148 346.650155,576.141432 343.90123,576.622811 C335.234556,578.134117 326.450311,579.270395 317.542896,579.99806 C309.559255,580.652959 301.491634,581 293.340034,581 C131.590117,581 0,449.44364 0,287.728336 C0,154.347215 89.5220373,41.4918637 211.650475,6.03775218 C219.606123,3.73161168 227.69054,1.7445246 235.903725,0.110075502 Z M59.5861815,303.277993 L34.6946882,303.277993 C33.0151003,303.277993 31.6602327,304.716532 31.7834025,306.384565 C41.3906455,442.273335 155.020368,549.906285 293.340034,549.906285 C300.601452,549.906285 307.790089,549.592829 314.894746,549.010697 C316.395178,548.881956 317.542896,547.622534 317.542896,546.116826 L317.542896,546.116826 L317.542896,521.20827 C317.542896,519.523444 316.109648,518.22484 314.43006,518.375971 C307.482164,519.00848 300.45029,519.333131 293.340034,519.333131 C171.72667,519.333131 71.7184051,425.156398 62.4134879,305.914381 C62.2903181,304.425465 61.0698175,303.277993 59.5861815,303.277993 L59.5861815,303.277993 Z M183.95407,303.277993 L158.743455,303.277993 C157.002282,303.277993 155.619421,304.82848 155.854564,306.552488 C162.735276,356.974123 196.802918,398.83729 242.762042,416.888997 C244.643181,417.627857 246.681081,416.194916 246.681081,414.179841 L246.681081,414.179841 L246.681081,388.666763 C246.681081,386.511753 245.454982,384.586237 243.54585,383.589895 C214.024293,368.208162 192.441588,339.599705 186.747785,305.673692 C186.518241,304.296724 185.353727,303.277993 183.95407,303.277993 L183.95407,303.277993 Z M308.891899,187.663669 C308.891899,183.946976 312.35185,181.2826 315.985358,182.060643 C364.754993,192.494249 401.442793,235.902307 401.442793,287.728896 C401.442793,339.555486 364.754993,382.963543 315.985358,393.397149 C312.35185,394.169595 308.891899,391.505219 308.891899,387.794124 L308.891899,387.794124 L308.891899,367.632187 C308.891899,364.979006 310.733847,362.751229 313.298018,362.057148 C340.020262,354.886842 361.048703,333.666991 367.929415,306.838517 C368.388502,305.036145 366.960852,303.278552 365.102108,303.278552 L365.102108,303.278552 L339.051699,303.278552 C337.887185,303.278552 336.868235,304.006218 336.431542,305.086522 C329.539633,322.125094 312.822134,334.187552 293.338914,334.187552 C264.657151,334.187552 241.95472,308.058756 247.799686,278.358801 C251.343617,260.340679 265.821665,245.815352 283.826848,242.221803 C307.234705,237.553548 328.436704,250.601154 336.425944,270.360076 C336.868235,271.451574 337.887185,272.17924 339.062897,272.17924 L339.062897,272.17924 L365.102108,272.17924 C366.960852,272.17924 368.388502,270.421648 367.929415,268.619276 C361.048703,241.790801 340.020262,220.57095 313.298018,213.395047 C310.733847,212.706563 308.891899,210.478787 308.891899,207.820008 L308.891899,207.820008 Z M293.338914,272.37515 C284.873791,272.37515 277.981882,279.259987 277.981882,287.728896 C277.981882,296.197805 284.873791,303.082642 293.338914,303.082642 C301.809636,303.082642 308.701545,296.197805 308.701545,287.728896 C308.701545,279.259987 301.809636,272.37515 293.338914,272.37515 Z M211.650475,42.6393365 C211.650475,40.6578468 209.679759,39.2361 207.809817,39.8909991 C110.70724,73.481167 39.2967592,162.58663 31.7722052,269.072108 C31.6546341,270.740141 33.003903,272.17868 34.6778924,272.17868 L34.6778924,272.17868 L59.608576,272.17868 C61.0978107,272.17868 62.3127126,271.02561 62.4302838,269.547889 C69.4845531,179.160615 128.63964,103.181122 209.83652,71.7011847 C210.928252,71.2757802 211.650475,70.2346585 211.650475,69.0591985 L211.650475,69.0591985 Z" id="Effect_Network-Logomark-white" fill="#FFFFFF"></path>
    </g>
</svg>