<svg width="49" height="49" viewBox="0 0 49 49" fill="none" xmlns="http://www.w3.org/2000/svg">
<path d="M39.7008 30.3187C39.528 30.3187 39.3623 30.2501 39.2401 30.1279C39.118 30.0057 39.0493 29.84 39.0493 29.6672V27.7584C39.0493 27.5856 39.118 27.4199 39.2401 27.2977C39.3623 27.1756 39.528 27.1069 39.7008 27.1069C39.8736 27.1069 40.0393 27.1756 40.1614 27.2977C40.2836 27.4199 40.3523 27.5856 40.3523 27.7584V29.6672C40.3523 29.84 40.2836 30.0057 40.1614 30.1279C40.0393 30.2501 39.8736 30.3187 39.7008 30.3187Z" fill="#FFAE0D"/>
<path d="M39.7008 47.5826H8.50828C8.3355 47.5826 8.1698 47.514 8.04762 47.3918C7.92545 47.2697 7.85681 47.104 7.85681 46.9312V2.63109C7.85681 2.45831 7.92545 2.2926 8.04762 2.17043C8.1698 2.04825 8.3355 1.97961 8.50828 1.97961H30.6192C30.792 1.97965 30.9577 2.04831 31.0798 2.1705L40.1613 11.252C40.2835 11.3742 40.3522 11.5398 40.3522 11.7126V23.1915C40.3522 23.3643 40.2836 23.53 40.1614 23.6522C40.0392 23.7744 39.8735 23.843 39.7008 23.843C39.528 23.843 39.3623 23.7744 39.2401 23.6522C39.1179 23.53 39.0493 23.3643 39.0493 23.1915V11.9823L30.3495 3.28256H9.15976V46.2797H39.0493V40.7031C39.0493 40.5303 39.1179 40.3646 39.2401 40.2424C39.3623 40.1203 39.528 40.0516 39.7008 40.0516C39.8735 40.0516 40.0392 40.1203 40.1614 40.2424C40.2836 40.3646 40.3522 40.5303 40.3522 40.7031V46.9312C40.3522 47.104 40.2836 47.2697 40.1614 47.3918C40.0392 47.514 39.8735 47.5826 39.7008 47.5826Z" fill="#FFAE0D"/>
<path d="M39.7008 36.8007C39.528 36.8007 39.3623 36.7321 39.2401 36.6099C39.118 36.4877 39.0493 36.322 39.0493 36.1492V34.2274C39.0493 34.0546 39.118 33.8889 39.2401 33.7667C39.3623 33.6446 39.528 33.5759 39.7008 33.5759C39.8736 33.5759 40.0393 33.6446 40.1614 33.7667C40.2836 33.8889 40.3523 34.0546 40.3523 34.2274V36.1492C40.3523 36.322 40.2836 36.4877 40.1614 36.6099C40.0393 36.7321 39.8736 36.8007 39.7008 36.8007Z" fill="#FFAE0D"/>
<path d="M39.7008 12.3641H30.6192C30.4465 12.3641 30.2808 12.2954 30.1586 12.1733C30.0364 12.0511 29.9678 11.8854 29.9678 11.7126V2.63109C29.9678 2.45831 30.0364 2.2926 30.1586 2.17043C30.2808 2.04825 30.4465 1.97961 30.6192 1.97961C30.792 1.97961 30.9577 2.04825 31.0799 2.17043C31.2021 2.2926 31.2707 2.45831 31.2707 2.63109V11.0611H39.7008C39.8735 11.0611 40.0392 11.1298 40.1614 11.2519C40.2836 11.3741 40.3522 11.5398 40.3522 11.7126C40.3522 11.8854 40.2836 12.0511 40.1614 12.1733C40.0392 12.2954 39.8735 12.3641 39.7008 12.3641Z" fill="#FFAE0D"/>
<path d="M35.1794 17.1114H13.0294C12.8566 17.1114 12.6909 17.0428 12.5687 16.9206C12.4466 16.7984 12.3779 16.6327 12.3779 16.4599C12.3779 16.2872 12.4466 16.1215 12.5687 15.9993C12.6909 15.8771 12.8566 15.8085 13.0294 15.8085H35.1794C35.3522 15.8085 35.5179 15.8771 35.6401 15.9993C35.7623 16.1215 35.8309 16.2872 35.8309 16.4599C35.8309 16.6327 35.7623 16.7984 35.6401 16.9206C35.5179 17.0428 35.3522 17.1114 35.1794 17.1114Z" fill="#FFAE0D"/>
<path d="M35.1794 22.9004H13.0294C12.8566 22.9004 12.6909 22.8317 12.5687 22.7095C12.4466 22.5874 12.3779 22.4217 12.3779 22.2489C12.3779 22.0761 12.4466 21.9104 12.5687 21.7882C12.6909 21.666 12.8566 21.5974 13.0294 21.5974H35.1794C35.3522 21.5974 35.5179 21.666 35.6401 21.7882C35.7623 21.9104 35.8309 22.0761 35.8309 22.2489C35.8309 22.4217 35.7623 22.5874 35.6401 22.7095C35.5179 22.8317 35.3522 22.9004 35.1794 22.9004Z" fill="#FFAE0D"/>
<path d="M24.7559 11.3217H13.0294C12.8566 11.3217 12.6909 11.2531 12.5687 11.1309C12.4466 11.0088 12.3779 10.8431 12.3779 10.6703C12.3779 10.4975 12.4466 10.3318 12.5687 10.2096C12.6909 10.0874 12.8566 10.0188 13.0294 10.0188H24.7559C24.9287 10.0188 25.0944 10.0874 25.2166 10.2096C25.3387 10.3318 25.4074 10.4975 25.4074 10.6703C25.4074 10.8431 25.3387 11.0088 25.2166 11.1309C25.0944 11.2531 24.9287 11.3217 24.7559 11.3217Z" fill="#FFAE0D"/>
<path d="M35.1794 28.69H13.0294C12.8566 28.69 12.6909 28.6214 12.5687 28.4992C12.4466 28.377 12.3779 28.2113 12.3779 28.0386C12.3779 27.8658 12.4466 27.7001 12.5687 27.5779C12.6909 27.4557 12.8566 27.3871 13.0294 27.3871H35.1794C35.3522 27.3871 35.5179 27.4557 35.6401 27.5779C35.7623 27.7001 35.8309 27.8658 35.8309 28.0386C35.8309 28.2113 35.7623 28.377 35.6401 28.4992C35.5179 28.6214 35.3522 28.69 35.1794 28.69Z" fill="#FFAE0D"/>
<path d="M28.0028 40.2355C27.8695 40.2355 27.7393 40.1946 27.6299 40.1183C27.5205 40.0421 27.4371 39.934 27.3911 39.8089C27.3451 39.6837 27.3386 39.5474 27.3725 39.4184C27.4064 39.2894 27.479 39.1739 27.5807 39.0876L29.7305 37.2634L27.5807 35.4393C27.449 35.327 27.3674 35.167 27.3537 34.9945C27.34 34.822 27.3954 34.6511 27.5077 34.5194C27.62 34.3878 27.78 34.3061 27.9525 34.2924C28.125 34.2788 28.2959 34.3342 28.4276 34.4465L31.1572 36.7696C31.2291 36.8308 31.2868 36.9068 31.3264 36.9925C31.366 37.0781 31.3865 37.1714 31.3865 37.2657C31.3865 37.3601 31.366 37.4533 31.3264 37.539C31.2868 37.6246 31.2291 37.7007 31.1572 37.7618L28.4276 40.0843C28.3087 40.184 28.158 40.2376 28.0028 40.2355Z" fill="#FFAE0D"/>
<path d="M20.2061 40.2354C20.0513 40.2357 19.9015 40.1804 19.784 40.0797L17.0543 37.7572C16.9824 37.696 16.9247 37.62 16.8851 37.5343C16.8456 37.4487 16.8251 37.3554 16.8251 37.2611C16.8251 37.1667 16.8456 37.0735 16.8851 36.9878C16.9247 36.9022 16.9824 36.8261 17.0543 36.765L19.784 34.4418C19.8491 34.3862 19.9246 34.344 20.0062 34.3176C20.0877 34.2912 20.1736 34.281 20.259 34.2878C20.3444 34.2946 20.4277 34.3181 20.504 34.3571C20.5803 34.396 20.6482 34.4496 20.7038 34.5148C20.7594 34.58 20.8017 34.6555 20.8281 34.737C20.8545 34.8185 20.8646 34.9044 20.8579 34.9899C20.8511 35.0753 20.8276 35.1585 20.7886 35.2348C20.7497 35.3112 20.6961 35.3791 20.6309 35.4347L18.481 37.2588L20.6309 39.0829C20.7325 39.1693 20.8052 39.2848 20.8391 39.4138C20.873 39.5428 20.8665 39.679 20.8204 39.8042C20.7744 39.9294 20.691 40.0374 20.5816 40.1137C20.4723 40.19 20.3421 40.2309 20.2087 40.2308L20.2061 40.2354Z" fill="#FFAE0D"/>
<path d="M22.2086 43.0224C22.1036 43.0224 22.0001 42.9969 21.907 42.9482C21.8139 42.8995 21.734 42.829 21.674 42.7428C21.6141 42.6565 21.5759 42.557 21.5627 42.4528C21.5495 42.3486 21.5617 42.2427 21.5982 42.1442L25.3891 31.9246C25.4177 31.8429 25.4623 31.7677 25.5203 31.7034C25.5783 31.6391 25.6485 31.5871 25.7268 31.5502C25.8051 31.5134 25.89 31.4925 25.9765 31.4889C26.063 31.4852 26.1493 31.4988 26.2305 31.5289C26.3116 31.559 26.386 31.6049 26.4492 31.6641C26.5124 31.7232 26.5632 31.7944 26.5986 31.8734C26.634 31.9524 26.6533 32.0376 26.6553 32.1242C26.6574 32.2107 26.6422 32.2968 26.6106 32.3774L22.8197 42.5977C22.7734 42.7224 22.6901 42.8299 22.5808 42.9059C22.4716 42.9818 22.3417 43.0225 22.2086 43.0224Z" fill="#FFAE0D"/>
</svg>
