<?xml version="1.0" encoding="UTF-8"?>
<svg width="88px" height="88px" viewBox="0 0 88 88" version="1.1" xmlns="http://www.w3.org/2000/svg" xmlns:xlink="http://www.w3.org/1999/xlink">
    <!-- Generator: Sketch 59 (86127) - https://sketch.com -->
    <title>scalability</title>
    <desc>Created with Sketch.</desc>
    <g id="scalability" stroke="none" stroke-width="1" fill="none" fill-rule="evenodd">
        <g id="maximize" transform="translate(11.000000, 11.000000)" fill="white" fill-rule="nonzero">
            <path d="M58.7093373,65.5360044 L6.82666712,65.5360044 C3.06107754,65.5360044 0,62.4721962 0,58.7093373 L0,6.82666712 C0,3.06380821 3.06107754,0 6.82666712,0 L58.7093373,0 C62.4749269,0 65.5360044,3.06380821 65.5360044,6.82666712 L65.5360044,58.7093373 C65.5360044,62.4721962 62.4749269,65.5360044 58.7093373,65.5360044 Z M6.85891129,2.7680022 C4.60345674,2.7680022 2.7680022,4.60345674 2.7680022,6.85891129 L2.7680022,58.6770931 C2.7680022,60.9325477 4.60345674,62.7680022 6.85891129,62.7680022 L58.6770931,62.7680022 C60.9325477,62.7680022 62.7680022,60.9325477 62.7680022,58.6770931 L62.7680022,6.85891129 C62.7680022,4.60345674 60.9325477,2.7680022 58.6770931,2.7680022 L6.85891129,2.7680022 Z" id="Shape"></path>
            <path d="M53.2480036,32.7680022 C52.4943395,32.7680022 51.8826701,32.1563328 51.8826701,31.4026688 L51.8826701,13.6533342 L34.1333356,13.6533342 C33.3796716,13.6533342 32.7680022,13.0416649 32.7680022,12.2880008 C32.7680022,11.5343368 33.3796716,10.9226674 34.1333356,10.9226674 L53.2480036,10.9226674 C54.0016676,10.9226674 54.613337,11.5343368 54.613337,12.2880008 L54.613337,31.4026688 C54.613337,32.1563328 54.0016676,32.7680022 53.2480036,32.7680022 Z" id="Path"></path>
            <path d="M28.6720019,38.2293359 C28.3224766,38.2293359 27.9729512,38.0955332 27.7053459,37.8306585 C27.1728658,37.2981785 27.1728658,36.4325571 27.7053459,35.9000771 L52.2813475,11.3240754 C52.8138275,10.7915954 53.6794489,10.7915954 54.211929,11.3240754 C54.744409,11.8565555 54.744409,12.7221769 54.211929,13.2546569 L29.6359273,37.8306585 C29.3710526,38.0955332 29.0215273,38.2293359 28.6720019,38.2293359 Z" id="Path"></path>
            <path d="M23.2106682,65.5360044 C22.4570042,65.5360044 21.8453348,64.924335 21.8453348,64.170671 L21.8453348,43.6906696 L1.36533342,43.6906696 C0.611669374,43.6906696 0,43.0790002 0,42.3253362 C0,41.5716721 0.611669374,40.9600027 1.36533342,40.9600027 L23.2106682,40.9600027 C23.9643323,40.9600027 24.5760016,41.5716721 24.5760016,42.3253362 L24.5760016,64.170671 C24.5760016,64.924335 23.9643323,65.5360044 23.2106682,65.5360044 Z" id="Path"></path>
        </g>
    </g>
</svg>
