<svg width="100" height="100" viewBox="0 0 100 100" fill="none" xmlns="http://www.w3.org/2000/svg">
<g clip-path="url(#clip0_343_183)">
<path d="M88.6516 23.084L81.1706 15.6033V4.44492C81.1706 1.99395 79.1767 0 76.7255 0H15.3089C12.8886 0 10.9194 1.96914 10.9194 4.38945V78.0283C10.9194 80.4486 12.8886 82.4178 15.3089 82.4178H17.7917V84.8639C17.7917 87.2842 19.7608 89.2533 22.1813 89.2533H31.7034C32.5124 89.2533 33.1683 88.5977 33.1683 87.7885C33.1683 86.9793 32.5124 86.3236 31.7034 86.3236H22.1813C21.3763 86.3236 20.7214 85.6687 20.7214 84.8639V25.9686C20.7214 25.1594 20.0655 24.5037 19.2565 24.5037C18.4476 24.5037 17.7917 25.1594 17.7917 25.9686V79.4881H15.3089C14.504 79.4881 13.8491 78.8332 13.8491 78.0283V4.38945C13.8491 3.58457 14.504 2.92969 15.3089 2.92969H76.7257C77.5612 2.92969 78.2411 3.60938 78.2411 4.44492V12.6738L72.8315 7.26465C72.5567 6.99004 72.1843 6.83574 71.7958 6.83574H22.1813C19.7608 6.83574 17.7917 8.80488 17.7917 11.2252V19.1496C17.7917 19.9588 18.4476 20.6145 19.2565 20.6145C20.0655 20.6145 20.7214 19.9588 20.7214 19.1496V11.225C20.7214 10.4201 21.3763 9.76523 22.1813 9.76523H70.3307V24.1172C70.3307 24.9262 70.9864 25.5818 71.7954 25.582L86.1511 25.5844V84.8637C86.1511 85.6686 85.4962 86.3234 84.6913 86.3234H75.2831C74.4741 86.3234 73.8182 86.9791 73.8182 87.7883C73.8182 88.5975 74.4741 89.2531 75.2831 89.2531H84.6913C87.1116 89.2531 89.0807 87.284 89.0807 84.8637V24.1199C89.0807 23.7314 88.9265 23.359 88.6516 23.084ZM73.2604 22.6525V11.8367L84.0788 22.6545L73.2604 22.6525Z" fill="#5158FA"/>
<path d="M70.9943 34.2688H35.9509C35.1419 34.2688 34.4861 34.9245 34.4861 35.7336C34.4861 36.5428 35.1419 37.1985 35.9509 37.1985H70.9943C71.8033 37.1985 72.4591 36.5428 72.4591 35.7336C72.4591 34.9245 71.8033 34.2688 70.9943 34.2688Z" fill="#5158FA"/>
<path d="M70.9943 42.9077H35.9509C35.1419 42.9077 34.4861 43.5634 34.4861 44.3726C34.4861 45.1817 35.1419 45.8374 35.9509 45.8374H70.9943C71.8033 45.8374 72.4591 45.1817 72.4591 44.3726C72.4591 43.5634 71.8033 42.9077 70.9943 42.9077Z" fill="#5158FA"/>
<path d="M70.9943 51.7192H64.071C63.2621 51.7192 62.6062 52.3749 62.6062 53.1841C62.6062 53.9933 63.2621 54.6489 64.071 54.6489H70.9943C71.8033 54.6489 72.4591 53.9933 72.4591 53.1841C72.4591 52.3749 71.8033 51.7192 70.9943 51.7192Z" fill="#5158FA"/>
<path d="M57.1771 54.6489C57.9861 54.6489 58.6419 53.9933 58.6419 53.1841C58.6419 52.3749 57.9861 51.7192 57.1771 51.7192H35.9509C35.1419 51.7192 34.4861 52.3749 34.4861 53.1841C34.4861 53.9933 35.1419 54.6489 35.9509 54.6489H57.1771Z" fill="#5158FA"/>
<path d="M58.8424 80.1951L54.9374 76.2902V90.4516C54.9374 91.2607 54.2815 91.9164 53.4725 91.9164C52.6635 91.9164 52.0077 91.2607 52.0077 90.4516V76.2902L48.1026 80.1951C47.5305 80.767 46.603 80.7672 46.0311 80.1949C45.459 79.6228 45.459 78.6953 46.0311 78.1234L52.4368 71.718C52.7227 71.432 53.0977 71.2891 53.4725 71.2891C53.8473 71.2891 54.2223 71.432 54.5083 71.718L60.9139 78.1234C61.486 78.6955 61.486 79.623 60.9139 80.1949C60.342 80.767 59.4145 80.7668 58.8424 80.1951Z" fill="#5158FA"/>
<path d="M53.4725 63.2051C43.3277 63.2051 35.0742 71.4582 35.0742 81.6025C35.0742 91.7467 43.3277 99.9998 53.4725 99.9998C63.6172 99.9998 71.8707 91.7467 71.8707 81.6025C71.8707 71.4582 63.6172 63.2051 53.4725 63.2051ZM53.4725 97.0703C44.9432 97.0703 38.0039 90.1316 38.0039 81.6027C38.0039 73.0738 44.9432 66.135 53.4725 66.135C62.0018 66.135 68.941 73.0738 68.941 81.6027C68.941 90.1316 62.0018 97.0703 53.4725 97.0703Z" fill="#5158FA"/>
</g>
<defs>
<clipPath id="clip0_343_183">
<rect width="100" height="100" fill="white"/>
</clipPath>
</defs>
</svg>
