<svg width="42" height="46" viewBox="0 0 42 46" fill="none" xmlns="http://www.w3.org/2000/svg">
<path fill-rule="evenodd" clip-rule="evenodd" d="M18.5477 0C18.5229 0.0009 18.4977 0.0036 18.4725 0.00855C17.8299 0.1368 17.1959 0.29205 16.5735 0.4725C7.0101 3.2499 0 12.0884 0 22.536C0 35.2013 10.3046 45.5058 22.9703 45.5058C23.6088 45.5058 24.2406 45.4784 24.8652 45.4271C25.5627 45.3699 26.2508 45.2813 26.9294 45.1629C27.1449 45.1251 27.3011 44.9348 27.3011 44.7156V42.6091V40.3241C27.3011 40.2228 27.3703 40.1351 27.4689 40.1099C35.3021 38.1033 41.1107 30.9857 41.1107 22.536C41.1107 15.0435 36.545 8.59905 30.0497 5.83515C29.9016 5.77215 29.7347 5.88375 29.7347 6.04575V8.08785C29.7347 8.2575 29.8314 8.41005 29.9835 8.4861C35.4425 11.2221 39.0965 17.0473 38.6352 23.6543C38.0965 31.3875 31.8451 37.6488 24.1133 38.1992C14.9391 38.8521 7.26615 31.5729 7.26615 22.536C7.26615 13.8767 14.3109 6.831 22.9703 6.831C23.5418 6.831 24.1061 6.8634 24.6614 6.92415C24.7761 6.9363 24.863 7.03485 24.863 7.1505V9.11295C24.863 9.2484 24.7464 9.34965 24.6123 9.33345C24.0746 9.2664 23.5265 9.2313 22.9703 9.2313C15.6344 9.2313 9.66645 15.1997 9.66645 22.536C9.66645 29.2883 14.724 34.8818 21.2499 35.7278C21.5168 35.7624 21.7521 35.5478 21.7521 35.2787V33.9444V33.3338V30.9114V29.7684V28.7942C21.7521 28.5867 21.6081 28.4126 21.4074 28.359C18.8384 27.6692 16.9416 25.3197 16.9416 22.536C16.9416 19.7514 18.8384 17.4024 21.4074 16.7126C21.6081 16.6586 21.7521 16.4844 21.7521 16.2765V14.6993C21.7521 14.4099 21.4835 14.1984 21.2004 14.2587C17.8304 14.9783 15.1974 17.7093 14.6228 21.1302C14.6052 21.2382 14.5139 21.3174 14.4045 21.3174H12.4308C12.294 21.3174 12.1856 21.1955 12.204 21.0605C12.9263 15.7635 17.478 11.6672 22.9703 11.6672C23.616 11.6672 24.2478 11.727 24.863 11.8355C25.4957 11.9471 26.1095 12.1131 26.6999 12.3291C26.991 12.4358 27.2993 12.218 27.2993 11.907V9.9549V7.43805V5.27805C27.2993 5.0679 27.1544 4.8825 26.9496 4.83705C26.2674 4.68405 25.5708 4.5702 24.863 4.49595C24.2411 4.4307 23.6097 4.3956 22.9703 4.3956C21.7058 4.3956 20.4705 4.52655 19.2785 4.77405C19.1385 4.80285 19.0089 4.6989 19.0089 4.55625V2.3859V0.4536C19.0089 0.20475 18.8087 0.00675 18.572 0H18.5477ZM2.48807 21.0745C3.07667 12.7351 8.66882 5.75471 16.2725 3.12401C16.4192 3.07316 16.5735 3.18476 16.5735 3.33956V5.40866C16.5735 5.50091 16.5173 5.58281 16.4313 5.61521C10.0728 8.08166 5.44142 14.0325 4.88882 21.1114C4.87937 21.228 4.78397 21.3175 4.66742 21.3175H2.71532C2.58437 21.3175 2.47817 21.205 2.48807 21.0745ZM19.0093 32.652C15.4107 31.2381 12.7427 27.9594 12.2045 24.0098C12.186 23.8748 12.294 23.7537 12.4308 23.7537H14.4045C14.5139 23.7537 14.6052 23.8329 14.6228 23.9414C15.0696 26.5986 16.7593 28.8387 19.0706 30.0438C19.2204 30.1217 19.3167 30.2729 19.3167 30.4416V32.4396C19.3167 32.5688 19.2096 32.6673 19.0899 32.6673C19.0634 32.6673 19.0364 32.6623 19.0093 32.652ZM2.48895 23.9972C2.4795 23.8657 2.58525 23.7537 2.7162 23.7537H4.6656C4.78215 23.7537 4.878 23.8437 4.88655 23.9603C5.616 33.2991 13.4469 40.6755 22.9702 40.6755C23.5269 40.6755 24.0777 40.6499 24.6217 40.6008C24.7532 40.5891 24.8652 40.6903 24.8652 40.8222V42.7734C24.8652 42.8909 24.7757 42.9898 24.6586 42.9997C24.1016 43.0457 23.5386 43.07 22.9702 43.07C12.1388 43.07 3.2409 34.6401 2.48895 23.9972ZM24.1884 14.6983V16.277C24.1884 16.4853 24.3324 16.6595 24.5331 16.7135C26.6261 17.276 28.2722 18.9374 28.8113 21.0389C28.8472 21.1797 28.7352 21.3174 28.5898 21.3174H26.5504C26.4587 21.3174 26.379 21.2607 26.3439 21.1752C25.7184 19.6281 24.0588 18.6057 22.2255 18.9715C20.8152 19.2528 19.6812 20.3909 19.404 21.8016C18.9464 24.1277 20.7239 26.1738 22.9702 26.1738C24.4962 26.1738 25.8048 25.2292 26.3444 23.8955C26.379 23.8109 26.4582 23.7537 26.5496 23.7537H28.5898C28.7357 23.7537 28.8472 23.891 28.8113 24.0322C28.2722 26.1333 26.6261 27.7956 24.5331 28.3577C24.3324 28.4117 24.1884 28.5858 24.1884 28.7937V30.3732C24.1884 30.6639 24.4589 30.8727 24.7437 30.812C28.5629 29.9948 31.4352 26.595 31.4352 22.536C31.4352 18.4761 28.5629 15.0764 24.7437 14.2596C24.7099 14.2524 24.6762 14.2488 24.6434 14.2488C24.3986 14.2488 24.1884 14.4414 24.1884 14.6983ZM21.7674 22.5359C21.7674 21.8717 22.3074 21.333 22.9702 21.333C23.6335 21.333 24.1731 21.8717 24.1731 22.5359C24.1731 23.1987 23.6335 23.7383 22.9702 23.7383C22.3074 23.7383 21.7674 23.1987 21.7674 22.5359Z" fill="#CACDD9"/>
</svg>
