<?xml version="1.0" encoding="UTF-8"?>
<svg width="88px" height="88px" viewBox="0 0 88 88" version="1.1" xmlns="http://www.w3.org/2000/svg" xmlns:xlink="http://www.w3.org/1999/xlink">
    <!-- Generator: Sketch 59 (86127) - https://sketch.com -->
    <title>2.intructions</title>
    <desc>Created with Sketch.</desc>
    <g id="2.intructions" stroke="none" stroke-width="1" fill="none" fill-rule="evenodd">
        <g id="strategy" transform="translate(15.000000, 6.000000)" fill="white" fill-rule="nonzero">
            <path d="M52.8568776,5.48013404 L35.0470993,5.48013404 C34.4110358,1.89492343 31.0398992,-0.537898057 27.4779436,0.102318123 C24.7428705,0.550469449 22.5802546,2.72720446 22.1350101,5.48013404 L4.32523186,5.48013404 C1.97179688,5.48013404 0,7.40078258 0,9.83360406 L0,71.8065303 C0,74.1753302 1.90819053,76.1600003 4.32523186,76.1600003 L52.7932712,76.1600003 C55.1467062,76.1600003 57.1185031,74.2393518 57.1185031,71.8065303 L57.1185031,9.83360406 C57.1821095,7.40078258 55.2103126,5.48013404 52.8568776,5.48013404 Z M23.1527117,7.72089067 C23.7887752,7.72089067 24.2340197,7.20871772 24.297626,6.63252316 C24.297626,4.19970168 26.2058166,2.27905314 28.6228579,2.27905314 C31.0398992,2.27905314 32.9480898,4.19970168 32.9480898,6.63252316 C32.9480898,7.27273934 33.4569406,7.72089067 34.0293977,7.72089067 L37.7185661,7.72089067 C38.1638105,7.72089067 38.4818423,8.10502037 38.5454486,8.5531717 L38.5454486,12.6505553 L18.7002672,12.6505553 L18.7002672,8.5531717 C18.7002672,8.10502037 19.0819053,7.78491228 19.5271497,7.72089067 L23.1527117,7.72089067 Z M47.8955822,14.8272903 L47.8955822,66.7488225 L9.35013358,66.7488225 L9.35013358,14.8272903 L47.8955822,14.8272903 Z M54.9558872,71.8065303 C54.9558872,72.9589194 54.0017919,73.9192437 52.8568776,73.9192437 L4.38883821,73.9192437 C3.2439239,73.9192437 2.28982863,72.9589194 2.28982863,71.8065303 L2.28982863,9.83360406 C2.28982863,8.68121494 3.2439239,7.72089067 4.38883821,7.72089067 L16.6012576,7.72089067 C16.5376512,7.97697714 16.4740449,8.23306361 16.4740449,8.5531717 L16.4740449,12.6505553 L8.26882562,12.6505553 C7.63276211,12.6505553 7.1239113,13.1627282 7.1239113,13.8029444 L7.1239113,67.9652332 C7.1239113,68.6054494 7.63276211,69.1176223 8.26882562,69.1176223 L48.9768902,69.1176223 C49.6129537,69.1176223 50.0581982,68.6054494 50.1218045,68.0292548 L50.1218045,13.7389228 C50.1218045,13.0987066 49.6129537,12.6505553 49.0404965,12.5865336 L40.7716709,12.5865336 L40.7716709,8.48915008 C40.7716709,8.23306361 40.7080646,7.97697714 40.6444582,7.65686905 L52.8568776,7.65686905 C54.0017919,7.65686905 54.9558872,8.61719332 54.9558872,9.76958244 L54.9558872,71.8065303 Z" id="Shape"></path>
            <path d="M18.1029194,62.1600003 C20.3387775,62.1600003 22.1913456,60.3120097 22.1913456,58.0816762 C22.1913456,56.2974094 20.9775941,54.7043141 19.2527893,54.1945236 L19.2527893,41.9595514 L39.5671572,41.9595514 C40.2059738,41.9595514 40.6531454,41.4497609 40.7170271,40.8762465 L40.7170271,23.3521978 L41.7391336,24.3717788 C42.1863052,24.8178455 42.8890035,24.8178455 43.3361751,24.4355026 C43.7833467,23.9894359 43.7833467,23.288474 43.4000568,22.8424073 C43.4000568,22.8424073 43.4000568,22.8424073 43.3361751,22.7786835 L40.2698554,19.9111119 C39.8865655,19.528769 39.1199856,19.4650452 38.6728139,19.9111119 L35.7342576,22.8424073 C35.287086,23.288474 35.287086,23.9894359 35.7342576,24.4355026 C36.1814292,24.8815693 36.8841275,24.8815693 37.2674174,24.4355026 L38.289524,23.4159216 L38.289524,39.7929417 L18.1029194,39.7929417 C17.4641028,39.7929417 17.0169312,40.3027322 16.9530495,40.8762465 L16.9530495,54.1945236 C14.7810731,54.8317617 13.5673215,57.0620952 14.1422565,59.2287048 C14.6533098,60.9492478 16.2503513,62.1600003 18.1029194,62.1600003 Z M18.1029194,56.2336856 C19.125026,56.2336856 19.9554875,57.0620952 19.9554875,58.0816762 C19.9554875,59.1012572 19.125026,59.9296668 18.1029194,59.9296668 C17.0808128,59.9296668 16.2503513,59.1012572 16.2503513,58.0816762 C16.2503513,57.0620952 17.0808128,56.2336856 18.1029194,56.2336856 Z" id="Shape"></path>
            <path d="M19.9241364,31.0255925 C20.3663196,31.4714693 21.0611789,31.4714693 21.503362,31.0255925 L22.9562496,29.5605688 L24.4091371,31.0255925 C24.8513203,31.4714693 25.5461796,31.4714693 25.9883627,31.0255925 C26.4305459,30.5797158 26.4305459,29.8790523 25.9883627,29.4968722 L24.5354752,28.0318485 L25.9883627,26.5668248 C26.4305459,26.120948 26.4305459,25.4202845 25.9883627,24.9744077 C25.5461796,24.5285309 24.8513203,24.5285309 24.4723062,24.9744077 L23.0194186,26.4394314 L21.5665311,24.9744077 C21.1243479,24.5285309 20.4294886,24.5285309 19.9873055,24.9744077 C19.5451223,25.4202845 19.5451223,26.120948 19.9873055,26.5031281 L21.440193,27.9681518 L19.9873055,29.4331755 C19.4819533,29.8790523 19.4819533,30.5797158 19.9241364,31.0255925 Z" id="Path"></path>
            <path d="M37.1887326,50.7312678 C36.7470424,50.2895777 36.0529579,50.2895777 35.6112678,50.7312678 L34.1600001,52.1825354 L32.7087325,50.7312678 C32.2670424,50.2895777 31.5729579,50.2895777 31.1312677,50.7312678 C30.6895776,51.172958 30.6895776,51.8670425 31.1312677,52.3087326 L32.5825353,53.7600002 L31.1312677,55.2112678 C30.6895776,55.652958 30.6895776,56.3470425 31.1312677,56.7887326 C31.5729579,57.2304228 32.2670424,57.2304228 32.7087325,56.7887326 L34.1600001,55.337465 L35.6112678,56.7887326 C36.0529579,57.2304228 36.7470424,57.2304228 37.1887326,56.7887326 C37.6304227,56.3470425 37.6304227,55.652958 37.1887326,55.2112678 L35.7374649,53.7600002 L37.1887326,52.3087326 C37.5673241,51.8670425 37.5673241,51.172958 37.1887326,50.7312678 Z" id="Path"></path>
        </g>
    </g>
</svg>
