<?xml version="1.0" encoding="UTF-8"?>
<svg width="88px" height="88px" viewBox="0 0 88 88" version="1.1" xmlns="http://www.w3.org/2000/svg" xmlns:xlink="http://www.w3.org/1999/xlink">
    <!-- Generator: Sketch 59 (86127) - https://sketch.com -->
    <title>fair </title>
    <desc>Created with Sketch.</desc>
    <g id="fair-" stroke="none" stroke-width="1" fill="none" fill-rule="evenodd">
        <g id="regulation" transform="translate(11.000000, 9.000000)" fill="#5158FA" fill-rule="nonzero">
            <path d="M65.1296515,31.9619038 L63.7617956,31.9619038 L56.0734016,10.4773739 L62.8758356,10.4773739 C64.7225516,10.4773739 66.2249575,8.97496794 66.2249575,7.12811395 C66.2249575,5.28125996 64.7225516,3.77885397 62.8758356,3.77885397 L39.8240397,3.77885397 C38.6230257,1.53248999 36.2545317,0 33.5339998,0 C30.8134678,0 28.4449738,1.53248999 27.2439598,3.77899197 L4.19216397,3.77899197 C2.34544798,3.77899197 0.843041994,5.28139796 0.843041994,7.12825195 C0.843041994,8.97510594 2.34544798,10.4775119 4.19216397,10.4775119 L10.9945979,10.4775119 L3.30620398,31.9619038 L1.93834799,31.9619038 C0.919769994,31.9619038 0.0910799994,32.7905938 0.0910799994,33.8091718 C0.0910799994,36.0544318 0.707525995,38.2487697 1.87376399,40.1549637 C2.17142998,40.6415517 2.80733398,40.7948697 3.29419798,40.4970657 C3.78092397,40.1992617 3.93410397,39.5633577 3.63629997,39.0766317 C2.70659398,37.5571137 2.19806398,35.8161058 2.15969999,34.0281778 L22.7632378,34.0281778 C22.7056918,36.7259397 21.5404199,39.3258597 19.5752999,41.1731277 C17.5639499,43.0638657 14.9770019,43.9178097 12.2659919,43.9178097 C10.2636119,43.9178097 8.32843794,43.3337937 6.66981595,42.2289657 C6.19509596,41.9126697 5.55367196,42.0411477 5.23723796,42.5160057 C4.92094197,42.9908637 5.04941997,43.6322877 5.52427796,43.9485837 C7.52334595,45.2802837 9.85457993,45.9840837 12.2659919,45.9840837 C14.9932859,45.9840837 17.6032799,45.2685537 19.8254939,43.6444317 C21.9603538,42.0842037 23.5612918,39.8357697 24.3213958,37.3019517 C24.6608758,36.1704898 24.8318578,34.9901758 24.8318578,33.8090338 C24.8318578,32.7904558 24.0031678,31.9617658 22.9845898,31.9617658 L21.6167339,31.9617658 L13.9286159,10.4773739 L27.2440978,10.4773739 C27.9109138,11.7246179 28.9379098,12.7511999 30.1848778,13.4181539 L30.1848778,53.1142676 C28.2350758,54.2651876 26.9233858,56.3869376 26.9233858,58.8103556 L26.9233858,63.3548336 L13.0405859,63.3548336 C10.9520939,63.3548336 9.25289994,65.0540276 9.25289994,67.1425195 L9.25289994,69.6230695 C9.25289994,70.1936995 9.71547593,70.6562755 10.2861059,70.6562755 L56.7820316,70.6562755 C57.3526616,70.6562755 57.8152376,70.1936995 57.8152376,69.6230695 L57.8152376,67.1425195 C57.8152376,65.0538896 56.1160436,63.3548336 54.0275516,63.3548336 L48.4552497,63.3548336 C47.8846197,63.3548336 47.4220437,63.8174096 47.4220437,64.3880396 C47.4220437,64.9586696 47.8846197,65.4212455 48.4552497,65.4212455 L54.0275516,65.4212455 C54.9767156,65.4212455 55.7489636,66.1933555 55.7489636,67.1426575 L55.7489636,68.5900015 L11.3191739,68.5900015 L11.3191739,67.1426575 C11.3191739,66.1934935 12.0914219,65.4212455 13.0405859,65.4212455 L43.6923177,65.4212455 C44.2629477,65.4212455 44.7255237,64.9586696 44.7255237,64.3880396 C44.7255237,63.8174096 44.2629477,63.3548336 43.6923177,63.3548336 L40.1446137,63.3548336 L40.1446137,58.8103556 C40.1446137,56.3869376 38.8329237,54.2651876 36.8831217,53.1142676 L36.8831217,13.4180159 C38.1300897,12.7510619 39.1570857,11.7244799 39.8239017,10.4772359 L53.1392456,10.4772359 L45.4509897,31.9619038 L44.0831337,31.9619038 C43.0645557,31.9619038 42.2358657,32.7905938 42.2358657,33.8091718 C42.2358657,40.5224577 47.6976297,45.9842217 54.4110536,45.9842217 C55.7714576,45.9847737 57.1332416,45.8408397 58.4529356,45.4250457 C59.7188096,45.0262257 60.9165116,44.4175077 61.9867016,43.6327017 C64.1228036,42.0661257 65.7219475,39.8098257 66.4761175,37.2691077 C66.8091115,36.1477198 66.9767815,34.9788598 66.9767815,33.8091718 C66.9767815,32.7905938 66.1482295,31.9619038 65.1296515,31.9619038 Z M19.4222579,31.9619038 L5.50081796,31.9619038 L12.4615379,12.5105279 L19.4222579,31.9619038 Z M26.5237378,8.41096194 L4.19216397,8.41096194 C3.48477598,8.41096194 2.90931598,7.83550195 2.90931598,7.12811395 C2.90931598,6.42072596 3.48477598,5.84526596 4.19216397,5.84526596 L26.5237378,5.84526596 C26.4476998,6.26174996 26.4058858,6.69010195 26.4058858,7.12811395 C26.4058858,7.56612595 26.4476998,7.99447794 26.5237378,8.41096194 Z M38.0783397,58.8102176 L38.0783397,63.3546956 L28.9896598,63.3546956 L28.9896598,58.8102176 C28.9896598,56.3044136 31.0281958,54.2658776 33.5339998,54.2658776 C36.0398038,54.2658776 38.0783397,56.3044136 38.0783397,58.8102176 Z M32.2511518,52.3255976 L32.2511518,14.1400319 C32.6674978,14.2160699 33.0961258,14.2562279 33.5339998,14.2562279 C33.9718738,14.2562279 34.4006398,14.2159319 34.8168478,14.1400319 L34.8168478,52.3255976 C34.4016058,52.2436256 33.9728398,52.1996036 33.5339998,52.1996036 C33.0951598,52.1996036 32.6663938,52.2434876 32.2511518,52.3255976 Z M33.5339998,12.1899539 C30.7429498,12.1899539 28.4721598,9.91930193 28.4721598,7.12811395 C28.4721598,4.33706397 30.7428118,2.06627399 33.5339998,2.06627399 C36.3251877,2.06627399 38.5958397,4.33692597 38.5958397,7.12811395 C38.5958397,9.91930193 36.3251877,12.1899539 33.5339998,12.1899539 Z M40.5442617,8.41096194 C40.6202997,7.99447794 40.6621137,7.56612595 40.6621137,7.12811395 C40.6621137,6.69010195 40.6202997,6.26174996 40.5442617,5.84526596 L62.8758356,5.84526596 C63.5832236,5.84526596 64.1586836,6.42072596 64.1586836,7.12811395 C64.1586836,7.83550195 63.5832236,8.41096194 62.8758356,8.41096194 L40.5442617,8.41096194 Z M54.6064616,12.5105279 L61.5671816,31.9619038 L47.6457417,31.9619038 L54.6064616,12.5105279 Z M54.8018696,43.9179477 L54.4110536,43.9179477 C48.9102357,43.9179477 44.4215097,39.5015337 44.3046237,34.0281778 L64.9082996,34.0281778 C64.7914136,39.5015337 60.3026876,43.9179477 54.8018696,43.9179477 L54.8018696,43.9179477 Z" id="Shape"></path>
        </g>
    </g>
</svg>