<?xml version="1.0" encoding="UTF-8"?>
<svg width="88px" height="88px" viewBox="0 0 88 88" version="1.1" xmlns="http://www.w3.org/2000/svg" xmlns:xlink="http://www.w3.org/1999/xlink">
    <!-- Generator: Sketch 59 (86127) - https://sketch.com -->
    <title>requesters</title>
    <desc>Created with Sketch.</desc>
    <g id="requesters" stroke="none" stroke-width="1" fill="none" fill-rule="evenodd">
        <g id="handshake" transform="translate(7.000000, 7.000000)" fill="#5158FA" fill-rule="nonzero">
            <path d="M37.0079982,23.9757108 C43.6177419,23.9757108 48.9952776,18.5981751 48.9952776,11.9884314 C48.9952776,7.11014365 46.0810057,2.75759987 41.570782,0.900143956 C41.019262,0.673199967 40.387966,0.935999954 40.160878,1.48751993 C39.93379,2.0390399 40.196734,2.67019187 40.748254,2.89742386 C44.4460298,4.42022378 46.8352777,7.98868761 46.8352777,11.9884314 C46.8352777,17.4071511 42.4267179,21.8157109 37.0079982,21.8157109 C31.5892785,21.8157109 27.1807187,17.4071511 27.1807187,11.9884314 C27.1807187,6.56971168 31.5892785,2.16115189 37.0079982,2.16115189 C37.6044462,2.16115189 38.0879981,1.67759992 38.0879981,1.08115195 C38.0879981,0.484703976 37.6044462,0.00115199994 37.0079982,0.00115199994 C30.3982545,0.00115199994 25.0207188,5.37868774 25.0207188,11.9884314 C25.0207188,18.5981751 30.3982545,23.9757108 37.0079982,23.9757108 L37.0079982,23.9757108 Z M33.1719824,12.3891834 C32.7502064,11.9674074 32.0663504,11.9674074 31.6447185,12.3891834 C31.2229425,12.8109594 31.2229425,13.4948153 31.6447185,13.9164473 L33.8178223,16.0895512 C34.2249103,16.4966392 34.7594383,16.7001112 35.2941103,16.7001112 C35.8287823,16.7001112 36.3635982,16.4964952 36.7705422,16.0895512 L42.3712779,10.4888155 C42.7930539,10.0670395 42.7930539,9.38318354 42.3712779,8.96155156 C41.949502,8.53977558 41.265646,8.53977558 40.844014,8.96155156 L35.2942543,14.5114553 L33.1719824,12.3891834 Z M73.5560604,33.8569903 C73.1345724,33.4350704 72.4507165,33.4346384 72.0286525,33.8562703 L67.9472607,37.9334861 L51.2231015,20.873807 L70.2766046,1.84535991 C70.6986685,1.42387193 70.6991005,0.740015964 70.2776126,0.318095984 C69.8561246,-0.103967995 69.1722686,-0.104543995 68.7503486,0.317087985 L45.3525098,23.6839668 C44.2467338,24.7884468 43.6845579,26.2706387 43.7808939,27.8336146 L42.3377259,27.8336146 C40.161454,27.8336146 38.0807981,28.7629906 36.6295662,30.3835665 L36.4209102,30.6167025 C34.4309743,29.6205106 32.2430384,29.0607826 30.0178065,28.9815826 C30.5416785,27.1009427 29.9966385,25.0421748 28.5962386,23.6793588 L4.96598376,0.40132798 C4.54089578,-0.0174239991 3.85703981,-0.0120959994 3.43871983,0.41284798 C3.02011185,0.837791959 3.02515185,1.52150393 3.45023983,1.94011191 L23.6286708,21.8177269 L9.08121556,36.6566382 C8.66361558,37.0825902 8.67038358,37.7664462 9.09633556,38.1839021 C9.52214353,38.6012141 10.2058555,38.5948781 10.6235995,38.1687821 L25.1673108,23.3334709 L27.0829427,25.2205908 C27.7054546,25.8297107 28.0507666,26.6446067 28.0552306,27.5149427 C28.0596946,28.3852786 27.7228786,29.2037746 27.1067027,29.8192305 L14.8177433,42.0958059 C13.5544313,43.3579659 11.4985434,43.3581099 10.2349435,42.0958059 L1.9871999,33.8562703 C1.56527992,33.4347824 0.881423957,33.4350704 0.459791978,33.8569903 C0.0383039981,34.2790543 0.0385919981,34.9627663 0.460511978,35.3843983 L8.70825557,43.6237899 C9.76103952,44.6755658 11.1434395,45.2011658 12.5262714,45.2011658 C13.0269594,45.2011658 13.5273593,45.1311818 14.0124953,44.9932298 C14.0395673,45.7256138 14.1190553,46.4554057 14.2492313,47.1788617 C13.7597753,47.4036457 13.3012794,47.7168457 12.8986554,48.1191816 L10.5278395,50.4875495 C9.64353553,51.3708455 9.15667155,52.5451654 9.15667155,53.7945094 C9.15667155,55.0439973 9.64353553,56.2183173 10.5278395,57.1016132 C11.5464954,58.1178212 12.9169434,58.5728611 14.2682393,58.4485891 C14.1400793,59.8324291 14.6305433,61.202301 15.6189592,62.187693 C16.5311992,63.0990689 17.7294231,63.5546849 18.9277911,63.5546849 C19.0717911,63.5546849 19.2157911,63.5477729 19.3592151,63.5345249 C19.2310551,64.9183648 19.722671,66.2872288 20.710079,67.2736287 C21.7278709,68.2902687 23.0991829,68.7445886 24.4503348,68.6206046 C24.3221748,70.0044446 24.8126388,71.3743165 25.8011987,72.3598525 C26.7134387,73.2712284 27.9116626,73.7268444 29.1100306,73.7268444 C30.3082545,73.7268444 31.5066225,73.2712284 32.4190064,72.3598525 L33.9788143,70.8016285 L35.5386223,72.3598525 C36.4508622,73.2712284 37.6490862,73.7268444 38.8474541,73.7268444 C40.045822,73.7268444 41.24419,73.2710844 42.1564299,72.3597085 C43.1419659,71.3750365 43.6331499,70.0019966 43.5072939,68.6206046 C44.8634858,68.7454526 46.2263017,68.2938687 47.2475497,67.2736287 C48.2332296,66.2891008 48.7242696,64.9159168 48.5984136,63.5345249 C49.9544616,63.6592289 51.3174215,63.2079329 52.3388134,62.187549 C53.3243494,61.203021 53.8153894,59.8298371 53.6895334,58.4484451 C55.0455813,58.5731491 56.4085412,58.1214212 57.4297892,57.1013252 C58.3140932,56.2180293 58.8009571,55.0437093 58.8009571,53.7943654 C58.8009571,52.5448774 58.3140932,51.3705575 57.4299332,50.4872615 L56.1222693,49.1808936 C57.0454532,48.4765896 57.8895812,47.6760937 58.6395331,46.7879017 C59.1197731,46.2191017 59.5607011,45.6134378 59.9582851,44.9807018 C60.457245,45.1271498 60.973341,45.2005898 61.489437,45.2005898 C62.8721249,45.2005898 64.2548129,44.6748458 65.3074528,43.6232139 L73.5551964,35.3839663 C73.9772604,34.9627663 73.9775484,34.2790543 73.5560604,33.8569903 L73.5560604,33.8569903 Z M15.6191032,55.5736293 C14.6364473,56.5555652 13.0374714,56.5554212 12.0546714,55.5736293 C11.5790394,55.0982853 11.3169594,54.4665573 11.3169594,53.7946534 C11.3169594,53.1227494 11.5788954,52.4910214 12.0546714,52.0156775 L14.4254873,49.6473096 C14.9168153,49.1564136 15.5622232,48.9110376 16.2076312,48.9110376 C16.8530392,48.9110376 17.4985911,49.1564136 17.9899191,49.6473096 C18.4655511,50.1226536 18.7276311,50.7543815 18.7276311,51.4262855 C18.7276311,52.0981895 18.4656951,52.7299174 17.9899191,53.2052614 L15.6191032,55.5736293 Z M17.1456472,60.659709 C16.6700152,60.1843651 16.4080792,59.5526371 16.4080792,58.8807331 C16.4080792,58.2088292 16.6700152,57.5769572 17.1457912,57.1017572 L19.516607,54.7333893 C20.499407,53.7518854 22.0985269,53.7518854 23.0813269,54.7333893 C23.5569588,55.2087333 23.8190388,55.8404613 23.8190388,56.5123652 C23.8190388,57.1842692 23.5571028,57.8159972 23.0813269,58.2913412 L20.710511,60.659853 C19.727567,61.641357 18.1284471,61.641357 17.1456472,60.659709 Z M22.2367669,65.7456448 C21.7611349,65.2703008 21.4990549,64.6385728 21.4990549,63.9666689 C21.4990549,63.2947649 21.7609909,62.6630369 22.2367669,62.187693 L24.6075828,59.8191811 C25.0990548,59.3282851 25.7444627,59.0829091 26.3898707,59.0829091 C27.0352787,59.0829091 27.6808306,59.3284291 28.1721586,59.8191811 C28.6479346,60.2945251 28.9098706,60.926253 28.9098706,61.598157 C28.9098706,62.270061 28.6479346,62.9019329 28.1721586,63.3771329 L25.8013427,65.7455008 C24.8186868,66.7272927 23.2197109,66.7272927 22.2367669,65.7456448 L22.2367669,65.7456448 Z M33.2635664,68.4633567 L30.8927505,70.8318685 C29.9099505,71.8133725 28.3108306,71.8133725 27.3280307,70.8318685 L27.3280307,70.8317245 C26.8523987,70.3563806 26.5903187,69.7246526 26.5903187,69.0527486 C26.5903187,68.3808447 26.8522547,67.7491167 27.3280307,67.2737727 L29.6988465,64.9054048 C30.1901745,64.4145089 30.8357265,64.1691329 31.4811345,64.1691329 C32.1265424,64.1691329 32.7720944,64.4145089 33.2634224,64.9054048 C33.7391984,65.3807488 34.0011343,66.0124768 34.0011343,66.6843807 C34.0011343,67.3562847 33.7391984,67.9880127 33.2635664,68.4633567 Z M56.6412452,53.7946534 C56.6412452,54.4665573 56.3793092,55.0982853 55.9035333,55.5736293 C54.9208773,56.5554212 53.3217574,56.5555652 52.3391014,55.5736293 L44.6005418,47.8428457 C44.1786218,47.4213577 43.4947659,47.4215017 43.0731339,47.8435657 C42.6516459,48.2656296 42.6519339,48.9494856 43.0738539,49.3708296 L50.8124135,57.1016132 C51.2880455,57.5769572 51.5501255,58.2086852 51.5501255,58.8805891 C51.5501255,59.5524931 51.2881895,60.1843651 50.8124135,60.659565 C49.8299016,61.640925 48.2312136,61.641069 47.2484137,60.659997 C47.2482697,60.659853 47.2481257,60.659709 47.2479817,60.659565 L39.5094221,52.9286374 C39.0875021,52.5070054 38.4036461,52.5074374 37.9820141,52.9293574 C37.5605262,53.3514214 37.5608142,54.0352774 37.9827341,54.4566213 L45.7214378,62.187549 C46.1970697,62.6628929 46.4591497,63.2946209 46.4591497,63.9665249 C46.4591497,64.6385728 46.1972137,65.2703008 45.7214378,65.7455008 C44.7384938,66.7271487 43.1393739,66.7271487 42.1568619,65.7455008 L34.4183023,58.0147172 C33.9963823,57.5930852 33.3125264,57.5935172 32.8908944,58.0154372 C32.4694064,58.4375011 32.4696944,59.1213571 32.8916144,59.5427011 L40.630318,67.2734847 C41.10595,67.7488287 41.36803,68.3805567 41.36803,69.0524606 C41.36803,69.7245086 41.106094,70.3563806 40.630318,70.8315805 C39.6473741,71.8132285 38.0482541,71.8130845 37.0657422,70.8315805 L35.4290383,69.1964606 C35.9052462,68.4527007 36.1615662,67.5882687 36.1614222,66.6839487 C36.1614222,65.4346048 35.6745583,64.2602849 34.7903983,63.3769889 C33.7685744,62.356029 32.3877584,61.907181 31.0501425,62.029869 C31.0631025,61.887021 31.0704465,61.743165 31.0704465,61.598013 C31.0704465,60.3486691 30.5835825,59.1742051 29.6992785,58.2909092 C28.6774546,57.2700932 27.2966387,56.8213892 25.9590227,56.9440772 C25.9719827,56.8012292 25.9793267,56.6572292 25.9793267,56.5120772 C25.9793267,55.2625893 25.4924628,54.0882694 24.6081588,53.2049734 C23.5863348,52.1841575 22.2055189,51.7354535 20.867903,51.8581415 C20.880863,51.7152935 20.888207,51.5712935 20.888207,51.4261415 C20.888207,50.1766535 20.401343,49.0023336 19.517183,48.1190376 C18.6455511,47.2481257 17.5127031,46.7943817 16.3683352,46.7555017 C16.1943832,45.7731338 16.1307352,44.7773738 16.1786872,43.7814699 C16.2348472,43.7299179 16.2905752,43.6779339 16.3450072,43.6235019 L28.6339666,31.3470705 C28.6989106,31.2822705 28.7618386,31.2160305 28.8230386,31.1486385 C30.9165105,31.0462545 33.0117104,31.4448465 34.9182703,32.2950224 L28.0893586,39.9198221 C26.9022227,41.245486 26.9583827,43.2691179 28.2173746,44.5266698 C30.6066225,46.9136137 34.4939023,46.9136137 36.8830062,44.5266698 L41.88211,39.5326061 C42.3030219,39.1121261 42.9878859,39.1121261 43.4086539,39.5326061 L53.6867974,49.8005256 L55.9041093,52.0155335 C56.3791652,52.4910214 56.6412452,53.1226054 56.6412452,53.7946534 L56.6412452,53.7946534 Z M56.9894372,45.3947018 C56.2783653,46.2369577 55.4700933,46.9896457 54.5795973,47.6399497 L44.9346218,38.0046221 C43.6718859,36.7434702 41.617582,36.7433262 40.354846,38.0047661 L35.3557423,42.9988299 C33.8084623,44.5443818 31.2907665,44.5446698 29.7433425,42.9988299 C29.2957906,42.5517099 29.2757746,41.832286 29.6978385,41.361118 L38.2386221,31.8247184 C39.2807501,30.6610545 40.77475,29.9937585 42.3377259,29.9937585 L44.3787818,29.9937585 C44.6304938,30.4752945 44.9560778,30.9212625 45.3515018,31.3163985 L57.6714212,43.6237899 C57.7912292,43.7434539 57.9157892,43.8553419 58.0436612,43.9614699 C57.7219652,44.4611498 57.3714692,44.9423978 56.9894372,45.3947018 L56.9894372,45.3947018 Z M63.7809089,42.0956619 C62.5175969,43.3579659 60.461709,43.3579659 59.1981091,42.0956619 L46.8781897,29.7881265 C46.2663337,29.1768466 45.9296617,28.3642546 45.9296617,27.5001107 C45.9296617,26.6359667 46.2667657,25.8233747 46.8787657,25.2123828 L49.6946856,22.4002069 L66.4191328,39.4600301 L63.7809089,42.0956619 Z" id="Shape"></path>
        </g>
    </g>
</svg>