<?xml version="1.0" encoding="UTF-8"?>
<svg width="88px" height="88px" viewBox="0 0 88 88" version="1.1" xmlns="http://www.w3.org/2000/svg" xmlns:xlink="http://www.w3.org/1999/xlink">
    <!-- Generator: Sketch 59 (86127) - https://sketch.com -->
    <title>1.objecitve</title>
    <desc>Created with Sketch.</desc>
    <g id="1.objecitve" stroke="none" stroke-width="1" fill="none" fill-rule="evenodd">
        <g id="target" transform="translate(2.000000, 3.000000)" fill="#5158FA" fill-rule="nonzero">
            <path d="M64.7612771,29.8297587 C67.809757,35.0891184 69.4211169,41.0990382 69.4211169,47.2094379 C69.4211169,56.4809575 65.8105571,65.1975971 59.2545574,71.7534368 C52.6985576,78.3092765 43.981918,81.9198363 34.7105584,81.9198363 C25.4390389,81.9198363 16.7223993,78.3092765 10.1665595,71.7534368 C3.61055984,65.1975971 0,56.4809575 0,47.2094379 C0,37.9379183 3.61055984,29.2212787 10.1665595,22.665439 C16.7225593,16.1095993 25.4390389,12.4988794 34.7105584,12.4988794 C40.8212782,12.4988794 46.8311979,14.1102394 52.0903977,17.1587192 C52.7020776,17.5132792 52.9103976,18.2964792 52.5559977,18.9079992 C52.2012777,19.5196791 51.4180777,19.7279991 50.8067177,19.3735991 C45.9371179,16.5508793 40.3711982,15.0590393 34.7107184,15.0590393 C16.9827192,15.0588793 2.55999989,29.4815987 2.55999989,47.2094379 C2.55999989,64.9372771 16.9827192,79.3599965 34.7105584,79.3599965 C52.4383977,79.3599965 66.861117,64.9372771 66.861117,47.2095979 C66.861117,41.5494381 65.3691171,35.9835184 62.5463972,31.1135986 C62.1918372,30.5020786 62.4003172,29.7188787 63.0119972,29.3643187 C63.6233572,29.0097587 64.4067171,29.2180787 64.7612771,29.8297587 L64.7612771,29.8297587 Z M81.5451164,16.3283193 L70.6833568,27.1900788 C70.4401569,27.4332788 70.1132769,27.5649588 69.7782369,27.5649588 C69.6678369,27.5649588 69.5564769,27.5507188 69.4470369,27.5214388 L59.0065574,24.7238389 L35.6156784,48.1145578 C35.3657584,48.3644778 35.0382384,48.4894378 34.7105584,48.4894378 C34.3828785,48.4894378 34.0553585,48.3644778 33.8054385,48.1145578 C33.3055985,47.6147179 33.3055985,46.8043179 33.8054385,46.3044779 L57.1963174,22.913599 L54.3987176,12.4731194 C54.2803176,12.0313595 54.4067176,11.5599995 54.7300776,11.2366395 L65.5918371,0.374879983 C65.9151971,0.0515199977 66.386557,-0.0747199967 66.828157,0.0435199981 C67.269917,0.161919993 67.614877,0.506879977 67.733277,0.948639958 L70.5307168,11.3891195 L80.9713564,14.1865594 C81.4131164,14.3049594 81.7580763,14.6499193 81.8764763,15.0916793 C81.9948763,15.5334393 81.8684763,16.0049593 81.5451164,16.3283193 L81.5451164,16.3283193 Z M78.1671965,16.0857593 L69.1542369,13.6707194 C68.7124769,13.5523194 68.3675169,13.2073594 68.2491169,12.7655994 L65.8340771,3.75279983 L57.0625574,12.5243194 L59.6687973,22.251039 L69.3955169,24.8572789 L78.1671965,16.0857593 Z M34.7105584,29.2799987 C37.3758383,29.2799987 39.9412782,29.8515187 42.3355181,30.9785586 C42.9748781,31.2793586 43.737758,31.0051186 44.038718,30.3655986 C44.339838,29.7259187 44.065438,28.9635187 43.4257581,28.6623987 C40.6879982,27.3735988 37.7556783,26.7199988 34.7105584,26.7199988 C23.412639,26.7199988 14.2211194,35.9115184 14.2211194,47.2094379 C14.2211194,58.5073574 23.412639,67.698877 34.7105584,67.698877 C46.0084779,67.698877 55.1999975,58.5073574 55.1999975,47.2094379 C55.1999975,44.164798 54.5465576,41.2324782 53.2575976,38.4942383 C52.9566376,37.8547183 52.1940777,37.5803183 51.5543977,37.8811183 C50.9147177,38.1822383 50.6403177,38.9446383 50.9412777,39.5843182 C52.0683177,41.9790381 52.6398376,44.544318 52.6398376,47.2092779 C52.6398376,57.0956774 44.596798,65.1387171 34.7103984,65.1387171 C24.8239989,65.1387171 16.7809592,57.0956774 16.7809592,47.2092779 C16.7809592,37.3228783 24.8241589,29.2799987 34.7105584,29.2799987 Z" id="XMLID_753_"></path>
        </g>
    </g>
</svg>