<?xml version="1.0" encoding="UTF-8"?>
<svg width="88px" height="88px" viewBox="0 0 88 88" version="1.1" xmlns="http://www.w3.org/2000/svg" xmlns:xlink="http://www.w3.org/1999/xlink">
    <!-- Generator: Sketch 59 (86127) - https://sketch.com -->
    <title>API doc</title>
    <desc>Created with Sketch.</desc>
    <g id="API-doc" stroke="none" stroke-width="1" fill="none" fill-rule="evenodd">
        <g id="website" transform="translate(2.000000, 5.000000)" fill="white" fill-rule="nonzero">
            <path d="M7.39336626,21.6747348 C7.93805461,22.2010381 8.80407759,22.1935887 9.33963159,21.6579932 C9.87518558,21.1223977 9.88256794,20.2563741 9.3562224,19.7117266 C8.81153405,19.1854232 7.94551107,19.1928727 7.40995708,19.7284682 C6.87440308,20.2640636 6.86702072,21.1300872 7.39336626,21.6747348 L7.39336626,21.6747348 Z" id="Path"></path>
            <path d="M18.3833551,21.6747348 C18.9290483,22.1947325 19.7899627,22.1843368 20.3229405,21.651314 C20.8559183,21.1182911 20.8662413,20.2573759 20.3461974,19.7117266 C19.8005042,19.1917288 18.9395898,19.2021245 18.406612,19.7351474 C17.8736341,20.2681703 17.8633112,21.1290855 18.3833551,21.6747348 L18.3833551,21.6747348 Z" id="Path"></path>
            <path d="M12.8916739,21.6747348 C13.4373671,22.1947325 14.2982814,22.1843368 14.8312593,21.651314 C15.3642371,21.1182911 15.3745601,20.2573759 14.8545162,19.7117266 C14.3088229,19.1917288 13.4479086,19.2021245 12.9149308,19.7351474 C12.3819529,20.2681703 12.37163,21.1290855 12.8916739,21.6747348 L12.8916739,21.6747348 Z" id="Path-Copy"></path>
            <path d="M9.75721521,35.8996875 L24.9636168,35.8996875 C25.716593,35.884986 26.3192889,35.2703664 26.3192889,34.5172467 C26.3192889,33.764127 25.7165109,33.1495435 24.9635338,33.1348872 L9.75721521,33.1348872 C9.00423857,33.1495662 8.40150163,33.7641677 8.40150163,34.5172874 C8.40150163,35.2704071 9.00423857,35.8850086 9.75721521,35.8996875 L9.75721521,35.8996875 Z" id="Path"></path>
            <path d="M9.75721521,42.8116882 L24.9636168,42.8116882 C25.716593,42.7969867 26.3192889,42.1823671 26.3192889,41.4292474 C26.3192889,40.6761277 25.7165109,40.0615443 24.9635338,40.046888 L9.75721521,40.046888 C9.00423857,40.0615669 8.40150163,40.6761684 8.40150163,41.4292881 C8.40150163,42.1824078 9.00423857,42.7970093 9.75721521,42.8116882 L9.75721521,42.8116882 Z" id="Path"></path>
            <path d="M34.6404178,46.9588887 L9.75721521,46.9588887 C9.00423907,46.9735939 8.40154997,47.5882165 8.40154997,48.3413363 C8.40154997,49.094456 9.00433481,49.7090364 9.75731198,49.7236889 L34.6404178,49.7236889 C35.3931222,49.7086341 35.995445,49.0941438 35.995445,48.3412888 C35.995445,47.5884338 35.3931222,46.9739435 34.6404178,46.9588887 Z" id="Path"></path>
            <path d="M83.0324821,0.914430046 C82.5399134,0.337940651 81.791176,0.0467263668 81.0385358,0.138903566 L56.2174721,2.48515456 C54.8561833,2.63575828 53.7059225,3.56246134 53.2690753,4.8605189 C52.4498085,7.77822039 51.8957177,10.7639497 51.6135544,13.7813267 L4.22761464,13.7813267 C1.938215,13.7838257 0.0829131971,15.6391275 0.0804142163,17.9285272 L0.0804142163,63.5477318 C0.0829131971,65.8371315 1.938215,67.6924333 4.22761464,67.6949323 L41.9295787,67.6949323 C43.0000956,70.7065463 43.7446701,75.7599791 47.5974193,76.2965854 L72.3634081,78.6535776 C73.1893807,78.7587941 73.9986504,78.3619662 74.4212275,77.6445195 C74.8438046,76.9270727 74.798478,76.0268865 74.3059706,75.3555165 C73.013706,72.9078933 72.0378216,70.3059268 71.4017829,67.6121818 C73.3359924,67.2202838 74.7272373,65.5212697 74.7299528,63.5477595 L74.7299528,36.504142 L81.0385082,37.1005094 C81.7908802,37.1905558 82.5386438,36.8997203 83.0324545,36.3249829 C83.5464875,35.6694188 83.6985134,34.8001781 83.4374977,34.0090618 C80.5781968,23.9491897 80.5781968,13.2916334 83.4374977,3.23176123 C83.6986612,2.44020206 83.5466538,1.57047867 83.0324821,0.914430046 L83.0324821,0.914430046 Z M4.22761464,16.5460855 L51.423032,16.5460855 C51.3055569,19.3153715 51.417341,22.0896296 51.757241,24.8404864 L2.8452145,24.8404864 L2.8452145,17.9284857 C2.84597652,17.165323 3.46445199,16.5468476 4.22761464,16.5460855 L4.22761464,16.5460855 Z M47.8623148,73.544434 C47.4815951,73.469644 47.1415254,73.257821 46.9065233,72.9490896 C42.6484057,64.9059799 42.6489234,55.2763341 46.9079057,47.2336822 C47.1414579,46.9255328 47.4802341,46.7140978 47.8596606,46.6396786 L71.4212886,44.3973288 C66.5497023,54.2925457 66.5477055,65.888618 71.4158834,75.785512 L47.8623148,73.544434 Z M70.882042,64.8694999 C70.1649332,60.0550446 70.5350585,55.1411086 71.9652492,50.4883912 L71.9652492,63.5476904 C71.9591028,64.1879031 71.5085427,64.7376957 70.8820143,64.8694999 L70.882042,64.8694999 Z M71.9652907,41.5679152 L47.5950416,43.8875826 C46.2875768,44.0461106 45.129137,44.8060846 44.4630481,45.9422716 C41.3852955,51.7636331 40.2924732,58.4307321 41.3507125,64.9300352 L4.22761464,64.9300352 C3.46445199,64.9292732 2.84597652,64.3107977 2.8452145,63.5476351 L2.8452145,27.6052314 L52.1899876,27.6052314 C52.8523231,30.2253911 52.7360356,34.3421926 56.2202093,34.7541616 L71.9652907,36.2427025 L71.9652907,41.5679152 Z M80.6403493,34.285763 L56.482105,32.0015541 C56.2529129,31.9587775 56.0521461,31.8218876 55.9286058,31.6241589 C53.5136705,23.1238451 53.5131918,14.1190179 55.9272234,5.61844742 C56.0497048,5.41969896 56.2500572,5.28155759 56.4793678,5.23774825 L80.6443721,2.95293112 C77.8262662,13.2069257 77.824867,24.0310402 80.6403216,34.285763 L80.6403493,34.285763 Z" id="Shape"></path>
            <path d="M60.2742221,11.2972853 C60.345236,11.2996835 71.1956947,10.7026387 71.2728327,10.7005789 C72.0258795,10.6471287 72.5968355,9.99951166 72.5554886,9.24570342 C72.5141418,8.49189519 71.8757797,7.91060998 71.1214045,7.93984286 L60.1999734,8.53450993 C59.4634453,8.58931441 58.8998509,9.21300127 58.9196925,9.95129895 C58.939534,10.6895966 59.5358136,11.2821122 60.2742221,11.2972853 Z" id="Path"></path>
            <path d="M59.569516,17.9858553 C59.5688939,17.9918826 70.4559171,17.8448505 70.4612808,17.8488456 C71.2143779,17.8250095 71.8097611,17.202618 71.8002991,16.4492047 C71.7906093,15.6957913 71.1795999,15.0887331 70.4261402,15.0840453 L59.5519733,15.2210827 C58.8028679,15.2456573 58.2096899,15.862518 58.2144171,16.6120113 C58.219201,17.3615047 58.820159,17.9707884 59.569516,17.9858553 L59.569516,17.9858553 Z" id="Path"></path>
            <path d="M73.3935174,22.3382039 L59.7868708,21.9379299 C59.0341451,21.9310125 58.4142091,22.5275523 58.3921781,23.2799873 C58.3701471,24.0324223 58.954118,24.664212 59.7059589,24.7013478 C59.7604946,24.6999654 73.3064262,25.1043175 73.3542987,25.1022518 C74.0989408,25.0864972 74.6973751,24.4838859 74.7080839,23.7391524 C74.718509,22.9944188 74.1374129,22.3750713 73.3935174,22.3382039 L73.3935174,22.3382039 Z" id="Path"></path>
            <path d="M50.3760436,52.5749028 C50.4611165,52.5782208 61.179003,51.9670479 61.2666748,51.9653614 C62.0174566,51.9083818 62.5846603,51.2611972 62.5426801,50.5094276 C62.5006999,49.7576579 61.8649675,49.1776474 61.1125096,49.2046115 L50.3004539,49.8121073 C49.5641926,49.8675897 49.0012467,50.4914534 49.0214403,51.2295261 C49.041634,51.9675988 49.63785,52.5597478 50.3760436,52.5749028 L50.3760436,52.5749028 Z" id="Path"></path>
            <path d="M49.1083826,59.3978008 C49.1121289,59.3997711 59.8439916,59.2549647 59.8530186,59.2560429 C60.6021913,59.2311766 61.1951638,58.6139735 61.1900549,57.8644059 C61.1848797,57.1148383 60.5834954,56.5058285 59.8340521,56.4912427 C59.829504,56.4866254 49.0991759,56.6359523 49.0894991,56.6329801 C48.34033,56.6578297 47.7473455,57.2750132 47.7524321,58.0245767 C47.7575845,58.7741403 48.3589441,59.3831664 49.1083826,59.3978008 Z" id="Path"></path>
            <path d="M62.9026763,63.9539778 C62.7152505,63.9558993 49.4289059,63.5340599 49.424344,63.540889 C48.6793469,63.5558402 48.080121,64.1583219 48.0690556,64.9033891 C48.0582925,65.6484563 48.639614,66.2682314 49.3838535,66.304998 C49.4470983,66.3022332 62.8076086,66.7212249 62.8621305,66.7181181 C63.6070609,66.7030649 64.2061935,66.1006196 64.2172732,65.3556177 C64.2280497,64.6106157 63.6468452,63.9908565 62.9026763,63.9539778 Z" id="Path"></path>
        </g>
    </g>
</svg>
