<svg xmlns="http://www.w3.org/2000/svg" xmlns:xlink="http://www.w3.org/1999/xlink" viewBox="0 0 503.5 362.57"><defs><style>.cls-1{fill:none;}.cls-2{isolation:isolate;}.cls-3{opacity:0.3;}.cls-4{fill:#2c75e4;}.cls-26,.cls-35,.cls-43,.cls-5,.cls-58,.cls-6,.cls-65,.cls-7,.cls-8{opacity:0.4;}.cls-25,.cls-26,.cls-34,.cls-35,.cls-42,.cls-43,.cls-5,.cls-50,.cls-51,.cls-58,.cls-6,.cls-65,.cls-7,.cls-8{mix-blend-mode:lighten;}.cls-5{fill:url(#radial-gradient);}.cls-6{fill:url(#radial-gradient-2);}.cls-7{fill:url(#radial-gradient-3);}.cls-8{fill:url(#radial-gradient-4);}.cls-9{fill:#6ee8fc;}.cls-10{fill:url(#Áåçûìÿííûé_ãðàäèåíò_422);}.cls-11{fill:#70e8fc;}.cls-12,.cls-27{fill:#0c0f38;}.cls-12{opacity:0.8;}.cls-13{fill:url(#Áåçûìÿííûé_ãðàäèåíò_388);}.cls-14{fill:url(#Áåçûìÿííûé_ãðàäèåíò_377);}.cls-15{fill:url(#Áåçûìÿííûé_ãðàäèåíò_388-2);}.cls-16{fill:#d4088c;}.cls-17{fill:url(#Áåçûìÿííûé_ãðàäèåíò_300);}.cls-18{fill:url(#Áåçûìÿííûé_ãðàäèåíò_302);}.cls-19{fill:#6de0f6;}.cls-20{clip-path:url(#clip-path);}.cls-21{fill:#267fe5;}.cls-22{fill:#25bfec;}.cls-23{fill:#18d0f7;}.cls-24{fill:#480689;}.cls-25,.cls-34,.cls-42,.cls-50{opacity:0.2;}.cls-25{fill:url(#linear-gradient);}.cls-26{fill:url(#linear-gradient-2);}.cls-27{opacity:0.1;}.cls-28{fill:url(#Áåçûìÿííûé_ãðàäèåíò_388-3);}.cls-29{fill:url(#Áåçûìÿííûé_ãðàäèåíò_377-2);}.cls-30{fill:url(#Áåçûìÿííûé_ãðàäèåíò_388-4);}.cls-31{fill:url(#Áåçûìÿííûé_ãðàäèåíò_300-2);}.cls-32{fill:url(#Áåçûìÿííûé_ãðàäèåíò_302-2);}.cls-33{clip-path:url(#clip-path-2);}.cls-34{fill:url(#linear-gradient-3);}.cls-35{fill:url(#linear-gradient-4);}.cls-36{fill:url(#Áåçûìÿííûé_ãðàäèåíò_388-5);}.cls-37{fill:url(#Áåçûìÿííûé_ãðàäèåíò_377-3);}.cls-38{fill:url(#Áåçûìÿííûé_ãðàäèåíò_388-6);}.cls-39{fill:url(#Áåçûìÿííûé_ãðàäèåíò_300-3);}.cls-40{fill:url(#Áåçûìÿííûé_ãðàäèåíò_302-3);}.cls-41{clip-path:url(#clip-path-3);}.cls-42{fill:url(#linear-gradient-5);}.cls-43{fill:url(#linear-gradient-6);}.cls-44{fill:url(#Áåçûìÿííûé_ãðàäèåíò_388-7);}.cls-45{fill:url(#Áåçûìÿííûé_ãðàäèåíò_377-4);}.cls-46{fill:url(#Áåçûìÿííûé_ãðàäèåíò_388-8);}.cls-47{fill:url(#Áåçûìÿííûé_ãðàäèåíò_300-4);}.cls-48{fill:url(#Áåçûìÿííûé_ãðàäèåíò_302-4);}.cls-49{clip-path:url(#clip-path-4);}.cls-50{fill:url(#linear-gradient-7);}.cls-51{opacity:0.25;fill:url(#Áåçûìÿííûé_ãðàäèåíò_384);}.cls-52{fill:url(#Áåçûìÿííûé_ãðàäèåíò_422-2);}.cls-53{fill:url(#Áåçûìÿííûé_ãðàäèåíò_377-5);}.cls-54{fill:url(#Áåçûìÿííûé_ãðàäèåíò_388-9);}.cls-55{fill:url(#Áåçûìÿííûé_ãðàäèåíò_300-5);}.cls-56{fill:url(#Áåçûìÿííûé_ãðàäèåíò_302-5);}.cls-57{clip-path:url(#clip-path-5);}.cls-58{fill:url(#linear-gradient-8);}.cls-59{fill:url(#Áåçûìÿííûé_ãðàäèåíò_422-3);}.cls-60{fill:url(#Áåçûìÿííûé_ãðàäèåíò_377-6);}.cls-61{fill:url(#Áåçûìÿííûé_ãðàäèåíò_388-10);}.cls-62{fill:url(#Áåçûìÿííûé_ãðàäèåíò_300-6);}.cls-63{fill:url(#Áåçûìÿííûé_ãðàäèåíò_302-6);}.cls-64{clip-path:url(#clip-path-6);}.cls-65{fill:url(#linear-gradient-9);}.cls-66{fill:url(#Áåçûìÿííûé_ãðàäèåíò_422-4);}.cls-67{fill:#4a0e91;}.cls-68{fill:url(#Áåçûìÿííûé_ãðàäèåíò_377-7);}.cls-69{fill:#35047c;}.cls-70{fill:url(#Áåçûìÿííûé_ãðàäèåíò_377-8);}</style><radialGradient id="radial-gradient" cx="-2674.01" cy="94.94" r="95.26" gradientTransform="matrix(0.87, 0.5, -0.87, 0.5, 2760.5, 1524.76)" gradientUnits="userSpaceOnUse"><stop offset="0.01" stop-color="#25bfec"/><stop offset="0.04" stop-color="#30c2ed" stop-opacity="0.95"/><stop offset="0.19" stop-color="#66d2f2" stop-opacity="0.7"/><stop offset="0.34" stop-color="#95e0f6" stop-opacity="0.49"/><stop offset="0.48" stop-color="#bbebf9" stop-opacity="0.31"/><stop offset="0.62" stop-color="#d9f4fc" stop-opacity="0.18"/><stop offset="0.76" stop-color="#eefafe" stop-opacity="0.08"/><stop offset="0.89" stop-color="#fbfeff" stop-opacity="0.02"/><stop offset="1" stop-color="#fff" stop-opacity="0"/></radialGradient><radialGradient id="radial-gradient-2" cx="-2605.98" cy="218.42" r="44.67" xlink:href="#radial-gradient"/><radialGradient id="radial-gradient-3" cx="-2634.85" cy="244.76" r="44.67" gradientTransform="matrix(0.87, 0.5, -0.87, 0.5, 2760.5, 1524.76)" gradientUnits="userSpaceOnUse"><stop offset="0.01" stop-color="#d4088c"/><stop offset="0.14" stop-color="#de40a6" stop-opacity="0.77"/><stop offset="0.3" stop-color="#e879c1" stop-opacity="0.54"/><stop offset="0.45" stop-color="#f0a9d7" stop-opacity="0.35"/><stop offset="0.6" stop-color="#f7cfe9" stop-opacity="0.2"/><stop offset="0.75" stop-color="#fbe9f5" stop-opacity="0.09"/><stop offset="0.88" stop-color="#fefafc" stop-opacity="0.02"/><stop offset="1" stop-color="#fff" stop-opacity="0"/></radialGradient><radialGradient id="radial-gradient-4" cx="-2821.96" cy="148.19" r="95.26" xlink:href="#radial-gradient-3"/><linearGradient id="Áåçûìÿííûé_ãðàäèåíò_422" x1="24.72" y1="203.67" x2="131.7" y2="203.67" gradientUnits="userSpaceOnUse"><stop offset="0" stop-color="#6ee8fc"/><stop offset="0.22" stop-color="#6ee8fc"/><stop offset="0.49" stop-color="#6ee1f8"/><stop offset="0.77" stop-color="#d4088c"/><stop offset="1" stop-color="#d4088c"/></linearGradient><linearGradient id="Áåçûìÿííûé_ãðàäèåíò_388" x1="251.36" y1="172.72" x2="342.96" y2="172.72" gradientUnits="userSpaceOnUse"><stop offset="0" stop-color="#d4088c"/><stop offset="0.23" stop-color="#d4088c"/><stop offset="0.51" stop-color="#6ee1f8"/><stop offset="0.78" stop-color="#6ee8fc"/><stop offset="1" stop-color="#6ee8fc"/></linearGradient><linearGradient id="Áåçûìÿííûé_ãðàäèåíò_377" x1="251.32" y1="117.45" x2="345.25" y2="117.45" gradientUnits="userSpaceOnUse"><stop offset="0" stop-color="#a31fa9"/><stop offset="0.07" stop-color="#8b17a0"/><stop offset="0.15" stop-color="#740f98"/><stop offset="0.24" stop-color="#640a92"/><stop offset="0.34" stop-color="#5b078f"/><stop offset="0.48" stop-color="#58068e"/><stop offset="0.63" stop-color="#4d22a3"/><stop offset="0.94" stop-color="#3168da"/><stop offset="1" stop-color="#2c75e4"/></linearGradient><linearGradient id="Áåçûìÿííûé_ãðàäèåíò_388-2" x1="251.32" y1="146.26" x2="345.25" y2="146.26" xlink:href="#Áåçûìÿííûé_ãðàäèåíò_388"/><linearGradient id="Áåçûìÿííûé_ãðàäèåíò_300" x1="464.25" y1="617.57" x2="508.55" y2="579.2" gradientTransform="matrix(0.87, 0.5, -1, 0.58, 473.51, -500.21)" gradientUnits="userSpaceOnUse"><stop offset="0" stop-color="#8d139b"/><stop offset="0.17" stop-color="#851ba1"/><stop offset="0.43" stop-color="#6e33b2"/><stop offset="0.76" stop-color="#4958cd"/><stop offset="1" stop-color="#2979e4"/></linearGradient><linearGradient id="Áåçûìÿííûé_ãðàäèåíò_302" x1="470.03" y1="612.56" x2="503.01" y2="584" gradientTransform="matrix(0.87, 0.5, -1, 0.58, 473.51, -500.21)" gradientUnits="userSpaceOnUse"><stop offset="0" stop-color="#630692"/><stop offset="0.23" stop-color="#5b0e94"/><stop offset="0.59" stop-color="#432399"/><stop offset="1" stop-color="#2142a1"/></linearGradient><clipPath id="clip-path"><path class="cls-1" d="M294.89,100l-17.68-10.2c-1.25-.73-1.09-2,.36-2.83l17-9.8a5.42,5.42,0,0,1,4.9-.2l17.68,10.2c1.25.73,1.09,2-.36,2.83l-17,9.8A5.49,5.49,0,0,1,294.89,100Z"/></clipPath><linearGradient id="linear-gradient" x1="297.18" y1="100.5" x2="297.18" gradientUnits="userSpaceOnUse"><stop offset="0.01" stop-color="#25bfec"/><stop offset="0.15" stop-color="#5bcff1"/><stop offset="0.31" stop-color="#8cddf5"/><stop offset="0.46" stop-color="#b6e9f9"/><stop offset="0.61" stop-color="#d6f3fb"/><stop offset="0.75" stop-color="#ecfafd"/><stop offset="0.88" stop-color="#fafeff"/><stop offset="1" stop-color="#fff"/></linearGradient><linearGradient id="linear-gradient-2" x1="297.18" y1="99.4" x2="297.18" y2="8.45" xlink:href="#linear-gradient"/><linearGradient id="Áåçûìÿííûé_ãðàäèåíò_388-3" x1="194.56" y1="208" x2="286.16" y2="208" xlink:href="#Áåçûìÿííûé_ãðàäèåíò_388"/><linearGradient id="Áåçûìÿííûé_ãðàäèåíò_377-2" x1="194.52" y1="152.74" x2="288.45" y2="152.74" xlink:href="#Áåçûìÿííûé_ãðàäèåíò_377"/><linearGradient id="Áåçûìÿííûé_ãðàäèåíò_388-4" x1="194.52" y1="181.54" x2="288.45" y2="181.54" xlink:href="#Áåçûìÿííûé_ãðàäèåíò_388"/><linearGradient id="Áåçûìÿííûé_ãðàäèåíò_300-2" x1="466.73" y1="676.52" x2="511.04" y2="638.15" xlink:href="#Áåçûìÿííûé_ãðàäèåíò_300"/><linearGradient id="Áåçûìÿííûé_ãðàäèåíò_302-2" x1="472.51" y1="671.52" x2="505.5" y2="642.95" xlink:href="#Áåçûìÿííûé_ãðàäèåíò_302"/><clipPath id="clip-path-2"><path class="cls-1" d="M238.08,135.29l-17.67-10.2c-1.25-.73-1.1-2,.36-2.83l17-9.8a5.49,5.49,0,0,1,4.9-.2l17.67,10.2c1.26.73,1.1,2-.35,2.83l-17,9.8A5.44,5.44,0,0,1,238.08,135.29Z"/></clipPath><linearGradient id="linear-gradient-3" x1="240.37" y1="135.78" x2="240.37" y2="35.28" xlink:href="#linear-gradient"/><linearGradient id="linear-gradient-4" x1="240.37" y1="134.68" x2="240.37" y2="43.73" xlink:href="#linear-gradient"/><linearGradient id="Áåçûìÿííûé_ãðàäèåíò_388-5" x1="307.16" y1="207.64" x2="398.76" y2="207.64" xlink:href="#Áåçûìÿííûé_ãðàäèåíò_388"/><linearGradient id="Áåçûìÿííûé_ãðàäèåíò_377-3" x1="307.12" y1="152.37" x2="401.05" y2="152.37" xlink:href="#Áåçûìÿííûé_ãðàäèåíò_377"/><linearGradient id="Áåçûìÿííûé_ãðàäèåíò_388-6" x1="307.12" y1="181.18" x2="401.05" y2="181.18" xlink:href="#Áåçûìÿííûé_ãðàäèåíò_388"/><linearGradient id="Áåçûìÿííûé_ãðàäèåíò_300-3" x1="531.38" y1="619.91" x2="575.69" y2="581.54" xlink:href="#Áåçûìÿííûé_ãðàäèåíò_300"/><linearGradient id="Áåçûìÿííûé_ãðàäèåíò_302-3" x1="537.16" y1="614.9" x2="570.15" y2="586.34" xlink:href="#Áåçûìÿííûé_ãðàäèåíò_302"/><clipPath id="clip-path-3"><path class="cls-1" d="M350.68,134.93,333,124.73c-1.25-.73-1.09-2,.36-2.83l17-9.8a5.42,5.42,0,0,1,4.9-.2l17.67,10.2c1.26.73,1.1,2-.35,2.83l-17,9.8A5.51,5.51,0,0,1,350.68,134.93Z"/></clipPath><linearGradient id="linear-gradient-5" x1="352.98" y1="135.42" x2="352.98" y2="34.92" xlink:href="#linear-gradient"/><linearGradient id="linear-gradient-6" x1="352.98" y1="134.32" x2="352.98" y2="43.37" xlink:href="#linear-gradient"/><linearGradient id="Áåçûìÿííûé_ãðàäèåíò_388-7" x1="250.36" y1="242.92" x2="341.96" y2="242.92" xlink:href="#Áåçûìÿííûé_ãðàäèåíò_388"/><linearGradient id="Áåçûìÿííûé_ãðàäèåíò_377-4" x1="250.32" y1="187.66" x2="344.25" y2="187.66" xlink:href="#Áåçûìÿííûé_ãðàäèåíò_377"/><linearGradient id="Áåçûìÿííûé_ãðàäèåíò_388-8" x1="250.32" y1="216.46" x2="344.25" y2="216.46" xlink:href="#Áåçûìÿííûé_ãðàäèåíò_388"/><linearGradient id="Áåçûìÿííûé_ãðàäèåíò_300-4" x1="533.87" y1="678.86" x2="578.18" y2="640.49" xlink:href="#Áåçûìÿííûé_ãðàäèåíò_300"/><linearGradient id="Áåçûìÿííûé_ãðàäèåíò_302-4" x1="539.65" y1="673.86" x2="572.64" y2="645.29" xlink:href="#Áåçûìÿííûé_ãðàäèåíò_302"/><clipPath id="clip-path-4"><path class="cls-1" d="M293.88,170.21,276.21,160c-1.25-.73-1.1-2,.35-2.83l17-9.8a5.49,5.49,0,0,1,4.9-.2l17.67,10.2c1.26.73,1.1,2-.35,2.83l-17,9.8A5.44,5.44,0,0,1,293.88,170.21Z"/></clipPath><linearGradient id="linear-gradient-7" x1="296.17" y1="170.7" x2="296.17" y2="70.2" xlink:href="#linear-gradient"/><linearGradient id="Áåçûìÿííûé_ãðàäèåíò_384" x1="296.17" y1="169.6" x2="296.17" y2="78.65" gradientUnits="userSpaceOnUse"><stop offset="0.01" stop-color="#70e8fc"/><stop offset="0.15" stop-color="#5ab5cf"/><stop offset="0.3" stop-color="#4584a3"/><stop offset="0.46" stop-color="#335a7e"/><stop offset="0.6" stop-color="#253a62"/><stop offset="0.75" stop-color="#1b244d"/><stop offset="0.88" stop-color="#151641"/><stop offset="1" stop-color="#13113d"/></linearGradient><linearGradient id="Áåçûìÿííûé_ãðàäèåíò_422-2" x1="289.98" y1="303.83" x2="298.18" y2="355.59" xlink:href="#Áåçûìÿííûé_ãðàäèåíò_422"/><linearGradient id="Áåçûìÿííûé_ãðàäèåíò_377-5" x1="248.57" y1="321.49" x2="341.84" y2="321.49" xlink:href="#Áåçûìÿííûé_ãðàäèåíò_377"/><linearGradient id="Áåçûìÿííûé_ãðàäèåíò_388-9" x1="248.57" y1="332.16" x2="341.84" y2="332.16" xlink:href="#Áåçûìÿííûé_ãðàäèåíò_388"/><linearGradient id="Áåçûìÿííûé_ãðàäèåíò_300-5" x1="684.79" y1="811.36" x2="728.78" y2="773.26" xlink:href="#Áåçûìÿííûé_ãðàäèåíò_300"/><linearGradient id="Áåçûìÿííûé_ãðàäèåíò_302-5" x1="690.53" y1="806.39" x2="723.28" y2="778.02" xlink:href="#Áåçûìÿííûé_ãðàäèåíò_302"/><clipPath id="clip-path-5"><path class="cls-1" d="M291.83,322.09,274.28,312c-1.25-.72-1.09-2,.35-2.81l16.85-9.72a5.37,5.37,0,0,1,4.86-.21l17.55,10.13c1.25.72,1.09,2-.35,2.81l-16.85,9.73A5.4,5.4,0,0,1,291.83,322.09Z"/></clipPath><linearGradient id="linear-gradient-8" x1="294.08" y1="322.58" x2="294.08" y2="281.31" xlink:href="#linear-gradient"/><linearGradient id="Áåçûìÿííûé_ãðàäèåíò_422-3" x1="146.82" y1="79.81" x2="155.02" y2="131.58" xlink:href="#Áåçûìÿííûé_ãðàäèåíò_422"/><linearGradient id="Áåçûìÿííûé_ãðàäèåíò_377-6" x1="105.4" y1="97.47" x2="198.67" y2="97.47" xlink:href="#Áåçûìÿííûé_ãðàäèåíò_377"/><linearGradient id="Áåçûìÿííûé_ãðàäèåíò_388-10" x1="105.4" y1="108.15" x2="198.67" y2="108.15" xlink:href="#Áåçûìÿííûé_ãðàäèåíò_388"/><linearGradient id="Áåçûìÿííûé_ãðàäèåíò_300-6" x1="378.12" y1="688.95" x2="422.11" y2="650.85" xlink:href="#Áåçûìÿííûé_ãðàäèåíò_300"/><linearGradient id="Áåçûìÿííûé_ãðàäèåíò_302-6" x1="383.86" y1="683.98" x2="416.61" y2="655.61" xlink:href="#Áåçûìÿííûé_ãðàäèåíò_302"/><clipPath id="clip-path-6"><path class="cls-1" d="M148.66,98.08,131.11,88c-1.24-.72-1.09-2,.35-2.81l16.85-9.73a5.42,5.42,0,0,1,4.87-.2l17.54,10.13c1.25.72,1.09,2-.35,2.81l-16.84,9.73A5.42,5.42,0,0,1,148.66,98.08Z"/></clipPath><linearGradient id="linear-gradient-9" x1="150.92" y1="98.56" x2="150.92" y2="57.29" xlink:href="#linear-gradient"/><linearGradient id="Áåçûìÿííûé_ãðàäèåíò_422-4" x1="26.94" y1="166.56" x2="99.9" y2="166.56" xlink:href="#Áåçûìÿííûé_ãðàäèåíò_422"/><linearGradient id="Áåçûìÿííûé_ãðàäèåíò_377-7" x1="59.89" y1="99.15" x2="96.14" y2="172.12" xlink:href="#Áåçûìÿííûé_ãðàäèåíò_377"/><linearGradient id="Áåçûìÿííûé_ãðàäèåíò_377-8" x1="-9.64" y1="100.05" x2="118.91" y2="161.47" xlink:href="#Áåçûìÿííûé_ãðàäèåíò_377"/></defs><g class="cls-2"><g id="Layer_2" data-name="Layer 2"><g id="Ñëîé_1" data-name="Ñëîé 1"><g class="cls-3"><path class="cls-4" d="M188.54,121.32a6.3,6.3,0,0,1-3.07-.77l-6.83-3.94a2.53,2.53,0,0,1-1.46-2,1.94,1.94,0,0,1,1.1-1.66l33.05-19.08a6,6,0,0,1,5.48.21L223.64,98a2.51,2.51,0,0,1,1.46,2,1.94,1.94,0,0,1-1.1,1.67L191,120.76A4.85,4.85,0,0,1,188.54,121.32Zm-9.43-5.53,6.83,3.95a5.14,5.14,0,0,0,4.54.2l33.05-19.08a1.07,1.07,0,0,0,.64-.85c0-.41-.38-.87-1-1.23l-6.83-3.94a5.14,5.14,0,0,0-4.54-.21l-33.05,19.08a1.08,1.08,0,0,0-.63.85,1.66,1.66,0,0,0,1,1.23Z"/><path class="cls-4" d="M198.24,168.92a6.26,6.26,0,0,1-3.06-.77l-4.24-2.44a2.54,2.54,0,0,1-1.46-2.05,1.94,1.94,0,0,1,1.1-1.66l16.79-9.69a6,6,0,0,1,5.48.21l4.23,2.44a2.51,2.51,0,0,1,1.46,2,1.94,1.94,0,0,1-1.1,1.66l-16.78,9.69A4.92,4.92,0,0,1,198.24,168.92Zm11.53-16.23a4,4,0,0,0-1.93.43l-16.79,9.69a1.08,1.08,0,0,0-.63.85,1.66,1.66,0,0,0,1,1.23l4.24,2.45a5.14,5.14,0,0,0,4.54.21L217,157.86a1.09,1.09,0,0,0,.64-.86c0-.41-.37-.87-1-1.23l-4.23-2.44A5.42,5.42,0,0,0,209.77,152.69Z"/><path class="cls-4" d="M216.81,185.84a5.57,5.57,0,0,1-2.73-.66l-90.69-52.36a2,2,0,0,1,0-3.7l86.42-49.89a5.92,5.92,0,0,1,5.46,0l53.72,31a2,2,0,0,1,0,3.7l-16.36,9.45a1.07,1.07,0,0,0,0,2.07l32,18.46a5.08,5.08,0,0,0,4.53,0L325,123.21a1.07,1.07,0,0,0,0-2.07L166.53,29.65a5.08,5.08,0,0,0-4.53,0L73.21,80.91a1.34,1.34,0,0,0-.8,1,1.36,1.36,0,0,0,.8,1L95.35,95.77l-.47.82L72.74,83.8a2,2,0,0,1,0-3.7l88.8-51.27a6,6,0,0,1,5.46,0l158.47,91.49a2,2,0,0,1,0,3.7L289.6,144.73a6,6,0,0,1-5.46,0l-32-18.46a2,2,0,0,1,0-3.7l16.36-9.44a1.34,1.34,0,0,0,.8-1,1.36,1.36,0,0,0-.8-1L214.8,80a5.08,5.08,0,0,0-4.53,0l-86.41,49.89a1.34,1.34,0,0,0-.8,1,1.36,1.36,0,0,0,.8,1l90.69,52.35a5.08,5.08,0,0,0,4.53,0l45.09-26a1.07,1.07,0,0,0,0-2.07L211.9,126.08a5.08,5.08,0,0,0-4.53,0l-22.87,13.2-.47-.81,22.87-13.2a5.94,5.94,0,0,1,5.47,0l52.27,30.17a2,2,0,0,1,0,3.7l-45.09,26A5.61,5.61,0,0,1,216.81,185.84Z"/><path class="cls-4" d="M130.08,96.13a5.57,5.57,0,0,1-2.73-.66l-10.53-6.08,54.93-31.72a6,6,0,0,1,5.47,0l7.32,4.23a2,2,0,0,1,0,3.7h0L132.81,95.47A5.57,5.57,0,0,1,130.08,96.13Zm-11.39-6.74,9.12,5.26a5.1,5.1,0,0,0,4.54,0l51.72-29.86a1.34,1.34,0,0,0,.8-1,1.36,1.36,0,0,0-.8-1l-7.32-4.22a5.08,5.08,0,0,0-4.53,0Z"/><path class="cls-4" d="M161.19,218a5.61,5.61,0,0,1-2.74-.67L36.23,146.73a2,2,0,0,1,0-3.7l70.25-40.56.47.81L36.7,143.84a1.07,1.07,0,0,0,0,2.07l122.22,70.57a5.08,5.08,0,0,0,4.53,0l14.34-8.28a1.07,1.07,0,0,0,0-2.07l-19.17-11.06a5.08,5.08,0,0,0-4.53,0l-6.84,4a6,6,0,0,1-5.47,0L55.2,149a2,2,0,0,1,0-3.7l5.88-3.39a5.92,5.92,0,0,1,5.46,0l77.16,44.54a5.08,5.08,0,0,0,4.53,0l15.3-8.83a6,6,0,0,1,5.47,0l31.09,17.95-.47.81-31.09-17.95a5.15,5.15,0,0,0-4.53,0l-15.3,8.84a6,6,0,0,1-5.47,0L66.07,142.75a5.08,5.08,0,0,0-4.53,0l-5.87,3.39a1.08,1.08,0,0,0,0,2.08l86.58,50a5.08,5.08,0,0,0,4.53,0l6.84-3.95a6,6,0,0,1,5.47,0l19.16,11.07a2,2,0,0,1,0,3.7l-14.33,8.27A5.58,5.58,0,0,1,161.19,218Z"/><path class="cls-4" d="M143.42,177a6.29,6.29,0,0,1-3.06-.77L80.25,141.48a2.51,2.51,0,0,1-1.46-2,1.94,1.94,0,0,1,1.1-1.67l14.22-8.21a6,6,0,0,1,5.48.21l60.11,34.7a2.54,2.54,0,0,1,1.47,2.05,2,2,0,0,1-1.11,1.66l-14.22,8.21A4.92,4.92,0,0,1,143.42,177Zm-62.7-36.29,60.11,34.7a5.14,5.14,0,0,0,4.54.21l14.23-8.21a1.1,1.1,0,0,0,.63-.85c0-.41-.37-.87-1-1.23L99.12,130.58a5.14,5.14,0,0,0-4.54-.21l-14.22,8.22a1.07,1.07,0,0,0-.64.85c0,.41.37.87,1,1.23Z"/><path class="cls-4" d="M27.88,139.51a5.57,5.57,0,0,1-2.73-.66L1.27,125.06a2,2,0,0,1,0-3.7L60.56,87.13l.46.81L1.74,122.17a1.36,1.36,0,0,0-.8,1,1.34,1.34,0,0,0,.8,1L25.62,138a5.08,5.08,0,0,0,4.53,0l55.09-31.81a1.07,1.07,0,0,0,0-2.07L75.8,98.7a5.08,5.08,0,0,0-4.53,0L32.69,121l-.47-.81L70.8,97.89a5.94,5.94,0,0,1,5.47,0l9.44,5.45a2,2,0,0,1,0,3.7l-55.1,31.81A5.57,5.57,0,0,1,27.88,139.51Z"/><path class="cls-4" d="M241.13,162.05a6.29,6.29,0,0,1-3.06-.77l-4.23-2.45a2.51,2.51,0,0,1-1.46-2,2,2,0,0,1,1.1-1.67l5-2.85a6,6,0,0,1,5.48.2l4.23,2.45a2.51,2.51,0,0,1,1.47,2,2,2,0,0,1-1.11,1.66l-4.95,2.86A4.92,4.92,0,0,1,241.13,162.05Zm-.3-9.41a3.88,3.88,0,0,0-1.93.44l-5,2.86a1.07,1.07,0,0,0-.64.85c0,.41.37.87,1,1.23l4.23,2.44a5.14,5.14,0,0,0,4.54.21l5-2.86a1.1,1.1,0,0,0,.63-.85c0-.41-.37-.87-1-1.23l-4.24-2.44A5.32,5.32,0,0,0,240.83,152.64Z"/><path class="cls-4" d="M225.64,153.1a6.18,6.18,0,0,1-3.06-.77l-4.24-2.44a2.54,2.54,0,0,1-1.46-2,1.94,1.94,0,0,1,1.1-1.66l5-2.86a6,6,0,0,1,5.48.21l4.23,2.44a2.51,2.51,0,0,1,1.46,2.05,1.94,1.94,0,0,1-1.1,1.66l-4.95,2.86A4.92,4.92,0,0,1,225.64,153.1Zm-.3-9.4a4,4,0,0,0-1.93.43l-5,2.86a1.1,1.1,0,0,0-.63.85c0,.42.37.88,1,1.23l4.24,2.45a5.17,5.17,0,0,0,4.54.21l4.95-2.86a1.09,1.09,0,0,0,.64-.85c0-.42-.38-.88-1-1.23L228,144.34A5.45,5.45,0,0,0,225.34,143.7Z"/><path class="cls-4" d="M210.15,144.16a6.26,6.26,0,0,1-3.06-.77l-4.24-2.45a2.5,2.5,0,0,1-1.46-2,1.94,1.94,0,0,1,1.1-1.66l5-2.86a6,6,0,0,1,5.48.2l4.23,2.45a2.51,2.51,0,0,1,1.46,2,1.94,1.94,0,0,1-1.1,1.66l-5,2.86A4.92,4.92,0,0,1,210.15,144.16Zm-.3-9.41a4,4,0,0,0-1.93.44l-5,2.86a1.08,1.08,0,0,0-.63.85c0,.41.37.87,1,1.23l4.24,2.44a5.11,5.11,0,0,0,4.54.21l5-2.86a1.06,1.06,0,0,0,.63-.85c0-.41-.37-.87-1-1.23l-4.23-2.44A5.35,5.35,0,0,0,209.85,134.75Z"/><path class="cls-4" d="M225.56,171a6.19,6.19,0,0,1-3.06-.78l-4.23-2.44a2.51,2.51,0,0,1-1.46-2,1.94,1.94,0,0,1,1.1-1.67l5-2.86a6,6,0,0,1,5.48.21l4.23,2.45a2.51,2.51,0,0,1,1.47,2,2,2,0,0,1-1.11,1.66l-5,2.86A4.92,4.92,0,0,1,225.56,171Zm-.29-9.41a3.89,3.89,0,0,0-1.94.44l-5,2.86a1.07,1.07,0,0,0-.64.85c0,.41.37.87,1,1.23l4.23,2.44a5.14,5.14,0,0,0,4.54.21l5-2.86a1.1,1.1,0,0,0,.63-.85c0-.41-.37-.87-1-1.23l-4.24-2.45A5.41,5.41,0,0,0,225.27,161.63Z"/><path class="cls-4" d="M194.58,153.15a6.26,6.26,0,0,1-3.06-.77l-4.24-2.45a2.5,2.5,0,0,1-1.46-2,1.94,1.94,0,0,1,1.1-1.66l5-2.86a6,6,0,0,1,5.48.2l4.23,2.45a2.5,2.5,0,0,1,1.46,2,1.94,1.94,0,0,1-1.1,1.66L197,152.58A4.92,4.92,0,0,1,194.58,153.15Zm-.3-9.41a4,4,0,0,0-1.93.44l-5,2.86a1.06,1.06,0,0,0-.63.85c0,.41.37.87,1,1.23l4.24,2.44a5.14,5.14,0,0,0,4.54.21l4.95-2.86a1.08,1.08,0,0,0,.63-.85c0-.41-.37-.87-1-1.23l-4.23-2.44A5.35,5.35,0,0,0,194.28,143.74Z"/><path class="cls-4" d="M325.06,215.19a6.3,6.3,0,0,1-3.07-.77l-32.32-18.66a2.54,2.54,0,0,1-1.47-2,1.93,1.93,0,0,1,1.11-1.66l7.55-4.36a6,6,0,0,1,5.48.21l32.32,18.66a2.53,2.53,0,0,1,1.47,2.05,1.93,1.93,0,0,1-1.11,1.66l-7.55,4.36A4.88,4.88,0,0,1,325.06,215.19Zm-25.8-27.12a4,4,0,0,0-1.93.43l-7.56,4.36a1.1,1.1,0,0,0-.63.85c0,.41.37.87,1,1.23l32.33,18.67a5.17,5.17,0,0,0,4.54.21l7.56-4.36a1.1,1.1,0,0,0,.63-.85c0-.42-.37-.88-1-1.24l-32.33-18.66A5.45,5.45,0,0,0,299.26,188.07Z"/><path class="cls-4" d="M410.1,208.09a6.26,6.26,0,0,1-3.06-.77L391,198a2.51,2.51,0,0,1-1.46-2,2,2,0,0,1,1.1-1.67l5-2.85a6,6,0,0,1,5.48.2L417.11,201a2.5,2.5,0,0,1,1.46,2,1.94,1.94,0,0,1-1.1,1.66l-5,2.86A4.92,4.92,0,0,1,410.1,208.09ZM398,191.85a3.85,3.85,0,0,0-1.93.44l-5,2.86a1.06,1.06,0,0,0-.63.85c0,.41.37.87,1,1.23l16.07,9.27a5.11,5.11,0,0,0,4.54.21l4.95-2.86a1.08,1.08,0,0,0,.63-.85c0-.41-.37-.87-1-1.23l-16.06-9.27A5.35,5.35,0,0,0,398,191.85Z"/><path class="cls-4" d="M268.27,276.23a5.57,5.57,0,0,1-2.73-.66l-88.8-51.27a2,2,0,0,1,0-3.7l158.47-91.49a5.94,5.94,0,0,1,5.47,0l35.87,20.7a2,2,0,0,1,0,3.7l-32,18.46a5.94,5.94,0,0,1-5.47,0l-16.36-9.44a5.08,5.08,0,0,0-4.53,0l-53.72,31a1.34,1.34,0,0,0-.8,1,1.36,1.36,0,0,0,.8,1l86.41,49.89a5.12,5.12,0,0,0,4.53,0l90.69-52.36c.51-.3.81-.68.8-1a1.34,1.34,0,0,0-.8-1L401,165a5.08,5.08,0,0,0-4.53,0l-52.27,30.18a1.07,1.07,0,0,0,0,2.07l22.87,13.2-.47.82L343.77,198.1a2,2,0,0,1,0-3.7L396,164.23a5.94,5.94,0,0,1,5.47,0l45.09,26a2,2,0,0,1,0,3.7l-90.69,52.36a6,6,0,0,1-5.47,0L264,196.43a2,2,0,0,1,0-3.7l53.72-31a6,6,0,0,1,5.47,0l16.36,9.45a5.08,5.08,0,0,0,4.53,0l32-18.46a1.07,1.07,0,0,0,0-2.07l-35.87-20.71a5.08,5.08,0,0,0-4.53,0L177.21,221.41a1.34,1.34,0,0,0-.8,1,1.36,1.36,0,0,0,.8,1L266,274.75a5.08,5.08,0,0,0,4.53,0L292.68,262l.47.81L271,275.57A5.64,5.64,0,0,1,268.27,276.23Z"/><path class="cls-4" d="M281.16,249.84l-.72-.41-53.74-31a2,2,0,0,1,0-3.7l7.32-4.23a6,6,0,0,1,5.47,0l51.72,29.87a2,2,0,0,1,0,3.7Zm-44.4-39.09a4.62,4.62,0,0,0-2.27.54l-7.32,4.23a1.07,1.07,0,0,0,0,2.07l54,31.17,9.59-5.54a1.07,1.07,0,0,0,0-2.07L239,211.29A4.58,4.58,0,0,0,236.76,210.75Z"/><path class="cls-4" d="M377.27,297.3a5.61,5.61,0,0,1-2.74-.66l-70.25-40.56.47-.81L375,295.83a5.08,5.08,0,0,0,4.53,0l122.23-70.57a1.07,1.07,0,0,0,0-2.07l-14.33-8.28a5.08,5.08,0,0,0-4.53,0L463.73,226a1.07,1.07,0,0,0,0,2.07l6.84,3.95a2,2,0,0,1,0,3.7l-86.58,50a6,6,0,0,1-5.47,0l-5.87-3.39a2,2,0,0,1,0-3.7l77.15-44.55a1.07,1.07,0,0,0,0-2.07l-15.29-8.84a2,2,0,0,1,0-3.7l31.08-17.94.47.81L435,220.26a1.07,1.07,0,0,0,0,2.07l15.3,8.83a2,2,0,0,1,0,3.7l-77.16,44.55a1.07,1.07,0,0,0,0,2.07l5.88,3.4a5.15,5.15,0,0,0,4.53,0l86.58-50a1.36,1.36,0,0,0,.8-1,1.34,1.34,0,0,0-.8-1l-6.84-3.95a2,2,0,0,1,0-3.7l19.17-11.06a5.92,5.92,0,0,1,5.46,0l14.34,8.27a2,2,0,0,1,0,3.7L380,296.64A5.6,5.6,0,0,1,377.27,297.3Z"/><path class="cls-4" d="M368.14,272a6.3,6.3,0,0,1-3.07-.77l-13.5-7.8a2.51,2.51,0,0,1-1.46-2,1.94,1.94,0,0,1,1.1-1.67L412,224.6a6,6,0,0,1,5.48.21l13.51,7.8a2.5,2.5,0,0,1,1.46,2,1.94,1.94,0,0,1-1.1,1.66l-60.84,35.13A4.88,4.88,0,0,1,368.14,272Zm46.31-47a4,4,0,0,0-1.94.43l-60.83,35.13a1.07,1.07,0,0,0-.64.85c0,.41.38.87,1,1.23l13.5,7.79a5.11,5.11,0,0,0,4.54.21l60.84-35.12a1.08,1.08,0,0,0,.63-.85c0-.41-.37-.87-1-1.23l-13.51-7.8A5.41,5.41,0,0,0,414.45,225Z"/><path class="cls-4" d="M339.74,317.49a5.51,5.51,0,0,1-2.74-.67L277.72,282.6l.47-.82L337.47,316a5.08,5.08,0,0,0,4.53,0l23.88-13.78a1.08,1.08,0,0,0,0-2.08l-55.09-31.8a5.08,5.08,0,0,0-4.53,0l-9.44,5.45a1.07,1.07,0,0,0,0,2.07l38.58,22.27-.47.81-38.58-22.27a2,2,0,0,1,0-3.7l9.44-5.45a6,6,0,0,1,5.46,0l55.1,31.81a2,2,0,0,1,0,3.7l-23.88,13.78A5.5,5.5,0,0,1,339.74,317.49Z"/><path class="cls-4" d="M398.19,183.33a6.3,6.3,0,0,1-3.06-.78l-4.23-2.44a2.53,2.53,0,0,1-1.47-2,2,2,0,0,1,1.11-1.67l4.95-2.86a6,6,0,0,1,5.48.21l4.23,2.44a2.54,2.54,0,0,1,1.47,2.05,1.93,1.93,0,0,1-1.11,1.66l-4.95,2.86A4.92,4.92,0,0,1,398.19,183.33Zm-.3-9.41a4,4,0,0,0-1.93.43L391,177.21a1.09,1.09,0,0,0-.64.86c0,.41.37.87,1,1.22l4.23,2.45a5.14,5.14,0,0,0,4.54.21l5-2.86a1.1,1.1,0,0,0,.63-.85c0-.42-.37-.88-1-1.23l-4.24-2.45A5.42,5.42,0,0,0,397.89,173.92Z"/><path class="cls-4" d="M382.7,192.27a6.29,6.29,0,0,1-3.06-.77l-4.24-2.45a2.52,2.52,0,0,1-1.46-2,1.94,1.94,0,0,1,1.1-1.66l5-2.86a6,6,0,0,1,5.48.2l4.23,2.45a2.5,2.5,0,0,1,1.46,2,1.94,1.94,0,0,1-1.1,1.66l-4.95,2.86A4.92,4.92,0,0,1,382.7,192.27Zm-.3-9.41a4,4,0,0,0-1.93.44l-5,2.86a1.08,1.08,0,0,0-.63.85c0,.41.37.87,1,1.23l4.24,2.44a5.11,5.11,0,0,0,4.54.21l5-2.86a1.09,1.09,0,0,0,.64-.85c0-.41-.38-.87-1-1.23L385,183.51A5.35,5.35,0,0,0,382.4,182.86Z"/><path class="cls-4" d="M367.21,201.21a6.26,6.26,0,0,1-3.06-.77L359.91,198a2.51,2.51,0,0,1-1.46-2.05,1.94,1.94,0,0,1,1.1-1.66l5-2.86a6,6,0,0,1,5.48.21l4.23,2.44a2.51,2.51,0,0,1,1.46,2,1.94,1.94,0,0,1-1.1,1.66l-4.95,2.86A4.92,4.92,0,0,1,367.21,201.21Zm-.3-9.4a4,4,0,0,0-1.94.43l-5,2.86a1.08,1.08,0,0,0-.63.85,1.66,1.66,0,0,0,1,1.23l4.23,2.45a5.16,5.16,0,0,0,4.55.21l4.95-2.86a1.08,1.08,0,0,0,.63-.85c0-.42-.37-.88-1-1.23l-4.23-2.45A5.45,5.45,0,0,0,366.91,191.81Z"/><path class="cls-4" d="M413.76,192.32a6.3,6.3,0,0,1-3.06-.78l-4.23-2.44a2.53,2.53,0,0,1-1.47-2,2,2,0,0,1,1.11-1.66l4.95-2.86a6,6,0,0,1,5.48.21l4.23,2.44a2.53,2.53,0,0,1,1.47,2,2,2,0,0,1-1.11,1.66l-4.95,2.86A4.92,4.92,0,0,1,413.76,192.32Zm-.3-9.41a4,4,0,0,0-1.93.43l-4.95,2.86a1.09,1.09,0,0,0-.64.85c0,.42.37.88,1,1.23l4.24,2.45a5.14,5.14,0,0,0,4.54.21l5-2.86a1.09,1.09,0,0,0,.64-.85c0-.42-.37-.88-1-1.24l-4.23-2.44A5.42,5.42,0,0,0,413.46,182.91Z"/><path class="cls-4" d="M382.78,210.2a6.33,6.33,0,0,1-3.07-.77L375.48,207a2.5,2.5,0,0,1-1.46-2,1.94,1.94,0,0,1,1.1-1.66l5-2.86a6,6,0,0,1,5.48.21l4.23,2.44a2.51,2.51,0,0,1,1.46,2,1.94,1.94,0,0,1-1.1,1.67l-4.95,2.86A4.92,4.92,0,0,1,382.78,210.2Zm-.3-9.4a4,4,0,0,0-1.94.43l-5,2.86a1.08,1.08,0,0,0-.63.85c0,.41.37.87,1,1.23l4.23,2.45a5.16,5.16,0,0,0,4.55.2l4.95-2.85a1.08,1.08,0,0,0,.63-.86c0-.41-.37-.87-1-1.23l-4.23-2.44A5.45,5.45,0,0,0,382.48,200.8Z"/></g><ellipse class="cls-5" cx="362.59" cy="235.22" rx="116.67" ry="67.36"/><ellipse class="cls-6" cx="314.57" cy="330.98" rx="54.71" ry="31.59"/><ellipse class="cls-7" cx="266.76" cy="329.71" rx="54.71" ry="31.59"/><ellipse class="cls-8" cx="188.35" cy="187.87" rx="116.67" ry="67.36"/><path class="cls-9" d="M170.7,239.77a12.54,12.54,0,0,1-6.11-1.45L103.45,203c-1.73-1-2.68-2.35-2.68-3.81s1-2.82,2.68-3.82l93.74-54.12a3.65,3.65,0,0,0,2.17-2.95c0-1.09-.77-2.13-2.17-2.95L172.83,121.3l.5-.86,24.36,14.06c1.72,1,2.67,2.35,2.67,3.81s-1,2.82-2.67,3.82L104,196.25c-1.41.81-2.18,1.86-2.18,2.95s.77,2.14,2.18,3l61.14,35.3a12.45,12.45,0,0,0,11.22,0l24-13.86.5.86-24,13.87A12.54,12.54,0,0,1,170.7,239.77Z"/><path class="cls-9" d="M307.34,320.44l-.5-.86,81.53-47.07c1.67-1,2.6-2.23,2.6-3.54s-.92-2.57-2.6-3.54l-34-19.66.5-.86,34,19.65c2,1.16,3.1,2.72,3.1,4.41s-1.1,3.25-3.1,4.41Z"/><path class="cls-9" d="M436.38,243.66a13.72,13.72,0,0,1-6.75-1.61L395.2,222.17l.5-.86,34.43,19.88a13.81,13.81,0,0,0,12.49,0l42.94-24.79c1.57-.91,2.44-2.09,2.44-3.32s-.87-2.41-2.44-3.31L335.44,123.1c-1.89-1.1-2.94-2.58-2.94-4.19s1-3.08,2.94-4.18l24.21-14,.5.87-24.21,14c-1.57.91-2.44,2.08-2.44,3.31s.87,2.41,2.44,3.32L486.06,208.9C488,210,489,211.48,489,213.08s-1.05,3.09-2.94,4.19l-42.94,24.78A13.71,13.71,0,0,1,436.38,243.66Z"/><path class="cls-9" d="M295.56,277a14.56,14.56,0,0,1-7.11-1.63L180.94,213.27c-1.92-1.11-3-2.67-3-4.4,0-2,1.5-4.08,4.12-5.59l105.23-60.76c4.81-2.77,12.12-3.07,16.31-.65l107.5,62.06a5.21,5.21,0,0,1,3,4.4c0,2-1.5,4.09-4.12,5.6L304.76,274.68A18.88,18.88,0,0,1,295.56,277Zm-6.61-2.5c3.9,2.26,10.77,2,15.31-.65l105.22-60.76c2.3-1.33,3.62-3.05,3.62-4.73a4.24,4.24,0,0,0-2.48-3.53l-107.5-62.07c-3.91-2.25-10.78-2-15.31.66L182.58,204.14c-2.3,1.33-3.62,3.05-3.62,4.73a4.23,4.23,0,0,0,2.48,3.53Z"/><path class="cls-10" d="M102.24,234.84a7.77,7.77,0,0,1-3.86-1L25.65,192.26a1.84,1.84,0,0,1,0-3.18L53.12,172.5l.4.66L26,189.74a1.07,1.07,0,0,0,0,1.85l72.73,41.56a7,7,0,0,0,7,0l25.55-14.83.39.67-25.56,14.82A7.74,7.74,0,0,1,102.24,234.84Z"/><g class="cls-3"><path class="cls-9" d="M170.7,241.78a14.48,14.48,0,0,1-7.11-1.73l-61.15-35.3c-2.34-1.35-3.68-3.37-3.68-5.55s1.34-4.2,3.68-5.55l93.74-54.13c.93-.53,1.18-1,1.18-1.21s-.25-.67-1.18-1.21L171.83,123a2.51,2.51,0,1,1,2.51-4.34l24.35,14.06c2.34,1.35,3.68,3.37,3.68,5.55s-1.34,4.21-3.68,5.56L105,198c-.93.53-1.17,1-1.17,1.21s.24.67,1.17,1.21l61.15,35.3a10.47,10.47,0,0,0,9.2,0l24-13.86a2.51,2.51,0,1,1,2.51,4.34l-24,13.86A14.48,14.48,0,0,1,170.7,241.78Z"/><path class="cls-9" d="M307.1,322.52a2.51,2.51,0,0,1-1.26-4.68l81.52-47.07c1-.57,1.6-1.26,1.6-1.8s-.61-1.24-1.6-1.81l-34-19.65a2.51,2.51,0,0,1,2.51-4.34l34,19.65c2.61,1.51,4.11,3.75,4.11,6.15s-1.5,4.64-4.11,6.14l-81.52,47.07A2.5,2.5,0,0,1,307.1,322.52Z"/><path class="cls-9" d="M436.38,245.67a15.71,15.71,0,0,1-7.75-1.88L394.2,223.91a2.5,2.5,0,0,1,2.5-4.34l34.43,19.88a12,12,0,0,0,10.49,0l42.93-24.79c1.06-.61,1.44-1.23,1.44-1.58s-.38-1-1.44-1.58L334.44,124.84c-2.51-1.45-3.94-3.61-3.94-5.92s1.43-4.48,3.94-5.93l24.21-14a2.51,2.51,0,1,1,2.51,4.34l-24.22,14c-1.06.61-1.43,1.23-1.43,1.57s.37,1,1.44,1.58l150.11,86.67c2.51,1.45,3.94,3.61,3.94,5.92s-1.43,4.48-3.94,5.92l-42.94,24.79A15.7,15.7,0,0,1,436.38,245.67Z"/><path class="cls-9" d="M295.58,279a16.55,16.55,0,0,1-8.14-1.91L179.94,215c-2.57-1.49-4-3.67-4-6.14,0-2.78,1.87-5.45,5.13-7.33L286.3,140.79c5.46-3.15,13.5-3.44,18.32-.66l107.5,62.06c2.57,1.49,4,3.67,4,6.14,0,2.78-1.87,5.46-5.12,7.34L305.76,276.42A20.8,20.8,0,0,1,295.58,279ZM290,272.73c3.3,1.91,9.39,1.61,13.3-.65l105.23-60.76c1.93-1.11,2.62-2.3,2.62-3s-.93-1.47-1.48-1.79l-107.5-62.07c-3.3-1.9-9.39-1.6-13.31.66L183.58,205.88c-1.93,1.11-2.61,2.31-2.61,3s.92,1.48,1.48,1.8Z"/></g><path class="cls-11" d="M188.93,230.74a2.24,2.24,0,1,1,3.07.83A2.24,2.24,0,0,1,188.93,230.74Z"/><path class="cls-11" d="M177.29,237.46a2.24,2.24,0,1,1,3.07.83A2.25,2.25,0,0,1,177.29,237.46Z"/><path class="cls-11" d="M164.48,237.67a2.66,2.66,0,0,1,1.33-1.08,2,2,0,0,1,1.42-.11,2.49,2.49,0,0,1,1.45,2.65,2.11,2.11,0,0,1-2.9,1.62,2.38,2.38,0,0,1-1.48-1.35A2,2,0,0,1,164.48,237.67Z"/><path class="cls-11" d="M152.84,231a2.24,2.24,0,1,1,.81,3.08A2.26,2.26,0,0,1,152.84,231Z"/><path class="cls-11" d="M141.2,224.23a2.24,2.24,0,1,1,.82,3.08A2.26,2.26,0,0,1,141.2,224.23Z"/><path class="cls-11" d="M129.57,217.52a2.24,2.24,0,0,1,3.06-.84,2.26,2.26,0,1,1-3.06.84Z"/><path class="cls-11" d="M117.93,210.8a2.24,2.24,0,1,1,.81,3.07A2.25,2.25,0,0,1,117.93,210.8Z"/><path class="cls-11" d="M106.29,204.08a2.24,2.24,0,1,1,.81,3.07A2.25,2.25,0,0,1,106.29,204.08Z"/><path class="cls-11" d="M105.19,195a2.26,2.26,0,0,1-.14,2.48,3.19,3.19,0,0,1-.28.32,1.21,1.21,0,0,1-.24.21,1.64,1.64,0,0,1-1.21.19,4.45,4.45,0,0,1-1.61-.48,1.6,1.6,0,0,1-.85-1.55,2.5,2.5,0,0,1,1.14-1.9,3.84,3.84,0,0,1,.53-.28,2,2,0,0,1,.44-.11,2.28,2.28,0,0,1,2.22,1.12Z"/><path class="cls-11" d="M116.83,188.23a2.24,2.24,0,1,1-3.07-.83A2.25,2.25,0,0,1,116.83,188.23Z"/><path class="cls-11" d="M128.47,181.51a2.24,2.24,0,1,1-3.07-.83A2.26,2.26,0,0,1,128.47,181.51Z"/><path class="cls-11" d="M140.11,174.79A2.24,2.24,0,1,1,137,174,2.26,2.26,0,0,1,140.11,174.79Z"/><path class="cls-11" d="M151.75,168.07a2.24,2.24,0,1,1-3.07-.83A2.26,2.26,0,0,1,151.75,168.07Z"/><path class="cls-11" d="M163.39,161.35a2.26,2.26,0,0,1-.82,3.08,2.26,2.26,0,1,1,.82-3.08Z"/><path class="cls-11" d="M175,154.63a2.24,2.24,0,1,1-3.06-.83A2.25,2.25,0,0,1,175,154.63Z"/><path class="cls-11" d="M186.66,147.92a2.24,2.24,0,1,1-3.07-.84A2.25,2.25,0,0,1,186.66,147.92Z"/><path class="cls-11" d="M198.26,141.13a1.81,1.81,0,0,1,.33,1.72,2.11,2.11,0,0,1-.21.46,2.06,2.06,0,0,1-.23.37,2.22,2.22,0,0,1-.66.59,2.26,2.26,0,0,1-2.26-3.91C196.39,139.72,197.42,140.23,198.26,141.13Z"/><path class="cls-11" d="M192.48,132.07a2.24,2.24,0,1,1,.81,3.07A2.25,2.25,0,0,1,192.48,132.07Z"/><path class="cls-11" d="M180.84,125.35a2.24,2.24,0,1,1,.81,3.07A2.25,2.25,0,0,1,180.84,125.35Z"/><path class="cls-11" d="M407.29,228.58a2.28,2.28,0,1,1-.85-3.1A2.28,2.28,0,0,1,407.29,228.58Z"/><path class="cls-11" d="M419.12,235.41a2.28,2.28,0,1,1-.84-3.09A2.26,2.26,0,0,1,419.12,235.41Z"/><path class="cls-11" d="M431,242.16a1.94,1.94,0,0,1-1.32,1.16,3.16,3.16,0,0,1-1,0,2.45,2.45,0,0,1-.85-.29,2.26,2.26,0,1,1,2.25-3.91,2.2,2.2,0,0,1,.68.6,1.73,1.73,0,0,1,.31.71A2.78,2.78,0,0,1,431,242.16Z"/><path class="cls-11" d="M444.09,240.92a2.25,2.25,0,0,1,.22,1.71,2.46,2.46,0,0,1-.38.78,3,3,0,0,1-.89.66,2.13,2.13,0,0,1-3.09-1.31,2.51,2.51,0,0,1,1.2-2.79,1.5,1.5,0,0,1,.7-.16,2.13,2.13,0,0,1,.87.06A2.24,2.24,0,0,1,444.09,240.92Z"/><path class="cls-11" d="M455.93,234.08a2.28,2.28,0,1,1-3.1-.81A2.28,2.28,0,0,1,455.93,234.08Z"/><path class="cls-11" d="M467.76,227.25a2.28,2.28,0,1,1-3.1-.82A2.26,2.26,0,0,1,467.76,227.25Z"/><path class="cls-11" d="M479.6,220.42a2.28,2.28,0,1,1-3.1-.82A2.27,2.27,0,0,1,479.6,220.42Z"/><path class="cls-11" d="M488.07,211.49a1.56,1.56,0,0,1,1.78.11,2.61,2.61,0,0,1,.79,2.52,2.5,2.5,0,0,1-1.58,2,1.68,1.68,0,0,1-1.72-.43,3.94,3.94,0,0,1-.86-1.45,2.63,2.63,0,0,1-.26-.95c0-.17.26-.31.6-.66A5.11,5.11,0,0,1,488.07,211.49Z"/><path class="cls-11" d="M476.71,204.08a2.28,2.28,0,1,1,.84,3.09A2.26,2.26,0,0,1,476.71,204.08Z"/><path class="cls-11" d="M464.87,197.25a2.28,2.28,0,1,1,.85,3.09A2.27,2.27,0,0,1,464.87,197.25Z"/><path class="cls-11" d="M453,190.41a2.28,2.28,0,1,1,.85,3.1A2.28,2.28,0,0,1,453,190.41Z"/><path class="cls-11" d="M441.2,183.58a2.28,2.28,0,1,1,.84,3.09A2.27,2.27,0,0,1,441.2,183.58Z"/><path class="cls-11" d="M429.36,176.75a2.28,2.28,0,1,1,.85,3.09A2.27,2.27,0,0,1,429.36,176.75Z"/><path class="cls-11" d="M417.53,169.91a2.28,2.28,0,1,1,.84,3.09A2.26,2.26,0,0,1,417.53,169.91Z"/><path class="cls-11" d="M405.69,163.08a2.28,2.28,0,1,1,.85,3.09A2.27,2.27,0,0,1,405.69,163.08Z"/><path class="cls-11" d="M393.85,156.25a2.28,2.28,0,1,1,.85,3.09A2.28,2.28,0,0,1,393.85,156.25Z"/><path class="cls-11" d="M382,149.41a2.28,2.28,0,1,1,.84,3.09A2.26,2.26,0,0,1,382,149.41Z"/><path class="cls-11" d="M370.18,142.58a2.28,2.28,0,1,1,.85,3.09A2.27,2.27,0,0,1,370.18,142.58Z"/><path class="cls-11" d="M358.35,135.74a2.28,2.28,0,1,1,.84,3.1A2.27,2.27,0,0,1,358.35,135.74Z"/><path class="cls-11" d="M346.51,128.91a2.28,2.28,0,1,1,.85,3.09A2.26,2.26,0,0,1,346.51,128.91Z"/><path class="cls-11" d="M334.73,122a3,3,0,0,1,1.42-.94,2,2,0,0,1,1.63.2,2.26,2.26,0,1,1-2.26,3.91,2.58,2.58,0,0,1-1.14-1.45A1.81,1.81,0,0,1,334.73,122Z"/><path class="cls-11" d="M340.18,112.58a2.28,2.28,0,1,1-3.1-.82A2.27,2.27,0,0,1,340.18,112.58Z"/><path class="cls-11" d="M352,105.74a2.28,2.28,0,1,1-3.1-.81A2.25,2.25,0,0,1,352,105.74Z"/><path class="cls-11" d="M366.24,252.08a2.25,2.25,0,1,1-.81-3.08A2.26,2.26,0,0,1,366.24,252.08Z"/><path class="cls-11" d="M377.91,258.81a2.24,2.24,0,1,1-.82-3.08A2.25,2.25,0,0,1,377.91,258.81Z"/><path class="cls-11" d="M389.53,265.61a3,3,0,0,1-1.4,1,1.93,1.93,0,0,1-1.63-.19,2.26,2.26,0,0,1,2.26-3.91,2.47,2.47,0,0,1,1.1,1.43A1.85,1.85,0,0,1,389.53,265.61Z"/><path class="cls-11" d="M384.87,275.11a2.24,2.24,0,1,1,3.07.83A2.25,2.25,0,0,1,384.87,275.11Z"/><path class="cls-11" d="M373.2,281.85a2.25,2.25,0,1,1,3.07.83A2.25,2.25,0,0,1,373.2,281.85Z"/><path class="cls-11" d="M361.53,288.58a2.24,2.24,0,1,1,3.08.83A2.26,2.26,0,0,1,361.53,288.58Z"/><path class="cls-11" d="M349.87,295.32a2.25,2.25,0,1,1,3.07.83A2.25,2.25,0,0,1,349.87,295.32Z"/><path class="cls-11" d="M338.2,302.05a2.24,2.24,0,1,1,3.08.83A2.25,2.25,0,0,1,338.2,302.05Z"/><path class="cls-11" d="M326.54,308.79a2.25,2.25,0,1,1,3.07.83A2.25,2.25,0,0,1,326.54,308.79Z"/><path class="cls-11" d="M314.87,315.52a2.24,2.24,0,1,1,3.07.83A2.24,2.24,0,0,1,314.87,315.52Z"/><path class="cls-12" d="M292.94,194.07l-32.76-18.92c-2.33-1.34-2-3.69.65-5.24l31.46-18.16c2.69-1.56,6.76-1.72,9.09-.38l32.76,18.91c2.33,1.35,2,3.7-.65,5.25L302,193.69C299.34,195.24,295.27,195.41,292.94,194.07Z"/><path class="cls-13" d="M296.84,199.32A9.84,9.84,0,0,1,292,198.2l-38.59-22.28a3.56,3.56,0,0,1-2-3c0-1.4,1-2.8,2.82-3.83l37.05-21.39c3.27-1.89,8.25-2.09,11.09-.45l38.59,22.29a3.56,3.56,0,0,1,2,3c0,1.41-1,2.8-2.82,3.84l-37.05,21.39A12.82,12.82,0,0,1,296.84,199.32Zm-4.45-1.79c2.63,1.52,7.26,1.32,10.31-.44l37.06-21.39c1.54-.89,2.42-2,2.42-3.17a2.83,2.83,0,0,0-1.65-2.34l-38.6-22.29c-2.63-1.51-7.26-1.31-10.31.45l-37.06,21.39c-1.54.89-2.43,2-2.43,3.16a2.86,2.86,0,0,0,1.66,2.35Z"/><path class="cls-14" d="M335.71,88.49H319.46L301.38,78.05c-2.33-1.34-6.4-1.17-9.09.38L274.86,88.49H258.62v47h0a2.65,2.65,0,0,0,1.56,2.44l32.76,18.91c2.33,1.35,6.4,1.18,9.09-.37l31.46-18.16a3.87,3.87,0,0,0,2.21-2.82h0Z"/><path class="cls-15" d="M333.49,137.56,302,155.72c-2.69,1.56-6.76,1.73-9.09.38l-32.76-18.91a2.65,2.65,0,0,1-1.56-2.44h0v.75h0a2.65,2.65,0,0,0,1.56,2.44l32.76,18.91c2.33,1.35,6.4,1.18,9.09-.37l31.46-18.16a3.87,3.87,0,0,0,2.21-2.82h0v-.75h0A3.84,3.84,0,0,1,333.49,137.56Z"/><path class="cls-16" d="M259.65,136.26h0v-47h16.24l17.43-10.07c2.69-1.55,6.76-1.72,9.09-.38l18.09,10.45h15.22v-.76H319.46L301.38,78.05c-2.33-1.34-6.4-1.17-9.09.38L274.86,88.49H258.62v47h0a2.65,2.65,0,0,0,1.56,2.44l.19.1A2.24,2.24,0,0,1,259.65,136.26Z"/><path class="cls-9" d="M334.79,89.37v46.95h0A3,3,0,0,1,334,138a3.54,3.54,0,0,0,1.7-2.49h0V88.6A4.82,4.82,0,0,0,334.79,89.37Z"/><path class="cls-17" d="M292.94,109.84,260.18,90.93c-2.33-1.35-2-3.7.65-5.25l31.46-18.16c2.69-1.55,6.76-1.72,9.09-.38l32.76,18.92c2.33,1.34,2,3.69-.65,5.25L302,109.47C299.34,111,295.27,111.19,292.94,109.84Z"/><path class="cls-9" d="M334.14,86.06,301.38,67.14a8.51,8.51,0,0,0-4.59-.88,7.52,7.52,0,0,1,3.3.88l32.77,18.92c2.32,1.34,2,3.69-.66,5.25l-31.45,18.16a10.47,10.47,0,0,1-4.5,1.26,10.7,10.7,0,0,0,5.78-1.26l31.46-18.16C336.17,89.75,336.47,87.4,334.14,86.06Z"/><path class="cls-18" d="M294,104.39,269.63,90.31c-1.73-1-1.52-2.75.49-3.91l23.41-13.52a7.52,7.52,0,0,1,6.77-.28l24.39,14.08c1.73,1,1.52,2.75-.49,3.91l-23.41,13.52A7.55,7.55,0,0,1,294,104.39Z"/><path class="cls-19" d="M294.89,100l-17.68-10.2c-1.25-.73-1.09-2,.36-2.83l17-9.8a5.42,5.42,0,0,1,4.9-.2l17.68,10.2c1.25.73,1.09,2-.36,2.83l-17,9.8A5.49,5.49,0,0,1,294.89,100Z"/><path class="cls-16" d="M294.41,109.84,261.65,90.93c-2.33-1.35-2-3.7.65-5.25l31.46-18.16a10.3,10.3,0,0,1,4.43-1.26,10.74,10.74,0,0,0-5.9,1.26L260.83,85.68c-2.68,1.55-3,3.9-.65,5.25l32.76,18.91a8.49,8.49,0,0,0,4.66.88A7.39,7.39,0,0,1,294.41,109.84Z"/><g class="cls-20"><path class="cls-21" d="M277.56,88.36l17-9.8a5.48,5.48,0,0,1,4.91-.21l17.67,10.21a1.79,1.79,0,0,1,.62.56,1.32,1.32,0,0,0-.62-1.94L299.44,77a5.48,5.48,0,0,0-4.91.21l-17,9.8c-1.13.65-1.46,1.56-1,2.27A2.65,2.65,0,0,1,277.56,88.36Z"/><path class="cls-22" d="M277.56,90l17-9.8a5.44,5.44,0,0,1,4.91-.2l17.67,10.2a1.92,1.92,0,0,1,.52.44,1.32,1.32,0,0,0-.52-2.1L299.44,78.35a5.48,5.48,0,0,0-4.91.21l-17,9.8c-1.2.69-1.5,1.67-.87,2.4A2.83,2.83,0,0,1,277.56,90Z"/><path class="cls-23" d="M276.86,92.6a3.41,3.41,0,0,1,.7-.55l17-9.8a5.51,5.51,0,0,1,4.91-.2l17.67,10.21a1.57,1.57,0,0,1,.35.25,1.35,1.35,0,0,0-.35-2.29L299.44,80a5.44,5.44,0,0,0-4.91.2l-17,9.8C276.26,90.77,276,91.86,276.86,92.6Z"/></g><path class="cls-19" d="M308.46,144.48l-1.82,1.05c-.47.27-.85,0-.85-.64V119.51a2,2,0,0,1,.85-1.61l1.82-1.05c.46-.27.84,0,.84.64v25.37A2.05,2.05,0,0,1,308.46,144.48Z"/><path class="cls-21" d="M308.46,116.85l-.44.25V142a2,2,0,0,1-.85,1.62l-1.38.8v.46c0,.62.38.91.85.64l1.82-1.05a2.05,2.05,0,0,0,.84-1.62V117.49C309.3,116.87,308.92,116.58,308.46,116.85Z"/><path class="cls-19" d="M315.15,140.61l-1.82,1c-.46.27-.84,0-.84-.64V115.65a2.05,2.05,0,0,1,.84-1.62l1.82-1c.47-.27.85,0,.85.64V139A2,2,0,0,1,315.15,140.61Z"/><path class="cls-19" d="M321.84,136.75,320,137.8c-.47.27-.85,0-.85-.64V111.79a2,2,0,0,1,.85-1.62l1.81-1c.47-.27.85,0,.85.64v25.37A2,2,0,0,1,321.84,136.75Z"/><path class="cls-19" d="M328.54,132.88l-1.82,1.05c-.47.27-.85,0-.85-.64V107.92a2,2,0,0,1,.85-1.62l1.82-1c.47-.27.84,0,.84.64v25.37A2,2,0,0,1,328.54,132.88Z"/><path class="cls-21" d="M315.15,113l-.44.26v24.91a2,2,0,0,1-.84,1.62l-1.38.79V141c0,.62.38.91.84.64l1.82-1A2,2,0,0,0,316,139V113.62C316,113,315.62,112.71,315.15,113Z"/><path class="cls-21" d="M321.84,109.12l-.43.25v24.91a2,2,0,0,1-.85,1.62l-1.38.8v.46c0,.62.38.91.85.64l1.81-1.05a2,2,0,0,0,.85-1.62V109.76C322.69,109.14,322.31,108.85,321.84,109.12Z"/><path class="cls-21" d="M328.54,105.25l-.44.26v24.91a2.05,2.05,0,0,1-.84,1.62l-1.39.79v.46c0,.62.38.91.85.64l1.82-1.05a2,2,0,0,0,.84-1.62V105.89C329.38,105.27,329,105,328.54,105.25Z"/><path class="cls-24" d="M290.24,147.59a1.29,1.29,0,0,1-.67-.2l-23.65-13.66a3.4,3.4,0,0,1-1.47-2.77V104.12a1.45,1.45,0,0,1,.6-1.32,1.15,1.15,0,0,1,1.14.07l23.66,13.66a3.46,3.46,0,0,1,1.47,2.78v26.84a1.42,1.42,0,0,1-.6,1.31A.91.91,0,0,1,290.24,147.59Zm-24.71-44.36a.36.36,0,0,0-.2.06.93.93,0,0,0-.32.83V131a2.92,2.92,0,0,0,1.18,2.29l23.66,13.66a.59.59,0,0,0,.59.07.93.93,0,0,0,.32-.83V119.31a2.9,2.9,0,0,0-1.19-2.29l-23.65-13.66A.76.76,0,0,0,265.53,103.23Z"/><path class="cls-19" d="M269.08,109.38c0,.73-.52,1-1.15.66a2.54,2.54,0,0,1-1.15-2c0-.74.51-1,1.15-.67A2.57,2.57,0,0,1,269.08,109.38Z"/><path class="cls-19" d="M269.08,113.11c0,.74-.52,1-1.15.67a2.54,2.54,0,0,1-1.15-2c0-.73.51-1,1.15-.66A2.56,2.56,0,0,1,269.08,113.11Z"/><path class="cls-19" d="M269.08,116.85c0,.73-.52,1-1.15.66a2.52,2.52,0,0,1-1.15-2c0-.74.51-1,1.15-.67A2.57,2.57,0,0,1,269.08,116.85Z"/><path class="cls-21" d="M268.5,117.06a2.57,2.57,0,0,1-1.15-2,1.36,1.36,0,0,1,.06-.36c-.38,0-.63.3-.63.82a2.52,2.52,0,0,0,1.15,2c.51.3.95.16,1.09-.3A1,1,0,0,1,268.5,117.06Z"/><path class="cls-21" d="M268.5,113.32a2.56,2.56,0,0,1-1.15-2,1.36,1.36,0,0,1,.06-.37c-.38,0-.63.3-.63.82a2.54,2.54,0,0,0,1.15,2c.51.29.95.15,1.09-.31A1,1,0,0,1,268.5,113.32Z"/><path class="cls-21" d="M268.5,109.58a2.56,2.56,0,0,1-1.15-2,1.23,1.23,0,0,1,.06-.36c-.38,0-.63.29-.63.81a2.54,2.54,0,0,0,1.15,2c.51.3.95.15,1.09-.31A1,1,0,0,1,268.5,109.58Z"/><path class="cls-24" d="M288.11,134.19l-.76-.44a1,1,0,0,1-.43-.82v-3.66c0-.32.19-.46.43-.33l.76.44a1,1,0,0,1,.43.82v3.66C288.54,134.18,288.35,134.33,288.11,134.19Z"/><path class="cls-25" d="M318,0H276.4V88.59h0a1.44,1.44,0,0,0,.85,1.22L294.9,100a5.48,5.48,0,0,0,4.9-.2L316.75,90A2.09,2.09,0,0,0,318,88.5h0Z"/><path class="cls-26" d="M316,8.45H278.37V88.62h0a1.33,1.33,0,0,0,.77,1.1l16,9.23a4.93,4.93,0,0,0,4.43-.19l15.34-8.85A1.86,1.86,0,0,0,316,88.55h0Z"/><path class="cls-19" d="M288.86,81.17a1.55,1.55,0,1,1-1.54-1.55A1.54,1.54,0,0,1,288.86,81.17Z"/><circle class="cls-19" cx="298.98" cy="70.79" r="2.64"/><path class="cls-19" d="M296.41,69.11a.68.68,0,1,1-.68-.68A.68.68,0,0,1,296.41,69.11Z"/><circle class="cls-19" cx="307.27" cy="55.84" r="1.32"/><circle class="cls-19" cx="300.3" cy="44.62" r="0.93"/><path class="cls-19" d="M290.56,37.47a1.7,1.7,0,1,1-1.7-1.7A1.7,1.7,0,0,1,290.56,37.47Z"/><circle class="cls-19" cx="293.83" cy="23.3" r="0.94"/><circle class="cls-19" cx="300.96" cy="29.59" r="1.11"/><path class="cls-19" d="M302.9,27.27a.54.54,0,0,1-.54.53.54.54,0,1,1,.54-.53Z"/><path class="cls-19" d="M309.88,15.71a1.56,1.56,0,1,1-1.55-1.55A1.56,1.56,0,0,1,309.88,15.71Z"/><path class="cls-27" d="M236.14,229.35l-32.76-18.91c-2.33-1.35-2-3.7.65-5.25L235.49,187c2.69-1.55,6.76-1.72,9.09-.38l32.76,18.92c2.33,1.34,2,3.69-.66,5.24L245.23,229C242.54,230.53,238.47,230.7,236.14,229.35Z"/><path class="cls-28" d="M240,234.6a10,10,0,0,1-4.84-1.11L196.61,211.2a3.56,3.56,0,0,1-2.05-3c0-1.41,1-2.8,2.81-3.84L234.43,183c3.27-1.89,8.24-2.09,11.09-.44l38.59,22.28a3.56,3.56,0,0,1,2.05,3c0,1.4-1,2.8-2.82,3.83l-37,21.39A12.85,12.85,0,0,1,240,234.6Zm-4.46-1.78c2.64,1.51,7.26,1.32,10.32-.45L283,211c1.54-.89,2.42-2,2.42-3.16a2.84,2.84,0,0,0-1.66-2.35l-38.59-22.28c-2.63-1.52-7.26-1.32-10.32.44L197.76,205c-1.54.9-2.43,2-2.43,3.17a2.82,2.82,0,0,0,1.66,2.34Z"/><path class="cls-29" d="M278.91,123.78H262.66l-18.08-10.45c-2.33-1.34-6.4-1.17-9.09.38l-17.44,10.07H201.82v47h0a2.61,2.61,0,0,0,1.56,2.43l32.76,18.92c2.33,1.34,6.4,1.17,9.09-.38l31.45-18.16a3.87,3.87,0,0,0,2.22-2.81h0Z"/><path class="cls-30" d="M276.68,172.85,245.23,191c-2.69,1.55-6.76,1.72-9.09.37l-32.76-18.91a2.63,2.63,0,0,1-1.56-2.44h0v.76h0a2.61,2.61,0,0,0,1.56,2.43l32.76,18.92c2.33,1.34,6.4,1.17,9.09-.38l31.45-18.16a3.87,3.87,0,0,0,2.22-2.81h0V170h0A3.86,3.86,0,0,1,276.68,172.85Z"/><path class="cls-16" d="M202.85,171.54h0v-47h16.24l17.43-10.07c2.69-1.55,6.76-1.72,9.09-.37l18.09,10.44h15.22v-.75H262.66l-18.08-10.45c-2.33-1.34-6.4-1.17-9.09.38l-17.44,10.07H201.82v47h0a2.61,2.61,0,0,0,1.56,2.43l.19.11A2.27,2.27,0,0,1,202.85,171.54Z"/><path class="cls-9" d="M278,124.65v47h0a2.86,2.86,0,0,1-.77,1.66,3.57,3.57,0,0,0,1.7-2.48h0v-46.9A4.49,4.49,0,0,0,278,124.65Z"/><path class="cls-31" d="M236.14,145.13l-32.76-18.92c-2.33-1.34-2-3.69.65-5.25l31.46-18.16c2.69-1.55,6.76-1.72,9.09-.37l32.76,18.91c2.33,1.35,2,3.7-.66,5.25l-31.45,18.16C242.54,146.3,238.47,146.47,236.14,145.13Z"/><path class="cls-9" d="M277.34,121.34l-32.76-18.91a8.42,8.42,0,0,0-4.59-.89,7.67,7.67,0,0,1,3.3.89l32.76,18.91c2.33,1.35,2,3.7-.65,5.25L244,144.75a10.37,10.37,0,0,1-4.5,1.26,10.7,10.7,0,0,0,5.78-1.26l31.45-18.16C279.37,125,279.67,122.69,277.34,121.34Z"/><path class="cls-32" d="M237.22,139.67l-24.39-14.08c-1.74-1-1.52-2.75.48-3.91l23.42-13.52a7.55,7.55,0,0,1,6.77-.28L267.89,122c1.73,1,1.52,2.75-.49,3.91L244,139.39A7.5,7.5,0,0,1,237.22,139.67Z"/><path class="cls-19" d="M238.08,135.29l-17.67-10.2c-1.25-.73-1.1-2,.36-2.83l17-9.8a5.49,5.49,0,0,1,4.9-.2l17.67,10.2c1.26.73,1.1,2-.35,2.83l-17,9.8A5.44,5.44,0,0,1,238.08,135.29Z"/><path class="cls-16" d="M237.61,145.13l-32.76-18.92c-2.33-1.34-2-3.69.65-5.25L237,102.8a10.39,10.39,0,0,1,4.43-1.25,10.65,10.65,0,0,0-5.9,1.25L204,121c-2.69,1.56-3,3.91-.65,5.25l32.76,18.92a8.58,8.58,0,0,0,4.66.88A7.63,7.63,0,0,1,237.61,145.13Z"/><g class="cls-33"><path class="cls-21" d="M220.76,123.64l17-9.8a5.42,5.42,0,0,1,4.9-.2l17.68,10.2a1.79,1.79,0,0,1,.62.56,1.32,1.32,0,0,0-.62-1.94l-17.68-10.2a5.42,5.42,0,0,0-4.9.2l-17,9.8c-1.13.65-1.47,1.56-1,2.27A2.57,2.57,0,0,1,220.76,123.64Z"/><path class="cls-22" d="M220.76,125.3l17-9.79a5.46,5.46,0,0,1,4.9-.21l17.68,10.21a2.06,2.06,0,0,1,.52.43,1.32,1.32,0,0,0-.52-2.1l-17.68-10.2a5.42,5.42,0,0,0-4.9.2l-17,9.8c-1.2.69-1.5,1.67-.87,2.4A3.13,3.13,0,0,1,220.76,125.3Z"/><path class="cls-23" d="M220.06,127.88a3.08,3.08,0,0,1,.7-.54l17-9.8a5.46,5.46,0,0,1,4.9-.21l17.68,10.21a2.41,2.41,0,0,1,.35.25,1.34,1.34,0,0,0-.35-2.28L242.63,115.3a5.46,5.46,0,0,0-4.9.21l-17,9.79C219.46,126.05,219.21,127.14,220.06,127.88Z"/></g><path class="cls-19" d="M251.65,179.76l-1.81,1.05c-.47.27-.85,0-.85-.64V154.8a2,2,0,0,1,.85-1.62l1.81-1.05c.47-.27.85,0,.85.64v25.37A2,2,0,0,1,251.65,179.76Z"/><path class="cls-21" d="M251.65,152.13l-.43.25V177.3a2,2,0,0,1-.85,1.61l-1.38.8v.46c0,.62.38.91.85.64l1.81-1.05a2,2,0,0,0,.85-1.62V152.77C252.5,152.15,252.12,151.86,251.65,152.13Z"/><path class="cls-19" d="M258.35,175.9l-1.82,1c-.47.27-.84,0-.84-.64V150.93a2,2,0,0,1,.84-1.61l1.82-1c.47-.27.85,0,.85.64v25.37A2,2,0,0,1,258.35,175.9Z"/><path class="cls-19" d="M265,172l-1.81,1.05c-.47.27-.85,0-.85-.64V147.07a2,2,0,0,1,.85-1.62l1.81-1c.47-.27.85,0,.85.64v25.37A2,2,0,0,1,265,172Z"/><path class="cls-19" d="M271.74,168.17l-1.82,1c-.47.27-.85,0-.85-.64V143.2a2,2,0,0,1,.85-1.61l1.82-1.05c.46-.27.84,0,.84.64v25.37A2.05,2.05,0,0,1,271.74,168.17Z"/><path class="cls-21" d="M258.35,148.27l-.44.25v24.91a2.05,2.05,0,0,1-.84,1.62l-1.38.8v.45c0,.63.37.91.84.64l1.82-1a2,2,0,0,0,.85-1.62V148.91C259.2,148.28,258.82,148,258.35,148.27Z"/><path class="cls-21" d="M265,144.4l-.43.25v24.92a2,2,0,0,1-.85,1.61l-1.38.8v.46c0,.62.38.91.85.64L265,172a2,2,0,0,0,.85-1.62V145C265.89,144.42,265.51,144.13,265,144.4Z"/><path class="cls-21" d="M271.74,140.54l-.44.25V165.7a2,2,0,0,1-.85,1.62l-1.38.8v.45c0,.63.38.91.85.64l1.82-1a2.05,2.05,0,0,0,.84-1.62V141.18C272.58,140.55,272.2,140.27,271.74,140.54Z"/><path class="cls-24" d="M233.44,182.87a1.37,1.37,0,0,1-.67-.19L209.11,169a3.44,3.44,0,0,1-1.46-2.77V139.4a1.43,1.43,0,0,1,.6-1.31,1.1,1.1,0,0,1,1.14.07l23.66,13.66a3.42,3.42,0,0,1,1.46,2.77v26.85a1.44,1.44,0,0,1-.59,1.31A1,1,0,0,1,233.44,182.87Zm-.39-.68a.6.6,0,0,0,.59.08,1,1,0,0,0,.32-.83V154.59a2.9,2.9,0,0,0-1.19-2.29l-23.66-13.66a.62.62,0,0,0-.59-.07,1,1,0,0,0-.31.83v26.85a2.9,2.9,0,0,0,1.18,2.28Z"/><path class="cls-19" d="M212.28,144.66c0,.73-.52,1-1.15.67a2.56,2.56,0,0,1-1.16-2c0-.73.52-1,1.16-.66A2.55,2.55,0,0,1,212.28,144.66Z"/><path class="cls-19" d="M212.28,148.4c0,.73-.52,1-1.15.66a2.55,2.55,0,0,1-1.16-2c0-.74.52-1,1.16-.67A2.57,2.57,0,0,1,212.28,148.4Z"/><path class="cls-19" d="M212.28,152.13c0,.74-.52,1-1.15.67a2.55,2.55,0,0,1-1.16-2c0-.73.52-1,1.16-.66A2.55,2.55,0,0,1,212.28,152.13Z"/><path class="cls-21" d="M211.7,152.34a2.56,2.56,0,0,1-1.15-2,1,1,0,0,1,.06-.36c-.38,0-.64.29-.64.81a2.55,2.55,0,0,0,1.16,2c.51.29.94.15,1.09-.31A1,1,0,0,1,211.7,152.34Z"/><path class="cls-21" d="M211.7,148.6a2.55,2.55,0,0,1-1.15-2,1,1,0,0,1,.06-.36c-.38,0-.64.3-.64.81a2.55,2.55,0,0,0,1.16,2c.51.3.94.15,1.09-.31A.93.93,0,0,1,211.7,148.6Z"/><path class="cls-21" d="M211.7,144.87a2.58,2.58,0,0,1-1.15-2,1,1,0,0,1,.06-.36c-.38,0-.64.3-.64.82a2.55,2.55,0,0,0,1.16,2c.51.3.94.15,1.09-.3A1.12,1.12,0,0,1,211.7,144.87Z"/><path class="cls-24" d="M231.31,169.47l-.76-.44a1,1,0,0,1-.43-.82v-3.66c0-.32.19-.46.43-.32l.76.44a1,1,0,0,1,.43.82v3.66C231.74,169.46,231.54,169.61,231.31,169.47Z"/><path class="cls-34" d="M261.15,35.28H219.6v88.59h0a1.47,1.47,0,0,0,.84,1.22l17.66,10.19a5.42,5.42,0,0,0,4.9-.2L260,125.3a2.09,2.09,0,0,0,1.2-1.51h0Z"/><path class="cls-35" d="M259.18,43.73H221.57v80.18h0a1.32,1.32,0,0,0,.77,1.11l16,9.22a4.9,4.9,0,0,0,4.43-.18l15.34-8.86a1.87,1.87,0,0,0,1.08-1.37h0Z"/><circle class="cls-19" cx="230.52" cy="116.45" r="1.55"/><circle class="cls-19" cx="242.18" cy="106.07" r="2.64"/><circle class="cls-19" cx="238.93" cy="104.39" r="0.68"/><circle class="cls-19" cx="250.46" cy="91.12" r="1.32"/><circle class="cls-19" cx="243.5" cy="79.9" r="0.93"/><circle class="cls-19" cx="232.06" cy="72.75" r="1.69"/><path class="cls-19" d="M238,58.59a.94.94,0,1,1-.94-1A.94.94,0,0,1,238,58.59Z"/><path class="cls-19" d="M245.27,64.87a1.11,1.11,0,1,1-1.11-1.11A1.11,1.11,0,0,1,245.27,64.87Z"/><path class="cls-19" d="M246.1,62.55a.54.54,0,1,1-.54-.54A.54.54,0,0,1,246.1,62.55Z"/><path class="cls-19" d="M253.08,51a1.56,1.56,0,1,1-1.56-1.56A1.56,1.56,0,0,1,253.08,51Z"/><path class="cls-27" d="M348.74,229,316,210.07c-2.33-1.34-2-3.69.65-5.24l31.46-18.16c2.69-1.56,6.76-1.72,9.09-.38l32.76,18.91c2.33,1.35,2,3.7-.66,5.25l-31.45,18.16C355.14,230.16,351.07,230.33,348.74,229Z"/><path class="cls-36" d="M352.64,234.24a9.84,9.84,0,0,1-4.84-1.12l-38.59-22.28a3.56,3.56,0,0,1-2-3c0-1.4,1-2.8,2.82-3.83l37-21.39c3.27-1.89,8.24-2.09,11.09-.45l38.59,22.29a3.56,3.56,0,0,1,2.05,3c0,1.4-1,2.79-2.82,3.83l-37.05,21.39A12.82,12.82,0,0,1,352.64,234.24Zm-4.45-1.79c2.63,1.52,7.26,1.32,10.31-.44l37.06-21.39c1.54-.89,2.42-2.05,2.42-3.16a2.81,2.81,0,0,0-1.65-2.35l-38.6-22.29c-2.63-1.51-7.26-1.31-10.31.45l-37.06,21.39c-1.54.89-2.43,2-2.43,3.16a2.84,2.84,0,0,0,1.66,2.35Z"/><path class="cls-37" d="M391.51,123.41H375.26L357.18,113c-2.33-1.34-6.4-1.17-9.09.38l-17.43,10.06H314.42v47h0a2.65,2.65,0,0,0,1.56,2.44l32.76,18.91c2.33,1.35,6.4,1.18,9.09-.37l31.45-18.16a3.86,3.86,0,0,0,2.22-2.82h0Z"/><path class="cls-38" d="M389.28,172.48l-31.45,18.16c-2.69,1.56-6.76,1.73-9.09.38L316,172.11a2.65,2.65,0,0,1-1.56-2.44h0v.75h0a2.65,2.65,0,0,0,1.56,2.44l32.76,18.91c2.33,1.35,6.4,1.18,9.09-.37l31.45-18.16a3.86,3.86,0,0,0,2.22-2.82h0v-.75h0A3.83,3.83,0,0,1,389.28,172.48Z"/><path class="cls-16" d="M315.45,171.18h0v-47h16.24l17.43-10.07c2.69-1.55,6.76-1.72,9.09-.38l18.09,10.45h15.22v-.76H375.26L357.18,113c-2.33-1.34-6.4-1.17-9.09.38l-17.43,10.06H314.42v47h0a2.65,2.65,0,0,0,1.56,2.44l.19.1A2.24,2.24,0,0,1,315.45,171.18Z"/><path class="cls-9" d="M390.59,124.29v47h0a2.89,2.89,0,0,1-.77,1.67,3.54,3.54,0,0,0,1.7-2.49h0v-46.9A4.82,4.82,0,0,0,390.59,124.29Z"/><path class="cls-39" d="M348.74,144.76,316,125.85c-2.33-1.35-2-3.7.65-5.25l31.46-18.16c2.69-1.55,6.76-1.72,9.09-.38L389.94,121c2.33,1.34,2,3.69-.66,5.25l-31.45,18.16C355.14,145.94,351.07,146.11,348.74,144.76Z"/><path class="cls-9" d="M389.94,121l-32.76-18.92a8.51,8.51,0,0,0-4.59-.88,7.52,7.52,0,0,1,3.3.88L388.66,121c2.32,1.34,2,3.69-.66,5.25l-31.45,18.16a10.51,10.51,0,0,1-4.5,1.26,10.7,10.7,0,0,0,5.78-1.26l31.45-18.16C392,124.67,392.27,122.32,389.94,121Z"/><path class="cls-40" d="M349.82,139.31l-24.39-14.08c-1.73-1-1.52-2.75.49-3.91l23.41-13.52a7.52,7.52,0,0,1,6.77-.28l24.39,14.08c1.73,1,1.52,2.75-.49,3.91L356.59,139A7.55,7.55,0,0,1,349.82,139.31Z"/><path class="cls-19" d="M350.68,134.93,333,124.73c-1.25-.73-1.09-2,.36-2.83l17-9.8a5.42,5.42,0,0,1,4.9-.2l17.67,10.2c1.26.73,1.1,2-.35,2.83l-17,9.8A5.51,5.51,0,0,1,350.68,134.93Z"/><path class="cls-16" d="M350.21,144.76l-32.76-18.91c-2.33-1.35-2-3.7.65-5.25l31.46-18.16a10.3,10.3,0,0,1,4.43-1.26,10.74,10.74,0,0,0-5.9,1.26L316.63,120.6c-2.69,1.55-3,3.9-.65,5.25l32.76,18.91a8.49,8.49,0,0,0,4.66.88A7.39,7.39,0,0,1,350.21,144.76Z"/><g class="cls-41"><path class="cls-21" d="M333.36,123.28l17-9.8a5.46,5.46,0,0,1,4.9-.21l17.68,10.21a1.79,1.79,0,0,1,.62.56,1.32,1.32,0,0,0-.62-1.94l-17.68-10.21a5.46,5.46,0,0,0-4.9.21l-17,9.8c-1.13.65-1.47,1.56-1,2.27A2.65,2.65,0,0,1,333.36,123.28Z"/><path class="cls-22" d="M333.36,124.94l17-9.8a5.42,5.42,0,0,1,4.9-.2l17.68,10.2a1.92,1.92,0,0,1,.52.44,1.32,1.32,0,0,0-.52-2.1l-17.68-10.21a5.46,5.46,0,0,0-4.9.21l-17,9.8c-1.2.69-1.5,1.66-.87,2.4A2.83,2.83,0,0,1,333.36,124.94Z"/><path class="cls-23" d="M332.66,127.52a3.41,3.41,0,0,1,.7-.55l17-9.8a5.49,5.49,0,0,1,4.9-.2l17.68,10.21a1.57,1.57,0,0,1,.35.25,1.35,1.35,0,0,0-.35-2.29l-17.68-10.2a5.42,5.42,0,0,0-4.9.2l-17,9.8C332.06,125.69,331.81,126.78,332.66,127.52Z"/></g><path class="cls-19" d="M364.26,179.4l-1.82,1c-.47.27-.85,0-.85-.64V154.43a2,2,0,0,1,.85-1.61l1.82-1c.46-.27.84,0,.84.64v25.37A2.05,2.05,0,0,1,364.26,179.4Z"/><path class="cls-21" d="M364.26,151.77l-.44.25v24.91a2,2,0,0,1-.85,1.62l-1.38.8v.46c0,.62.38.91.85.64l1.82-1a2.05,2.05,0,0,0,.84-1.62V152.41C365.1,151.79,364.72,151.5,364.26,151.77Z"/><path class="cls-19" d="M371,175.53l-1.82,1.05c-.46.27-.84,0-.84-.64V150.57a2.05,2.05,0,0,1,.84-1.62l1.82-1c.47-.27.85,0,.85.64v25.37A2,2,0,0,1,371,175.53Z"/><path class="cls-19" d="M377.64,171.67l-1.81,1.05c-.47.27-.85,0-.85-.64V146.71a2,2,0,0,1,.85-1.62l1.81-1.05c.47-.27.85,0,.85.64v25.37A2,2,0,0,1,377.64,171.67Z"/><path class="cls-19" d="M384.34,167.8l-1.82,1c-.47.27-.85,0-.85-.64V142.84a2,2,0,0,1,.85-1.62l1.82-1.05c.46-.27.84,0,.84.64v25.37A2,2,0,0,1,384.34,167.8Z"/><path class="cls-21" d="M371,147.9l-.44.26v24.91a2,2,0,0,1-.84,1.62l-1.38.79v.46c0,.62.38.91.84.64l1.82-1.05a2,2,0,0,0,.85-1.62V148.54C371.8,147.92,371.42,147.63,371,147.9Z"/><path class="cls-21" d="M377.64,144l-.43.25V169.2a2,2,0,0,1-.85,1.62l-1.38.8v.46c0,.62.38.91.85.64l1.81-1.05a2,2,0,0,0,.85-1.62V144.68C378.49,144.06,378.11,143.77,377.64,144Z"/><path class="cls-21" d="M384.34,140.17l-.44.26v24.91a2.05,2.05,0,0,1-.84,1.62l-1.39.79v.46c0,.62.38.91.85.64l1.82-1a2,2,0,0,0,.84-1.62V140.81C385.18,140.19,384.8,139.9,384.34,140.17Z"/><path class="cls-24" d="M346,182.51a1.39,1.39,0,0,1-.67-.2l-23.66-13.66a3.42,3.42,0,0,1-1.46-2.77V139a1.45,1.45,0,0,1,.6-1.32,1.15,1.15,0,0,1,1.14.07l23.66,13.66a3.46,3.46,0,0,1,1.47,2.78v26.84a1.43,1.43,0,0,1-.6,1.31A.91.91,0,0,1,346,182.51Zm-24.71-44.36a.36.36,0,0,0-.2.06.93.93,0,0,0-.32.83v26.84a2.92,2.92,0,0,0,1.18,2.29l23.66,13.66a.62.62,0,0,0,.59.07.93.93,0,0,0,.32-.83V154.23a2.9,2.9,0,0,0-1.19-2.29l-23.66-13.66A.69.69,0,0,0,321.33,138.15Z"/><path class="cls-19" d="M324.88,144.3c0,.73-.52,1-1.15.66a2.54,2.54,0,0,1-1.15-2c0-.74.51-1,1.15-.67A2.57,2.57,0,0,1,324.88,144.3Z"/><path class="cls-19" d="M324.88,148c0,.74-.52,1-1.15.67a2.54,2.54,0,0,1-1.15-2c0-.73.51-1,1.15-.66A2.56,2.56,0,0,1,324.88,148Z"/><path class="cls-19" d="M324.88,151.77c0,.73-.52,1-1.15.66a2.52,2.52,0,0,1-1.15-2c0-.74.51-1,1.15-.67A2.57,2.57,0,0,1,324.88,151.77Z"/><path class="cls-21" d="M324.3,152a2.57,2.57,0,0,1-1.15-2,1.36,1.36,0,0,1,.06-.36c-.38,0-.63.3-.63.82a2.52,2.52,0,0,0,1.15,2c.51.3.95.16,1.09-.3A1,1,0,0,1,324.3,152Z"/><path class="cls-21" d="M324.3,148.24a2.56,2.56,0,0,1-1.15-2,1.36,1.36,0,0,1,.06-.37c-.38,0-.63.3-.63.82a2.55,2.55,0,0,0,1.15,2c.51.29.95.15,1.09-.31A1,1,0,0,1,324.3,148.24Z"/><path class="cls-21" d="M324.3,144.5a2.56,2.56,0,0,1-1.15-2,1.23,1.23,0,0,1,.06-.36c-.38,0-.63.29-.63.81a2.54,2.54,0,0,0,1.15,2c.51.3.95.15,1.09-.31A1,1,0,0,1,324.3,144.5Z"/><path class="cls-24" d="M343.91,169.11l-.76-.44a1,1,0,0,1-.43-.82v-3.66c0-.32.19-.46.43-.33l.76.44a1,1,0,0,1,.43.82v3.66C344.34,169.1,344.15,169.25,343.91,169.11Z"/><path class="cls-42" d="M373.75,34.92H332.2v88.59h0a1.44,1.44,0,0,0,.84,1.22l17.66,10.2a5.48,5.48,0,0,0,4.9-.2l16.95-9.79a2.09,2.09,0,0,0,1.2-1.52h0Z"/><path class="cls-43" d="M371.78,43.37H334.17v80.17h0a1.33,1.33,0,0,0,.77,1.1l16,9.23a4.93,4.93,0,0,0,4.43-.19l15.34-8.85a1.88,1.88,0,0,0,1.08-1.37h0Z"/><path class="cls-19" d="M344.66,116.09a1.55,1.55,0,1,1-1.54-1.55A1.54,1.54,0,0,1,344.66,116.09Z"/><circle class="cls-19" cx="354.78" cy="105.71" r="2.64"/><path class="cls-19" d="M352.21,104a.68.68,0,1,1-.68-.68A.68.68,0,0,1,352.21,104Z"/><circle class="cls-19" cx="363.07" cy="90.76" r="1.32"/><circle class="cls-19" cx="356.1" cy="79.54" r="0.93"/><path class="cls-19" d="M346.36,72.39a1.7,1.7,0,1,1-1.7-1.7A1.7,1.7,0,0,1,346.36,72.39Z"/><path class="cls-19" d="M350.57,58.22a.94.94,0,1,1-.94-.94A.95.95,0,0,1,350.57,58.22Z"/><circle class="cls-19" cx="356.76" cy="64.51" r="1.11"/><path class="cls-19" d="M358.7,62.19a.54.54,0,1,1-.54-.54A.54.54,0,0,1,358.7,62.19Z"/><path class="cls-19" d="M365.68,50.63a1.56,1.56,0,1,1-1.56-1.55A1.56,1.56,0,0,1,365.68,50.63Z"/><path class="cls-27" d="M291.94,264.27l-32.76-18.91c-2.33-1.35-2-3.7.65-5.25L291.29,222c2.69-1.55,6.76-1.72,9.09-.38l32.76,18.92c2.33,1.34,2,3.69-.66,5.24L301,263.89C298.34,265.45,294.27,265.62,291.94,264.27Z"/><path class="cls-44" d="M295.84,269.52a10,10,0,0,1-4.84-1.11l-38.59-22.29a3.56,3.56,0,0,1-2-3c0-1.41,1-2.8,2.81-3.84l37.06-21.39c3.27-1.89,8.24-2.08,11.09-.44l38.59,22.28a3.56,3.56,0,0,1,2,3c0,1.4-1,2.8-2.82,3.83L302.09,268A12.85,12.85,0,0,1,295.84,269.52Zm-4.46-1.78c2.64,1.52,7.26,1.32,10.32-.45l37.06-21.39c1.54-.89,2.42-2,2.42-3.16a2.84,2.84,0,0,0-1.66-2.35l-38.59-22.28c-2.63-1.52-7.26-1.32-10.32.44l-37.05,21.39c-1.54.9-2.43,2.05-2.43,3.17a2.82,2.82,0,0,0,1.66,2.34Z"/><path class="cls-45" d="M334.71,158.7H318.46l-18.08-10.45c-2.33-1.34-6.4-1.17-9.09.38L273.85,158.7H257.61v47h0a2.61,2.61,0,0,0,1.56,2.43l32.76,18.92c2.33,1.34,6.4,1.17,9.09-.38l31.45-18.16a3.89,3.89,0,0,0,2.22-2.81h0Z"/><path class="cls-46" d="M332.48,207.77,301,225.93c-2.69,1.55-6.76,1.72-9.09.37l-32.76-18.91a2.63,2.63,0,0,1-1.56-2.44h0v.76h0a2.61,2.61,0,0,0,1.56,2.43l32.76,18.92c2.33,1.34,6.4,1.17,9.09-.38l31.45-18.16a3.89,3.89,0,0,0,2.22-2.81h0V205h0A3.89,3.89,0,0,1,332.48,207.77Z"/><path class="cls-16" d="M258.65,206.46h0v-47h16.24l17.43-10.07c2.69-1.55,6.76-1.72,9.09-.37l18.09,10.44h15.22v-.75H318.46l-18.08-10.45c-2.33-1.34-6.4-1.17-9.09.38L273.85,158.7H257.61v47h0a2.61,2.61,0,0,0,1.56,2.43l.18.11A2.3,2.3,0,0,1,258.65,206.46Z"/><path class="cls-9" d="M333.79,159.57v47h0a2.86,2.86,0,0,1-.77,1.66,3.57,3.57,0,0,0,1.7-2.48h0v-46.9A4.49,4.49,0,0,0,333.79,159.57Z"/><path class="cls-47" d="M291.94,180.05l-32.76-18.92c-2.33-1.34-2-3.69.65-5.25l31.46-18.16c2.69-1.55,6.76-1.72,9.09-.37l32.76,18.91c2.33,1.35,2,3.7-.66,5.25L301,179.67C298.34,181.22,294.27,181.39,291.94,180.05Z"/><path class="cls-9" d="M333.14,156.26l-32.76-18.91a8.42,8.42,0,0,0-4.59-.89,7.67,7.67,0,0,1,3.3.89l32.76,18.91c2.33,1.35,2,3.7-.65,5.25l-31.45,18.16a10.37,10.37,0,0,1-4.5,1.26,10.7,10.7,0,0,0,5.78-1.26l31.45-18.16C335.17,160,335.47,157.61,333.14,156.26Z"/><path class="cls-48" d="M293,174.59l-24.39-14.08c-1.74-1-1.52-2.75.48-3.91l23.42-13.52a7.55,7.55,0,0,1,6.77-.28l24.39,14.08c1.73,1,1.51,2.75-.49,3.91l-23.42,13.52A7.5,7.5,0,0,1,293,174.59Z"/><path class="cls-19" d="M293.88,170.21,276.21,160c-1.25-.73-1.1-2,.35-2.83l17-9.8a5.49,5.49,0,0,1,4.9-.2l17.67,10.2c1.26.73,1.1,2-.35,2.83l-17,9.8A5.44,5.44,0,0,1,293.88,170.21Z"/><path class="cls-16" d="M293.41,180.05l-32.76-18.92c-2.33-1.34-2-3.69.65-5.25l31.46-18.16a10.39,10.39,0,0,1,4.43-1.25,10.65,10.65,0,0,0-5.9,1.25l-31.46,18.16c-2.69,1.56-3,3.91-.65,5.25l32.76,18.92a8.56,8.56,0,0,0,4.66.88A7.63,7.63,0,0,1,293.41,180.05Z"/><g class="cls-49"><path class="cls-21" d="M276.56,158.56l17-9.8a5.42,5.42,0,0,1,4.9-.2l17.68,10.2a1.79,1.79,0,0,1,.62.56,1.32,1.32,0,0,0-.62-1.94l-17.68-10.2a5.42,5.42,0,0,0-4.9.2l-17,9.8c-1.13.65-1.47,1.56-1,2.27A2.57,2.57,0,0,1,276.56,158.56Z"/><path class="cls-22" d="M276.56,160.22l17-9.79a5.46,5.46,0,0,1,4.9-.21l17.68,10.21a2.06,2.06,0,0,1,.52.43,1.32,1.32,0,0,0-.52-2.1l-17.68-10.2a5.42,5.42,0,0,0-4.9.2l-17,9.8c-1.2.69-1.5,1.67-.87,2.4A3.13,3.13,0,0,1,276.56,160.22Z"/><path class="cls-23" d="M275.86,162.8a3.08,3.08,0,0,1,.7-.54l17-9.8a5.46,5.46,0,0,1,4.9-.21l17.68,10.21a3.12,3.12,0,0,1,.35.25,1.34,1.34,0,0,0-.35-2.28l-17.68-10.21a5.46,5.46,0,0,0-4.9.21l-17,9.79C275.26,161,275,162.06,275.86,162.8Z"/></g><path class="cls-19" d="M307.45,214.68l-1.81,1c-.47.27-.85,0-.85-.64V189.72a2,2,0,0,1,.85-1.62l1.81-1c.47-.27.85,0,.85.64v25.37A2,2,0,0,1,307.45,214.68Z"/><path class="cls-21" d="M307.45,187.05l-.43.25v24.92a2,2,0,0,1-.85,1.61l-1.38.8v.46c0,.62.38.91.85.64l1.81-1a2,2,0,0,0,.85-1.62V187.69C308.3,187.07,307.92,186.78,307.45,187.05Z"/><path class="cls-19" d="M314.15,210.82l-1.82,1c-.47.27-.84,0-.84-.64V185.85a2,2,0,0,1,.84-1.61l1.82-1.05c.47-.27.84,0,.84.64V209.2A2,2,0,0,1,314.15,210.82Z"/><path class="cls-19" d="M320.84,207,319,208c-.47.27-.85,0-.85-.64V182a2,2,0,0,1,.85-1.62l1.81-1.05c.47-.27.85,0,.85.64v25.37A2,2,0,0,1,320.84,207Z"/><path class="cls-19" d="M327.54,203.09l-1.82,1c-.47.27-.85,0-.85-.64V178.12a2,2,0,0,1,.85-1.61l1.82-1c.46-.27.84,0,.84.64v25.37A2.05,2.05,0,0,1,327.54,203.09Z"/><path class="cls-21" d="M314.15,183.19l-.44.25v24.91a2.05,2.05,0,0,1-.84,1.62l-1.38.8v.45c0,.63.37.91.84.64l1.82-1a2,2,0,0,0,.84-1.62V183.83C315,183.2,314.62,182.92,314.15,183.19Z"/><path class="cls-21" d="M320.84,179.32l-.43.25v24.92a2,2,0,0,1-.85,1.61l-1.38.8v.46c0,.62.38.91.85.64l1.81-1.05a2,2,0,0,0,.85-1.62V180C321.69,179.34,321.31,179.05,320.84,179.32Z"/><path class="cls-21" d="M327.54,175.46l-.44.25v24.91a2,2,0,0,1-.85,1.62l-1.38.8v.45c0,.63.38.91.85.64l1.82-1a2.05,2.05,0,0,0,.84-1.62V176.1C328.38,175.47,328,175.19,327.54,175.46Z"/><path class="cls-24" d="M289.24,217.79a1.37,1.37,0,0,1-.67-.19l-23.66-13.66a3.44,3.44,0,0,1-1.46-2.77V174.32a1.43,1.43,0,0,1,.6-1.31,1.1,1.1,0,0,1,1.14.07l23.66,13.66a3.42,3.42,0,0,1,1.46,2.77v26.85a1.44,1.44,0,0,1-.59,1.31A1,1,0,0,1,289.24,217.79Zm-24.71-44.35a.41.41,0,0,0-.21.05,1,1,0,0,0-.31.83v26.85a2.9,2.9,0,0,0,1.18,2.28l23.66,13.66a.6.6,0,0,0,.59.08,1,1,0,0,0,.32-.83V189.51a2.93,2.93,0,0,0-1.19-2.29l-23.66-13.66A.81.81,0,0,0,264.53,173.44Z"/><path class="cls-19" d="M268.08,179.58c0,.73-.52,1-1.15.67a2.56,2.56,0,0,1-1.16-2c0-.73.52-1,1.16-.66A2.55,2.55,0,0,1,268.08,179.58Z"/><path class="cls-19" d="M268.08,183.32c0,.73-.52,1-1.15.66a2.55,2.55,0,0,1-1.16-2c0-.74.52-1,1.16-.67A2.57,2.57,0,0,1,268.08,183.32Z"/><path class="cls-19" d="M268.08,187.05c0,.74-.52,1-1.15.67a2.55,2.55,0,0,1-1.16-2c0-.73.52-1,1.16-.66A2.55,2.55,0,0,1,268.08,187.05Z"/><path class="cls-21" d="M267.5,187.26a2.56,2.56,0,0,1-1.15-2,1,1,0,0,1,.06-.36c-.38,0-.64.29-.64.81a2.55,2.55,0,0,0,1.16,2c.51.29.94.15,1.09-.31A1,1,0,0,1,267.5,187.26Z"/><path class="cls-21" d="M267.5,183.52a2.55,2.55,0,0,1-1.15-2,1,1,0,0,1,.06-.36c-.38,0-.64.3-.64.81a2.55,2.55,0,0,0,1.16,2c.51.3.94.15,1.09-.31A.93.93,0,0,1,267.5,183.52Z"/><path class="cls-21" d="M267.5,179.78a2.55,2.55,0,0,1-1.15-2,1,1,0,0,1,.06-.36c-.38,0-.64.3-.64.82a2.55,2.55,0,0,0,1.16,2c.51.3.94.15,1.09-.3A1,1,0,0,1,267.5,179.78Z"/><path class="cls-24" d="M287.11,204.39l-.76-.44a1,1,0,0,1-.43-.82v-3.66c0-.32.19-.46.43-.32l.76.44a1,1,0,0,1,.43.82v3.66C287.54,204.38,287.34,204.53,287.11,204.39Z"/><path class="cls-50" d="M317,70.2H275.4v88.59h0a1.47,1.47,0,0,0,.84,1.22l17.66,10.19a5.42,5.42,0,0,0,4.9-.2l16.95-9.79a2,2,0,0,0,1.19-1.51h0Z"/><path class="cls-51" d="M315,78.65H277.37v80.18h0a1.32,1.32,0,0,0,.77,1.11l16,9.22a4.9,4.9,0,0,0,4.43-.18l15.34-8.86a1.87,1.87,0,0,0,1.08-1.37h0Z"/><circle class="cls-19" cx="286.32" cy="151.37" r="1.55"/><circle class="cls-19" cx="297.98" cy="140.99" r="2.64"/><circle class="cls-19" cx="294.73" cy="139.31" r="0.68"/><circle class="cls-19" cx="306.26" cy="126.04" r="1.32"/><circle class="cls-19" cx="299.3" cy="114.82" r="0.93"/><circle class="cls-19" cx="287.86" cy="107.67" r="1.69"/><circle class="cls-19" cx="297.2" cy="95.68" r="3.42"/><path class="cls-19" d="M293.77,93.51a.95.95,0,0,1-1.89,0,.95.95,0,1,1,1.89,0Z"/><path class="cls-19" d="M301.07,99.79A1.11,1.11,0,1,1,300,98.68,1.11,1.11,0,0,1,301.07,99.79Z"/><circle class="cls-19" cx="301.36" cy="97.47" r="0.54"/><path class="cls-19" d="M308.88,85.92a1.56,1.56,0,1,1-1.56-1.56A1.56,1.56,0,0,1,308.88,85.92Z"/><path class="cls-27" d="M289.9,350.91l-32.53-18.78c-2.32-1.34-2-3.67.64-5.21l31.24-18c2.67-1.54,6.71-1.7,9-.37l32.53,18.78c2.31,1.34,2,3.67-.65,5.21l-31.23,18C296.25,352.08,292.21,352.24,289.9,350.91Z"/><path class="cls-52" d="M293.77,356.12A9.72,9.72,0,0,1,289,355l-38.32-22.12a3.54,3.54,0,0,1-2-3c0-1.39,1-2.78,2.79-3.8l36.79-21.24c3.25-1.88,8.19-2.08,11-.45l38.32,22.13a3.54,3.54,0,0,1,2,3c0,1.39-1,2.78-2.79,3.8L300,354.57A12.65,12.65,0,0,1,293.77,356.12Zm.63-52.06a12,12,0,0,0-5.82,1.45l-36.79,21.24c-1.54.89-2.41,2-2.41,3.14a2.8,2.8,0,0,0,1.64,2.33l38.32,22.13c2.62,1.51,7.21,1.31,10.25-.44l36.79-21.24c1.53-.89,2.41-2,2.41-3.14a2.82,2.82,0,0,0-1.65-2.34l-38.32-22.12A9,9,0,0,0,294.4,304.06Z"/><path class="cls-53" d="M332.36,310.66H316.23l-18-10.37c-2.31-1.34-6.35-1.17-9,.37l-17.31,10H255.81v10.83h0a2.63,2.63,0,0,0,1.55,2.42l32.53,18.78c2.31,1.33,6.35,1.16,9-.38l31.23-18a3.81,3.81,0,0,0,2.2-2.79h0Z"/><path class="cls-54" d="M330.15,323.53l-31.23,18c-2.67,1.54-6.71,1.71-9,.37l-32.53-18.78a2.61,2.61,0,0,1-1.55-2.42h0v.75h0a2.63,2.63,0,0,0,1.55,2.42l32.53,18.78c2.31,1.33,6.35,1.16,9-.38l31.23-18a3.81,3.81,0,0,0,2.2-2.79h0v-.75h0A3.81,3.81,0,0,1,330.15,323.53Z"/><path class="cls-16" d="M256.83,322.23h0V311.4H273l17.32-10c2.67-1.54,6.71-1.71,9-.37l18,10.36h15.11v-.74H316.23l-18-10.37c-2.31-1.34-6.35-1.17-9,.37l-17.31,10H255.81v10.83h0a2.63,2.63,0,0,0,1.55,2.42l.18.1A2.29,2.29,0,0,1,256.83,322.23Z"/><path class="cls-9" d="M331.45,311.53V322.3h0a2.81,2.81,0,0,1-.77,1.65,3.47,3.47,0,0,0,1.69-2.46h0V310.77A4.38,4.38,0,0,0,331.45,311.53Z"/><path class="cls-55" d="M289.9,331.86l-32.53-18.78c-2.32-1.34-2-3.67.64-5.21l31.24-18c2.67-1.54,6.71-1.71,9-.37l32.53,18.78c2.31,1.34,2,3.67-.65,5.21l-31.23,18C296.25,333,292.21,333.19,289.9,331.86Z"/><path class="cls-9" d="M330.8,308.24l-32.53-18.78a8.38,8.38,0,0,0-4.55-.88,7.47,7.47,0,0,1,3.28.88l32.53,18.78c2.31,1.34,2,3.67-.65,5.21l-31.23,18a10.24,10.24,0,0,1-4.47,1.26,10.65,10.65,0,0,0,5.74-1.26l31.23-18C332.82,311.91,333.11,309.58,330.8,308.24Z"/><path class="cls-56" d="M291,326.44l-24.22-14c-1.72-1-1.51-2.73.48-3.88l23.25-13.43a7.48,7.48,0,0,1,6.72-.27l24.22,14c1.72,1,1.51,2.73-.48,3.88l-23.26,13.42A7.46,7.46,0,0,1,291,326.44Z"/><path class="cls-19" d="M291.83,322.09,274.28,312c-1.25-.72-1.09-2,.35-2.81l16.85-9.72a5.37,5.37,0,0,1,4.86-.21l17.55,10.13c1.25.72,1.09,2-.35,2.81l-16.85,9.73A5.4,5.4,0,0,1,291.83,322.09Z"/><path class="cls-16" d="M291.36,331.86l-32.53-18.78c-2.32-1.34-2-3.67.64-5.21l31.24-18a10.26,10.26,0,0,1,4.39-1.25,10.67,10.67,0,0,0-5.85,1.25l-31.24,18c-2.67,1.54-3,3.87-.64,5.21l32.53,18.78a8.42,8.42,0,0,0,4.62.87A7.35,7.35,0,0,1,291.36,331.86Z"/><g class="cls-57"><path class="cls-21" d="M274.62,310.52l16.85-9.73a5.42,5.42,0,0,1,4.87-.2l17.56,10.13a1.85,1.85,0,0,1,.61.56,1.31,1.31,0,0,0-.61-1.93l-17.56-10.13a5.42,5.42,0,0,0-4.87.2l-16.85,9.73c-1.12.65-1.45,1.55-1,2.26A2.7,2.7,0,0,1,274.62,310.52Z"/><path class="cls-22" d="M274.62,312.17l16.85-9.73a5.42,5.42,0,0,1,4.87-.2l17.56,10.14a1.69,1.69,0,0,1,.51.43,1.32,1.32,0,0,0-.51-2.09l-17.56-10.13a5.42,5.42,0,0,0-4.87.2l-16.85,9.73c-1.19.69-1.49,1.66-.86,2.38A2.9,2.9,0,0,1,274.62,312.17Z"/><path class="cls-23" d="M273.93,314.74a2.83,2.83,0,0,1,.69-.55l16.85-9.73a5.42,5.42,0,0,1,4.87-.2l17.56,10.13a3.34,3.34,0,0,1,.34.25,1.32,1.32,0,0,0-.34-2.26l-17.56-10.14a5.42,5.42,0,0,0-4.87.2l-16.85,9.73C273.33,312.92,273.08,314,273.93,314.74Z"/></g><path class="cls-58" d="M314.73,281.31H273.44v29.44h0a1.44,1.44,0,0,0,.84,1.21l17.55,10.13a5.4,5.4,0,0,0,4.86-.2l16.85-9.73a2,2,0,0,0,1.18-1.5h0Z"/><path class="cls-27" d="M146.73,126.89,114.2,108.11c-2.31-1.33-2-3.67.65-5.21l31.23-18c2.67-1.54,6.71-1.71,9-.37l32.53,18.78c2.32,1.33,2,3.66-.64,5.21l-31.24,18C153.08,128.06,149,128.23,146.73,126.89Z"/><path class="cls-59" d="M150.6,132.1a9.85,9.85,0,0,1-4.81-1.1h0l-38.32-22.12a3.55,3.55,0,0,1-2-3c0-1.4,1-2.78,2.8-3.81L145,80.83c3.24-1.87,8.19-2.07,11-.44l38.32,22.12a3.54,3.54,0,0,1,2,3c0,1.39-1,2.78-2.79,3.81l-36.79,21.24A12.79,12.79,0,0,1,150.6,132.1Zm-4.42-1.77c2.61,1.51,7.21,1.32,10.24-.44l36.8-21.24c1.53-.88,2.41-2,2.41-3.14a2.82,2.82,0,0,0-1.65-2.33L155.66,81.06c-2.62-1.52-7.21-1.32-10.25.44l-36.79,21.24c-1.53.88-2.41,2-2.41,3.14a2.8,2.8,0,0,0,1.65,2.33l38.32,22.12Z"/><path class="cls-60" d="M189.2,86.64H173.06l-18-10.37c-2.31-1.33-6.35-1.16-9,.38l-17.31,10H112.65V97.47h0a2.61,2.61,0,0,0,1.55,2.42l32.53,18.78c2.31,1.34,6.35,1.17,9-.37l31.24-18a3.85,3.85,0,0,0,2.19-2.8h0Z"/><path class="cls-61" d="M187,99.52l-31.24,18c-2.67,1.54-6.71,1.71-9,.37L114.2,99.14a2.6,2.6,0,0,1-1.55-2.41h0v.74h0a2.61,2.61,0,0,0,1.55,2.42l32.53,18.78c2.31,1.34,6.35,1.17,9-.37l31.24-18a3.82,3.82,0,0,0,2.19-2.79h0v-.74h0A3.84,3.84,0,0,1,187,99.52Z"/><path class="cls-16" d="M113.67,98.22h0V87.39h16.13l17.31-10c2.67-1.54,6.71-1.7,9-.37l18,10.37H189.2v-.75H173.06l-18-10.37c-2.31-1.33-6.35-1.16-9,.38l-17.31,10H112.65V97.47h0a2.61,2.61,0,0,0,1.55,2.42l.18.11A2.28,2.28,0,0,1,113.67,98.22Z"/><path class="cls-9" d="M188.28,87.51V98.29h0a2.84,2.84,0,0,1-.77,1.65,3.47,3.47,0,0,0,1.68-2.47h0V86.75A4.49,4.49,0,0,0,188.28,87.51Z"/><path class="cls-62" d="M146.73,107.84,114.2,89.06c-2.31-1.34-2-3.67.65-5.21l31.23-18c2.67-1.54,6.71-1.71,9-.38l32.53,18.78c2.32,1.34,2,3.67-.64,5.21l-31.24,18C153.08,109,149,109.18,146.73,107.84Z"/><path class="cls-9" d="M187.63,84.22,155.1,65.44a8.43,8.43,0,0,0-4.55-.88,7.71,7.71,0,0,1,3.28.88l32.53,18.78c2.31,1.34,2,3.67-.65,5.21l-31.23,18a10.33,10.33,0,0,1-4.47,1.25,10.63,10.63,0,0,0,5.74-1.25l31.24-18C189.66,87.89,190,85.56,187.63,84.22Z"/><path class="cls-63" d="M147.8,102.42l-24.22-14c-1.72-1-1.5-2.73.48-3.88l23.26-13.42a7.48,7.48,0,0,1,6.72-.28l24.21,14c1.73,1,1.51,2.73-.48,3.88l-23.25,13.43A7.48,7.48,0,0,1,147.8,102.42Z"/><path class="cls-19" d="M148.66,98.08,131.11,88c-1.24-.72-1.09-2,.35-2.81l16.85-9.73a5.42,5.42,0,0,1,4.87-.2l17.54,10.13c1.25.72,1.09,2-.35,2.81l-16.84,9.73A5.42,5.42,0,0,1,148.66,98.08Z"/><path class="cls-16" d="M148.19,107.84,115.66,89.06c-2.31-1.34-2-3.67.65-5.21l31.23-18a10.3,10.3,0,0,1,4.4-1.25,10.62,10.62,0,0,0-5.86,1.25l-31.23,18c-2.67,1.54-3,3.87-.65,5.21l32.53,18.78a8.47,8.47,0,0,0,4.63.88A7.58,7.58,0,0,1,148.19,107.84Z"/><g class="cls-64"><path class="cls-21" d="M131.45,86.51l16.86-9.73a5.39,5.39,0,0,1,4.87-.21l17.55,10.14a1.84,1.84,0,0,1,.61.55,1.3,1.3,0,0,0-.61-1.92L153.18,75.2a5.39,5.39,0,0,0-4.87.21l-16.86,9.73c-1.12.64-1.45,1.55-1,2.26A2.69,2.69,0,0,1,131.45,86.51Z"/><path class="cls-22" d="M131.45,88.16l16.86-9.73a5.42,5.42,0,0,1,4.87-.2l17.55,10.13a2,2,0,0,1,.51.43,1.31,1.31,0,0,0-.51-2.08L153.18,76.57a5.39,5.39,0,0,0-4.87.21l-16.86,9.73c-1.18.68-1.48,1.65-.86,2.38A3,3,0,0,1,131.45,88.16Z"/><path class="cls-23" d="M130.76,90.72a3.24,3.24,0,0,1,.69-.54l16.86-9.73a5.39,5.39,0,0,1,4.87-.2l17.55,10.13a2.3,2.3,0,0,1,.34.25,1.33,1.33,0,0,0-.34-2.27L153.18,78.23a5.42,5.42,0,0,0-4.87.2l-16.86,9.73C130.17,88.9,129.91,90,130.76,90.72Z"/></g><path class="cls-65" d="M171.56,57.29H130.27V86.73h0a1.47,1.47,0,0,0,.84,1.22l17.55,10.13a5.42,5.42,0,0,0,4.87-.2l16.84-9.73a2.07,2.07,0,0,0,1.19-1.51h0Z"/><path class="cls-27" d="M73.63,183.36,34.32,160.67c-4.52-2.61-3.95-7.17,1.26-10.18h0c5.22-3,13.11-3.34,17.62-.73l39.32,22.7c4.51,2.61,4,7.16-1.27,10.17h0C86,185.64,78.15,186,73.63,183.36Z"/><path class="cls-66" d="M83.47,187.78a18,18,0,0,1-8.78-2L30.55,160.28c-2.33-1.35-3.61-3.23-3.61-5.3,0-2.47,1.83-4.95,5-6.79,6-3.44,15-3.81,20.17-.82l44.14,25.48c2.33,1.35,3.62,3.23,3.62,5.3,0,2.46-1.84,4.94-5,6.79A23.35,23.35,0,0,1,83.47,187.78ZM43.36,146.11a22.66,22.66,0,0,0-11,2.74c-3,1.71-4.65,3.94-4.65,6.13,0,1.78,1.14,3.43,3.23,4.63l44.14,25.48c5,2.86,13.66,2.5,19.4-.82,3-1.7,4.65-3.94,4.65-6.12,0-1.79-1.15-3.43-3.23-4.63L51.76,148A17.18,17.18,0,0,0,43.36,146.11Z"/><path class="cls-67" d="M90.59,172.83l-5.23-1L36.87,143.72l-5.06-4.65-5.07-7.44L24,124l-.67-6.43,1.23-4.93,2.87-3.88,4.11-1,21-11.41S77,113.15,78,113.51s16.79,32.86,16.79,32.86l3.47,21.9-3.89,3.57Z"/><path class="cls-68" d="M119.87,151.42c0-8.39-5.89-18.59-13.16-22.79a12.79,12.79,0,0,0-5-1.75c-.74-7.54-6-16.09-12.35-19.76A14,14,0,0,0,86.8,106c-1.93-6.17-6.3-12.23-11.4-15.17-3.59-2.08-6.82-2.19-9.09-.69h0l-9.25,5.06a9,9,0,0,0-6.36.52v0l-.19.11h0L27.67,108.11,33.5,108l7.09,2.67.51-4.59,2.83-3.19,2.41-1,.88-.1L50.86,103c.09-.5.87-.25,1.16-.25,1.83,1.09,2.92,2.92,4.38,4,4.38,2.92,4.38,9.61,8,12.16,5.84,4.38,11.32,10.47,14.24,17,.19.37,0,.65-.29.88l.59,3.29,5.15,1.4L89,145.45l4.44,5.63,1.52,3.44,1.73,4.71.4,4.75-.4,3.62-3.23,5.23,22.27-12.74h0l-.2.09C118.19,158.94,119.87,155.9,119.87,151.42Z"/><path class="cls-16" d="M53.42,94.87a7.87,7.87,0,0,0-2.72.79v0l-.19.11h0L27.67,108.11l1.28,0c.49-.38,1-.85,1.48-.82l22.4-12.12h0l.2-.11h0Z"/><path class="cls-9" d="M119.87,151.42c0-8.39-5.89-18.59-13.16-22.79-.36-.2-.71-.39-1-.55C113,132.36,119,142.71,119,151.22c0,4.56-1.71,7.66-4.42,8.92l.2-.1h0L94,171.92l-.56.91,22.27-12.74h0l-.2.09C118.19,158.94,119.87,155.9,119.87,151.42Z"/><path class="cls-69" d="M78.67,136c-2.92-6.57-7.54-14.84-14.84-17.09-1.1-3.29-3-9.19-7.43-12.11-1.46-1.09-2.55-2.92-4.38-4-.29,0-1.07-.25-1.16.25l.11,0c.05,9.9,7,21.89,15.55,26.83l11.84,6.84,0,.13C78.66,136.61,78.86,136.33,78.67,136Z"/><path class="cls-70" d="M84.32,141.17a12.74,12.74,0,0,0-5-1.76c-.76-7.6-6-16.19-12.44-19.89a14.58,14.58,0,0,0-2.58-1.18c-1.94-6.22-6.35-12.32-11.47-15.28-6.92-4-12.52-.76-12.54,7.21-.53-.37-1.06-.71-1.6-1-8.65-5-15.66-1-15.66,9s7,22.12,15.66,27.11l45.65,26.36c7.32,4.23,13.25.8,13.25-7.65S91.64,145.4,84.32,141.17Z"/><path class="cls-9" d="M84.32,141.17c-.4-.23-.81-.44-1.21-.63,7.3,4.24,13.52,15.14,13.52,23.57,0,5.75-2.74,9.16-6.79,9.43,4.56.22,7.73-3.25,7.73-9.43C97.57,155.67,91.64,145.4,84.32,141.17Z"/><path class="cls-16" d="M23.62,118.58c0-8,4.48-12.24,10.71-11.12C27.79,105.86,23,110,23,118.29c0,8.93,5.62,19.58,13,25.3C28.92,137.67,23.62,127.32,23.62,118.58Z"/><path class="cls-19" d="M48.59,132.76c0,2.18-1.53,3.06-3.41,2a7.53,7.53,0,0,1-3.41-5.9c0-2.18,1.53-3.06,3.41-2A7.55,7.55,0,0,1,48.59,132.76Z"/><path class="cls-21" d="M46.87,133.89A7.55,7.55,0,0,1,43.46,128a3,3,0,0,1,.4-1.58c-1.23-.11-2.09.8-2.09,2.43a7.53,7.53,0,0,0,3.41,5.9c1.31.76,2.44.54,3-.39A3.14,3.14,0,0,1,46.87,133.89Z"/><path class="cls-19" d="M59.06,138.81c0,2.17-1.53,3.05-3.41,2a7.55,7.55,0,0,1-3.41-5.91c0-2.17,1.53-3.05,3.41-2A7.53,7.53,0,0,1,59.06,138.81Z"/><path class="cls-19" d="M69.53,144.85c0,2.18-1.53,3.06-3.41,2a7.55,7.55,0,0,1-3.41-5.9c0-2.18,1.53-3.06,3.41-2A7.55,7.55,0,0,1,69.53,144.85Z"/><path class="cls-21" d="M57.34,139.94A7.55,7.55,0,0,1,53.93,134a3,3,0,0,1,.4-1.58c-1.23-.11-2.09.79-2.09,2.43a7.55,7.55,0,0,0,3.41,5.9c1.31.76,2.44.54,3-.39A3.29,3.29,0,0,1,57.34,139.94Z"/><path class="cls-21" d="M67.81,146a7.5,7.5,0,0,1-3.41-5.9,2.93,2.93,0,0,1,.4-1.58c-1.23-.11-2.09.79-2.09,2.42a7.55,7.55,0,0,0,3.41,5.91c1.31.76,2.44.54,3-.39A3.32,3.32,0,0,1,67.81,146Z"/></g></g></g></svg>