<?xml version="1.0" encoding="UTF-8"?>
<svg width="88px" height="88px" viewBox="0 0 88 88" version="1.1" xmlns="http://www.w3.org/2000/svg" xmlns:xlink="http://www.w3.org/1999/xlink">
    <!-- Generator: Sketch 59 (86127) - https://sketch.com -->
    <title>github</title>
    <desc>Created with Sketch.</desc>
    <g id="github" stroke="none" stroke-width="1" fill="none" fill-rule="evenodd">
        <g transform="translate(4.000000, 4.000000)" fill="#5158FA" fill-rule="nonzero" id="Shape">
            <path d="M40.4720015,0.472001511 C18.4877485,0.472001511 0.472001511,18.6439985 0.472001511,40.6282515 C0.472001511,62.4849409 18.323564,80.4720015 40.4720015,80.4720015 C62.5929732,80.4720015 80.4720015,62.5117965 80.4720015,40.6282515 C80.4720015,18.6439985 62.4562545,0.472001511 40.4720015,0.472001511 Z M47.7620018,76.3550028 C45.4294547,76.8410028 42.9507281,77.0840028 40.4720015,77.0840028 C37.9932749,77.0840028 35.5145483,76.8410028 33.1820012,76.3550028 L33.1820012,64.9827289 C33.1820012,62.2610023 33.9110013,61.2890023 34.8830013,59.9765492 C35.3778608,59.4108147 35.6765483,58.9032991 37.8958217,55.5544551 L34.1540013,54.971002 C24.5308212,53.5617285 20.7402743,48.5555488 19.2335477,44.6675486 C17.2895476,39.467728 18.3102742,32.9548215 21.8097274,28.8244541 C22.3444539,28.1922745 22.7817274,27.1228213 22.3931806,26.0052745 C21.6635478,23.7695479 21.7610008,20.2220008 22.2470008,18.860821 C24.8238134,19.229118 27.4733995,21.0750321 29.6831808,22.4090009 C30.7013762,23.0032119 31.2354699,22.8462743 31.7240012,22.8950009 C33.4996732,22.5254384 36.2694936,21.6312743 40.520728,21.6312743 C43.1450016,21.6312743 45.9154548,22.0198211 48.6371815,22.7975478 C49.1238143,22.7861571 49.9059706,23.2000164 51.2614549,22.4090009 C53.5712207,21.0016258 56.1309474,19.218993 58.6970022,18.860821 C59.1830022,20.2220008 59.2804552,23.7695479 58.5514552,26.0052745 C58.1622756,27.1228213 58.5995491,28.1922745 59.1349084,28.8244541 C62.6337288,32.9554543 63.6544554,39.467728 61.7104553,44.6675486 C60.2037288,48.5555488 56.4131818,53.5617285 46.7900017,54.971002 L43.0481813,55.5544551 C45.3421267,59.0159397 45.5838612,59.4310647 46.0616345,59.9765492 C47.0330017,61.2890023 47.7620018,62.2610023 47.7620018,64.9827289 L47.7620018,76.3550028 Z M52.622002,74.9457293 L52.622002,64.9827289 C52.622002,62.2122758 52.0385489,60.3657288 51.2608222,59.0045491 C58.6482757,57.0124552 63.8974554,52.6378222 66.2300024,46.3685487 C68.7087291,39.7594545 67.5911822,31.8860012 63.4595493,26.442548 C64.1891821,23.1867274 64.1891821,17.9862742 62.4394554,15.5562741 C61.6617288,14.4874536 60.5922757,13.9040005 59.2317287,13.9040005 C59.1830022,13.9040005 59.1830022,13.9040005 59.1830022,13.9040005 C55.4146036,14.1077661 52.4486114,16.0055709 49.2687284,17.9375476 C46.3527282,17.1598209 43.3880016,16.7712741 40.423275,16.7712741 C37.4104544,16.7712741 34.3970013,17.2085476 31.724634,17.9375476 C28.3770558,15.9188756 25.43954,14.1027036 21.5667273,13.9040005 C20.3517273,13.9040005 19.2822742,14.4874536 18.5045477,15.5562741 C16.7554537,17.9862742 16.7554537,23.1867274 17.4844537,26.442548 C13.3528208,31.8860012 12.235274,39.8075484 14.7140006,46.3685487 C17.0465476,52.6378222 22.2957274,57.0124552 29.6831808,59.0045491 C29.0801106,60.0594475 28.6029698,61.4206273 28.4150245,63.2627446 C26.9228525,63.7772211 25.628751,63.9449164 24.4251415,63.5911743 C23.1557196,63.2159164 22.1666336,62.3685804 21.3072743,60.9232367 C19.377196,57.6807052 16.0897351,55.0336505 12.346649,55.3779005 L12.7737975,60.2189163 C14.5070708,60.0600803 16.2321179,61.893971 17.1281804,63.4057601 C18.6064304,65.8952447 20.5978913,67.527901 23.0487744,68.2518385 C24.8681104,68.7878306 26.5311415,68.7751745 28.3220011,68.3929556 L28.3220011,74.9457293 C14.179274,69.9882761 3.86000018,56.4777286 3.86000018,40.6340015 C3.86000018,20.5137273 20.3517273,3.86000018 40.4720015,3.86000018 C60.5922757,3.86000018 77.0840028,20.5137273 77.0840028,40.6340015 C77.0840028,56.4777286 66.764729,69.9882761 52.622002,74.9457293 Z"></path>
        </g>
    </g>
</svg>