<?xml version="1.0" encoding="UTF-8"?>
<svg width="88px" height="88px" viewBox="0 0 88 88" version="1.1" xmlns="http://www.w3.org/2000/svg" xmlns:xlink="http://www.w3.org/1999/xlink">
    <!-- Generator: Sketch 59 (86127) - https://sketch.com -->
    <title>whitepaper</title>
    <desc>Created with Sketch.</desc>
    <g id="whitepaper" stroke="none" stroke-width="1" fill="none" fill-rule="evenodd">
        <path d="M27.5546775,8.02741111 C27.7244021,7.99500013 25.8213042,7.99966378 51.2544031,8.0010494 L70.575,8.00114154 C71.361885,8.00114154 72,8.63686531 72,9.4211187 L72,9.4211187 L72,77.5800228 C72,78.3641342 71.361885,79 70.575,79 L70.575,79 L16.425,79 C15.6379725,79 15,78.3641342 15,77.5800228 L15,77.5800228 L15,20.7809361 C15,20.3883124 15.1662975,20.0279222 15.4165275,19.7778642 C15.4014225,19.7930579 26.8025625,8.43182061 26.8173825,8.41705285 C26.832345,8.40342107 26.868825,8.3640877 26.9615925,8.29337284 C27.129315,8.16585889 27.3224025,8.07370237 27.5546775,8.02741111 Z M69.15,10.8410959 L29.25,10.8410959 L29.25,20.7809361 C29.25,21.5651894 28.6120275,22.2009132 27.825,22.2009132 L27.825,22.2009132 L17.85,22.2009132 L17.85,76.1600457 L69.15,76.1600457 L69.15,10.8410959 Z M64.875,70.480137 C65.661885,70.480137 66.3,71.1160028 66.3,71.9001142 C66.3,72.6842255 65.661885,73.3200913 64.875,73.3200913 L64.875,73.3200913 L22.125,73.3200913 C21.3379725,73.3200913 20.7,72.6842255 20.7,71.9001142 C20.7,71.1160028 21.3379725,70.480137 22.125,70.480137 L22.125,70.480137 Z M46.35,30.7207762 C47.136885,30.7207762 47.775,31.3565 47.775,32.1407534 L47.775,32.1407534 L47.775,37.1289912 C48.200505,37.2792248 48.6186,37.452462 49.027575,37.6478509 L49.027575,37.6478509 L52.5687,34.1192076 C53.1257325,33.5647065 54.0277575,33.5648485 54.5840775,34.1192076 L54.5840775,34.1192076 L58.6145475,38.135471 C59.17101,38.6901141 59.17101,39.5892437 58.6145475,40.1437447 L58.6145475,40.1437447 L55.0734225,43.672388 C55.2695025,44.0799215 55.44321,44.4965428 55.5941175,44.9205479 L55.5941175,44.9205479 L60.6,44.9205479 C61.386885,44.9205479 62.025,45.5564137 62.025,46.3405251 L62.025,46.3405251 L62.025,52.0204338 C62.025,52.8045452 61.386885,53.440411 60.6,53.440411 L60.6,53.440411 L55.5941175,53.440411 C55.4433525,53.8644161 55.2695025,54.2810374 55.0734225,54.6885709 L55.0734225,54.6885709 L58.6145475,58.2172142 C59.17101,58.7718572 59.17101,59.6709868 58.6145475,60.2254879 L58.6145475,60.2254879 L54.5840775,64.2417513 C54.02733,64.7961104 53.125305,64.7961104 52.5687,64.2417513 L52.5687,64.2417513 L49.027575,60.713108 C48.6186,60.9084969 48.200505,61.0815921 47.775,61.2319677 L47.775,61.2319677 L47.775,66.2202055 C47.775,67.0043169 47.136885,67.6401826 46.35,67.6401826 L46.35,67.6401826 L40.65,67.6401826 C39.8629725,67.6401826 39.225,67.0043169 39.225,66.2202055 L39.225,66.2202055 L39.225,61.2321097 C38.799495,61.0818761 38.3812575,60.9084969 37.9722825,60.713108 L37.9722825,60.713108 L34.4313,64.2417513 C33.8748375,64.7961104 32.9722425,64.7959684 32.4159225,64.2417513 L32.4159225,64.2417513 L28.3854525,60.2254879 C27.82899,59.6708448 27.82899,58.7717152 28.3854525,58.2172142 L28.3854525,58.2172142 L31.9265775,54.6885709 C31.7304975,54.2810374 31.55679,53.8644161 31.4058825,53.440411 L31.4058825,53.440411 L26.4,53.440411 C25.6129725,53.440411 24.975,52.8045452 24.975,52.0204338 L24.975,52.0204338 L24.975,46.3405251 C24.975,45.5564137 25.6129725,44.9205479 26.4,44.9205479 L26.4,44.9204059 L31.4058825,44.9204059 C31.5566475,44.4964008 31.7304975,44.0797795 31.9265775,43.672246 L31.9265775,43.672246 L28.3854525,40.1436027 C27.82899,39.5891017 27.82899,38.6899721 28.3854525,38.135471 L28.3854525,38.135471 L32.4159225,34.1192076 C32.9725275,33.5647065 33.8748375,33.5647065 34.4313,34.1192076 L34.4313,34.1192076 L37.9722825,37.6478509 C38.3814,37.452462 38.799495,37.2793668 39.225,37.1289912 L39.225,37.1289912 L39.225,32.1407534 C39.225,31.3565 39.8629725,30.7207762 40.65,30.7207762 L40.65,30.7207762 Z M44.925,61.8808972 C43.970535,61.9866855 43.028895,61.9865435 42.075,61.8808972 L42.075,61.8808972 L42.075,64.8002283 L44.925,64.8002283 Z M33.484245,57.1527993 L31.4084475,59.22128 L33.4236825,61.2294117 L35.49948,59.160931 C34.7557725,58.5678065 34.07961,57.8940273 33.484245,57.1527993 L33.484245,57.1527993 Z M53.5158975,57.1529413 C52.9205325,57.8940273 52.24437,58.5678065 51.5006625,59.161073 L51.5006625,59.161073 L53.5763175,61.2294117 L55.5915525,59.22128 Z M47.81604,40.2201395 C42.833955,37.827762 36.8918475,39.9629816 34.5120975,44.8709907 C34.5106725,44.8741147 34.509105,44.8772386 34.50768,44.8803626 C32.1123975,49.8335269 34.2293775,55.7555417 39.175695,58.1368434 L39.175695,58.1368434 C44.1847125,60.5424268 50.129955,58.3846295 52.4924625,53.4800283 C54.92109,48.4570011 52.676145,42.5206445 47.81604,40.2201395 Z M43.5,42.0805936 C47.428725,42.0805936 50.625,45.2656024 50.625,49.1804794 C50.625,53.0953565 47.428725,56.2803653 43.5,56.2803653 C39.571275,56.2803653 36.375,53.0953565 36.375,49.1804794 C36.375,45.2656024 39.571275,42.0805936 43.5,42.0805936 Z M43.5,44.9205479 C41.142765,44.9205479 39.225,46.8315532 39.225,49.1804794 C39.225,51.5294057 41.142765,53.440411 43.5,53.440411 C45.857235,53.440411 47.775,51.5294057 47.775,49.1804794 C47.775,46.8315532 45.857235,44.9205479 43.5,44.9205479 Z M30.7546575,47.7605023 L27.825,47.7605023 L27.825,50.6004566 L30.7546575,50.6004566 C30.6446475,49.6137145 30.652485,48.6772395 30.7546575,47.7605023 L30.7546575,47.7605023 Z M59.175,47.7605023 L56.2453425,47.7605023 C56.351505,48.711461 56.3513625,49.6500659 56.2453425,50.6004566 L56.2453425,50.6004566 L59.175,50.6004566 L59.175,47.7605023 Z M53.5763175,37.1315472 L51.50052,39.2000279 C52.24437,39.7932944 52.9205325,40.4670735 53.5158975,41.2081596 L53.5158975,41.2081596 L55.5915525,39.1396789 L53.5763175,37.1315472 Z M33.4236825,37.1315472 L31.4084475,39.1396789 L33.4841025,41.2083016 C34.0794675,40.4670735 34.75563,39.7932944 35.49948,39.2000279 L35.49948,39.2000279 L33.4236825,37.1315472 Z M44.925,33.5607306 L42.075,33.5607306 L42.075,36.4800616 C43.0643775,36.3705814 44.00388,36.3781073 44.925,36.4800616 L44.925,36.4800616 L44.925,33.5607306 Z M64.875,25.0408676 C65.661885,25.0408676 66.3,25.6765913 66.3,26.4608447 C66.3,27.2450981 65.661885,27.8808219 64.875,27.8808219 L64.875,27.8808219 L22.125,27.8808219 C21.3379725,27.8808219 20.7,27.2450981 20.7,26.4608447 C20.7,25.6765913 21.3379725,25.0408676 22.125,25.0408676 L22.125,25.0408676 Z M64.875,19.3609589 C65.661885,19.3609589 66.3,19.9966827 66.3,20.7809361 C66.3,21.5651894 65.661885,22.2009132 64.875,22.2009132 L64.875,22.2009132 L33.525,22.2009132 C32.7379725,22.2009132 32.1,21.5651894 32.1,20.7809361 C32.1,19.9966827 32.7379725,19.3609589 33.525,19.3609589 L33.525,19.3609589 Z M26.4,12.8492276 L19.865235,19.3609589 L26.4,19.3609589 L26.4,12.8492276 Z M64.875,13.6810502 C65.661885,13.6810502 66.3,14.316774 66.3,15.1010274 C66.3,15.8852808 65.661885,16.5210046 64.875,16.5210046 L64.875,16.5210046 L33.525,16.5210046 C32.7379725,16.5210046 32.1,15.8852808 32.1,15.1010274 C32.1,14.316774 32.7379725,13.6810502 33.525,13.6810502 L33.525,13.6810502 Z" id="Combined-Shape" fill="#5158FA" fill-rule="nonzero"></path>
    </g>
</svg>