<?xml version="1.0" encoding="UTF-8"?>
<svg width="210px" height="232px" viewBox="0 0 210 232" version="1.1" xmlns="http://www.w3.org/2000/svg" xmlns:xlink="http://www.w3.org/1999/xlink">
    <!-- Generator: Sketch 59 (86127) - https://sketch.com -->
    <title>Effect DAO-logomark-color</title>
    <desc>Created with Sketch.</desc>
    <g id="LOGOS" stroke="none" stroke-width="1" fill="none" fill-rule="evenodd">
        <path d="M105.102506,0.0481494867 C106.030568,-0.114974896 106.987288,0.140733596 107.708134,0.749143456 C108.431185,1.35755332 108.847821,2.25032866 108.847821,3.1960092 L108.847821,3.1960092 L108.847821,22.1889779 C111.195532,22.1625253 114.239841,22.0016053 116.054082,22.0016053 C122.365346,22.0016053 128.806672,22.678351 135.1995,24.0097987 C136.672055,24.3140036 137.738996,25.6366338 137.738996,27.1510453 L137.738996,27.1510453 L137.738996,32.7435663 C137.738996,33.7112907 137.306929,34.6128836 136.555221,35.2190891 C135.79249,35.8319077 134.807113,36.063368 133.828349,35.8473384 C125.815269,34.0728096 117.643471,33.4864436 109.165258,34.1984595 C106.352414,34.4321241 103.526343,34.8134825 100.766405,35.333717 C99.7964582,35.5166808 98.8353296,35.2653811 98.0946433,34.6503581 C97.3627746,34.0441526 96.9417297,33.1535817 96.9417297,32.201288 L96.9417297,32.201288 L96.9417297,13.7043056 C54.4161952,21.5034146 20.9354104,55.3649503 13.4866632,97.8434214 C12.4351532,103.83714 11.9038871,109.927852 11.9038871,115.948024 C11.9038871,173.374419 58.6244397,220.096329 116.054082,220.096329 C122.010434,220.096329 128.006466,219.582707 133.874642,218.568691 C134.454405,218.467289 134.87545,217.958077 134.87545,217.358484 L134.87545,217.358484 L134.87545,198.292771 C134.87545,196.855513 135.856419,195.590197 137.258432,195.215452 C140.437211,194.368968 143.593945,193.315273 146.647072,192.089636 C177.901389,179.522445 198.096113,149.633209 198.096113,115.948024 C198.096113,83.7111184 179.080755,54.3310945 149.651701,41.1025888 C148.507605,40.5845586 147.766919,39.4493011 147.766919,38.2038244 L147.766919,38.2038244 L147.766919,32.1814485 C147.766919,31.1057094 148.302594,30.1071236 149.199794,29.5075313 C150.079359,28.9211653 151.188184,28.8087417 152.160335,29.2099395 C187.294438,43.8029586 210,77.8474582 210,115.948024 C210,154.520327 186.875597,188.741177 151.088985,203.133597 C149.936072,203.596518 148.767727,204.039599 147.592769,204.456228 C147.107796,204.630374 146.781542,205.086681 146.781542,205.593689 L146.781542,205.593689 L146.781542,225.59847 C146.781542,227.130517 145.685943,228.450942 144.182526,228.739717 L144.182526,228.739717 L137.910941,229.934493 C130.731134,231.305619 123.374972,232 116.054082,232 C52.0618708,232 0,179.939074 0,115.948024 C0,109.23788 0.59078551,102.454992 1.75912999,95.7845272 C10.1778235,47.799506 48.0762731,9.95464917 96.068778,1.61546619 L96.068778,1.61546619 Z M33.7706665,136.243342 C35.1814975,136.243342 36.438019,137.200044 36.8282019,138.571171 C46.8186494,173.78179 79.3779852,198.371688 116.002278,198.371688 C117.825336,198.371688 119.791682,198.290126 122.007128,198.124797 C122.586891,198.087323 123.16445,198.281308 123.589904,198.673689 C124.015357,199.066069 124.257844,199.625982 124.257844,200.203531 L124.257844,200.203531 L124.257844,208.271575 C124.257844,209.369358 123.402528,210.29079 122.306929,210.367943 C119.992285,210.526659 117.931149,210.606017 116.002278,210.606017 C72.4318466,210.606017 34.6965244,181.098139 24.2387391,138.851128 C24.082225,138.220674 24.2233081,137.565972 24.6267176,137.054555 C25.0301271,136.538729 25.6341392,136.243342 26.2844441,136.243342 L26.2844441,136.243342 Z M134.33735,63.0611146 C134.941362,62.6709388 135.686457,62.6158292 136.341171,62.9112166 L136.341171,62.9112166 L137.983467,63.6540938 C158.363362,72.8662127 171.664854,91.9958531 172.698729,113.572359 C174.096333,142.718719 153.465133,168.232254 124.708428,172.925386 C124.596003,172.943022 124.483577,172.951839 124.37556,172.951839 C123.883974,172.951839 123.40341,172.777693 123.01984,172.451444 C122.548093,172.050246 122.274745,171.46388 122.274745,170.844448 L122.274745,170.844448 L122.274745,163.5788 C122.274745,162.05998 123.328459,160.777029 124.838489,160.455189 C145.518186,156.057444 160.530311,137.518578 160.530311,116.37854 C160.530311,99.2725233 150.594974,83.3656915 135.221324,75.8531524 C134.110295,75.3130784 133.418106,74.2219086 133.413697,73.0072932 L133.413697,73.0072932 L133.385039,64.8268259 C133.38063,64.1126056 133.737747,63.4512905 134.33735,63.0611146 Z M42.5109854,89.9162377 C44.2745242,89.9162377 45.7096039,91.3512914 45.7096039,93.1125939 L45.7096039,93.1125939 L45.7096039,114.197523 C45.7096039,115.961029 44.2745242,117.393879 42.5109854,117.393879 L42.5109854,117.393879 L36.669263,117.393879 C34.9057242,117.393879 33.4728489,115.961029 33.4728489,114.197523 L33.4728489,114.197523 L33.4728489,93.1125939 C33.4728489,91.3512914 34.9057242,89.9162377 36.669263,89.9162377 L36.669263,89.9162377 Z M68.8119627,75.1160065 C70.5755015,75.1160065 72.0083768,76.5510602 72.0083768,78.3123627 L72.0083768,78.3123627 L72.0083768,114.197523 C72.0083768,115.961029 70.5755015,117.393879 68.8119627,117.393879 L68.8119627,117.393879 L62.9702403,117.393879 C61.2067014,117.393879 59.7716217,115.961029 59.7716217,114.197523 L59.7716217,114.197523 L59.7716217,78.3123627 C59.7716217,76.5510602 61.2067014,75.1160065 62.9702403,75.1160065 L62.9702403,75.1160065 Z M95.1078698,61.3716751 C96.8714086,61.3716751 98.3042839,62.8045244 98.3042839,64.5680312 L98.3042839,64.5680312 L98.3042839,114.197523 C98.3042839,115.961029 96.8714086,117.393879 95.1078698,117.393879 L95.1078698,117.393879 L89.2661474,117.393879 C87.5026086,117.393879 86.0675288,115.961029 86.0675288,114.197523 L86.0675288,114.197523 L86.0675288,64.5680312 C86.0675288,62.8045244 87.5026086,61.3716751 89.2661474,61.3716751 L89.2661474,61.3716751 Z M121.405981,44.5654549 C123.16952,44.5654549 124.602395,45.9983042 124.602395,47.761811 L124.602395,47.761811 L124.602395,114.197523 C124.602395,115.961029 123.16952,117.393879 121.405981,117.393879 L121.405981,117.393879 L115.564259,117.393879 C113.80072,117.393879 112.36564,115.961029 112.36564,114.197523 L112.36564,114.197523 L112.36564,47.761811 C112.36564,45.9983042 113.80072,44.5654549 115.564259,44.5654549 L115.564259,44.5654549 Z" id="Effect-DAO-logomark-color" fill="#D8AE00"></path>
    </g>
</svg>