<?xml version="1.0" encoding="UTF-8"?>
<svg width="312px" height="106px" viewBox="0 0 312 106" version="1.1" xmlns="http://www.w3.org/2000/svg" xmlns:xlink="http://www.w3.org/1999/xlink">
    <!-- Generator: Sketch 59 (86127) - https://sketch.com -->
    <title>Effect Captions-logo-color</title>
    <desc>Created with Sketch.</desc>
    <g id="LOGOS" stroke="none" stroke-width="1" fill="none" fill-rule="evenodd">
        <g id="Effect-Captions-logo-color">
            <path d="M242.82,57.9392 C250.399,57.9392 255.922,63.5832 255.922,71.5252 C255.922,79.4262 250.399,85.1102 242.82,85.1102 C235.241,85.1102 229.718,79.4262 229.718,71.5252 C229.718,63.6232 235.241,57.9392 242.82,57.9392 Z M300.9216,57.939 C305.7466,57.939 309.6416,60.733 310.2436,64.646 C310.2626,64.773 310.1786,64.898 310.0536,64.931 L306.9276,65.765 C306.7806,65.806 306.6386,65.7 306.6216,65.548 C306.3146,62.809 303.8746,61.003 300.7606,61.003 C297.6966,61.003 295.5196,62.615 295.5196,65.034 C295.5196,67.131 297.2126,68.502 299.7926,69.065 L304.8726,70.194 C308.5806,71.001 311.0806,73.662 311.0806,77.048 C311.0806,81.805 307.2906,85.11 301.7286,85.11 C295.7696,85.11 291.2196,81.589 290.7796,76.549 C290.7686,76.421 290.8576,76.303 290.9826,76.275 L294.2646,75.577 C294.4146,75.545 294.5526,75.658 294.5596,75.812 C294.7176,79.366 297.7286,81.886 301.8086,81.886 C305.1146,81.886 307.5336,80.031 307.5336,77.29 C307.5336,75.515 306.0006,73.863 303.7436,73.339 L298.8256,72.21 C294.7936,71.283 292.0526,68.743 292.0526,65.357 C292.0526,61.003 295.6806,57.939 300.9216,57.939 Z M124.4017,57.9392 C129.1557,57.9392 133.2767,60.5162 135.0367,64.4122 C135.1117,64.5782 134.9837,64.7692 134.8017,64.7692 L134.8017,64.7692 L130.8597,64.7692 C130.7777,64.7692 130.7017,64.7282 130.6577,64.6602 C129.2817,62.5872 126.9497,61.2452 124.3207,61.2452 C119.0797,61.2452 115.2897,65.5982 115.2897,71.4842 C115.2897,77.3702 119.2407,81.7242 124.4817,81.7242 C127.2077,81.7242 129.5197,80.4412 130.8957,78.4262 C130.9407,78.3602 131.0147,78.3202 131.0947,78.3202 L131.0947,78.3202 L134.8447,78.3202 C135.0297,78.3202 135.1567,78.5172 135.0767,78.6832 C133.1957,82.5642 129.0547,85.1102 124.4817,85.1102 C117.1447,85.1102 111.7427,79.3852 111.7427,71.5652 C111.7427,63.6642 117.0647,57.9392 124.4017,57.9392 Z M179.5598,58.423 C184.5588,58.423 188.1058,61.809 188.1058,66.566 C188.1058,71.404 184.5178,74.831 179.4388,74.831 L172.5528,74.831 C172.4138,74.831 172.3028,74.943 172.3028,75.081 L172.3028,84.377 C172.3028,84.516 172.1908,84.627 172.0528,84.627 L169.2468,84.627 C169.1088,84.627 168.9968,84.516 168.9968,84.377 L168.9968,58.673 C168.9968,58.535 169.1088,58.423 169.2468,58.423 L179.5598,58.423 Z M213.9023,58.4223 C214.0403,58.4223 214.1523,58.5353 214.1523,58.6723 L214.1523,61.3983 C214.1523,61.5373 214.0403,61.6483 213.9023,61.6483 L204.8883,61.6483 C204.7503,61.6483 204.6383,61.7603 204.6383,61.8983 L204.6383,84.3773 C204.6383,84.5153 204.5263,84.6273 204.3883,84.6273 L201.5833,84.6273 C201.4443,84.6273 201.3333,84.5153 201.3333,84.3773 L201.3333,61.8983 C201.3333,61.7603 201.2203,61.6483 201.0833,61.6483 L191.9883,61.6483 C191.8493,61.6483 191.7383,61.5373 191.7383,61.3983 L191.7383,58.6723 C191.7383,58.5353 191.8493,58.4223 191.9883,58.4223 L213.9023,58.4223 Z M153.3431,58.4227 C153.4441,58.4227 153.5361,58.4847 153.5741,58.5797 L163.9351,84.2837 C164.0021,84.4477 163.8811,84.6267 163.7041,84.6267 L160.3751,84.6267 C160.2721,84.6267 160.1801,84.5637 160.1421,84.4677 L157.5241,77.6917 C157.4871,77.5947 157.3941,77.5307 157.2911,77.5307 L146.1031,77.5307 C146.0011,77.5307 145.9081,77.5947 145.8711,77.6917 L143.2531,84.4677 C143.2161,84.5637 143.1231,84.6267 143.0191,84.6267 L139.6921,84.6267 C139.5151,84.6267 139.3941,84.4467 139.4611,84.2827 L149.9001,58.5787 C149.9381,58.4847 150.0301,58.4227 150.1321,58.4227 L153.3431,58.4227 Z M222.7754,58.4227 C222.9134,58.4227 223.0254,58.5347 223.0254,58.6727 L223.0254,84.3767 C223.0254,84.5157 222.9134,84.6267 222.7754,84.6267 L219.9694,84.6267 C219.8314,84.6267 219.7194,84.5157 219.7194,84.3767 L219.7194,58.6727 C219.7194,58.5347 219.8314,58.4227 219.9694,58.4227 L222.7754,58.4227 Z M266.6811,58.4227 C266.7631,58.4227 266.8391,58.4637 266.8861,58.5307 L280.7881,78.6467 C280.9281,78.8487 281.2441,78.7497 281.2441,78.5047 L281.2441,58.6727 C281.2441,58.5347 281.3551,58.4227 281.4941,58.4227 L284.3001,58.4227 C284.4371,58.4227 284.5501,58.5347 284.5501,58.6727 L284.5501,84.3767 C284.5501,84.5157 284.4371,84.6267 284.3001,84.6267 L280.9711,84.6267 C280.8891,84.6267 280.8121,84.5877 280.7651,84.5217 L266.3791,64.0687 C266.2381,63.8677 265.9251,63.9677 265.9251,64.2117 L265.9251,84.3767 C265.9251,84.5157 265.8121,84.6267 265.6751,84.6267 L262.8691,84.6267 C262.7301,84.6267 262.6191,84.5157 262.6191,84.3767 L262.6191,58.6727 C262.6191,58.5347 262.7301,58.4227 262.8691,58.4227 L266.6811,58.4227 Z M242.82,61.2452 C237.338,61.2452 233.266,65.5582 233.266,71.5252 C233.266,77.4112 237.338,81.7242 242.82,81.7242 C248.303,81.7242 252.375,77.4112 252.375,71.5252 C252.375,65.5582 248.303,61.2452 242.82,61.2452 Z M151.4651,63.2177 L147.2741,74.0477 C147.2111,74.2117 147.3321,74.3877 147.5071,74.3877 L155.8881,74.3877 C156.0631,74.3877 156.1841,74.2117 156.1211,74.0477 L151.9321,63.2177 C151.8491,63.0047 151.5481,63.0047 151.4651,63.2177 Z M179.6188,61.648 L172.5528,61.648 C172.4138,61.648 172.3028,61.761 172.3028,61.898 L172.3028,71.395 C172.3028,71.534 172.4138,71.645 172.5528,71.645 L179.5598,71.645 C182.6228,71.645 184.8358,69.435 184.7148,66.412 C184.6078,63.728 182.3058,61.648 179.6188,61.648 Z" id="Combined-Shape" fill="#E06375"></path>
            <path d="M47.6784,0.0218 C48.0994,-0.0522 48.5334,0.0638 48.8604,0.3398 C49.1884,0.6158 49.3774,1.0208 49.3774,1.4498 L49.3774,1.4498 L49.3774,10.0648 C50.4424,10.0538 51.8234,9.9808 52.6464,9.9808 C55.5144,9.9808 58.4364,10.2878 61.3314,10.8918 C61.9994,11.0298 62.4834,11.6298 62.4834,12.3168 L62.4834,12.3168 L62.4834,14.8538 C62.4834,15.2928 62.2874,15.7018 61.9464,15.9768 C61.6004,16.2558 61.1534,16.3578 60.7094,16.2618 C57.0794,15.4588 53.4004,15.1938 49.5214,15.5128 C48.2434,15.6198 46.9614,15.7938 45.7114,16.0288 C45.2764,16.1098 44.8344,15.9958 44.4984,15.7178 C44.1674,15.4428 43.9764,15.0388 43.9764,14.6078 L43.9764,14.6078 L43.9764,6.2168 C24.6854,9.7548 9.4974,25.1158 6.1184,44.3858 C5.6414,47.1058 5.4004,49.8678 5.4004,52.5988 C5.4004,78.6488 26.5944,99.8438 52.6464,99.8438 C55.3524,99.8438 58.0724,99.6108 60.7304,99.1518 C60.9894,99.1068 61.1844,98.8708 61.1844,98.6018 L61.1844,98.6018 L61.1844,89.9528 C61.1844,89.3018 61.6294,88.7278 62.2654,88.5578 C63.7134,88.1708 65.1464,87.6938 66.5244,87.1398 C80.7024,81.4378 89.8634,67.8788 89.8634,52.5988 C89.8634,37.9738 81.2374,24.6468 67.8874,18.6458 C67.3684,18.4108 67.0324,17.8958 67.0324,17.3308 L67.0324,17.3308 L67.0324,14.5988 C67.0324,14.1098 67.2754,13.6568 67.6834,13.3848 C68.0834,13.1188 68.5844,13.0668 69.0254,13.2518 C84.9634,19.8708 95.2634,35.3148 95.2634,52.5988 C95.2634,70.0958 84.7734,85.6198 68.5394,92.1488 C68.0174,92.3598 67.4874,92.5608 66.9534,92.7498 C66.7324,92.8278 66.5854,93.0348 66.5854,93.2648 L66.5854,93.2648 L66.5854,102.3408 C66.5854,103.0358 66.0884,103.6348 65.4064,103.7658 L65.4064,103.7658 L62.5614,104.3078 C59.3024,104.9288 55.9664,105.2438 52.6464,105.2438 C23.6174,105.2438 0.0004,81.6268 0.0004,52.5988 C0.0004,49.5538 0.2684,46.4768 0.7984,43.4518 C4.6174,21.6838 21.8094,4.5158 43.5804,0.7328 L43.5804,0.7328 Z M15.3203,61.8055 C15.9603,61.8055 16.5303,62.2405 16.7073,62.8625 C21.2393,78.8335 36.0083,89.9895 52.6233,89.9895 C53.4593,89.9895 54.3503,89.9525 55.3463,89.8775 C55.6093,89.8585 55.8723,89.9485 56.0643,90.1265 C56.2583,90.3045 56.3683,90.5585 56.3683,90.8215 L56.3683,90.8215 L56.3683,94.4805 C56.3683,94.9785 55.9793,95.3965 55.4823,95.4315 C54.4173,95.5035 53.4813,95.5395 52.6233,95.5395 C32.8573,95.5395 15.7403,82.1545 10.9963,62.9895 C10.9243,62.7025 10.9893,62.4065 11.1723,62.1735 C11.3543,61.9395 11.6293,61.8055 11.9243,61.8055 L11.9243,61.8055 Z M75.4698,66.4103 C75.8568,66.4103 76.2198,66.5603 76.4928,66.8333 C76.7678,67.1063 76.9188,67.4693 76.9198,67.8573 L76.9198,67.8573 L76.9258012,70.8573 C76.9268,71.6573 76.2788,72.3083 75.4798,72.3103 L75.4798,72.3103 L45.6578,72.3733 C44.8568,72.3733 44.2058,71.7243 44.2038,70.9253 L44.2038,70.9253 L44.1977988,67.9253 C44.1968,67.1263 44.8468,66.4743 45.6458,66.4723 L45.6458,66.4723 L75.4668,66.4103 Z M66.9193,54.7071 C67.7173,54.7071 68.3673,55.3551 68.3693,56.1541 L68.3693,56.1541 L68.3753012,59.1541 C68.3763,59.9541 67.7273,60.6051 66.9283,60.6071 L66.9283,60.6071 L37.1073,60.6701 C36.3053,60.6701 35.6553,60.0211 35.6533,59.2221 L35.6533,59.2221 L35.6472951,56.2221 C35.6463,55.8351 35.7973,55.4701 36.0703,55.1961 C36.3433,54.9221 36.7083,54.7701 37.0943,54.7691 L37.0943,54.7691 L66.9163,54.7071 Z M58.3687,43.0044 C59.1677,43.0044 59.8177,43.6534 59.8197,44.4524 L59.8197,44.4524 L59.8257049,47.4524 C59.8267,47.8384 59.6757,48.2034 59.4027,48.4774 C59.1297,48.7524 58.7657,48.9044 58.3787,48.9054 L58.3787,48.9054 L28.5577,48.9664 C28.1667,48.9664 27.8047,48.8174 27.5317,48.5444 C27.2557,48.2714 27.1047,47.9074 27.1037,47.5194 L27.1037,47.5194 L27.0976988,44.5194 C27.0967,43.7204 27.7447,43.0694 28.5437,43.0664 L28.5437,43.0664 L58.3667,43.0044 Z M49.8198,31.3025 C50.2048,31.3025 50.5678,31.4525 50.8408,31.7245 C51.1158,31.9975 51.2678,32.3625 51.2688,32.7495 L51.2688,32.7495 L51.2748012,35.7495 C51.2758,36.5485 50.6268,37.2005 49.8278,37.2035 L49.8278,37.2035 L20.0058,37.2635 C19.6168,37.2635 19.2538,37.1135 18.9798,36.8405 C18.7048,36.5675 18.5538,36.2035 18.5528,35.8165 L18.5528,35.8165 L18.546795,32.8165 C18.5458,32.4285 18.6958,32.0645 18.9698,31.7895 C19.2428,31.5155 19.6078,31.3645 19.9938,31.3635 L19.9938,31.3635 L49.8158,31.3025 Z" id="Combined-Shape" fill="#E06375"></path>
            <path d="M217.5522,17.4496 C222.6082,17.4496 227.0112,20.2996 228.8182,24.4836 C228.8892,24.6486 228.7622,24.8356 228.5832,24.8356 L228.5832,24.8356 L223.2772,24.8356 C222.9842,24.8356 222.7142,24.6986 222.5192,24.4806 C221.2652,23.0736 219.4562,22.1976 217.4712,22.1976 C212.7312,22.1976 209.2922,26.1396 209.2922,31.5716 C209.2922,36.9156 212.8772,40.9466 217.6312,40.9466 C219.7072,40.9466 221.5272,40.1096 222.7812,38.7336 C222.9762,38.5196 223.2422,38.3866 223.5322,38.3866 L223.5322,38.3866 L228.6582,38.3866 C228.8392,38.3866 228.9662,38.5766 228.8912,38.7416 C227.0072,42.9416 222.6652,45.7726 217.6312,45.7726 C209.9102,45.7726 204.3052,39.8336 204.3052,31.6516 C204.3052,23.4226 209.8772,17.4496 217.5522,17.4496 Z M131.1352,17.9271 C131.2722,17.9271 131.3852,18.0401 131.3852,18.1771 L131.3852,18.1771 L131.3852,22.2651 C131.3852,22.4031 131.2722,22.5151 131.1352,22.5151 L131.1352,22.5151 L116.7412,22.5151 C116.6022,22.5151 116.4912,22.6281 116.4912,22.7651 L116.4912,22.7651 L116.4912,28.2381 C116.4912,28.7901 116.9382,29.2381 117.4912,29.2381 L117.4912,29.2381 L129.0642,29.2381 C129.2022,29.2381 129.3142,29.3491 129.3142,29.4881 L129.3142,29.4881 L129.3142,33.6151 C129.3142,33.7531 129.2022,33.8651 129.0642,33.8651 L129.0642,33.8651 L117.4912,33.8651 C116.9382,33.8651 116.4912,34.3121 116.4912,34.8651 L116.4912,34.8651 L116.4912,40.3781 C116.4912,40.5151 116.6022,40.6281 116.7412,40.6281 L116.7412,40.6281 L131.2942,40.6281 C131.4312,40.6281 131.5442,40.7401 131.5442,40.8781 L131.5442,40.8781 L131.5442,45.0451 C131.5442,45.1821 131.4312,45.2951 131.2942,45.2951 L131.2942,45.2951 L111.9932,45.2951 C111.8542,45.2951 111.7432,45.1821 111.7432,45.0451 L111.7432,45.0451 L111.7432,18.1771 C111.7432,18.0401 111.8542,17.9271 111.9932,17.9271 L111.9932,17.9271 Z M154.4757,17.9278 C154.6137,17.9278 154.7257,18.0398 154.7257,18.1778 L154.7257,18.1778 L154.7257,22.2658 C154.7257,22.4028 154.6137,22.5158 154.4757,22.5158 L154.4757,22.5158 L140.7177,22.5158 C140.5787,22.5158 140.4677,22.6278 140.4677,22.7658 L140.4677,22.7658 L140.4677,28.8348 C140.4677,29.3878 140.9147,29.8348 141.4677,29.8348 L141.4677,29.8348 L152.7237,29.8348 C152.8617,29.8348 152.9737,29.9468 152.9737,30.0848 L152.9737,30.0848 L152.9737,34.2528 C152.9737,34.3908 152.8617,34.5028 152.7237,34.5028 L152.7237,34.5028 L141.4677,34.5028 C140.9147,34.5028 140.4677,34.9498 140.4677,35.5028 L140.4677,35.5028 L140.4677,45.0448 C140.4677,45.1828 140.3557,45.2948 140.2177,45.2948 L140.2177,45.2948 L135.9707,45.2948 C135.8317,45.2948 135.7207,45.1828 135.7207,45.0448 L135.7207,45.0448 L135.7207,18.1778 C135.7207,18.0398 135.8317,17.9278 135.9707,17.9278 L135.9707,17.9278 Z M177.1779,17.9278 C177.3159,17.9278 177.4279,18.0398 177.4279,18.1778 L177.4279,18.1778 L177.4279,22.2658 C177.4279,22.4028 177.3159,22.5158 177.1779,22.5158 L177.1779,22.5158 L163.4209,22.5158 C163.2819,22.5158 163.1709,22.6278 163.1709,22.7658 L163.1709,22.7658 L163.1709,28.8348 C163.1709,29.3878 163.6179,29.8348 164.1709,29.8348 L164.1709,29.8348 L175.4259,29.8348 C175.5639,29.8348 175.6759,29.9468 175.6759,30.0848 L175.6759,30.0848 L175.6759,34.2528 C175.6759,34.3908 175.5639,34.5028 175.4259,34.5028 L175.4259,34.5028 L164.1709,34.5028 C163.6179,34.5028 163.1709,34.9498 163.1709,35.5028 L163.1709,35.5028 L163.1709,45.0448 C163.1709,45.1828 163.0589,45.2948 162.9209,45.2948 L162.9209,45.2948 L158.6729,45.2948 C158.5339,45.2948 158.4229,45.1828 158.4229,45.0448 L158.4229,45.0448 L158.4229,18.1778 C158.4229,18.0398 158.5339,17.9278 158.6729,17.9278 L158.6729,17.9278 Z M200.517,17.9271 C200.654,17.9271 200.767,18.0401 200.767,18.1771 L200.767,18.1771 L200.767,22.2651 C200.767,22.4031 200.654,22.5151 200.517,22.5151 L200.517,22.5151 L186.123,22.5151 C185.984,22.5151 185.873,22.6281 185.873,22.7651 L185.873,22.7651 L185.873,28.2381 C185.873,28.7901 186.32,29.2381 186.873,29.2381 L186.873,29.2381 L198.446,29.2381 C198.584,29.2381 198.696,29.3491 198.696,29.4881 L198.696,29.4881 L198.696,33.6151 C198.696,33.7531 198.584,33.8651 198.446,33.8651 L198.446,33.8651 L186.873,33.8651 C186.32,33.8651 185.873,34.3121 185.873,34.8651 L185.873,34.8651 L185.873,40.3781 C185.873,40.5151 185.984,40.6281 186.123,40.6281 L186.123,40.6281 L200.676,40.6281 C200.813,40.6281 200.926,40.7401 200.926,40.8781 L200.926,40.8781 L200.926,45.0451 C200.926,45.1821 200.813,45.2951 200.676,45.2951 L200.676,45.2951 L181.375,45.2951 C181.236,45.2951 181.125,45.1821 181.125,45.0451 L181.125,45.0451 L181.125,18.1771 C181.125,18.0401 181.236,17.9271 181.375,17.9271 L181.375,17.9271 Z M255.083,17.9276 C255.221,17.9276 255.333,18.0396 255.333,18.1776 L255.333,18.1776 L255.333,22.3456 C255.333,22.4836 255.221,22.5956 255.083,22.5956 L255.083,22.5956 L246.935,22.5956 C246.382,22.5956 245.935,23.0426 245.935,23.5956 L245.935,23.5956 L245.935,45.0446 C245.935,45.1826 245.822,45.2946 245.685,45.2946 L245.685,45.2946 L241.437,45.2946 C241.298,45.2946 241.187,45.1826 241.187,45.0446 L241.187,45.0446 L241.187,23.5956 C241.187,23.0426 240.738,22.5956 240.187,22.5956 L240.187,22.5956 L231.959,22.5956 C231.82,22.5956 231.709,22.4836 231.709,22.3456 L231.709,22.3456 L231.709,18.1776 C231.709,18.0396 231.82,17.9276 231.959,17.9276 L231.959,17.9276 Z" id="Combined-Shape" fill="#2A3039"></path>
        </g>
    </g>
</svg>